<?xml version="1.0" encoding="UTF-8" standalone="no"?><svg xmlns="http://www.w3.org/2000/svg" xmlns:xlink="http://www.w3.org/1999/xlink" contentStyleType="text/css" height="570px" preserveAspectRatio="none" style="width:1128px;height:570px;background:#FFFFFF;" version="1.1" viewBox="0 0 1128 570" width="1128px" zoomAndPan="magnify"><defs/><g><rect fill="none" height="27.6094" id="_title" style="stroke:none;stroke-width:1.0;" width="157" x="487.75" y="10"/><text fill="#000000" font-family="sans-serif" font-size="14" font-weight="bold" lengthAdjust="spacing" textLength="147" x="492.75" y="29.5332">Lvl 3 - List Deliveries</text><rect fill="#FFFFFF" height="338.8672" style="stroke:#181818;stroke-width:1.0;" width="10" x="69.5" y="131.2188"/><rect fill="#FFFFFF" height="316.5156" style="stroke:#181818;stroke-width:1.0;" width="10" x="313.5" y="153.5703"/><rect fill="#FFFFFF" height="255.8125" style="stroke:#181818;stroke-width:1.0;" width="10" x="497.5" y="183.9219"/><rect fill="#FFFFFF" height="195.1094" style="stroke:#181818;stroke-width:1.0;" width="10" x="674.5" y="214.2734"/><rect fill="#FFFFFF" height="30.3516" style="stroke:#181818;stroke-width:1.0;" width="10" x="836.5" y="244.625"/><rect fill="#FFFFFF" height="73.7031" style="stroke:#181818;stroke-width:1.0;" width="10" x="998.5" y="305.3281"/><line style="stroke:#181818;stroke-width:0.5;stroke-dasharray:5.0,5.0;" x1="74" x2="74" y1="121.2188" y2="488.0859"/><line style="stroke:#181818;stroke-width:0.5;stroke-dasharray:5.0,5.0;" x1="318.5" x2="318.5" y1="121.2188" y2="488.0859"/><line style="stroke:#181818;stroke-width:0.5;stroke-dasharray:5.0,5.0;" x1="502.5" x2="502.5" y1="121.2188" y2="488.0859"/><line style="stroke:#181818;stroke-width:0.5;stroke-dasharray:5.0,5.0;" x1="679.5" x2="679.5" y1="121.2188" y2="488.0859"/><line style="stroke:#181818;stroke-width:0.5;stroke-dasharray:5.0,5.0;" x1="841.5" x2="841.5" y1="121.2188" y2="488.0859"/><line style="stroke:#181818;stroke-width:0.5;stroke-dasharray:5.0,5.0;" x1="1003.5" x2="1003.5" y1="121.2188" y2="488.0859"/><text fill="#000000" font-family="sans-serif" font-size="14" lengthAdjust="spacing" textLength="133" x="5" y="118.1426">Warehouse Manager</text><ellipse cx="74.5" cy="52.1094" fill="#E2E2F0" rx="8" ry="8" style="stroke:#181818;stroke-width:0.5;"/><path d="M74.5,60.1094 L74.5,87.1094 M61.5,68.1094 L87.5,68.1094 M74.5,87.1094 L61.5,102.1094 M74.5,87.1094 L87.5,102.1094 " fill="none" style="stroke:#181818;stroke-width:0.5;"/><text fill="#000000" font-family="sans-serif" font-size="14" lengthAdjust="spacing" textLength="133" x="5" y="501.6191">Warehouse Manager</text><ellipse cx="74.5" cy="513.1953" fill="#E2E2F0" rx="8" ry="8" style="stroke:#181818;stroke-width:0.5;"/><path d="M74.5,521.1953 L74.5,548.1953 M61.5,529.1953 L87.5,529.1953 M74.5,548.1953 L61.5,563.1953 M74.5,548.1953 L87.5,563.1953 " fill="none" style="stroke:#181818;stroke-width:0.5;"/><rect fill="#E2E2F0" height="49.2188" rx="2.5" ry="2.5" style="stroke:#181818;stroke-width:0.5;" width="152" x="242.5" y="71"/><text fill="#000000" font-family="sans-serif" font-size="14" lengthAdjust="spacing" textLength="134" x="249.5" y="92.5332">&lt;&lt; Container (C4) &gt;&gt;</text><text fill="#000000" font-family="sans-serif" font-size="14" lengthAdjust="spacing" textLength="27" x="307" y="110.1426">SPA</text><rect fill="#E2E2F0" height="49.2188" rx="2.5" ry="2.5" style="stroke:#181818;stroke-width:0.5;" width="152" x="242.5" y="487.0859"/><text fill="#000000" font-family="sans-serif" font-size="14" lengthAdjust="spacing" textLength="134" x="249.5" y="508.6191">&lt;&lt; Container (C4) &gt;&gt;</text><text fill="#000000" font-family="sans-serif" font-size="14" lengthAdjust="spacing" textLength="27" x="307" y="526.2285">SPA</text><rect fill="#E2E2F0" height="49.2188" rx="2.5" ry="2.5" style="stroke:#181818;stroke-width:0.5;" width="152" x="426.5" y="71"/><text fill="#000000" font-family="sans-serif" font-size="14" lengthAdjust="spacing" textLength="134" x="433.5" y="92.5332">&lt;&lt; Container (C4) &gt;&gt;</text><text fill="#000000" font-family="sans-serif" font-size="14" lengthAdjust="spacing" textLength="77" x="466" y="110.1426">:Component</text><rect fill="#E2E2F0" height="49.2188" rx="2.5" ry="2.5" style="stroke:#181818;stroke-width:0.5;" width="152" x="426.5" y="487.0859"/><text fill="#000000" font-family="sans-serif" font-size="14" lengthAdjust="spacing" textLength="134" x="433.5" y="508.6191">&lt;&lt; Container (C4) &gt;&gt;</text><text fill="#000000" font-family="sans-serif" font-size="14" lengthAdjust="spacing" textLength="77" x="466" y="526.2285">:Component</text><rect fill="#E2E2F0" height="49.2188" rx="2.5" ry="2.5" style="stroke:#181818;stroke-width:0.5;" width="152" x="603.5" y="71"/><text fill="#000000" font-family="sans-serif" font-size="14" lengthAdjust="spacing" textLength="134" x="610.5" y="92.5332">&lt;&lt; Container (C4) &gt;&gt;</text><text fill="#000000" font-family="sans-serif" font-size="14" lengthAdjust="spacing" textLength="51" x="656" y="110.1426">:Service</text><rect fill="#E2E2F0" height="49.2188" rx="2.5" ry="2.5" style="stroke:#181818;stroke-width:0.5;" width="152" x="603.5" y="487.0859"/><text fill="#000000" font-family="sans-serif" font-size="14" lengthAdjust="spacing" textLength="134" x="610.5" y="508.6191">&lt;&lt; Container (C4) &gt;&gt;</text><text fill="#000000" font-family="sans-serif" font-size="14" lengthAdjust="spacing" textLength="51" x="656" y="526.2285">:Service</text><rect fill="#E2E2F0" height="49.2188" rx="2.5" ry="2.5" style="stroke:#181818;stroke-width:0.5;" width="152" x="765.5" y="71"/><text fill="#000000" font-family="sans-serif" font-size="14" lengthAdjust="spacing" textLength="134" x="772.5" y="92.5332">&lt;&lt; Container (C4) &gt;&gt;</text><text fill="#000000" font-family="sans-serif" font-size="14" lengthAdjust="spacing" textLength="85" x="801" y="110.1426">:DeliveryDTO</text><rect fill="#E2E2F0" height="49.2188" rx="2.5" ry="2.5" style="stroke:#181818;stroke-width:0.5;" width="152" x="765.5" y="487.0859"/><text fill="#000000" font-family="sans-serif" font-size="14" lengthAdjust="spacing" textLength="134" x="772.5" y="508.6191">&lt;&lt; Container (C4) &gt;&gt;</text><text fill="#000000" font-family="sans-serif" font-size="14" lengthAdjust="spacing" textLength="85" x="801" y="526.2285">:DeliveryDTO</text><rect fill="#E2E2F0" height="49.2188" rx="2.5" ry="2.5" style="stroke:#181818;stroke-width:0.5;" width="152" x="927.5" y="71"/><text fill="#000000" font-family="sans-serif" font-size="14" lengthAdjust="spacing" textLength="134" x="934.5" y="92.5332">&lt;&lt; Container (C4) &gt;&gt;</text><text fill="#000000" font-family="sans-serif" font-size="14" lengthAdjust="spacing" textLength="119" x="946" y="110.1426">WarehouseModule</text><rect fill="#E2E2F0" height="49.2188" rx="2.5" ry="2.5" style="stroke:#181818;stroke-width:0.5;" width="152" x="927.5" y="487.0859"/><text fill="#000000" font-family="sans-serif" font-size="14" lengthAdjust="spacing" textLength="134" x="934.5" y="508.6191">&lt;&lt; Container (C4) &gt;&gt;</text><text fill="#000000" font-family="sans-serif" font-size="14" lengthAdjust="spacing" textLength="119" x="946" y="526.2285">WarehouseModule</text><rect fill="#FFFFFF" height="338.8672" style="stroke:#181818;stroke-width:1.0;" width="10" x="69.5" y="131.2188"/><rect fill="#FFFFFF" height="316.5156" style="stroke:#181818;stroke-width:1.0;" width="10" x="313.5" y="153.5703"/><rect fill="#FFFFFF" height="255.8125" style="stroke:#181818;stroke-width:1.0;" width="10" x="497.5" y="183.9219"/><rect fill="#FFFFFF" height="195.1094" style="stroke:#181818;stroke-width:1.0;" width="10" x="674.5" y="214.2734"/><rect fill="#FFFFFF" height="30.3516" style="stroke:#181818;stroke-width:1.0;" width="10" x="836.5" y="244.625"/><rect fill="#FFFFFF" height="73.7031" style="stroke:#181818;stroke-width:1.0;" width="10" x="998.5" y="305.3281"/><polygon fill="#181818" points="301.5,149.5703,311.5,153.5703,301.5,157.5703,305.5,153.5703" style="stroke:#181818;stroke-width:1.0;"/><line style="stroke:#181818;stroke-width:1.0;" x1="79.5" x2="307.5" y1="153.5703" y2="153.5703"/><text fill="#000000" font-family="sans-serif" font-size="13" font-weight="bold" lengthAdjust="spacing" textLength="7" x="86.5" y="148.7139">1</text><text fill="#000000" font-family="sans-serif" font-size="13" lengthAdjust="spacing" textLength="204" x="97.5" y="148.7139">Selects the option to List Deliveries</text><polygon fill="#181818" points="485.5,179.9219,495.5,183.9219,485.5,187.9219,489.5,183.9219" style="stroke:#181818;stroke-width:1.0;"/><line style="stroke:#181818;stroke-width:1.0;" x1="323.5" x2="491.5" y1="183.9219" y2="183.9219"/><text fill="#000000" font-family="sans-serif" font-size="13" font-weight="bold" lengthAdjust="spacing" textLength="7" x="330.5" y="179.0654">2</text><text fill="#000000" font-family="sans-serif" font-size="13" lengthAdjust="spacing" textLength="80" x="341.5" y="179.0654">listDeliveries()</text><polygon fill="#181818" points="662.5,210.2734,672.5,214.2734,662.5,218.2734,666.5,214.2734" style="stroke:#181818;stroke-width:1.0;"/><line style="stroke:#181818;stroke-width:1.0;" x1="507.5" x2="668.5" y1="214.2734" y2="214.2734"/><text fill="#000000" font-family="sans-serif" font-size="13" font-weight="bold" lengthAdjust="spacing" textLength="7" x="514.5" y="209.417">3</text><text fill="#000000" font-family="sans-serif" font-size="13" lengthAdjust="spacing" textLength="81" x="525.5" y="209.417">getDeliveries()</text><polygon fill="#181818" points="824.5,240.625,834.5,244.625,824.5,248.625,828.5,244.625" style="stroke:#181818;stroke-width:1.0;"/><line style="stroke:#181818;stroke-width:1.0;" x1="684.5" x2="830.5" y1="244.625" y2="244.625"/><text fill="#000000" font-family="sans-serif" font-size="13" font-weight="bold" lengthAdjust="spacing" textLength="7" x="691.5" y="239.7686">4</text><text fill="#000000" font-family="sans-serif" font-size="13" lengthAdjust="spacing" textLength="61" x="702.5" y="239.7686">deliveries()</text><polygon fill="#181818" points="695.5,270.9766,685.5,274.9766,695.5,278.9766,691.5,274.9766" style="stroke:#181818;stroke-width:1.0;"/><line style="stroke:#181818;stroke-width:1.0;" x1="689.5" x2="840.5" y1="274.9766" y2="274.9766"/><text fill="#000000" font-family="sans-serif" font-size="13" font-weight="bold" lengthAdjust="spacing" textLength="7" x="701.5" y="270.1201">5</text><text fill="#000000" font-family="sans-serif" font-size="13" lengthAdjust="spacing" textLength="98" x="712.5" y="270.1201">return deliveries()</text><polygon fill="#181818" points="986.5,301.3281,996.5,305.3281,986.5,309.3281,990.5,305.3281" style="stroke:#181818;stroke-width:1.0;"/><line style="stroke:#181818;stroke-width:1.0;" x1="684.5" x2="992.5" y1="305.3281" y2="305.3281"/><text fill="#000000" font-family="sans-serif" font-size="13" font-weight="bold" lengthAdjust="spacing" textLength="7" x="691.5" y="300.4717">6</text><text fill="#000000" font-family="sans-serif" font-size="13" lengthAdjust="spacing" textLength="108" x="702.5" y="300.4717">GET /api/deliveries</text><line style="stroke:#181818;stroke-width:1.0;" x1="1008.5" x2="1050.5" y1="335.6797" y2="335.6797"/><line style="stroke:#181818;stroke-width:1.0;" x1="1050.5" x2="1050.5" y1="335.6797" y2="348.6797"/><line style="stroke:#181818;stroke-width:1.0;" x1="1009.5" x2="1050.5" y1="348.6797" y2="348.6797"/><polygon fill="#181818" points="1019.5,344.6797,1009.5,348.6797,1019.5,352.6797,1015.5,348.6797" style="stroke:#181818;stroke-width:1.0;"/><text fill="#000000" font-family="sans-serif" font-size="13" font-weight="bold" lengthAdjust="spacing" textLength="7" x="1015.5" y="330.8232">7</text><text fill="#000000" font-family="sans-serif" font-size="13" lengthAdjust="spacing" textLength="95" x="1026.5" y="330.8232">deliveries(JSON)</text><polygon fill="#181818" points="695.5,375.0313,685.5,379.0313,695.5,383.0313,691.5,379.0313" style="stroke:#181818;stroke-width:1.0;"/><line style="stroke:#181818;stroke-width:1.0;stroke-dasharray:2.0,2.0;" x1="689.5" x2="1002.5" y1="379.0313" y2="379.0313"/><text fill="#000000" font-family="sans-serif" font-size="13" font-weight="bold" lengthAdjust="spacing" textLength="7" x="701.5" y="374.1748">8</text><text fill="#000000" font-family="sans-serif" font-size="13" lengthAdjust="spacing" textLength="132" x="712.5" y="374.1748">return deliveries(JSON)</text><polygon fill="#181818" points="518.5,405.3828,508.5,409.3828,518.5,413.3828,514.5,409.3828" style="stroke:#181818;stroke-width:1.0;"/><line style="stroke:#181818;stroke-width:1.0;stroke-dasharray:2.0,2.0;" x1="512.5" x2="678.5" y1="409.3828" y2="409.3828"/><text fill="#000000" font-family="sans-serif" font-size="13" font-weight="bold" lengthAdjust="spacing" textLength="7" x="524.5" y="404.5264">9</text><text fill="#000000" font-family="sans-serif" font-size="13" lengthAdjust="spacing" textLength="132" x="535.5" y="404.5264">return deliveries(JSON)</text><polygon fill="#181818" points="334.5,435.7344,324.5,439.7344,334.5,443.7344,330.5,439.7344" style="stroke:#181818;stroke-width:1.0;"/><line style="stroke:#181818;stroke-width:1.0;stroke-dasharray:2.0,2.0;" x1="328.5" x2="501.5" y1="439.7344" y2="439.7344"/><text fill="#000000" font-family="sans-serif" font-size="13" font-weight="bold" lengthAdjust="spacing" textLength="14" x="340.5" y="434.8779">10</text><text fill="#000000" font-family="sans-serif" font-size="13" lengthAdjust="spacing" textLength="132" x="358.5" y="434.8779">return deliveries(JSON)</text><polygon fill="#181818" points="85.5,466.0859,75.5,470.0859,85.5,474.0859,81.5,470.0859" style="stroke:#181818;stroke-width:1.0;"/><line style="stroke:#181818;stroke-width:1.0;stroke-dasharray:2.0,2.0;" x1="79.5" x2="317.5" y1="470.0859" y2="470.0859"/><text fill="#000000" font-family="sans-serif" font-size="13" font-weight="bold" lengthAdjust="spacing" textLength="14" x="91.5" y="465.2295">11</text><text fill="#000000" font-family="sans-serif" font-size="13" lengthAdjust="spacing" textLength="183" x="109.5" y="465.2295">Shows the list with all deliveries</text><!--MD5=[1da73f23f4586b2a61c9ba637238c43d]
@startuml US

title Lvl 3 - List Deliveries

autonumber

actor "Warehouse Manager" as WM
participant "<< Container (C4) >> \n SPA" as S
participant "<< Container (C4) >> \n :Component" as C
participant "<< Container (C4) >> \n :Service" as SV
participant "<< Container (C4) >> \n :DeliveryDTO" as DTO
participant "<< Container (C4) >> \n WarehouseModule" as WMD



activate WM
WM -> S : Selects the option to List Deliveries

activate S
S -> C : listDeliveries()
activate C

C -> SV : getDeliveries()
activate SV

SV -> DTO : deliveries()
activate DTO

DTO -> SV : return deliveries()
deactivate DTO

SV -> WMD : GET /api/deliveries
activate WMD

WMD -> WMD : deliveries(JSON)

WMD - -> SV : return deliveries(JSON)
deactivate WMD

SV - -> C : return deliveries(JSON)
deactivate SV

C - -> S : return deliveries(JSON)
deactivate C
S - -> WM : Shows the list with all deliveries
deactivate S

deactivate WM

@enduml

PlantUML version 1.2022.7(Mon Aug 22 18:01:30 WEST 2022)
(GPL source distribution)
Java Runtime: Java(TM) SE Runtime Environment
JVM: Java HotSpot(TM) 64-Bit Server VM
Default Encoding: Cp1252
Language: pt
Country: PT
--></g></svg>