<?xml version="1.0" encoding="UTF-8" standalone="no"?><svg xmlns="http://www.w3.org/2000/svg" xmlns:xlink="http://www.w3.org/1999/xlink" contentStyleType="text/css" height="579px" preserveAspectRatio="none" style="width:1228px;height:579px;background:#FFFFFF;" version="1.1" viewBox="0 0 1228 579" width="1228px" zoomAndPan="magnify"><defs/><g><rect fill="none" height="27.6094" id="_title" style="stroke:none;stroke-width:1.0;" width="153" x="536.5" y="10"/><text fill="#000000" font-family="sans-serif" font-size="14" font-weight="bold" lengthAdjust="spacing" textLength="143" x="541.5" y="29.5332">SD - Edit Warehouse</text><rect fill="#FFFFFF" height="438.5703" style="stroke:#181818;stroke-width:1.0;" width="10" x="243" y="86.2188"/><rect fill="#FFFFFF" height="342.5156" style="stroke:#181818;stroke-width:1.0;" width="10" x="505" y="182.2734"/><rect fill="#FFFFFF" height="238.4609" style="stroke:#181818;stroke-width:1.0;" width="10" x="814" y="255.9766"/><rect fill="#FFFFFF" height="73.7031" style="stroke:#181818;stroke-width:1.0;" width="10" x="1022" y="286.3281"/><rect fill="#FFFFFF" height="30.3516" style="stroke:#181818;stroke-width:1.0;" width="10" x="1174" y="433.7344"/><line style="stroke:#181818;stroke-width:0.5;stroke-dasharray:5.0,5.0;" x1="247.5" x2="247.5" y1="76.2188" y2="542.7891"/><line style="stroke:#181818;stroke-width:0.5;stroke-dasharray:5.0,5.0;" x1="509.5" x2="509.5" y1="76.2188" y2="542.7891"/><line style="stroke:#181818;stroke-width:0.5;stroke-dasharray:5.0,5.0;" x1="819" x2="819" y1="76.2188" y2="542.7891"/><line style="stroke:#181818;stroke-width:0.5;stroke-dasharray:5.0,5.0;" x1="1026.5" x2="1026.5" y1="76.2188" y2="542.7891"/><line style="stroke:#181818;stroke-width:0.5;stroke-dasharray:5.0,5.0;" x1="1179" x2="1179" y1="76.2188" y2="542.7891"/><rect fill="#E2E2F0" height="31.6094" rx="2.5" ry="2.5" style="stroke:#181818;stroke-width:0.5;" width="35" x="230.5" y="43.6094"/><text fill="#000000" font-family="sans-serif" font-size="14" lengthAdjust="spacing" textLength="21" x="237.5" y="65.1426">API</text><rect fill="#E2E2F0" height="31.6094" rx="2.5" ry="2.5" style="stroke:#181818;stroke-width:0.5;" width="35" x="230.5" y="541.7891"/><text fill="#000000" font-family="sans-serif" font-size="14" lengthAdjust="spacing" textLength="21" x="237.5" y="563.3223">API</text><rect fill="#E2E2F0" height="31.6094" rx="2.5" ry="2.5" style="stroke:#181818;stroke-width:0.5;" width="153" x="433.5" y="43.6094"/><text fill="#000000" font-family="sans-serif" font-size="14" lengthAdjust="spacing" textLength="135" x="444.5" y="65.1426">WarehouseController</text><rect fill="#E2E2F0" height="31.6094" rx="2.5" ry="2.5" style="stroke:#181818;stroke-width:0.5;" width="153" x="433.5" y="541.7891"/><text fill="#000000" font-family="sans-serif" font-size="14" lengthAdjust="spacing" textLength="135" x="444.5" y="563.3223">WarehouseController</text><rect fill="#E2E2F0" height="31.6094" rx="2.5" ry="2.5" style="stroke:#181818;stroke-width:0.5;" width="138" x="750" y="43.6094"/><text fill="#000000" font-family="sans-serif" font-size="14" lengthAdjust="spacing" textLength="124" x="757" y="65.1426">Warehouse Service</text><rect fill="#E2E2F0" height="31.6094" rx="2.5" ry="2.5" style="stroke:#181818;stroke-width:0.5;" width="138" x="750" y="541.7891"/><text fill="#000000" font-family="sans-serif" font-size="14" lengthAdjust="spacing" textLength="124" x="757" y="563.3223">Warehouse Service</text><rect fill="#E2E2F0" height="31.6094" rx="2.5" ry="2.5" style="stroke:#181818;stroke-width:0.5;" width="155" x="949.5" y="43.6094"/><text fill="#000000" font-family="sans-serif" font-size="14" lengthAdjust="spacing" textLength="141" x="956.5" y="65.1426">WarehouseRepository</text><rect fill="#E2E2F0" height="31.6094" rx="2.5" ry="2.5" style="stroke:#181818;stroke-width:0.5;" width="155" x="949.5" y="541.7891"/><text fill="#000000" font-family="sans-serif" font-size="14" lengthAdjust="spacing" textLength="141" x="956.5" y="563.3223">WarehouseRepository</text><rect fill="#E2E2F0" height="31.6094" rx="2.5" ry="2.5" style="stroke:#181818;stroke-width:0.5;" width="86" x="1136" y="43.6094"/><text fill="#000000" font-family="sans-serif" font-size="14" lengthAdjust="spacing" textLength="72" x="1143" y="65.1426">UnitOfWork</text><rect fill="#E2E2F0" height="31.6094" rx="2.5" ry="2.5" style="stroke:#181818;stroke-width:0.5;" width="86" x="1136" y="541.7891"/><text fill="#000000" font-family="sans-serif" font-size="14" lengthAdjust="spacing" textLength="72" x="1143" y="563.3223">UnitOfWork</text><rect fill="#FFFFFF" height="438.5703" style="stroke:#181818;stroke-width:1.0;" width="10" x="243" y="86.2188"/><rect fill="#FFFFFF" height="342.5156" style="stroke:#181818;stroke-width:1.0;" width="10" x="505" y="182.2734"/><rect fill="#FFFFFF" height="238.4609" style="stroke:#181818;stroke-width:1.0;" width="10" x="814" y="255.9766"/><rect fill="#FFFFFF" height="73.7031" style="stroke:#181818;stroke-width:1.0;" width="10" x="1022" y="286.3281"/><rect fill="#FFFFFF" height="30.3516" style="stroke:#181818;stroke-width:1.0;" width="10" x="1174" y="433.7344"/><polygon fill="#181818" points="231,104.5703,241,108.5703,231,112.5703,235,108.5703" style="stroke:#181818;stroke-width:1.0;"/><line style="stroke:#181818;stroke-width:1.0;" x1="0" x2="237" y1="108.5703" y2="108.5703"/><text fill="#000000" font-family="sans-serif" font-size="13" font-weight="bold" lengthAdjust="spacing" textLength="7" x="7" y="103.7139">1</text><text fill="#000000" font-family="sans-serif" font-size="13" lengthAdjust="spacing" textLength="213" x="18" y="103.7139">PUT (warehouse_id, warehouse_info)</text><line style="stroke:#181818;stroke-width:1.0;" x1="253" x2="295" y1="138.9219" y2="138.9219"/><line style="stroke:#181818;stroke-width:1.0;" x1="295" x2="295" y1="138.9219" y2="151.9219"/><line style="stroke:#181818;stroke-width:1.0;" x1="254" x2="295" y1="151.9219" y2="151.9219"/><polygon fill="#181818" points="264,147.9219,254,151.9219,264,155.9219,260,151.9219" style="stroke:#181818;stroke-width:1.0;"/><text fill="#000000" font-family="sans-serif" font-size="13" font-weight="bold" lengthAdjust="spacing" textLength="7" x="260" y="134.0654">2</text><text fill="#000000" font-family="sans-serif" font-size="13" lengthAdjust="spacing" textLength="207" x="271" y="134.0654">new WarehouseDto(warehouse info)</text><polygon fill="#181818" points="493,178.2734,503,182.2734,493,186.2734,497,182.2734" style="stroke:#181818;stroke-width:1.0;"/><line style="stroke:#181818;stroke-width:1.0;" x1="253" x2="499" y1="182.2734" y2="182.2734"/><text fill="#000000" font-family="sans-serif" font-size="13" font-weight="bold" lengthAdjust="spacing" textLength="7" x="260" y="177.417">3</text><text fill="#000000" font-family="sans-serif" font-size="13" lengthAdjust="spacing" textLength="222" x="271" y="177.417">Update(warehouse_id, WarehouseDto)</text><line style="stroke:#181818;stroke-width:1.0;" x1="515" x2="557" y1="212.625" y2="212.625"/><line style="stroke:#181818;stroke-width:1.0;" x1="557" x2="557" y1="212.625" y2="225.625"/><line style="stroke:#181818;stroke-width:1.0;" x1="516" x2="557" y1="225.625" y2="225.625"/><polygon fill="#181818" points="526,221.625,516,225.625,526,229.625,522,225.625" style="stroke:#181818;stroke-width:1.0;"/><text fill="#000000" font-family="sans-serif" font-size="13" font-weight="bold" lengthAdjust="spacing" textLength="7" x="522" y="207.7686">4</text><text fill="#000000" font-family="sans-serif" font-size="13" lengthAdjust="spacing" textLength="274" x="533" y="207.7686">Compares (warehouse_id == WarehouseDto.Id)</text><polygon fill="#181818" points="802,251.9766,812,255.9766,802,259.9766,806,255.9766" style="stroke:#181818;stroke-width:1.0;"/><line style="stroke:#181818;stroke-width:1.0;" x1="515" x2="808" y1="255.9766" y2="255.9766"/><text fill="#000000" font-family="sans-serif" font-size="13" font-weight="bold" lengthAdjust="spacing" textLength="7" x="522" y="251.1201">5</text><text fill="#000000" font-family="sans-serif" font-size="13" lengthAdjust="spacing" textLength="172" x="533" y="251.1201">UpdateAsync(WarehouseDto)</text><polygon fill="#181818" points="1010,282.3281,1020,286.3281,1010,290.3281,1014,286.3281" style="stroke:#181818;stroke-width:1.0;"/><line style="stroke:#181818;stroke-width:1.0;" x1="824" x2="1016" y1="286.3281" y2="286.3281"/><text fill="#000000" font-family="sans-serif" font-size="13" font-weight="bold" lengthAdjust="spacing" textLength="7" x="831" y="281.4717">6</text><text fill="#000000" font-family="sans-serif" font-size="13" lengthAdjust="spacing" textLength="168" x="842" y="281.4717">GetByIdAsync(WarehouseId)</text><line style="stroke:#181818;stroke-width:1.0;" x1="1032" x2="1074" y1="316.6797" y2="316.6797"/><line style="stroke:#181818;stroke-width:1.0;" x1="1074" x2="1074" y1="316.6797" y2="329.6797"/><line style="stroke:#181818;stroke-width:1.0;" x1="1033" x2="1074" y1="329.6797" y2="329.6797"/><polygon fill="#181818" points="1043,325.6797,1033,329.6797,1043,333.6797,1039,329.6797" style="stroke:#181818;stroke-width:1.0;"/><text fill="#000000" font-family="sans-serif" font-size="13" font-weight="bold" lengthAdjust="spacing" textLength="7" x="1039" y="311.8232">7</text><text fill="#000000" font-family="sans-serif" font-size="13" lengthAdjust="spacing" textLength="117" x="1050" y="311.8232">Fetch(WarehouseId)</text><polygon fill="#181818" points="835,356.0313,825,360.0313,835,364.0313,831,360.0313" style="stroke:#181818;stroke-width:1.0;"/><line style="stroke:#181818;stroke-width:1.0;stroke-dasharray:2.0,2.0;" x1="829" x2="1026" y1="360.0313" y2="360.0313"/><text fill="#000000" font-family="sans-serif" font-size="13" font-weight="bold" lengthAdjust="spacing" textLength="7" x="841" y="355.1748">8</text><text fill="#000000" font-family="sans-serif" font-size="13" lengthAdjust="spacing" textLength="86" x="852" y="355.1748">OldWarehouse</text><line style="stroke:#181818;stroke-width:1.0;" x1="824" x2="866" y1="390.3828" y2="390.3828"/><line style="stroke:#181818;stroke-width:1.0;" x1="866" x2="866" y1="390.3828" y2="403.3828"/><line style="stroke:#181818;stroke-width:1.0;" x1="825" x2="866" y1="403.3828" y2="403.3828"/><polygon fill="#181818" points="835,399.3828,825,403.3828,835,407.3828,831,403.3828" style="stroke:#181818;stroke-width:1.0;"/><text fill="#000000" font-family="sans-serif" font-size="13" font-weight="bold" lengthAdjust="spacing" textLength="7" x="831" y="385.5264">9</text><text fill="#000000" font-family="sans-serif" font-size="13" lengthAdjust="spacing" textLength="163" x="842" y="385.5264">Edits warehouse information</text><polygon fill="#181818" points="1162,429.7344,1172,433.7344,1162,437.7344,1166,433.7344" style="stroke:#181818;stroke-width:1.0;"/><line style="stroke:#181818;stroke-width:1.0;" x1="824" x2="1168" y1="433.7344" y2="433.7344"/><text fill="#000000" font-family="sans-serif" font-size="13" font-weight="bold" lengthAdjust="spacing" textLength="14" x="831" y="428.8779">10</text><text fill="#000000" font-family="sans-serif" font-size="13" lengthAdjust="spacing" textLength="82" x="849" y="428.8779">CommitAsync</text><polygon fill="#181818" points="835,460.0859,825,464.0859,835,468.0859,831,464.0859" style="stroke:#181818;stroke-width:1.0;"/><line style="stroke:#181818;stroke-width:1.0;stroke-dasharray:2.0,2.0;" x1="829" x2="1178" y1="464.0859" y2="464.0859"/><text fill="#000000" font-family="sans-serif" font-size="13" font-weight="bold" lengthAdjust="spacing" textLength="14" x="841" y="459.2295">11</text><text fill="#000000" font-family="sans-serif" font-size="13" lengthAdjust="spacing" textLength="4" x="859" y="459.2295"> </text><polygon fill="#181818" points="526,490.4375,516,494.4375,526,498.4375,522,494.4375" style="stroke:#181818;stroke-width:1.0;"/><line style="stroke:#181818;stroke-width:1.0;stroke-dasharray:2.0,2.0;" x1="520" x2="818" y1="494.4375" y2="494.4375"/><text fill="#000000" font-family="sans-serif" font-size="13" font-weight="bold" lengthAdjust="spacing" textLength="14" x="532" y="489.5811">12</text><text fill="#000000" font-family="sans-serif" font-size="13" lengthAdjust="spacing" textLength="185" x="550" y="489.5811">NewWarehouse(WarehouseDto)</text><polygon fill="#181818" points="259,520.7891,249,524.7891,259,528.7891,255,524.7891" style="stroke:#181818;stroke-width:1.0;"/><line style="stroke:#181818;stroke-width:1.0;stroke-dasharray:2.0,2.0;" x1="253" x2="509" y1="524.7891" y2="524.7891"/><text fill="#000000" font-family="sans-serif" font-size="13" font-weight="bold" lengthAdjust="spacing" textLength="14" x="265" y="519.9326">13</text><text fill="#000000" font-family="sans-serif" font-size="13" lengthAdjust="spacing" textLength="117" x="283" y="519.9326">Response Code 200</text><!--MD5=[ffdc5a2ae846709ae131896d3dd67b3a]
@startuml USA03_3

title SD - Edit Warehouse

autonumber

participant "API" as API
participant " WarehouseController" as C
participant "Warehouse Service" as S
participant "WarehouseRepository" as R
participant "UnitOfWork" as U

activate API
-> API : PUT (warehouse_id, warehouse_info)
API -> API : new WarehouseDto(warehouse info)
API -> C : Update(warehouse_id, WarehouseDto)
activate C
C -> C : Compares (warehouse_id == WarehouseDto.Id)
C -> S : UpdateAsync(WarehouseDto)
activate S
S -> R : GetByIdAsync(WarehouseId)
activate R
R -> R : Fetch(WarehouseId)
R - -> S : OldWarehouse
deactivate R
S -> S : Edits warehouse information
S -> U : CommitAsync
activate U
U - -> S
deactivate U
S - -> C : NewWarehouse(WarehouseDto)
deactivate S
C - -> API : Response Code 200
deactivate C
deactivate API
@end

PlantUML version 1.2022.7(Mon Aug 22 18:01:30 WEST 2022)
(GPL source distribution)
Java Runtime: Java(TM) SE Runtime Environment
JVM: Java HotSpot(TM) 64-Bit Server VM
Default Encoding: UTF-8
Language: es
Country: ES
--></g></svg>