<?xml version="1.0" encoding="UTF-8" standalone="no"?><svg xmlns="http://www.w3.org/2000/svg" xmlns:xlink="http://www.w3.org/1999/xlink" contentStyleType="text/css" height="648px" preserveAspectRatio="none" style="width:807px;height:648px;background:#FFFFFF;" version="1.1" viewBox="0 0 807 648" width="807px" zoomAndPan="magnify"><defs/><g><rect fill="none" height="27.6094" id="_title" style="stroke:none;stroke-width:1.0;" width="153" x="329.25" y="10"/><text fill="#000000" font-family="sans-serif" font-size="14" font-weight="bold" lengthAdjust="spacing" textLength="143" x="334.25" y="29.5332">SD - Edit Warehouse</text><rect fill="#FFFFFF" height="382.2188" style="stroke:#181818;stroke-width:1.0;" width="10" x="69.5" y="148.8281"/><rect fill="#FFFFFF" height="30.3516" style="stroke:#181818;stroke-width:1.0;" width="10" x="406.5" y="171.1797"/><rect fill="#FFFFFF" height="134.4063" style="stroke:#181818;stroke-width:1.0;" width="10" x="406.5" y="231.8828"/><rect fill="#FFFFFF" height="134.4063" style="stroke:#181818;stroke-width:1.0;" width="10" x="406.5" y="396.6406"/><rect fill="#FFFFFF" height="73.7031" style="stroke:#181818;stroke-width:1.0;" width="10" x="597.5" y="262.2344"/><rect fill="#FFFFFF" height="73.7031" style="stroke:#181818;stroke-width:1.0;" width="10" x="597.5" y="426.9922"/><line style="stroke:#181818;stroke-width:0.5;stroke-dasharray:5.0,5.0;" x1="74" x2="74" y1="138.8281" y2="549.0469"/><line style="stroke:#181818;stroke-width:0.5;stroke-dasharray:5.0,5.0;" x1="411.5" x2="411.5" y1="138.8281" y2="549.0469"/><line style="stroke:#181818;stroke-width:0.5;stroke-dasharray:5.0,5.0;" x1="602.5" x2="602.5" y1="138.8281" y2="549.0469"/><text fill="#000000" font-family="sans-serif" font-size="14" lengthAdjust="spacing" textLength="133" x="5" y="135.752">Warehouse Manager</text><ellipse cx="74.5" cy="69.7188" fill="#E2E2F0" rx="8" ry="8" style="stroke:#181818;stroke-width:0.5;"/><path d="M74.5,77.7188 L74.5,104.7188 M61.5,85.7188 L87.5,85.7188 M74.5,104.7188 L61.5,119.7188 M74.5,104.7188 L87.5,119.7188 " fill="none" style="stroke:#181818;stroke-width:0.5;"/><text fill="#000000" font-family="sans-serif" font-size="14" lengthAdjust="spacing" textLength="133" x="5" y="562.5801">Warehouse Manager</text><ellipse cx="74.5" cy="574.1563" fill="#E2E2F0" rx="8" ry="8" style="stroke:#181818;stroke-width:0.5;"/><path d="M74.5,582.1563 L74.5,609.1563 M61.5,590.1563 L87.5,590.1563 M74.5,609.1563 L61.5,624.1563 M74.5,609.1563 L87.5,624.1563 " fill="none" style="stroke:#181818;stroke-width:0.5;"/><text fill="#000000" font-family="sans-serif" font-size="14" lengthAdjust="spacing" textLength="102" x="355.5" y="118.1426">&lt;&lt; Container &gt;&gt;</text><text fill="#000000" font-family="sans-serif" font-size="14" lengthAdjust="spacing" textLength="21" x="400" y="135.752">API</text><ellipse cx="411.5" cy="52.1094" fill="#E2E2F0" rx="8" ry="8" style="stroke:#181818;stroke-width:0.5;"/><path d="M411.5,60.1094 L411.5,87.1094 M398.5,68.1094 L424.5,68.1094 M411.5,87.1094 L398.5,102.1094 M411.5,87.1094 L424.5,102.1094 " fill="none" style="stroke:#181818;stroke-width:0.5;"/><text fill="#000000" font-family="sans-serif" font-size="14" lengthAdjust="spacing" textLength="102" x="355.5" y="562.5801">&lt;&lt; Container &gt;&gt;</text><text fill="#000000" font-family="sans-serif" font-size="14" lengthAdjust="spacing" textLength="21" x="400" y="580.1895">API</text><ellipse cx="411.5" cy="591.7656" fill="#E2E2F0" rx="8" ry="8" style="stroke:#181818;stroke-width:0.5;"/><path d="M411.5,599.7656 L411.5,626.7656 M398.5,607.7656 L424.5,607.7656 M411.5,626.7656 L398.5,641.7656 M411.5,626.7656 L424.5,641.7656 " fill="none" style="stroke:#181818;stroke-width:0.5;"/><text fill="#000000" font-family="sans-serif" font-size="14" lengthAdjust="spacing" textLength="102" x="546.5" y="118.1426">&lt;&lt; Container &gt;&gt;</text><text fill="#000000" font-family="sans-serif" font-size="14" lengthAdjust="spacing" textLength="146" x="528.5" y="135.752">WarehouseDataMaster</text><ellipse cx="602.5" cy="52.1094" fill="#E2E2F0" rx="8" ry="8" style="stroke:#181818;stroke-width:0.5;"/><path d="M602.5,60.1094 L602.5,87.1094 M589.5,68.1094 L615.5,68.1094 M602.5,87.1094 L589.5,102.1094 M602.5,87.1094 L615.5,102.1094 " fill="none" style="stroke:#181818;stroke-width:0.5;"/><text fill="#000000" font-family="sans-serif" font-size="14" lengthAdjust="spacing" textLength="102" x="546.5" y="562.5801">&lt;&lt; Container &gt;&gt;</text><text fill="#000000" font-family="sans-serif" font-size="14" lengthAdjust="spacing" textLength="146" x="528.5" y="580.1895">WarehouseDataMaster</text><ellipse cx="602.5" cy="591.7656" fill="#E2E2F0" rx="8" ry="8" style="stroke:#181818;stroke-width:0.5;"/><path d="M602.5,599.7656 L602.5,626.7656 M589.5,607.7656 L615.5,607.7656 M602.5,626.7656 L589.5,641.7656 M602.5,626.7656 L615.5,641.7656 " fill="none" style="stroke:#181818;stroke-width:0.5;"/><rect fill="#FFFFFF" height="382.2188" style="stroke:#181818;stroke-width:1.0;" width="10" x="69.5" y="148.8281"/><rect fill="#FFFFFF" height="30.3516" style="stroke:#181818;stroke-width:1.0;" width="10" x="406.5" y="171.1797"/><rect fill="#FFFFFF" height="134.4063" style="stroke:#181818;stroke-width:1.0;" width="10" x="406.5" y="231.8828"/><rect fill="#FFFFFF" height="134.4063" style="stroke:#181818;stroke-width:1.0;" width="10" x="406.5" y="396.6406"/><rect fill="#FFFFFF" height="73.7031" style="stroke:#181818;stroke-width:1.0;" width="10" x="597.5" y="262.2344"/><rect fill="#FFFFFF" height="73.7031" style="stroke:#181818;stroke-width:1.0;" width="10" x="597.5" y="426.9922"/><polygon fill="#181818" points="394.5,167.1797,404.5,171.1797,394.5,175.1797,398.5,171.1797" style="stroke:#181818;stroke-width:1.0;"/><line style="stroke:#181818;stroke-width:1.0;" x1="79.5" x2="400.5" y1="171.1797" y2="171.1797"/><text fill="#000000" font-family="sans-serif" font-size="13" font-weight="bold" lengthAdjust="spacing" textLength="7" x="86.5" y="166.3232">1</text><text fill="#000000" font-family="sans-serif" font-size="13" lengthAdjust="spacing" textLength="151" x="97.5" y="166.3232">Asks to edit a warehouse.</text><polygon fill="#181818" points="90.5,197.5313,80.5,201.5313,90.5,205.5313,86.5,201.5313" style="stroke:#181818;stroke-width:1.0;"/><line style="stroke:#181818;stroke-width:1.0;stroke-dasharray:2.0,2.0;" x1="84.5" x2="410.5" y1="201.5313" y2="201.5313"/><text fill="#000000" font-family="sans-serif" font-size="13" font-weight="bold" lengthAdjust="spacing" textLength="7" x="96.5" y="196.6748">2</text><text fill="#000000" font-family="sans-serif" font-size="13" lengthAdjust="spacing" textLength="211" x="107.5" y="196.6748">Asks which warehouse wants to edit</text><polygon fill="#181818" points="394.5,227.8828,404.5,231.8828,394.5,235.8828,398.5,231.8828" style="stroke:#181818;stroke-width:1.0;"/><line style="stroke:#181818;stroke-width:1.0;" x1="79.5" x2="400.5" y1="231.8828" y2="231.8828"/><text fill="#000000" font-family="sans-serif" font-size="13" font-weight="bold" lengthAdjust="spacing" textLength="7" x="86.5" y="227.0264">3</text><text fill="#000000" font-family="sans-serif" font-size="13" lengthAdjust="spacing" textLength="143" x="97.5" y="227.0264">Inserts the warehouse ID</text><polygon fill="#181818" points="585.5,258.2344,595.5,262.2344,585.5,266.2344,589.5,262.2344" style="stroke:#181818;stroke-width:1.0;"/><line style="stroke:#181818;stroke-width:1.0;" x1="416.5" x2="591.5" y1="262.2344" y2="262.2344"/><text fill="#000000" font-family="sans-serif" font-size="13" font-weight="bold" lengthAdjust="spacing" textLength="7" x="423.5" y="257.3779">4</text><text fill="#000000" font-family="sans-serif" font-size="13" lengthAdjust="spacing" textLength="111" x="434.5" y="257.3779">PUT /warehouse ID</text><line style="stroke:#181818;stroke-width:1.0;" x1="607.5" x2="649.5" y1="292.5859" y2="292.5859"/><line style="stroke:#181818;stroke-width:1.0;" x1="649.5" x2="649.5" y1="292.5859" y2="305.5859"/><line style="stroke:#181818;stroke-width:1.0;" x1="608.5" x2="649.5" y1="305.5859" y2="305.5859"/><polygon fill="#181818" points="618.5,301.5859,608.5,305.5859,618.5,309.5859,614.5,305.5859" style="stroke:#181818;stroke-width:1.0;"/><text fill="#000000" font-family="sans-serif" font-size="13" font-weight="bold" lengthAdjust="spacing" textLength="7" x="614.5" y="287.7295">5</text><text fill="#000000" font-family="sans-serif" font-size="13" lengthAdjust="spacing" textLength="175" x="625.5" y="287.7295">UpdateAsync(warehouseData)</text><polygon fill="#181818" points="427.5,331.9375,417.5,335.9375,427.5,339.9375,423.5,335.9375" style="stroke:#181818;stroke-width:1.0;"/><line style="stroke:#181818;stroke-width:1.0;" x1="421.5" x2="601.5" y1="335.9375" y2="335.9375"/><text fill="#000000" font-family="sans-serif" font-size="13" font-weight="bold" lengthAdjust="spacing" textLength="7" x="433.5" y="331.0811">6</text><text fill="#000000" font-family="sans-serif" font-size="13" lengthAdjust="spacing" textLength="146" x="444.5" y="331.0811">warehouse_edited(JSON)</text><polygon fill="#181818" points="90.5,362.2891,80.5,366.2891,90.5,370.2891,86.5,366.2891" style="stroke:#181818;stroke-width:1.0;"/><line style="stroke:#181818;stroke-width:1.0;stroke-dasharray:2.0,2.0;" x1="84.5" x2="410.5" y1="366.2891" y2="366.2891"/><text fill="#000000" font-family="sans-serif" font-size="13" font-weight="bold" lengthAdjust="spacing" textLength="7" x="96.5" y="361.4326">7</text><text fill="#000000" font-family="sans-serif" font-size="13" lengthAdjust="spacing" textLength="262" x="107.5" y="361.4326">Validates the data and requests confirmation.</text><polygon fill="#181818" points="394.5,392.6406,404.5,396.6406,394.5,400.6406,398.5,396.6406" style="stroke:#181818;stroke-width:1.0;"/><line style="stroke:#181818;stroke-width:1.0;" x1="79.5" x2="400.5" y1="396.6406" y2="396.6406"/><text fill="#000000" font-family="sans-serif" font-size="13" font-weight="bold" lengthAdjust="spacing" textLength="7" x="86.5" y="391.7842">8</text><text fill="#000000" font-family="sans-serif" font-size="13" lengthAdjust="spacing" textLength="144" x="97.5" y="391.7842">Confirms the information.</text><polygon fill="#181818" points="585.5,422.9922,595.5,426.9922,585.5,430.9922,589.5,426.9922" style="stroke:#181818;stroke-width:1.0;"/><line style="stroke:#181818;stroke-width:1.0;" x1="416.5" x2="591.5" y1="426.9922" y2="426.9922"/><text fill="#000000" font-family="sans-serif" font-size="13" font-weight="bold" lengthAdjust="spacing" textLength="7" x="423.5" y="422.1357">9</text><text fill="#000000" font-family="sans-serif" font-size="13" lengthAdjust="spacing" textLength="28" x="434.5" y="422.1357">Save</text><line style="stroke:#181818;stroke-width:1.0;" x1="607.5" x2="649.5" y1="457.3438" y2="457.3438"/><line style="stroke:#181818;stroke-width:1.0;" x1="649.5" x2="649.5" y1="457.3438" y2="470.3438"/><line style="stroke:#181818;stroke-width:1.0;" x1="608.5" x2="649.5" y1="470.3438" y2="470.3438"/><polygon fill="#181818" points="618.5,466.3438,608.5,470.3438,618.5,474.3438,614.5,470.3438" style="stroke:#181818;stroke-width:1.0;"/><text fill="#000000" font-family="sans-serif" font-size="13" font-weight="bold" lengthAdjust="spacing" textLength="14" x="614.5" y="452.4873">10</text><text fill="#000000" font-family="sans-serif" font-size="13" lengthAdjust="spacing" textLength="135" x="632.5" y="452.4873">save(edited warehouse)</text><polygon fill="#181818" points="427.5,496.6953,417.5,500.6953,427.5,504.6953,423.5,500.6953" style="stroke:#181818;stroke-width:1.0;"/><line style="stroke:#181818;stroke-width:1.0;" x1="421.5" x2="601.5" y1="500.6953" y2="500.6953"/><text fill="#000000" font-family="sans-serif" font-size="13" font-weight="bold" lengthAdjust="spacing" textLength="14" x="433.5" y="495.8389">11</text><text fill="#000000" font-family="sans-serif" font-size="13" lengthAdjust="spacing" textLength="62" x="451.5" y="495.8389">201 Edited</text><polygon fill="#181818" points="85.5,527.0469,75.5,531.0469,85.5,535.0469,81.5,531.0469" style="stroke:#181818;stroke-width:1.0;"/><line style="stroke:#181818;stroke-width:1.0;stroke-dasharray:2.0,2.0;" x1="79.5" x2="410.5" y1="531.0469" y2="531.0469"/><text fill="#000000" font-family="sans-serif" font-size="13" font-weight="bold" lengthAdjust="spacing" textLength="14" x="91.5" y="526.1904">12</text><text fill="#000000" font-family="sans-serif" font-size="13" lengthAdjust="spacing" textLength="285" x="109.5" y="526.1904">Saves the data and informs of operation success.</text><!--MD5=[2e7de8cfa0378dc20ac5684cef34da4d]
@startuml USA03_2

title SD - Edit Warehouse

autonumber

actor "Warehouse Manager" as FM
actor "<< Container >> \n API" as SYS
actor "<< Container >> \n WarehouseDataMaster" as TDM


activate FM
FM -> SYS : Asks to edit a warehouse.
activate SYS
SYS - -> FM : Asks which warehouse wants to edit
deactivate SYS

FM -> SYS : Inserts the warehouse ID
activate SYS

SYS -> TDM : PUT /warehouse ID
activate TDM

TDM -> TDM : UpdateAsync(warehouseData)

TDM -> SYS : warehouse_edited(JSON)
deactivate TDM

SYS - -> FM : Validates the data and requests confirmation.
deactivate SYS

FM -> SYS : Confirms the information.
activate SYS

SYS -> TDM : Save
activate TDM

TDM -> TDM : save(edited warehouse)

TDM -> SYS : 201 Edited
deactivate TDM

SYS - -> FM : Saves the data and informs of operation success.
deactivate SYS

deactivate FM

@enduml

PlantUML version 1.2022.7(Mon Aug 22 18:01:30 WEST 2022)
(GPL source distribution)
Java Runtime: Java(TM) SE Runtime Environment
JVM: Java HotSpot(TM) 64-Bit Server VM
Default Encoding: UTF-8
Language: es
Country: ES
--></g></svg>