<?xml version="1.0" encoding="UTF-8" standalone="no"?><svg xmlns="http://www.w3.org/2000/svg" xmlns:xlink="http://www.w3.org/1999/xlink" contentStyleType="text/css" height="648px" preserveAspectRatio="none" style="width:766px;height:648px;background:#FFFFFF;" version="1.1" viewBox="0 0 766 648" width="766px" zoomAndPan="magnify"><defs/><g><rect fill="none" height="27.6094" id="_title" style="stroke:none;stroke-width:1.0;" width="149" x="310.75" y="10"/><text fill="#000000" font-family="sans-serif" font-size="14" font-weight="bold" lengthAdjust="spacing" textLength="139" x="315.75" y="29.5332">Lvl 2 - Create Route</text><rect fill="#FFFFFF" height="382.2188" style="stroke:#181818;stroke-width:1.0;" width="10" x="60.5" y="148.8281"/><rect fill="#FFFFFF" height="30.3516" style="stroke:#181818;stroke-width:1.0;" width="10" x="407.5" y="171.1797"/><rect fill="#FFFFFF" height="134.4063" style="stroke:#181818;stroke-width:1.0;" width="10" x="407.5" y="231.8828"/><rect fill="#FFFFFF" height="134.4063" style="stroke:#181818;stroke-width:1.0;" width="10" x="407.5" y="396.6406"/><rect fill="#FFFFFF" height="73.7031" style="stroke:#181818;stroke-width:1.0;" width="10" x="607.5" y="262.2344"/><rect fill="#FFFFFF" height="73.7031" style="stroke:#181818;stroke-width:1.0;" width="10" x="607.5" y="426.9922"/><line style="stroke:#181818;stroke-width:0.5;stroke-dasharray:5.0,5.0;" x1="65" x2="65" y1="138.8281" y2="549.0469"/><line style="stroke:#181818;stroke-width:0.5;stroke-dasharray:5.0,5.0;" x1="412.5" x2="412.5" y1="138.8281" y2="549.0469"/><line style="stroke:#181818;stroke-width:0.5;stroke-dasharray:5.0,5.0;" x1="612.5" x2="612.5" y1="138.8281" y2="549.0469"/><text fill="#000000" font-family="sans-serif" font-size="14" lengthAdjust="spacing" textLength="115" x="5" y="135.752">Logistics Manager</text><ellipse cx="65.5" cy="69.7188" fill="#E2E2F0" rx="8" ry="8" style="stroke:#181818;stroke-width:0.5;"/><path d="M65.5,77.7188 L65.5,104.7188 M52.5,85.7188 L78.5,85.7188 M65.5,104.7188 L52.5,119.7188 M65.5,104.7188 L78.5,119.7188 " fill="none" style="stroke:#181818;stroke-width:0.5;"/><text fill="#000000" font-family="sans-serif" font-size="14" lengthAdjust="spacing" textLength="115" x="5" y="562.5801">Logistics Manager</text><ellipse cx="65.5" cy="574.1563" fill="#E2E2F0" rx="8" ry="8" style="stroke:#181818;stroke-width:0.5;"/><path d="M65.5,582.1563 L65.5,609.1563 M52.5,590.1563 L78.5,590.1563 M65.5,609.1563 L52.5,624.1563 M65.5,609.1563 L78.5,624.1563 " fill="none" style="stroke:#181818;stroke-width:0.5;"/><text fill="#000000" font-family="sans-serif" font-size="14" lengthAdjust="spacing" textLength="102" x="356.5" y="118.1426">&lt;&lt; Container &gt;&gt;</text><text fill="#000000" font-family="sans-serif" font-size="14" lengthAdjust="spacing" textLength="97" x="363" y="135.752">Visual Interface</text><ellipse cx="412.5" cy="52.1094" fill="#E2E2F0" rx="8" ry="8" style="stroke:#181818;stroke-width:0.5;"/><path d="M412.5,60.1094 L412.5,87.1094 M399.5,68.1094 L425.5,68.1094 M412.5,87.1094 L399.5,102.1094 M412.5,87.1094 L425.5,102.1094 " fill="none" style="stroke:#181818;stroke-width:0.5;"/><text fill="#000000" font-family="sans-serif" font-size="14" lengthAdjust="spacing" textLength="102" x="356.5" y="562.5801">&lt;&lt; Container &gt;&gt;</text><text fill="#000000" font-family="sans-serif" font-size="14" lengthAdjust="spacing" textLength="97" x="363" y="580.1895">Visual Interface</text><ellipse cx="412.5" cy="591.7656" fill="#E2E2F0" rx="8" ry="8" style="stroke:#181818;stroke-width:0.5;"/><path d="M412.5,599.7656 L412.5,626.7656 M399.5,607.7656 L425.5,607.7656 M412.5,626.7656 L399.5,641.7656 M412.5,626.7656 L425.5,641.7656 " fill="none" style="stroke:#181818;stroke-width:0.5;"/><text fill="#000000" font-family="sans-serif" font-size="14" lengthAdjust="spacing" textLength="102" x="556.5" y="118.1426">&lt;&lt; Container &gt;&gt;</text><text fill="#000000" font-family="sans-serif" font-size="14" lengthAdjust="spacing" textLength="55" x="584" y="135.752">Logistics</text><ellipse cx="612.5" cy="52.1094" fill="#E2E2F0" rx="8" ry="8" style="stroke:#181818;stroke-width:0.5;"/><path d="M612.5,60.1094 L612.5,87.1094 M599.5,68.1094 L625.5,68.1094 M612.5,87.1094 L599.5,102.1094 M612.5,87.1094 L625.5,102.1094 " fill="none" style="stroke:#181818;stroke-width:0.5;"/><text fill="#000000" font-family="sans-serif" font-size="14" lengthAdjust="spacing" textLength="102" x="556.5" y="562.5801">&lt;&lt; Container &gt;&gt;</text><text fill="#000000" font-family="sans-serif" font-size="14" lengthAdjust="spacing" textLength="55" x="584" y="580.1895">Logistics</text><ellipse cx="612.5" cy="591.7656" fill="#E2E2F0" rx="8" ry="8" style="stroke:#181818;stroke-width:0.5;"/><path d="M612.5,599.7656 L612.5,626.7656 M599.5,607.7656 L625.5,607.7656 M612.5,626.7656 L599.5,641.7656 M612.5,626.7656 L625.5,641.7656 " fill="none" style="stroke:#181818;stroke-width:0.5;"/><rect fill="#FFFFFF" height="382.2188" style="stroke:#181818;stroke-width:1.0;" width="10" x="60.5" y="148.8281"/><rect fill="#FFFFFF" height="30.3516" style="stroke:#181818;stroke-width:1.0;" width="10" x="407.5" y="171.1797"/><rect fill="#FFFFFF" height="134.4063" style="stroke:#181818;stroke-width:1.0;" width="10" x="407.5" y="231.8828"/><rect fill="#FFFFFF" height="134.4063" style="stroke:#181818;stroke-width:1.0;" width="10" x="407.5" y="396.6406"/><rect fill="#FFFFFF" height="73.7031" style="stroke:#181818;stroke-width:1.0;" width="10" x="607.5" y="262.2344"/><rect fill="#FFFFFF" height="73.7031" style="stroke:#181818;stroke-width:1.0;" width="10" x="607.5" y="426.9922"/><polygon fill="#181818" points="395.5,167.1797,405.5,171.1797,395.5,175.1797,399.5,171.1797" style="stroke:#181818;stroke-width:1.0;"/><line style="stroke:#181818;stroke-width:1.0;" x1="70.5" x2="401.5" y1="171.1797" y2="171.1797"/><text fill="#000000" font-family="sans-serif" font-size="13" font-weight="bold" lengthAdjust="spacing" textLength="7" x="77.5" y="166.3232">1</text><text fill="#000000" font-family="sans-serif" font-size="13" lengthAdjust="spacing" textLength="307" x="88.5" y="166.3232">Asks to create/add a route between two warehouses.</text><polygon fill="#181818" points="81.5,197.5313,71.5,201.5313,81.5,205.5313,77.5,201.5313" style="stroke:#181818;stroke-width:1.0;"/><line style="stroke:#181818;stroke-width:1.0;stroke-dasharray:2.0,2.0;" x1="75.5" x2="411.5" y1="201.5313" y2="201.5313"/><text fill="#000000" font-family="sans-serif" font-size="13" font-weight="bold" lengthAdjust="spacing" textLength="7" x="87.5" y="196.6748">2</text><text fill="#000000" font-family="sans-serif" font-size="13" lengthAdjust="spacing" textLength="170" x="98.5" y="196.6748">Requests the necessary data</text><polygon fill="#181818" points="395.5,227.8828,405.5,231.8828,395.5,235.8828,399.5,231.8828" style="stroke:#181818;stroke-width:1.0;"/><line style="stroke:#181818;stroke-width:1.0;" x1="70.5" x2="401.5" y1="231.8828" y2="231.8828"/><text fill="#000000" font-family="sans-serif" font-size="13" font-weight="bold" lengthAdjust="spacing" textLength="7" x="77.5" y="227.0264">3</text><text fill="#000000" font-family="sans-serif" font-size="13" lengthAdjust="spacing" textLength="155" x="88.5" y="227.0264">Inserts the requested data.</text><polygon fill="#181818" points="595.5,258.2344,605.5,262.2344,595.5,266.2344,599.5,262.2344" style="stroke:#181818;stroke-width:1.0;"/><line style="stroke:#181818;stroke-width:1.0;" x1="417.5" x2="601.5" y1="262.2344" y2="262.2344"/><text fill="#000000" font-family="sans-serif" font-size="13" font-weight="bold" lengthAdjust="spacing" textLength="7" x="424.5" y="257.3779">4</text><text fill="#000000" font-family="sans-serif" font-size="13" lengthAdjust="spacing" textLength="132" x="435.5" y="257.3779">POST /route routeData</text><line style="stroke:#181818;stroke-width:1.0;" x1="617.5" x2="659.5" y1="292.5859" y2="292.5859"/><line style="stroke:#181818;stroke-width:1.0;" x1="659.5" x2="659.5" y1="292.5859" y2="305.5859"/><line style="stroke:#181818;stroke-width:1.0;" x1="618.5" x2="659.5" y1="305.5859" y2="305.5859"/><polygon fill="#181818" points="628.5,301.5859,618.5,305.5859,628.5,309.5859,624.5,305.5859" style="stroke:#181818;stroke-width:1.0;"/><text fill="#000000" font-family="sans-serif" font-size="13" font-weight="bold" lengthAdjust="spacing" textLength="7" x="624.5" y="287.7295">5</text><text fill="#000000" font-family="sans-serif" font-size="13" lengthAdjust="spacing" textLength="124" x="635.5" y="287.7295">AddAsync(routeData)</text><polygon fill="#181818" points="428.5,331.9375,418.5,335.9375,428.5,339.9375,424.5,335.9375" style="stroke:#181818;stroke-width:1.0;"/><line style="stroke:#181818;stroke-width:1.0;" x1="422.5" x2="611.5" y1="335.9375" y2="335.9375"/><text fill="#000000" font-family="sans-serif" font-size="13" font-weight="bold" lengthAdjust="spacing" textLength="7" x="434.5" y="331.0811">6</text><text fill="#000000" font-family="sans-serif" font-size="13" lengthAdjust="spacing" textLength="121" x="445.5" y="331.0811">route_register(JSON)</text><polygon fill="#181818" points="81.5,362.2891,71.5,366.2891,81.5,370.2891,77.5,366.2891" style="stroke:#181818;stroke-width:1.0;"/><line style="stroke:#181818;stroke-width:1.0;stroke-dasharray:2.0,2.0;" x1="75.5" x2="411.5" y1="366.2891" y2="366.2891"/><text fill="#000000" font-family="sans-serif" font-size="13" font-weight="bold" lengthAdjust="spacing" textLength="7" x="87.5" y="361.4326">7</text><text fill="#000000" font-family="sans-serif" font-size="13" lengthAdjust="spacing" textLength="262" x="98.5" y="361.4326">Validates the data and requests confirmation.</text><polygon fill="#181818" points="395.5,392.6406,405.5,396.6406,395.5,400.6406,399.5,396.6406" style="stroke:#181818;stroke-width:1.0;"/><line style="stroke:#181818;stroke-width:1.0;" x1="70.5" x2="401.5" y1="396.6406" y2="396.6406"/><text fill="#000000" font-family="sans-serif" font-size="13" font-weight="bold" lengthAdjust="spacing" textLength="7" x="77.5" y="391.7842">8</text><text fill="#000000" font-family="sans-serif" font-size="13" lengthAdjust="spacing" textLength="144" x="88.5" y="391.7842">Confirms the information.</text><polygon fill="#181818" points="595.5,422.9922,605.5,426.9922,595.5,430.9922,599.5,426.9922" style="stroke:#181818;stroke-width:1.0;"/><line style="stroke:#181818;stroke-width:1.0;" x1="417.5" x2="601.5" y1="426.9922" y2="426.9922"/><text fill="#000000" font-family="sans-serif" font-size="13" font-weight="bold" lengthAdjust="spacing" textLength="7" x="424.5" y="422.1357">9</text><text fill="#000000" font-family="sans-serif" font-size="13" lengthAdjust="spacing" textLength="160" x="435.5" y="422.1357">PUT validate /{option, route}</text><line style="stroke:#181818;stroke-width:1.0;" x1="617.5" x2="659.5" y1="457.3438" y2="457.3438"/><line style="stroke:#181818;stroke-width:1.0;" x1="659.5" x2="659.5" y1="457.3438" y2="470.3438"/><line style="stroke:#181818;stroke-width:1.0;" x1="618.5" x2="659.5" y1="470.3438" y2="470.3438"/><polygon fill="#181818" points="628.5,466.3438,618.5,470.3438,628.5,474.3438,624.5,470.3438" style="stroke:#181818;stroke-width:1.0;"/><text fill="#000000" font-family="sans-serif" font-size="13" font-weight="bold" lengthAdjust="spacing" textLength="14" x="624.5" y="452.4873">10</text><text fill="#000000" font-family="sans-serif" font-size="13" lengthAdjust="spacing" textLength="63" x="642.5" y="452.4873">save(route)</text><polygon fill="#181818" points="428.5,496.6953,418.5,500.6953,428.5,504.6953,424.5,500.6953" style="stroke:#181818;stroke-width:1.0;"/><line style="stroke:#181818;stroke-width:1.0;" x1="422.5" x2="611.5" y1="500.6953" y2="500.6953"/><text fill="#000000" font-family="sans-serif" font-size="13" font-weight="bold" lengthAdjust="spacing" textLength="14" x="434.5" y="495.8389">11</text><text fill="#000000" font-family="sans-serif" font-size="13" lengthAdjust="spacing" textLength="68" x="452.5" y="495.8389">201 created</text><polygon fill="#181818" points="76.5,527.0469,66.5,531.0469,76.5,535.0469,72.5,531.0469" style="stroke:#181818;stroke-width:1.0;"/><line style="stroke:#181818;stroke-width:1.0;stroke-dasharray:2.0,2.0;" x1="70.5" x2="411.5" y1="531.0469" y2="531.0469"/><text fill="#000000" font-family="sans-serif" font-size="13" font-weight="bold" lengthAdjust="spacing" textLength="14" x="82.5" y="526.1904">12</text><text fill="#000000" font-family="sans-serif" font-size="13" lengthAdjust="spacing" textLength="285" x="100.5" y="526.1904">Saves the data and informs of operation success.</text><!--MD5=[6153da4ca0d4ae3b9fd4fc4657b645cb]
@startuml

title Lvl 2 - Create Route

autonumber

actor "Logistics Manager" as FM
actor "<< Container >> \n Visual Interface" as SYS
actor "<< Container >> \n Logistics" as TDM


activate FM
FM -> SYS : Asks to create/add a route between two warehouses.
activate SYS
SYS - -> FM : Requests the necessary data
deactivate SYS

FM -> SYS : Inserts the requested data.
activate SYS

SYS -> TDM : POST /route routeData
activate TDM

TDM -> TDM : AddAsync(routeData)

TDM -> SYS : route_register(JSON)
deactivate TDM

SYS - -> FM : Validates the data and requests confirmation.
deactivate SYS

FM -> SYS : Confirms the information.
activate SYS

SYS -> TDM : PUT validate /{option, route}
activate TDM

TDM -> TDM : save(route)

TDM -> SYS : 201 created
deactivate TDM

SYS - -> FM : Saves the data and informs of operation success.
deactivate SYS

deactivate FM

@enduml

PlantUML version 1.2022.7(Mon Aug 22 18:01:30 BST 2022)
(GPL source distribution)
Java Runtime: Java(TM) SE Runtime Environment
JVM: Java HotSpot(TM) 64-Bit Server VM
Default Encoding: Cp1252
Language: en
Country: GB
--></g></svg>