<?xml version="1.0" encoding="UTF-8" standalone="no"?><svg xmlns="http://www.w3.org/2000/svg" xmlns:xlink="http://www.w3.org/1999/xlink" contentStyleType="text/css" height="475px" preserveAspectRatio="none" style="width:494px;height:475px;background:#FFFFFF;" version="1.1" viewBox="0 0 494 475" width="494px" zoomAndPan="magnify"><defs/><g><rect fill="none" height="27.6094" id="_title" style="stroke:none;stroke-width:1.0;" width="265" x="116.25" y="10"/><text fill="#000000" font-family="sans-serif" font-size="14" font-weight="bold" lengthAdjust="spacing" textLength="255" x="121.25" y="29.5332">View Level 1 - Create/Add Packaging</text><rect fill="#FFFFFF" height="174.1094" style="stroke:#181818;stroke-width:1.0;" width="10" x="60.5" y="166.4375"/><rect fill="#FFFFFF" height="30.3516" style="stroke:#181818;stroke-width:1.0;" width="10" x="423.5" y="188.7891"/><rect fill="#FFFFFF" height="30.3516" style="stroke:#181818;stroke-width:1.0;" width="10" x="423.5" y="249.4922"/><rect fill="#FFFFFF" height="30.3516" style="stroke:#181818;stroke-width:1.0;" width="10" x="423.5" y="310.1953"/><line style="stroke:#181818;stroke-width:0.5;stroke-dasharray:5.0,5.0;" x1="65" x2="65" y1="156.4375" y2="358.5469"/><line style="stroke:#181818;stroke-width:0.5;stroke-dasharray:5.0,5.0;" x1="428.5" x2="428.5" y1="156.4375" y2="358.5469"/><text fill="#000000" font-family="sans-serif" font-size="14" lengthAdjust="spacing" textLength="115" x="5" y="153.3613">Logistics Manager</text><ellipse cx="65.5" cy="87.3281" fill="#E2E2F0" rx="8" ry="8" style="stroke:#181818;stroke-width:0.5;"/><path d="M65.5,95.3281 L65.5,122.3281 M52.5,103.3281 L78.5,103.3281 M65.5,122.3281 L52.5,137.3281 M65.5,122.3281 L78.5,137.3281 " fill="none" style="stroke:#181818;stroke-width:0.5;"/><text fill="#000000" font-family="sans-serif" font-size="14" lengthAdjust="spacing" textLength="115" x="5" y="372.0801">Logistics Manager</text><ellipse cx="65.5" cy="383.6563" fill="#E2E2F0" rx="8" ry="8" style="stroke:#181818;stroke-width:0.5;"/><path d="M65.5,391.6563 L65.5,418.6563 M52.5,399.6563 L78.5,399.6563 M65.5,418.6563 L52.5,433.6563 M65.5,418.6563 L78.5,433.6563 " fill="none" style="stroke:#181818;stroke-width:0.5;"/><text fill="#000000" font-family="sans-serif" font-size="14" lengthAdjust="spacing" textLength="113" x="367" y="118.1426">&lt;&lt; Component &gt;&gt;</text><text fill="#000000" font-family="sans-serif" font-size="14" lengthAdjust="spacing" textLength="116" x="367.5" y="135.752">&lt;&lt; Context(C4) &gt;&gt;</text><text fill="#000000" font-family="sans-serif" font-size="14" lengthAdjust="spacing" textLength="101" x="377" y="153.3613">:Visual Interface</text><ellipse cx="428.5" cy="52.1094" fill="#E2E2F0" rx="8" ry="8" style="stroke:#181818;stroke-width:0.5;"/><path d="M428.5,60.1094 L428.5,87.1094 M415.5,68.1094 L441.5,68.1094 M428.5,87.1094 L415.5,102.1094 M428.5,87.1094 L441.5,102.1094 " fill="none" style="stroke:#181818;stroke-width:0.5;"/><text fill="#000000" font-family="sans-serif" font-size="14" lengthAdjust="spacing" textLength="113" x="367" y="372.0801">&lt;&lt; Component &gt;&gt;</text><text fill="#000000" font-family="sans-serif" font-size="14" lengthAdjust="spacing" textLength="116" x="367.5" y="389.6895">&lt;&lt; Context(C4) &gt;&gt;</text><text fill="#000000" font-family="sans-serif" font-size="14" lengthAdjust="spacing" textLength="101" x="377" y="407.2988">:Visual Interface</text><ellipse cx="428.5" cy="418.875" fill="#E2E2F0" rx="8" ry="8" style="stroke:#181818;stroke-width:0.5;"/><path d="M428.5,426.875 L428.5,453.875 M415.5,434.875 L441.5,434.875 M428.5,453.875 L415.5,468.875 M428.5,453.875 L441.5,468.875 " fill="none" style="stroke:#181818;stroke-width:0.5;"/><rect fill="#FFFFFF" height="174.1094" style="stroke:#181818;stroke-width:1.0;" width="10" x="60.5" y="166.4375"/><rect fill="#FFFFFF" height="30.3516" style="stroke:#181818;stroke-width:1.0;" width="10" x="423.5" y="188.7891"/><rect fill="#FFFFFF" height="30.3516" style="stroke:#181818;stroke-width:1.0;" width="10" x="423.5" y="249.4922"/><rect fill="#FFFFFF" height="30.3516" style="stroke:#181818;stroke-width:1.0;" width="10" x="423.5" y="310.1953"/><polygon fill="#181818" points="411.5,184.7891,421.5,188.7891,411.5,192.7891,415.5,188.7891" style="stroke:#181818;stroke-width:1.0;"/><line style="stroke:#181818;stroke-width:1.0;" x1="70.5" x2="417.5" y1="188.7891" y2="188.7891"/><text fill="#000000" font-family="sans-serif" font-size="13" font-weight="bold" lengthAdjust="spacing" textLength="7" x="77.5" y="183.9326">1</text><text fill="#000000" font-family="sans-serif" font-size="13" lengthAdjust="spacing" textLength="188" x="88.5" y="183.9326">Asks to create/add a packaging.</text><polygon fill="#181818" points="81.5,215.1406,71.5,219.1406,81.5,223.1406,77.5,219.1406" style="stroke:#181818;stroke-width:1.0;"/><line style="stroke:#181818;stroke-width:1.0;stroke-dasharray:2.0,2.0;" x1="75.5" x2="427.5" y1="219.1406" y2="219.1406"/><text fill="#000000" font-family="sans-serif" font-size="13" font-weight="bold" lengthAdjust="spacing" textLength="7" x="87.5" y="214.2842">2</text><text fill="#000000" font-family="sans-serif" font-size="13" lengthAdjust="spacing" textLength="318" x="98.5" y="214.2842">Requests the necessary data abou the new packaging.</text><polygon fill="#181818" points="411.5,245.4922,421.5,249.4922,411.5,253.4922,415.5,249.4922" style="stroke:#181818;stroke-width:1.0;"/><line style="stroke:#181818;stroke-width:1.0;" x1="70.5" x2="417.5" y1="249.4922" y2="249.4922"/><text fill="#000000" font-family="sans-serif" font-size="13" font-weight="bold" lengthAdjust="spacing" textLength="7" x="77.5" y="244.6357">3</text><text fill="#000000" font-family="sans-serif" font-size="13" lengthAdjust="spacing" textLength="155" x="88.5" y="244.6357">Inserts the requested data.</text><polygon fill="#181818" points="81.5,275.8438,71.5,279.8438,81.5,283.8438,77.5,279.8438" style="stroke:#181818;stroke-width:1.0;"/><line style="stroke:#181818;stroke-width:1.0;stroke-dasharray:2.0,2.0;" x1="75.5" x2="427.5" y1="279.8438" y2="279.8438"/><text fill="#000000" font-family="sans-serif" font-size="13" font-weight="bold" lengthAdjust="spacing" textLength="7" x="87.5" y="274.9873">4</text><text fill="#000000" font-family="sans-serif" font-size="13" lengthAdjust="spacing" textLength="262" x="98.5" y="274.9873">Validates the data and requests confirmation.</text><polygon fill="#181818" points="411.5,306.1953,421.5,310.1953,411.5,314.1953,415.5,310.1953" style="stroke:#181818;stroke-width:1.0;"/><line style="stroke:#181818;stroke-width:1.0;" x1="70.5" x2="417.5" y1="310.1953" y2="310.1953"/><text fill="#000000" font-family="sans-serif" font-size="13" font-weight="bold" lengthAdjust="spacing" textLength="7" x="77.5" y="305.3389">5</text><text fill="#000000" font-family="sans-serif" font-size="13" lengthAdjust="spacing" textLength="144" x="88.5" y="305.3389">Confirms the information.</text><polygon fill="#181818" points="76.5,336.5469,66.5,340.5469,76.5,344.5469,72.5,340.5469" style="stroke:#181818;stroke-width:1.0;"/><line style="stroke:#181818;stroke-width:1.0;stroke-dasharray:2.0,2.0;" x1="70.5" x2="427.5" y1="340.5469" y2="340.5469"/><text fill="#000000" font-family="sans-serif" font-size="13" font-weight="bold" lengthAdjust="spacing" textLength="7" x="82.5" y="335.6904">6</text><text fill="#000000" font-family="sans-serif" font-size="13" lengthAdjust="spacing" textLength="285" x="93.5" y="335.6904">Saves the data and informs of operation success.</text><!--MD5=[7bbb02755630dc312e51276ac4713a62]
@startuml

title View Level 1 - Create/Add Packaging

autonumber

actor "Logistics Manager" as LM
actor "<< Component >> \n << Context(C4) >> \n :Visual Interface" as SYS

activate LM
LM -> SYS : Asks to create/add a packaging.
activate SYS
SYS - -> LM : Requests the necessary data abou the new packaging.
deactivate SYS

LM -> SYS : Inserts the requested data.
activate SYS
SYS - -> LM : Validates the data and requests confirmation.
deactivate SYS

LM -> SYS : Confirms the information.
activate SYS
SYS - -> LM : Saves the data and informs of operation success.
deactivate SYS

deactivate LM

@enduml

PlantUML version 1.2022.7(Mon Aug 22 18:01:30 WEST 2022)
(GPL source distribution)
Java Runtime: Java(TM) SE Runtime Environment
JVM: Java HotSpot(TM) 64-Bit Server VM
Default Encoding: Cp1252
Language: pt
Country: PT
--></g></svg>