<?xml version="1.0" encoding="UTF-8" standalone="no"?><svg xmlns="http://www.w3.org/2000/svg" xmlns:xlink="http://www.w3.org/1999/xlink" contentStyleType="text/css" height="648px" preserveAspectRatio="none" style="width:818px;height:648px;background:#FFFFFF;" version="1.1" viewBox="0 0 818 648" width="818px" zoomAndPan="magnify"><defs/><g><rect fill="none" height="27.6094" id="_title" style="stroke:none;stroke-width:1.0;" width="265" x="278.75" y="10"/><text fill="#000000" font-family="sans-serif" font-size="14" font-weight="bold" lengthAdjust="spacing" textLength="255" x="283.75" y="29.5332">View Level 2 - Create/Add Packaging</text><rect fill="#FFFFFF" height="382.2188" style="stroke:#181818;stroke-width:1.0;" width="10" x="60.5" y="148.8281"/><rect fill="#FFFFFF" height="30.3516" style="stroke:#181818;stroke-width:1.0;" width="10" x="397.5" y="171.1797"/><rect fill="#FFFFFF" height="134.4063" style="stroke:#181818;stroke-width:1.0;" width="10" x="397.5" y="231.8828"/><rect fill="#FFFFFF" height="134.4063" style="stroke:#181818;stroke-width:1.0;" width="10" x="397.5" y="396.6406"/><rect fill="#FFFFFF" height="73.7031" style="stroke:#181818;stroke-width:1.0;" width="10" x="629.5" y="262.2344"/><rect fill="#FFFFFF" height="73.7031" style="stroke:#181818;stroke-width:1.0;" width="10" x="629.5" y="426.9922"/><line style="stroke:#181818;stroke-width:0.5;stroke-dasharray:5.0,5.0;" x1="65" x2="65" y1="138.8281" y2="549.0469"/><line style="stroke:#181818;stroke-width:0.5;stroke-dasharray:5.0,5.0;" x1="402.5" x2="402.5" y1="138.8281" y2="549.0469"/><line style="stroke:#181818;stroke-width:0.5;stroke-dasharray:5.0,5.0;" x1="634.5" x2="634.5" y1="138.8281" y2="549.0469"/><text fill="#000000" font-family="sans-serif" font-size="14" lengthAdjust="spacing" textLength="115" x="5" y="135.752">Logistics Manager</text><ellipse cx="65.5" cy="69.7188" fill="#E2E2F0" rx="8" ry="8" style="stroke:#181818;stroke-width:0.5;"/><path d="M65.5,77.7188 L65.5,104.7188 M52.5,85.7188 L78.5,85.7188 M65.5,104.7188 L52.5,119.7188 M65.5,104.7188 L78.5,119.7188 " fill="none" style="stroke:#181818;stroke-width:0.5;"/><text fill="#000000" font-family="sans-serif" font-size="14" lengthAdjust="spacing" textLength="115" x="5" y="562.5801">Logistics Manager</text><ellipse cx="65.5" cy="574.1563" fill="#E2E2F0" rx="8" ry="8" style="stroke:#181818;stroke-width:0.5;"/><path d="M65.5,582.1563 L65.5,609.1563 M52.5,590.1563 L78.5,590.1563 M65.5,609.1563 L52.5,624.1563 M65.5,609.1563 L78.5,624.1563 " fill="none" style="stroke:#181818;stroke-width:0.5;"/><text fill="#000000" font-family="sans-serif" font-size="14" lengthAdjust="spacing" textLength="130" x="332.5" y="118.1426">&lt;&lt; Container (C4)&gt;&gt;</text><text fill="#000000" font-family="sans-serif" font-size="14" lengthAdjust="spacing" textLength="101" x="351" y="135.752">:Visual Interface</text><ellipse cx="402.5" cy="52.1094" fill="#E2E2F0" rx="8" ry="8" style="stroke:#181818;stroke-width:0.5;"/><path d="M402.5,60.1094 L402.5,87.1094 M389.5,68.1094 L415.5,68.1094 M402.5,87.1094 L389.5,102.1094 M402.5,87.1094 L415.5,102.1094 " fill="none" style="stroke:#181818;stroke-width:0.5;"/><text fill="#000000" font-family="sans-serif" font-size="14" lengthAdjust="spacing" textLength="130" x="332.5" y="562.5801">&lt;&lt; Container (C4)&gt;&gt;</text><text fill="#000000" font-family="sans-serif" font-size="14" lengthAdjust="spacing" textLength="101" x="351" y="580.1895">:Visual Interface</text><ellipse cx="402.5" cy="591.7656" fill="#E2E2F0" rx="8" ry="8" style="stroke:#181818;stroke-width:0.5;"/><path d="M402.5,599.7656 L402.5,626.7656 M389.5,607.7656 L415.5,607.7656 M402.5,626.7656 L389.5,641.7656 M402.5,626.7656 L415.5,641.7656 " fill="none" style="stroke:#181818;stroke-width:0.5;"/><text fill="#000000" font-family="sans-serif" font-size="14" lengthAdjust="spacing" textLength="130" x="564.5" y="118.1426">&lt;&lt; Container (C4)&gt;&gt;</text><text fill="#000000" font-family="sans-serif" font-size="14" lengthAdjust="spacing" textLength="59" x="604" y="135.752">:Logistics</text><ellipse cx="634.5" cy="52.1094" fill="#E2E2F0" rx="8" ry="8" style="stroke:#181818;stroke-width:0.5;"/><path d="M634.5,60.1094 L634.5,87.1094 M621.5,68.1094 L647.5,68.1094 M634.5,87.1094 L621.5,102.1094 M634.5,87.1094 L647.5,102.1094 " fill="none" style="stroke:#181818;stroke-width:0.5;"/><text fill="#000000" font-family="sans-serif" font-size="14" lengthAdjust="spacing" textLength="130" x="564.5" y="562.5801">&lt;&lt; Container (C4)&gt;&gt;</text><text fill="#000000" font-family="sans-serif" font-size="14" lengthAdjust="spacing" textLength="59" x="604" y="580.1895">:Logistics</text><ellipse cx="634.5" cy="591.7656" fill="#E2E2F0" rx="8" ry="8" style="stroke:#181818;stroke-width:0.5;"/><path d="M634.5,599.7656 L634.5,626.7656 M621.5,607.7656 L647.5,607.7656 M634.5,626.7656 L621.5,641.7656 M634.5,626.7656 L647.5,641.7656 " fill="none" style="stroke:#181818;stroke-width:0.5;"/><rect fill="#FFFFFF" height="382.2188" style="stroke:#181818;stroke-width:1.0;" width="10" x="60.5" y="148.8281"/><rect fill="#FFFFFF" height="30.3516" style="stroke:#181818;stroke-width:1.0;" width="10" x="397.5" y="171.1797"/><rect fill="#FFFFFF" height="134.4063" style="stroke:#181818;stroke-width:1.0;" width="10" x="397.5" y="231.8828"/><rect fill="#FFFFFF" height="134.4063" style="stroke:#181818;stroke-width:1.0;" width="10" x="397.5" y="396.6406"/><rect fill="#FFFFFF" height="73.7031" style="stroke:#181818;stroke-width:1.0;" width="10" x="629.5" y="262.2344"/><rect fill="#FFFFFF" height="73.7031" style="stroke:#181818;stroke-width:1.0;" width="10" x="629.5" y="426.9922"/><polygon fill="#181818" points="385.5,167.1797,395.5,171.1797,385.5,175.1797,389.5,171.1797" style="stroke:#181818;stroke-width:1.0;"/><line style="stroke:#181818;stroke-width:1.0;" x1="70.5" x2="391.5" y1="171.1797" y2="171.1797"/><text fill="#000000" font-family="sans-serif" font-size="13" font-weight="bold" lengthAdjust="spacing" textLength="7" x="77.5" y="166.3232">1</text><text fill="#000000" font-family="sans-serif" font-size="13" lengthAdjust="spacing" textLength="188" x="88.5" y="166.3232">Asks to create/add a packaging.</text><polygon fill="#181818" points="81.5,197.5313,71.5,201.5313,81.5,205.5313,77.5,201.5313" style="stroke:#181818;stroke-width:1.0;"/><line style="stroke:#181818;stroke-width:1.0;stroke-dasharray:2.0,2.0;" x1="75.5" x2="401.5" y1="201.5313" y2="201.5313"/><text fill="#000000" font-family="sans-serif" font-size="13" font-weight="bold" lengthAdjust="spacing" textLength="7" x="87.5" y="196.6748">2</text><text fill="#000000" font-family="sans-serif" font-size="13" lengthAdjust="spacing" textLength="170" x="98.5" y="196.6748">Requests the necessary data</text><polygon fill="#181818" points="385.5,227.8828,395.5,231.8828,385.5,235.8828,389.5,231.8828" style="stroke:#181818;stroke-width:1.0;"/><line style="stroke:#181818;stroke-width:1.0;" x1="70.5" x2="391.5" y1="231.8828" y2="231.8828"/><text fill="#000000" font-family="sans-serif" font-size="13" font-weight="bold" lengthAdjust="spacing" textLength="7" x="77.5" y="227.0264">3</text><text fill="#000000" font-family="sans-serif" font-size="13" lengthAdjust="spacing" textLength="155" x="88.5" y="227.0264">Inserts the requested data.</text><polygon fill="#181818" points="617.5,258.2344,627.5,262.2344,617.5,266.2344,621.5,262.2344" style="stroke:#181818;stroke-width:1.0;"/><line style="stroke:#181818;stroke-width:1.0;" x1="407.5" x2="623.5" y1="262.2344" y2="262.2344"/><text fill="#000000" font-family="sans-serif" font-size="13" font-weight="bold" lengthAdjust="spacing" textLength="7" x="414.5" y="257.3779">4</text><text fill="#000000" font-family="sans-serif" font-size="13" lengthAdjust="spacing" textLength="192" x="425.5" y="257.3779">POST /packaging packagingData</text><line style="stroke:#181818;stroke-width:1.0;" x1="639.5" x2="681.5" y1="292.5859" y2="292.5859"/><line style="stroke:#181818;stroke-width:1.0;" x1="681.5" x2="681.5" y1="292.5859" y2="305.5859"/><line style="stroke:#181818;stroke-width:1.0;" x1="640.5" x2="681.5" y1="305.5859" y2="305.5859"/><polygon fill="#181818" points="650.5,301.5859,640.5,305.5859,650.5,309.5859,646.5,305.5859" style="stroke:#181818;stroke-width:1.0;"/><text fill="#000000" font-family="sans-serif" font-size="13" font-weight="bold" lengthAdjust="spacing" textLength="7" x="646.5" y="287.7295">5</text><text fill="#000000" font-family="sans-serif" font-size="13" lengthAdjust="spacing" textLength="154" x="657.5" y="287.7295">AddAsync(packagingData)</text><polygon fill="#181818" points="418.5,331.9375,408.5,335.9375,418.5,339.9375,414.5,335.9375" style="stroke:#181818;stroke-width:1.0;"/><line style="stroke:#181818;stroke-width:1.0;" x1="412.5" x2="633.5" y1="335.9375" y2="335.9375"/><text fill="#000000" font-family="sans-serif" font-size="13" font-weight="bold" lengthAdjust="spacing" textLength="7" x="424.5" y="331.0811">6</text><text fill="#000000" font-family="sans-serif" font-size="13" lengthAdjust="spacing" textLength="151" x="435.5" y="331.0811">packaging_register(JSON)</text><polygon fill="#181818" points="81.5,362.2891,71.5,366.2891,81.5,370.2891,77.5,366.2891" style="stroke:#181818;stroke-width:1.0;"/><line style="stroke:#181818;stroke-width:1.0;stroke-dasharray:2.0,2.0;" x1="75.5" x2="401.5" y1="366.2891" y2="366.2891"/><text fill="#000000" font-family="sans-serif" font-size="13" font-weight="bold" lengthAdjust="spacing" textLength="7" x="87.5" y="361.4326">7</text><text fill="#000000" font-family="sans-serif" font-size="13" lengthAdjust="spacing" textLength="262" x="98.5" y="361.4326">Validates the data and requests confirmation.</text><polygon fill="#181818" points="385.5,392.6406,395.5,396.6406,385.5,400.6406,389.5,396.6406" style="stroke:#181818;stroke-width:1.0;"/><line style="stroke:#181818;stroke-width:1.0;" x1="70.5" x2="391.5" y1="396.6406" y2="396.6406"/><text fill="#000000" font-family="sans-serif" font-size="13" font-weight="bold" lengthAdjust="spacing" textLength="7" x="77.5" y="391.7842">8</text><text fill="#000000" font-family="sans-serif" font-size="13" lengthAdjust="spacing" textLength="144" x="88.5" y="391.7842">Confirms the information.</text><polygon fill="#181818" points="617.5,422.9922,627.5,426.9922,617.5,430.9922,621.5,426.9922" style="stroke:#181818;stroke-width:1.0;"/><line style="stroke:#181818;stroke-width:1.0;" x1="407.5" x2="623.5" y1="426.9922" y2="426.9922"/><text fill="#000000" font-family="sans-serif" font-size="13" font-weight="bold" lengthAdjust="spacing" textLength="7" x="414.5" y="422.1357">9</text><text fill="#000000" font-family="sans-serif" font-size="13" lengthAdjust="spacing" textLength="190" x="425.5" y="422.1357">PUT validate /{option, packaging}</text><line style="stroke:#181818;stroke-width:1.0;" x1="639.5" x2="681.5" y1="457.3438" y2="457.3438"/><line style="stroke:#181818;stroke-width:1.0;" x1="681.5" x2="681.5" y1="457.3438" y2="470.3438"/><line style="stroke:#181818;stroke-width:1.0;" x1="640.5" x2="681.5" y1="470.3438" y2="470.3438"/><polygon fill="#181818" points="650.5,466.3438,640.5,470.3438,650.5,474.3438,646.5,470.3438" style="stroke:#181818;stroke-width:1.0;"/><text fill="#000000" font-family="sans-serif" font-size="13" font-weight="bold" lengthAdjust="spacing" textLength="14" x="646.5" y="452.4873">10</text><text fill="#000000" font-family="sans-serif" font-size="13" lengthAdjust="spacing" textLength="63" x="664.5" y="452.4873">save(truck)</text><polygon fill="#181818" points="418.5,496.6953,408.5,500.6953,418.5,504.6953,414.5,500.6953" style="stroke:#181818;stroke-width:1.0;"/><line style="stroke:#181818;stroke-width:1.0;" x1="412.5" x2="633.5" y1="500.6953" y2="500.6953"/><text fill="#000000" font-family="sans-serif" font-size="13" font-weight="bold" lengthAdjust="spacing" textLength="14" x="424.5" y="495.8389">11</text><text fill="#000000" font-family="sans-serif" font-size="13" lengthAdjust="spacing" textLength="68" x="442.5" y="495.8389">201 created</text><polygon fill="#181818" points="76.5,527.0469,66.5,531.0469,76.5,535.0469,72.5,531.0469" style="stroke:#181818;stroke-width:1.0;"/><line style="stroke:#181818;stroke-width:1.0;stroke-dasharray:2.0,2.0;" x1="70.5" x2="401.5" y1="531.0469" y2="531.0469"/><text fill="#000000" font-family="sans-serif" font-size="13" font-weight="bold" lengthAdjust="spacing" textLength="14" x="82.5" y="526.1904">12</text><text fill="#000000" font-family="sans-serif" font-size="13" lengthAdjust="spacing" textLength="285" x="100.5" y="526.1904">Saves the data and informs of operation success.</text><!--MD5=[2f1dc66fb69d2c8731a77745e8d4e64a]
@startuml

title View Level 2 - Create/Add Packaging

autonumber

actor "Logistics Manager" as LM
actor "<< Container (C4)>> \n :Visual Interface" as SYS
actor "<< Container (C4)>> \n :Logistics" as L


activate LM
LM -> SYS : Asks to create/add a packaging.
activate SYS
SYS - -> LM : Requests the necessary data    
deactivate SYS

LM -> SYS : Inserts the requested data.
activate SYS

SYS -> L : POST /packaging packagingData
activate L

L -> L : AddAsync(packagingData)

L -> SYS : packaging_register(JSON)
deactivate L

SYS - -> LM : Validates the data and requests confirmation.
deactivate SYS

LM -> SYS : Confirms the information.
activate SYS

SYS -> L : PUT validate /{option, packaging}
activate L

L -> L : save(truck)

L -> SYS : 201 created
deactivate L

SYS - -> LM : Saves the data and informs of operation success.
deactivate SYS

deactivate LM

@enduml

PlantUML version 1.2022.7(Mon Aug 22 18:01:30 WEST 2022)
(GPL source distribution)
Java Runtime: Java(TM) SE Runtime Environment
JVM: Java HotSpot(TM) 64-Bit Server VM
Default Encoding: Cp1252
Language: pt
Country: PT
--></g></svg>