<?xml version="1.0" encoding="UTF-8" standalone="no"?><svg xmlns="http://www.w3.org/2000/svg" xmlns:xlink="http://www.w3.org/1999/xlink" contentStyleType="text/css" height="466px" preserveAspectRatio="none" style="width:611px;height:466px;background:#FFFFFF;" version="1.1" viewBox="0 0 611 466" width="611px" zoomAndPan="magnify"><defs/><g><rect fill="none" height="27.6094" id="_title" style="stroke:none;stroke-width:1.0;" width="143" x="236.25" y="10"/><text fill="#000000" font-family="sans-serif" font-size="14" font-weight="bold" lengthAdjust="spacing" textLength="133" x="241.25" y="29.5332">SD - Get Deliveries</text><rect fill="#FFFFFF" height="200.1094" style="stroke:#181818;stroke-width:1.0;" width="10" x="69.5" y="148.8281"/><rect fill="#FFFFFF" height="177.7578" style="stroke:#181818;stroke-width:1.0;" width="10" x="257.5" y="171.1797"/><rect fill="#FFFFFF" height="73.7031" style="stroke:#181818;stroke-width:1.0;" width="10" x="503.5" y="201.5313"/><line style="stroke:#181818;stroke-width:0.5;stroke-dasharray:5.0,5.0;" x1="74" x2="74" y1="138.8281" y2="366.9375"/><line style="stroke:#181818;stroke-width:0.5;stroke-dasharray:5.0,5.0;" x1="262.5" x2="262.5" y1="138.8281" y2="366.9375"/><line style="stroke:#181818;stroke-width:0.5;stroke-dasharray:5.0,5.0;" x1="508" x2="508" y1="138.8281" y2="366.9375"/><text fill="#000000" font-family="sans-serif" font-size="14" lengthAdjust="spacing" textLength="133" x="5" y="135.752">Warehouse Manager</text><ellipse cx="74.5" cy="69.7188" fill="#E2E2F0" rx="8" ry="8" style="stroke:#181818;stroke-width:0.5;"/><path d="M74.5,77.7188 L74.5,104.7188 M61.5,85.7188 L87.5,85.7188 M74.5,104.7188 L61.5,119.7188 M74.5,104.7188 L87.5,119.7188 " fill="none" style="stroke:#181818;stroke-width:0.5;"/><text fill="#000000" font-family="sans-serif" font-size="14" lengthAdjust="spacing" textLength="133" x="5" y="380.4707">Warehouse Manager</text><ellipse cx="74.5" cy="392.0469" fill="#E2E2F0" rx="8" ry="8" style="stroke:#181818;stroke-width:0.5;"/><path d="M74.5,400.0469 L74.5,427.0469 M61.5,408.0469 L87.5,408.0469 M74.5,427.0469 L61.5,442.0469 M74.5,427.0469 L87.5,442.0469 " fill="none" style="stroke:#181818;stroke-width:0.5;"/><text fill="#000000" font-family="sans-serif" font-size="14" lengthAdjust="spacing" textLength="102" x="206.5" y="118.1426">&lt;&lt; Container &gt;&gt;</text><text fill="#000000" font-family="sans-serif" font-size="14" lengthAdjust="spacing" textLength="21" x="251" y="135.752">API</text><ellipse cx="262.5" cy="52.1094" fill="#E2E2F0" rx="8" ry="8" style="stroke:#181818;stroke-width:0.5;"/><path d="M262.5,60.1094 L262.5,87.1094 M249.5,68.1094 L275.5,68.1094 M262.5,87.1094 L249.5,102.1094 M262.5,87.1094 L275.5,102.1094 " fill="none" style="stroke:#181818;stroke-width:0.5;"/><text fill="#000000" font-family="sans-serif" font-size="14" lengthAdjust="spacing" textLength="102" x="206.5" y="380.4707">&lt;&lt; Container &gt;&gt;</text><text fill="#000000" font-family="sans-serif" font-size="14" lengthAdjust="spacing" textLength="21" x="251" y="398.0801">API</text><ellipse cx="262.5" cy="409.6563" fill="#E2E2F0" rx="8" ry="8" style="stroke:#181818;stroke-width:0.5;"/><path d="M262.5,417.6563 L262.5,444.6563 M249.5,425.6563 L275.5,425.6563 M262.5,444.6563 L249.5,459.6563 M262.5,444.6563 L275.5,459.6563 " fill="none" style="stroke:#181818;stroke-width:0.5;"/><text fill="#000000" font-family="sans-serif" font-size="14" lengthAdjust="spacing" textLength="102" x="452.5" y="118.1426">&lt;&lt; Container &gt;&gt;</text><text fill="#000000" font-family="sans-serif" font-size="14" lengthAdjust="spacing" textLength="135" x="440" y="135.752">DeliveriesDataMaster</text><ellipse cx="508.5" cy="52.1094" fill="#E2E2F0" rx="8" ry="8" style="stroke:#181818;stroke-width:0.5;"/><path d="M508.5,60.1094 L508.5,87.1094 M495.5,68.1094 L521.5,68.1094 M508.5,87.1094 L495.5,102.1094 M508.5,87.1094 L521.5,102.1094 " fill="none" style="stroke:#181818;stroke-width:0.5;"/><text fill="#000000" font-family="sans-serif" font-size="14" lengthAdjust="spacing" textLength="102" x="452.5" y="380.4707">&lt;&lt; Container &gt;&gt;</text><text fill="#000000" font-family="sans-serif" font-size="14" lengthAdjust="spacing" textLength="135" x="440" y="398.0801">DeliveriesDataMaster</text><ellipse cx="508.5" cy="409.6563" fill="#E2E2F0" rx="8" ry="8" style="stroke:#181818;stroke-width:0.5;"/><path d="M508.5,417.6563 L508.5,444.6563 M495.5,425.6563 L521.5,425.6563 M508.5,444.6563 L495.5,459.6563 M508.5,444.6563 L521.5,459.6563 " fill="none" style="stroke:#181818;stroke-width:0.5;"/><rect fill="#FFFFFF" height="200.1094" style="stroke:#181818;stroke-width:1.0;" width="10" x="69.5" y="148.8281"/><rect fill="#FFFFFF" height="177.7578" style="stroke:#181818;stroke-width:1.0;" width="10" x="257.5" y="171.1797"/><rect fill="#FFFFFF" height="73.7031" style="stroke:#181818;stroke-width:1.0;" width="10" x="503.5" y="201.5313"/><polygon fill="#181818" points="245.5,167.1797,255.5,171.1797,245.5,175.1797,249.5,171.1797" style="stroke:#181818;stroke-width:1.0;"/><line style="stroke:#181818;stroke-width:1.0;" x1="79.5" x2="251.5" y1="171.1797" y2="171.1797"/><text fill="#000000" font-family="sans-serif" font-size="13" font-weight="bold" lengthAdjust="spacing" textLength="7" x="86.5" y="166.3232">1</text><text fill="#000000" font-family="sans-serif" font-size="13" lengthAdjust="spacing" textLength="148" x="97.5" y="166.3232">Asks the list of deliveries.</text><polygon fill="#181818" points="491.5,197.5313,501.5,201.5313,491.5,205.5313,495.5,201.5313" style="stroke:#181818;stroke-width:1.0;"/><line style="stroke:#181818;stroke-width:1.0;" x1="267.5" x2="497.5" y1="201.5313" y2="201.5313"/><text fill="#000000" font-family="sans-serif" font-size="13" font-weight="bold" lengthAdjust="spacing" textLength="7" x="274.5" y="196.6748">2</text><text fill="#000000" font-family="sans-serif" font-size="13" lengthAdjust="spacing" textLength="26" x="285.5" y="196.6748">GET</text><line style="stroke:#181818;stroke-width:1.0;" x1="513.5" x2="555.5" y1="231.8828" y2="231.8828"/><line style="stroke:#181818;stroke-width:1.0;" x1="555.5" x2="555.5" y1="231.8828" y2="244.8828"/><line style="stroke:#181818;stroke-width:1.0;" x1="514.5" x2="555.5" y1="244.8828" y2="244.8828"/><polygon fill="#181818" points="524.5,240.8828,514.5,244.8828,524.5,248.8828,520.5,244.8828" style="stroke:#181818;stroke-width:1.0;"/><text fill="#000000" font-family="sans-serif" font-size="13" font-weight="bold" lengthAdjust="spacing" textLength="7" x="520.5" y="227.0264">3</text><text fill="#000000" font-family="sans-serif" font-size="13" lengthAdjust="spacing" textLength="73" x="531.5" y="227.0264">GetAllAsync</text><polygon fill="#181818" points="278.5,271.2344,268.5,275.2344,278.5,279.2344,274.5,275.2344" style="stroke:#181818;stroke-width:1.0;"/><line style="stroke:#181818;stroke-width:1.0;" x1="272.5" x2="507.5" y1="275.2344" y2="275.2344"/><text fill="#000000" font-family="sans-serif" font-size="13" font-weight="bold" lengthAdjust="spacing" textLength="7" x="284.5" y="270.3779">4</text><text fill="#000000" font-family="sans-serif" font-size="13" lengthAdjust="spacing" textLength="119" x="295.5" y="270.3779">deliveries_list(JSON)</text><line style="stroke:#181818;stroke-width:1.0;" x1="267.5" x2="309.5" y1="305.5859" y2="305.5859"/><line style="stroke:#181818;stroke-width:1.0;" x1="309.5" x2="309.5" y1="305.5859" y2="318.5859"/><line style="stroke:#181818;stroke-width:1.0;" x1="268.5" x2="309.5" y1="318.5859" y2="318.5859"/><polygon fill="#181818" points="278.5,314.5859,268.5,318.5859,278.5,322.5859,274.5,318.5859" style="stroke:#181818;stroke-width:1.0;"/><text fill="#000000" font-family="sans-serif" font-size="13" font-weight="bold" lengthAdjust="spacing" textLength="7" x="274.5" y="300.7295">5</text><text fill="#000000" font-family="sans-serif" font-size="13" lengthAdjust="spacing" textLength="211" x="285.5" y="300.7295">Functionality executed successfully.</text><polygon fill="#181818" points="85.5,344.9375,75.5,348.9375,85.5,352.9375,81.5,348.9375" style="stroke:#181818;stroke-width:1.0;"/><line style="stroke:#181818;stroke-width:1.0;stroke-dasharray:2.0,2.0;" x1="79.5" x2="261.5" y1="348.9375" y2="348.9375"/><text fill="#000000" font-family="sans-serif" font-size="13" font-weight="bold" lengthAdjust="spacing" textLength="7" x="91.5" y="344.0811">6</text><text fill="#000000" font-family="sans-serif" font-size="13" lengthAdjust="spacing" textLength="93" x="102.5" y="344.0811">Show deliveries.</text><!--MD5=[bef2ccc234fc83778b71cb0fd0e01cc1]
@startuml USA06_2

title SD - Get Deliveries

autonumber

actor "Warehouse Manager" as FM
actor "<< Container >> \n API" as SYS
actor "<< Container >> \n DeliveriesDataMaster" as TDM


activate FM
FM -> SYS : Asks the list of deliveries.
activate SYS

SYS -> TDM : GET
activate TDM

TDM -> TDM : GetAllAsync

TDM -> SYS : deliveries_list(JSON)
deactivate TDM

SYS -> SYS : Functionality executed successfully.

SYS - -> FM : Show deliveries.
deactivate SYS

deactivate FM

@enduml

PlantUML version 1.2022.7(Mon Aug 22 18:01:30 WEST 2022)
(GPL source distribution)
Java Runtime: Java(TM) SE Runtime Environment
JVM: Java HotSpot(TM) 64-Bit Server VM
Default Encoding: UTF-8
Language: es
Country: ES
--></g></svg>