<?xml version="1.0" encoding="UTF-8" standalone="no"?><svg xmlns="http://www.w3.org/2000/svg" xmlns:xlink="http://www.w3.org/1999/xlink" contentStyleType="text/css" height="388px" preserveAspectRatio="none" style="width:639px;height:388px;background:#FFFFFF;" version="1.1" viewBox="0 0 639 388" width="639px" zoomAndPan="magnify"><defs/><g><rect fill="none" height="27.6094" id="_title" style="stroke:none;stroke-width:1.0;" width="143" x="250.25" y="10"/><text fill="#000000" font-family="sans-serif" font-size="14" font-weight="bold" lengthAdjust="spacing" textLength="133" x="255.25" y="29.5332">SD - Get Deliveries</text><rect fill="#FFFFFF" height="247.8125" style="stroke:#181818;stroke-width:1.0;" width="10" x="56" y="86.2188"/><rect fill="#FFFFFF" height="195.1094" style="stroke:#181818;stroke-width:1.0;" width="10" x="218" y="138.9219"/><rect fill="#FFFFFF" height="134.4063" style="stroke:#181818;stroke-width:1.0;" width="10" x="365" y="169.2734"/><rect fill="#FFFFFF" height="73.7031" style="stroke:#181818;stroke-width:1.0;" width="10" x="501.5" y="199.625"/><line style="stroke:#181818;stroke-width:0.5;stroke-dasharray:5.0,5.0;" x1="60.5" x2="60.5" y1="76.2188" y2="352.0313"/><line style="stroke:#181818;stroke-width:0.5;stroke-dasharray:5.0,5.0;" x1="222.5" x2="222.5" y1="76.2188" y2="352.0313"/><line style="stroke:#181818;stroke-width:0.5;stroke-dasharray:5.0,5.0;" x1="370" x2="370" y1="76.2188" y2="352.0313"/><line style="stroke:#181818;stroke-width:0.5;stroke-dasharray:5.0,5.0;" x1="506" x2="506" y1="76.2188" y2="352.0313"/><rect fill="#E2E2F0" height="31.6094" rx="2.5" ry="2.5" style="stroke:#181818;stroke-width:0.5;" width="35" x="43.5" y="43.6094"/><text fill="#000000" font-family="sans-serif" font-size="14" lengthAdjust="spacing" textLength="21" x="50.5" y="65.1426">API</text><rect fill="#E2E2F0" height="31.6094" rx="2.5" ry="2.5" style="stroke:#181818;stroke-width:0.5;" width="35" x="43.5" y="351.0313"/><text fill="#000000" font-family="sans-serif" font-size="14" lengthAdjust="spacing" textLength="21" x="50.5" y="372.5645">API</text><rect fill="#E2E2F0" height="31.6094" rx="2.5" ry="2.5" style="stroke:#181818;stroke-width:0.5;" width="131" x="157.5" y="43.6094"/><text fill="#000000" font-family="sans-serif" font-size="14" lengthAdjust="spacing" textLength="117" x="164.5" y="65.1426">Delivery Controller</text><rect fill="#E2E2F0" height="31.6094" rx="2.5" ry="2.5" style="stroke:#181818;stroke-width:0.5;" width="131" x="157.5" y="351.0313"/><text fill="#000000" font-family="sans-serif" font-size="14" lengthAdjust="spacing" textLength="117" x="164.5" y="372.5645">Delivery Controller</text><rect fill="#E2E2F0" height="31.6094" rx="2.5" ry="2.5" style="stroke:#181818;stroke-width:0.5;" width="116" x="312" y="43.6094"/><text fill="#000000" font-family="sans-serif" font-size="14" lengthAdjust="spacing" textLength="102" x="319" y="65.1426">Delivery Service</text><rect fill="#E2E2F0" height="31.6094" rx="2.5" ry="2.5" style="stroke:#181818;stroke-width:0.5;" width="116" x="312" y="351.0313"/><text fill="#000000" font-family="sans-serif" font-size="14" lengthAdjust="spacing" textLength="102" x="319" y="372.5645">Delivery Service</text><rect fill="#E2E2F0" height="31.6094" rx="2.5" ry="2.5" style="stroke:#181818;stroke-width:0.5;" width="137" x="438" y="43.6094"/><text fill="#000000" font-family="sans-serif" font-size="14" lengthAdjust="spacing" textLength="123" x="445" y="65.1426">Delivery Repository</text><rect fill="#E2E2F0" height="31.6094" rx="2.5" ry="2.5" style="stroke:#181818;stroke-width:0.5;" width="137" x="438" y="351.0313"/><text fill="#000000" font-family="sans-serif" font-size="14" lengthAdjust="spacing" textLength="123" x="445" y="372.5645">Delivery Repository</text><rect fill="#FFFFFF" height="247.8125" style="stroke:#181818;stroke-width:1.0;" width="10" x="56" y="86.2188"/><rect fill="#FFFFFF" height="195.1094" style="stroke:#181818;stroke-width:1.0;" width="10" x="218" y="138.9219"/><rect fill="#FFFFFF" height="134.4063" style="stroke:#181818;stroke-width:1.0;" width="10" x="365" y="169.2734"/><rect fill="#FFFFFF" height="73.7031" style="stroke:#181818;stroke-width:1.0;" width="10" x="501.5" y="199.625"/><polygon fill="#181818" points="44,104.5703,54,108.5703,44,112.5703,48,108.5703" style="stroke:#181818;stroke-width:1.0;"/><line style="stroke:#181818;stroke-width:1.0;" x1="0" x2="50" y1="108.5703" y2="108.5703"/><text fill="#000000" font-family="sans-serif" font-size="13" font-weight="bold" lengthAdjust="spacing" textLength="7" x="7" y="103.7139">1</text><text fill="#000000" font-family="sans-serif" font-size="13" lengthAdjust="spacing" textLength="26" x="18" y="103.7139">GET</text><polygon fill="#181818" points="206,134.9219,216,138.9219,206,142.9219,210,138.9219" style="stroke:#181818;stroke-width:1.0;"/><line style="stroke:#181818;stroke-width:1.0;" x1="66" x2="212" y1="138.9219" y2="138.9219"/><text fill="#000000" font-family="sans-serif" font-size="13" font-weight="bold" lengthAdjust="spacing" textLength="7" x="73" y="134.0654">2</text><text fill="#000000" font-family="sans-serif" font-size="13" lengthAdjust="spacing" textLength="36" x="84" y="134.0654">GetAll</text><polygon fill="#181818" points="353,165.2734,363,169.2734,353,173.2734,357,169.2734" style="stroke:#181818;stroke-width:1.0;"/><line style="stroke:#181818;stroke-width:1.0;" x1="228" x2="359" y1="169.2734" y2="169.2734"/><text fill="#000000" font-family="sans-serif" font-size="13" font-weight="bold" lengthAdjust="spacing" textLength="7" x="235" y="164.417">3</text><text fill="#000000" font-family="sans-serif" font-size="13" lengthAdjust="spacing" textLength="73" x="246" y="164.417">GetAllAsync</text><polygon fill="#181818" points="489.5,195.625,499.5,199.625,489.5,203.625,493.5,199.625" style="stroke:#181818;stroke-width:1.0;"/><line style="stroke:#181818;stroke-width:1.0;" x1="375" x2="495.5" y1="199.625" y2="199.625"/><text fill="#000000" font-family="sans-serif" font-size="13" font-weight="bold" lengthAdjust="spacing" textLength="7" x="382" y="194.7686">4</text><text fill="#000000" font-family="sans-serif" font-size="13" lengthAdjust="spacing" textLength="73" x="393" y="194.7686">GetAllAsync</text><line style="stroke:#181818;stroke-width:1.0;" x1="511.5" x2="553.5" y1="229.9766" y2="229.9766"/><line style="stroke:#181818;stroke-width:1.0;" x1="553.5" x2="553.5" y1="229.9766" y2="242.9766"/><line style="stroke:#181818;stroke-width:1.0;" x1="512.5" x2="553.5" y1="242.9766" y2="242.9766"/><polygon fill="#181818" points="522.5,238.9766,512.5,242.9766,522.5,246.9766,518.5,242.9766" style="stroke:#181818;stroke-width:1.0;"/><text fill="#000000" font-family="sans-serif" font-size="13" font-weight="bold" lengthAdjust="spacing" textLength="7" x="518.5" y="225.1201">5</text><text fill="#000000" font-family="sans-serif" font-size="13" lengthAdjust="spacing" textLength="103" x="529.5" y="225.1201">FetchAllDeliveries</text><polygon fill="#181818" points="386,269.3281,376,273.3281,386,277.3281,382,273.3281" style="stroke:#181818;stroke-width:1.0;"/><line style="stroke:#181818;stroke-width:1.0;stroke-dasharray:2.0,2.0;" x1="380" x2="505.5" y1="273.3281" y2="273.3281"/><text fill="#000000" font-family="sans-serif" font-size="13" font-weight="bold" lengthAdjust="spacing" textLength="7" x="392" y="268.4717">6</text><text fill="#000000" font-family="sans-serif" font-size="13" lengthAdjust="spacing" textLength="82" x="403" y="268.4717">List&lt;Delivery&gt;</text><polygon fill="#181818" points="239,299.6797,229,303.6797,239,307.6797,235,303.6797" style="stroke:#181818;stroke-width:1.0;"/><line style="stroke:#181818;stroke-width:1.0;stroke-dasharray:2.0,2.0;" x1="233" x2="369" y1="303.6797" y2="303.6797"/><text fill="#000000" font-family="sans-serif" font-size="13" font-weight="bold" lengthAdjust="spacing" textLength="7" x="245" y="298.8232">7</text><text fill="#000000" font-family="sans-serif" font-size="13" lengthAdjust="spacing" textLength="102" x="256" y="298.8232">List&lt;DeliveryDto&gt;</text><polygon fill="#181818" points="72,330.0313,62,334.0313,72,338.0313,68,334.0313" style="stroke:#181818;stroke-width:1.0;"/><line style="stroke:#181818;stroke-width:1.0;stroke-dasharray:2.0,2.0;" x1="66" x2="222" y1="334.0313" y2="334.0313"/><text fill="#000000" font-family="sans-serif" font-size="13" font-weight="bold" lengthAdjust="spacing" textLength="7" x="78" y="329.1748">8</text><text fill="#000000" font-family="sans-serif" font-size="13" lengthAdjust="spacing" textLength="117" x="89" y="329.1748">Response Code 200</text><!--MD5=[ac9ac5341ae028ba49c3bb29483c40a5]
@startuml USA06_3

title SD - Get Deliveries

autonumber

participant "API" as API
participant "Delivery Controller" as C
participant "Delivery Service" as S
participant "Delivery Repository" as R

activate API
 -> API : GET
API -> C : GetAll
activate C
C -> S : GetAllAsync
activate S
S -> R : GetAllAsync
activate R
R -> R : FetchAllDeliveries
R - -> S : List<Delivery>
deactivate R
S - -> C : List<DeliveryDto>
deactivate S
C - -> API : Response Code 200
deactivate C
deactivate API
@end

PlantUML version 1.2022.7(Mon Aug 22 18:01:30 WEST 2022)
(GPL source distribution)
Java Runtime: Java(TM) SE Runtime Environment
JVM: Java HotSpot(TM) 64-Bit Server VM
Default Encoding: UTF-8
Language: es
Country: ES
--></g></svg>