<?xml version="1.0" encoding="UTF-8" standalone="no"?><svg xmlns="http://www.w3.org/2000/svg" xmlns:xlink="http://www.w3.org/1999/xlink" contentStyleType="text/css" height="709px" preserveAspectRatio="none" style="width:692px;height:709px;background:#FFFFFF;" version="1.1" viewBox="0 0 692 709" width="692px" zoomAndPan="magnify"><defs/><g><rect fill="none" height="27.6094" id="_title" style="stroke:none;stroke-width:1.0;" width="126" x="285" y="10"/><text fill="#000000" font-family="sans-serif" font-size="14" font-weight="bold" lengthAdjust="spacing" textLength="116" x="290" y="29.5332">Lvl 2 - Edit Truck</text><rect fill="#FFFFFF" height="442.9219" style="stroke:#181818;stroke-width:1.0;" width="10" x="49" y="148.8281"/><rect fill="#FFFFFF" height="30.3516" style="stroke:#181818;stroke-width:1.0;" width="10" x="386" y="171.1797"/><rect fill="#FFFFFF" height="91.0547" style="stroke:#181818;stroke-width:1.0;" width="10" x="386" y="231.8828"/><rect fill="#FFFFFF" height="177.7578" style="stroke:#181818;stroke-width:1.0;" width="10" x="386" y="353.2891"/><rect fill="#FFFFFF" height="30.3516" style="stroke:#181818;stroke-width:1.0;" width="10" x="386" y="561.3984"/><rect fill="#FFFFFF" height="30.3516" style="stroke:#181818;stroke-width:1.0;" width="10" x="573" y="262.2344"/><rect fill="#FFFFFF" height="117.0547" style="stroke:#181818;stroke-width:1.0;" width="10" x="573" y="383.6406"/><line style="stroke:#181818;stroke-width:0.5;stroke-dasharray:5.0,5.0;" x1="54" x2="54" y1="138.8281" y2="609.75"/><line style="stroke:#181818;stroke-width:0.5;stroke-dasharray:5.0,5.0;" x1="391" x2="391" y1="138.8281" y2="609.75"/><line style="stroke:#181818;stroke-width:0.5;stroke-dasharray:5.0,5.0;" x1="578" x2="578" y1="138.8281" y2="609.75"/><text fill="#000000" font-family="sans-serif" font-size="14" lengthAdjust="spacing" textLength="92" x="5" y="135.752">Fleet Manager</text><ellipse cx="54" cy="69.7188" fill="#E2E2F0" rx="8" ry="8" style="stroke:#181818;stroke-width:0.5;"/><path d="M54,77.7188 L54,104.7188 M41,85.7188 L67,85.7188 M54,104.7188 L41,119.7188 M54,104.7188 L67,119.7188 " fill="none" style="stroke:#181818;stroke-width:0.5;"/><text fill="#000000" font-family="sans-serif" font-size="14" lengthAdjust="spacing" textLength="92" x="5" y="623.2832">Fleet Manager</text><ellipse cx="54" cy="634.8594" fill="#E2E2F0" rx="8" ry="8" style="stroke:#181818;stroke-width:0.5;"/><path d="M54,642.8594 L54,669.8594 M41,650.8594 L67,650.8594 M54,669.8594 L41,684.8594 M54,669.8594 L67,684.8594 " fill="none" style="stroke:#181818;stroke-width:0.5;"/><text fill="#000000" font-family="sans-serif" font-size="14" lengthAdjust="spacing" textLength="102" x="335" y="118.1426">&lt;&lt; Container &gt;&gt;</text><text fill="#000000" font-family="sans-serif" font-size="14" lengthAdjust="spacing" textLength="97" x="341.5" y="135.752">Visual Interface</text><ellipse cx="391" cy="52.1094" fill="#E2E2F0" rx="8" ry="8" style="stroke:#181818;stroke-width:0.5;"/><path d="M391,60.1094 L391,87.1094 M378,68.1094 L404,68.1094 M391,87.1094 L378,102.1094 M391,87.1094 L404,102.1094 " fill="none" style="stroke:#181818;stroke-width:0.5;"/><text fill="#000000" font-family="sans-serif" font-size="14" lengthAdjust="spacing" textLength="102" x="335" y="623.2832">&lt;&lt; Container &gt;&gt;</text><text fill="#000000" font-family="sans-serif" font-size="14" lengthAdjust="spacing" textLength="97" x="341.5" y="640.8926">Visual Interface</text><ellipse cx="391" cy="652.4688" fill="#E2E2F0" rx="8" ry="8" style="stroke:#181818;stroke-width:0.5;"/><path d="M391,660.4688 L391,687.4688 M378,668.4688 L404,668.4688 M391,687.4688 L378,702.4688 M391,687.4688 L404,702.4688 " fill="none" style="stroke:#181818;stroke-width:0.5;"/><text fill="#000000" font-family="sans-serif" font-size="14" lengthAdjust="spacing" textLength="102" x="522" y="118.1426">&lt;&lt; Container &gt;&gt;</text><text fill="#000000" font-family="sans-serif" font-size="14" lengthAdjust="spacing" textLength="55" x="549.5" y="135.752">Logistics</text><ellipse cx="578" cy="52.1094" fill="#E2E2F0" rx="8" ry="8" style="stroke:#181818;stroke-width:0.5;"/><path d="M578,60.1094 L578,87.1094 M565,68.1094 L591,68.1094 M578,87.1094 L565,102.1094 M578,87.1094 L591,102.1094 " fill="none" style="stroke:#181818;stroke-width:0.5;"/><text fill="#000000" font-family="sans-serif" font-size="14" lengthAdjust="spacing" textLength="102" x="522" y="623.2832">&lt;&lt; Container &gt;&gt;</text><text fill="#000000" font-family="sans-serif" font-size="14" lengthAdjust="spacing" textLength="55" x="549.5" y="640.8926">Logistics</text><ellipse cx="578" cy="652.4688" fill="#E2E2F0" rx="8" ry="8" style="stroke:#181818;stroke-width:0.5;"/><path d="M578,660.4688 L578,687.4688 M565,668.4688 L591,668.4688 M578,687.4688 L565,702.4688 M578,687.4688 L591,702.4688 " fill="none" style="stroke:#181818;stroke-width:0.5;"/><rect fill="#FFFFFF" height="442.9219" style="stroke:#181818;stroke-width:1.0;" width="10" x="49" y="148.8281"/><rect fill="#FFFFFF" height="30.3516" style="stroke:#181818;stroke-width:1.0;" width="10" x="386" y="171.1797"/><rect fill="#FFFFFF" height="91.0547" style="stroke:#181818;stroke-width:1.0;" width="10" x="386" y="231.8828"/><rect fill="#FFFFFF" height="177.7578" style="stroke:#181818;stroke-width:1.0;" width="10" x="386" y="353.2891"/><rect fill="#FFFFFF" height="30.3516" style="stroke:#181818;stroke-width:1.0;" width="10" x="386" y="561.3984"/><rect fill="#FFFFFF" height="30.3516" style="stroke:#181818;stroke-width:1.0;" width="10" x="573" y="262.2344"/><rect fill="#FFFFFF" height="117.0547" style="stroke:#181818;stroke-width:1.0;" width="10" x="573" y="383.6406"/><polygon fill="#181818" points="374,167.1797,384,171.1797,374,175.1797,378,171.1797" style="stroke:#181818;stroke-width:1.0;"/><line style="stroke:#181818;stroke-width:1.0;" x1="59" x2="380" y1="171.1797" y2="171.1797"/><text fill="#000000" font-family="sans-serif" font-size="13" font-weight="bold" lengthAdjust="spacing" textLength="7" x="66" y="166.3232">1</text><text fill="#000000" font-family="sans-serif" font-size="13" lengthAdjust="spacing" textLength="118" x="77" y="166.3232">Asks to edit a truck.</text><polygon fill="#181818" points="70,197.5313,60,201.5313,70,205.5313,66,201.5313" style="stroke:#181818;stroke-width:1.0;"/><line style="stroke:#181818;stroke-width:1.0;stroke-dasharray:2.0,2.0;" x1="64" x2="390" y1="201.5313" y2="201.5313"/><text fill="#000000" font-family="sans-serif" font-size="13" font-weight="bold" lengthAdjust="spacing" textLength="7" x="76" y="196.6748">2</text><text fill="#000000" font-family="sans-serif" font-size="13" lengthAdjust="spacing" textLength="247" x="87" y="196.6748">Ask to choose wich truck you want to edit.</text><polygon fill="#181818" points="374,227.8828,384,231.8828,374,235.8828,378,231.8828" style="stroke:#181818;stroke-width:1.0;"/><line style="stroke:#181818;stroke-width:1.0;" x1="59" x2="380" y1="231.8828" y2="231.8828"/><text fill="#000000" font-family="sans-serif" font-size="13" font-weight="bold" lengthAdjust="spacing" textLength="7" x="66" y="227.0264">3</text><text fill="#000000" font-family="sans-serif" font-size="13" lengthAdjust="spacing" textLength="103" x="77" y="227.0264">Choose the truck.</text><polygon fill="#181818" points="561,258.2344,571,262.2344,561,266.2344,565,262.2344" style="stroke:#181818;stroke-width:1.0;"/><line style="stroke:#181818;stroke-width:1.0;" x1="396" x2="567" y1="262.2344" y2="262.2344"/><text fill="#000000" font-family="sans-serif" font-size="13" font-weight="bold" lengthAdjust="spacing" textLength="7" x="403" y="257.3779">4</text><text fill="#000000" font-family="sans-serif" font-size="13" lengthAdjust="spacing" textLength="124" x="414" y="257.3779">GET truck/{matricula}</text><polygon fill="#181818" points="407,288.5859,397,292.5859,407,296.5859,403,292.5859" style="stroke:#181818;stroke-width:1.0;"/><line style="stroke:#181818;stroke-width:1.0;" x1="401" x2="577" y1="292.5859" y2="292.5859"/><text fill="#000000" font-family="sans-serif" font-size="13" font-weight="bold" lengthAdjust="spacing" textLength="7" x="413" y="287.7295">5</text><text fill="#000000" font-family="sans-serif" font-size="13" lengthAdjust="spacing" textLength="71" x="424" y="287.7295">truck(JSON)</text><polygon fill="#181818" points="70,318.9375,60,322.9375,70,326.9375,66,322.9375" style="stroke:#181818;stroke-width:1.0;"/><line style="stroke:#181818;stroke-width:1.0;stroke-dasharray:2.0,2.0;" x1="64" x2="390" y1="322.9375" y2="322.9375"/><text fill="#000000" font-family="sans-serif" font-size="13" font-weight="bold" lengthAdjust="spacing" textLength="7" x="76" y="318.0811">6</text><text fill="#000000" font-family="sans-serif" font-size="13" lengthAdjust="spacing" textLength="227" x="87" y="318.0811">Requests the data you want to change.</text><polygon fill="#181818" points="374,349.2891,384,353.2891,374,357.2891,378,353.2891" style="stroke:#181818;stroke-width:1.0;"/><line style="stroke:#181818;stroke-width:1.0;" x1="59" x2="380" y1="353.2891" y2="353.2891"/><text fill="#000000" font-family="sans-serif" font-size="13" font-weight="bold" lengthAdjust="spacing" textLength="7" x="66" y="348.4326">7</text><text fill="#000000" font-family="sans-serif" font-size="13" lengthAdjust="spacing" textLength="136" x="77" y="348.4326">Enter  the desired data.</text><polygon fill="#181818" points="561,379.6406,571,383.6406,561,387.6406,565,383.6406" style="stroke:#181818;stroke-width:1.0;"/><line style="stroke:#181818;stroke-width:1.0;" x1="396" x2="567" y1="383.6406" y2="383.6406"/><text fill="#000000" font-family="sans-serif" font-size="13" font-weight="bold" lengthAdjust="spacing" textLength="7" x="403" y="378.7842">8</text><text fill="#000000" font-family="sans-serif" font-size="13" lengthAdjust="spacing" textLength="147" x="414" y="378.7842">PATCH truck/{TruckData}</text><line style="stroke:#181818;stroke-width:1.0;" x1="583" x2="625" y1="413.9922" y2="413.9922"/><line style="stroke:#181818;stroke-width:1.0;" x1="625" x2="625" y1="413.9922" y2="426.9922"/><line style="stroke:#181818;stroke-width:1.0;" x1="584" x2="625" y1="426.9922" y2="426.9922"/><polygon fill="#181818" points="594,422.9922,584,426.9922,594,430.9922,590,426.9922" style="stroke:#181818;stroke-width:1.0;"/><text fill="#000000" font-family="sans-serif" font-size="13" font-weight="bold" lengthAdjust="spacing" textLength="7" x="590" y="409.1357">9</text><text fill="#000000" font-family="sans-serif" font-size="13" lengthAdjust="spacing" textLength="84" x="601" y="409.1357">Validate(truck)</text><line style="stroke:#181818;stroke-width:1.0;" x1="583" x2="625" y1="457.3438" y2="457.3438"/><line style="stroke:#181818;stroke-width:1.0;" x1="625" x2="625" y1="457.3438" y2="470.3438"/><line style="stroke:#181818;stroke-width:1.0;" x1="584" x2="625" y1="470.3438" y2="470.3438"/><polygon fill="#181818" points="594,466.3438,584,470.3438,594,474.3438,590,470.3438" style="stroke:#181818;stroke-width:1.0;"/><text fill="#000000" font-family="sans-serif" font-size="13" font-weight="bold" lengthAdjust="spacing" textLength="14" x="590" y="452.4873">10</text><text fill="#000000" font-family="sans-serif" font-size="13" lengthAdjust="spacing" textLength="63" x="608" y="452.4873">save(truck)</text><polygon fill="#181818" points="407,496.6953,397,500.6953,407,504.6953,403,500.6953" style="stroke:#181818;stroke-width:1.0;"/><line style="stroke:#181818;stroke-width:1.0;" x1="401" x2="577" y1="500.6953" y2="500.6953"/><text fill="#000000" font-family="sans-serif" font-size="13" font-weight="bold" lengthAdjust="spacing" textLength="14" x="413" y="495.8389">11</text><text fill="#000000" font-family="sans-serif" font-size="13" lengthAdjust="spacing" textLength="44" x="431" y="495.8389">200 OK</text><polygon fill="#181818" points="70,527.0469,60,531.0469,70,535.0469,66,531.0469" style="stroke:#181818;stroke-width:1.0;"/><line style="stroke:#181818;stroke-width:1.0;stroke-dasharray:2.0,2.0;" x1="64" x2="390" y1="531.0469" y2="531.0469"/><text fill="#000000" font-family="sans-serif" font-size="13" font-weight="bold" lengthAdjust="spacing" textLength="14" x="76" y="526.1904">12</text><text fill="#000000" font-family="sans-serif" font-size="13" lengthAdjust="spacing" textLength="262" x="94" y="526.1904">Validates the data and requests confirmation.</text><polygon fill="#181818" points="374,557.3984,384,561.3984,374,565.3984,378,561.3984" style="stroke:#181818;stroke-width:1.0;"/><line style="stroke:#181818;stroke-width:1.0;" x1="59" x2="380" y1="561.3984" y2="561.3984"/><text fill="#000000" font-family="sans-serif" font-size="13" font-weight="bold" lengthAdjust="spacing" textLength="14" x="66" y="556.542">13</text><text fill="#000000" font-family="sans-serif" font-size="13" lengthAdjust="spacing" textLength="144" x="84" y="556.542">Confirms the information.</text><polygon fill="#181818" points="65,587.75,55,591.75,65,595.75,61,591.75" style="stroke:#181818;stroke-width:1.0;"/><line style="stroke:#181818;stroke-width:1.0;stroke-dasharray:2.0,2.0;" x1="59" x2="390" y1="591.75" y2="591.75"/><text fill="#000000" font-family="sans-serif" font-size="13" font-weight="bold" lengthAdjust="spacing" textLength="14" x="71" y="586.8936">14</text><text fill="#000000" font-family="sans-serif" font-size="13" lengthAdjust="spacing" textLength="285" x="89" y="586.8936">Saves the data and informs of operation success.</text><!--MD5=[5410096c9ed7aa68522fa9ee01639e17]
@startuml

title Lvl 2 - Edit Truck

autonumber

actor "Fleet Manager" as FM
actor "<< Container >> \n Visual Interface" as SYS
actor "<< Container >> \n Logistics" as LG


activate FM
FM -> SYS : Asks to edit a truck.
activate SYS
SYS - -> FM : Ask to choose wich truck you want to edit.
deactivate SYS

FM -> SYS : Choose the truck.
activate SYS

SYS -> LG : GET truck/{matricula}
activate LG

LG -> SYS : truck(JSON)
deactivate LG

SYS - -> FM : Requests the data you want to change.
deactivate SYS

FM -> SYS : Enter  the desired data.
activate SYS

SYS -> LG : PATCH truck/{TruckData}
activate LG

LG -> LG : Validate(truck)

LG -> LG : save(truck)

LG -> SYS : 200 OK
deactivate LG

SYS - -> FM : Validates the data and requests confirmation.
deactivate SYS

FM -> SYS : Confirms the information.
activate SYS
SYS - -> FM : Saves the data and informs of operation success.
deactivate SYS


deactivate FM

@enduml

PlantUML version 1.2022.7(Mon Aug 22 18:01:30 BST 2022)
(GPL source distribution)
Java Runtime: Java(TM) SE Runtime Environment
JVM: Java HotSpot(TM) 64-Bit Server VM
Default Encoding: Cp1252
Language: pt
Country: PT
--></g></svg>