<?xml version="1.0" encoding="UTF-8" standalone="no"?><svg xmlns="http://www.w3.org/2000/svg" xmlns:xlink="http://www.w3.org/1999/xlink" contentStyleType="text/css" height="448px" preserveAspectRatio="none" style="width:721px;height:448px;background:#FFFFFF;" version="1.1" viewBox="0 0 721 448" width="721px" zoomAndPan="magnify"><defs/><g><rect fill="none" height="27.6094" id="_title" style="stroke:none;stroke-width:1.0;" width="165" x="280.25" y="10"/><text fill="#000000" font-family="sans-serif" font-size="14" font-weight="bold" lengthAdjust="spacing" textLength="155" x="285.25" y="29.5332">Lvl 2 - Create Delivery</text><rect fill="#FFFFFF" height="217.4609" style="stroke:#181818;stroke-width:1.0;" width="10" x="69.5" y="131.2188"/><rect fill="#FFFFFF" height="30.3516" style="stroke:#181818;stroke-width:1.0;" width="10" x="418.5" y="153.5703"/><rect fill="#FFFFFF" height="134.4063" style="stroke:#181818;stroke-width:1.0;" width="10" x="418.5" y="214.2734"/><rect fill="#FFFFFF" height="73.7031" style="stroke:#181818;stroke-width:1.0;" width="10" x="580.5" y="244.625"/><line style="stroke:#181818;stroke-width:0.5;stroke-dasharray:5.0,5.0;" x1="74" x2="74" y1="121.2188" y2="366.6797"/><line style="stroke:#181818;stroke-width:0.5;stroke-dasharray:5.0,5.0;" x1="423.5" x2="423.5" y1="121.2188" y2="366.6797"/><line style="stroke:#181818;stroke-width:0.5;stroke-dasharray:5.0,5.0;" x1="585.5" x2="585.5" y1="121.2188" y2="366.6797"/><text fill="#000000" font-family="sans-serif" font-size="14" lengthAdjust="spacing" textLength="133" x="5" y="118.1426">Warehouse Manager</text><ellipse cx="74.5" cy="52.1094" fill="#E2E2F0" rx="8" ry="8" style="stroke:#181818;stroke-width:0.5;"/><path d="M74.5,60.1094 L74.5,87.1094 M61.5,68.1094 L87.5,68.1094 M74.5,87.1094 L61.5,102.1094 M74.5,87.1094 L87.5,102.1094 " fill="none" style="stroke:#181818;stroke-width:0.5;"/><text fill="#000000" font-family="sans-serif" font-size="14" lengthAdjust="spacing" textLength="133" x="5" y="380.2129">Warehouse Manager</text><ellipse cx="74.5" cy="391.7891" fill="#E2E2F0" rx="8" ry="8" style="stroke:#181818;stroke-width:0.5;"/><path d="M74.5,399.7891 L74.5,426.7891 M61.5,407.7891 L87.5,407.7891 M74.5,426.7891 L61.5,441.7891 M74.5,426.7891 L87.5,441.7891 " fill="none" style="stroke:#181818;stroke-width:0.5;"/><rect fill="#E2E2F0" height="49.2188" rx="2.5" ry="2.5" style="stroke:#181818;stroke-width:0.5;" width="152" x="347.5" y="71"/><text fill="#000000" font-family="sans-serif" font-size="14" lengthAdjust="spacing" textLength="134" x="354.5" y="92.5332">&lt;&lt; Container (C4) &gt;&gt;</text><text fill="#000000" font-family="sans-serif" font-size="14" lengthAdjust="spacing" textLength="27" x="412" y="110.1426">SPA</text><rect fill="#E2E2F0" height="49.2188" rx="2.5" ry="2.5" style="stroke:#181818;stroke-width:0.5;" width="152" x="347.5" y="365.6797"/><text fill="#000000" font-family="sans-serif" font-size="14" lengthAdjust="spacing" textLength="134" x="354.5" y="387.2129">&lt;&lt; Container (C4) &gt;&gt;</text><text fill="#000000" font-family="sans-serif" font-size="14" lengthAdjust="spacing" textLength="27" x="412" y="404.8223">SPA</text><rect fill="#E2E2F0" height="49.2188" rx="2.5" ry="2.5" style="stroke:#181818;stroke-width:0.5;" width="152" x="509.5" y="71"/><text fill="#000000" font-family="sans-serif" font-size="14" lengthAdjust="spacing" textLength="134" x="516.5" y="92.5332">&lt;&lt; Container (C4) &gt;&gt;</text><text fill="#000000" font-family="sans-serif" font-size="14" lengthAdjust="spacing" textLength="119" x="528" y="110.1426">WarehouseModule</text><rect fill="#E2E2F0" height="49.2188" rx="2.5" ry="2.5" style="stroke:#181818;stroke-width:0.5;" width="152" x="509.5" y="365.6797"/><text fill="#000000" font-family="sans-serif" font-size="14" lengthAdjust="spacing" textLength="134" x="516.5" y="387.2129">&lt;&lt; Container (C4) &gt;&gt;</text><text fill="#000000" font-family="sans-serif" font-size="14" lengthAdjust="spacing" textLength="119" x="528" y="404.8223">WarehouseModule</text><rect fill="#FFFFFF" height="217.4609" style="stroke:#181818;stroke-width:1.0;" width="10" x="69.5" y="131.2188"/><rect fill="#FFFFFF" height="30.3516" style="stroke:#181818;stroke-width:1.0;" width="10" x="418.5" y="153.5703"/><rect fill="#FFFFFF" height="134.4063" style="stroke:#181818;stroke-width:1.0;" width="10" x="418.5" y="214.2734"/><rect fill="#FFFFFF" height="73.7031" style="stroke:#181818;stroke-width:1.0;" width="10" x="580.5" y="244.625"/><polygon fill="#181818" points="406.5,149.5703,416.5,153.5703,406.5,157.5703,410.5,153.5703" style="stroke:#181818;stroke-width:1.0;"/><line style="stroke:#181818;stroke-width:1.0;" x1="79.5" x2="412.5" y1="153.5703" y2="153.5703"/><text fill="#000000" font-family="sans-serif" font-size="13" font-weight="bold" lengthAdjust="spacing" textLength="7" x="86.5" y="148.7139">1</text><text fill="#000000" font-family="sans-serif" font-size="13" lengthAdjust="spacing" textLength="218" x="97.5" y="148.7139">Selects the option to create a delivery</text><polygon fill="#181818" points="90.5,179.9219,80.5,183.9219,90.5,187.9219,86.5,183.9219" style="stroke:#181818;stroke-width:1.0;"/><line style="stroke:#181818;stroke-width:1.0;stroke-dasharray:2.0,2.0;" x1="84.5" x2="422.5" y1="183.9219" y2="183.9219"/><text fill="#000000" font-family="sans-serif" font-size="13" font-weight="bold" lengthAdjust="spacing" textLength="7" x="96.5" y="179.0654">2</text><text fill="#000000" font-family="sans-serif" font-size="13" lengthAdjust="spacing" textLength="170" x="107.5" y="179.0654">Requests the necessary data</text><polygon fill="#181818" points="406.5,210.2734,416.5,214.2734,406.5,218.2734,410.5,214.2734" style="stroke:#181818;stroke-width:1.0;"/><line style="stroke:#181818;stroke-width:1.0;" x1="79.5" x2="412.5" y1="214.2734" y2="214.2734"/><text fill="#000000" font-family="sans-serif" font-size="13" font-weight="bold" lengthAdjust="spacing" textLength="7" x="86.5" y="209.417">3</text><text fill="#000000" font-family="sans-serif" font-size="13" lengthAdjust="spacing" textLength="155" x="97.5" y="209.417">Inserts the requested data.</text><polygon fill="#181818" points="568.5,240.625,578.5,244.625,568.5,248.625,572.5,244.625" style="stroke:#181818;stroke-width:1.0;"/><line style="stroke:#181818;stroke-width:1.0;" x1="428.5" x2="574.5" y1="244.625" y2="244.625"/><text fill="#000000" font-family="sans-serif" font-size="13" font-weight="bold" lengthAdjust="spacing" textLength="7" x="435.5" y="239.7686">4</text><text fill="#000000" font-family="sans-serif" font-size="13" lengthAdjust="spacing" textLength="109" x="446.5" y="239.7686">POST /api/Delivery</text><line style="stroke:#181818;stroke-width:1.0;" x1="590.5" x2="632.5" y1="274.9766" y2="274.9766"/><line style="stroke:#181818;stroke-width:1.0;" x1="632.5" x2="632.5" y1="274.9766" y2="287.9766"/><line style="stroke:#181818;stroke-width:1.0;" x1="591.5" x2="632.5" y1="287.9766" y2="287.9766"/><polygon fill="#181818" points="601.5,283.9766,591.5,287.9766,601.5,291.9766,597.5,287.9766" style="stroke:#181818;stroke-width:1.0;"/><text fill="#000000" font-family="sans-serif" font-size="13" font-weight="bold" lengthAdjust="spacing" textLength="7" x="597.5" y="270.1201">5</text><text fill="#000000" font-family="sans-serif" font-size="13" lengthAdjust="spacing" textLength="106" x="608.5" y="270.1201">save(DeliveryData)</text><polygon fill="#181818" points="439.5,314.3281,429.5,318.3281,439.5,322.3281,435.5,318.3281" style="stroke:#181818;stroke-width:1.0;"/><line style="stroke:#181818;stroke-width:1.0;" x1="433.5" x2="584.5" y1="318.3281" y2="318.3281"/><text fill="#000000" font-family="sans-serif" font-size="13" font-weight="bold" lengthAdjust="spacing" textLength="7" x="445.5" y="313.4717">6</text><text fill="#000000" font-family="sans-serif" font-size="13" lengthAdjust="spacing" textLength="106" x="456.5" y="313.4717">HTTP 201 Created</text><polygon fill="#181818" points="85.5,344.6797,75.5,348.6797,85.5,352.6797,81.5,348.6797" style="stroke:#181818;stroke-width:1.0;"/><line style="stroke:#181818;stroke-width:1.0;stroke-dasharray:2.0,2.0;" x1="79.5" x2="422.5" y1="348.6797" y2="348.6797"/><text fill="#000000" font-family="sans-serif" font-size="13" font-weight="bold" lengthAdjust="spacing" textLength="7" x="91.5" y="343.8232">7</text><text fill="#000000" font-family="sans-serif" font-size="13" lengthAdjust="spacing" textLength="304" x="102.5" y="343.8232">Validates the data and informs of operation success.</text><!--MD5=[0dcbf4010f578809eb26e7c7f2123412]
@startuml US

title Lvl 2 - Create Delivery

autonumber

actor "Warehouse Manager" as WM
participant "<< Container (C4) >> \n SPA" as S
participant "<< Container (C4) >> \n WarehouseModule" as WMD


activate WM
WM -> S : Selects the option to create a delivery
activate S
S - -> WM : Requests the necessary data
deactivate S

WM -> S : Inserts the requested data.
activate S

S -> WMD : POST /api/Delivery
activate WMD

WMD -> WMD : save(DeliveryData)

WMD -> S : HTTP 201 Created
deactivate WMD

S - -> WM : Validates the data and informs of operation success.

deactivate S

deactivate WM

@enduml

PlantUML version 1.2022.7(Mon Aug 22 18:01:30 WEST 2022)
(GPL source distribution)
Java Runtime: Java(TM) SE Runtime Environment
JVM: Java HotSpot(TM) 64-Bit Server VM
Default Encoding: Cp1252
Language: pt
Country: PT
--></g></svg>