<?xml version="1.0" encoding="UTF-8" standalone="no"?><svg xmlns="http://www.w3.org/2000/svg" xmlns:xlink="http://www.w3.org/1999/xlink" contentStyleType="text/css" height="423px" preserveAspectRatio="none" style="width:626px;height:423px;background:#FFFFFF;" version="1.1" viewBox="0 0 626 423" width="626px" zoomAndPan="magnify"><defs/><g><rect fill="none" height="27.6094" id="_title" style="stroke:none;stroke-width:1.0;" width="220" x="204.75" y="10"/><text fill="#000000" font-family="sans-serif" font-size="14" font-weight="bold" lengthAdjust="spacing" textLength="210" x="209.75" y="29.5332">View Level 2 - List Packagings</text><rect fill="#FFFFFF" height="156.7578" style="stroke:#181818;stroke-width:1.0;" width="10" x="60.5" y="148.8281"/><rect fill="#FFFFFF" height="134.4063" style="stroke:#181818;stroke-width:1.0;" width="10" x="304.5" y="171.1797"/><rect fill="#FFFFFF" height="30.3516" style="stroke:#181818;stroke-width:1.0;" width="10" x="550.5" y="201.5313"/><line style="stroke:#181818;stroke-width:0.5;stroke-dasharray:5.0,5.0;" x1="65" x2="65" y1="138.8281" y2="323.5859"/><line style="stroke:#181818;stroke-width:0.5;stroke-dasharray:5.0,5.0;" x1="309.5" x2="309.5" y1="138.8281" y2="323.5859"/><line style="stroke:#181818;stroke-width:0.5;stroke-dasharray:5.0,5.0;" x1="555.5" x2="555.5" y1="138.8281" y2="323.5859"/><text fill="#000000" font-family="sans-serif" font-size="14" lengthAdjust="spacing" textLength="115" x="5" y="135.752">Logistics Manager</text><ellipse cx="65.5" cy="69.7188" fill="#E2E2F0" rx="8" ry="8" style="stroke:#181818;stroke-width:0.5;"/><path d="M65.5,77.7188 L65.5,104.7188 M52.5,85.7188 L78.5,85.7188 M65.5,104.7188 L52.5,119.7188 M65.5,104.7188 L78.5,119.7188 " fill="none" style="stroke:#181818;stroke-width:0.5;"/><text fill="#000000" font-family="sans-serif" font-size="14" lengthAdjust="spacing" textLength="115" x="5" y="337.1191">Logistics Manager</text><ellipse cx="65.5" cy="348.6953" fill="#E2E2F0" rx="8" ry="8" style="stroke:#181818;stroke-width:0.5;"/><path d="M65.5,356.6953 L65.5,383.6953 M52.5,364.6953 L78.5,364.6953 M65.5,383.6953 L52.5,398.6953 M65.5,383.6953 L78.5,398.6953 " fill="none" style="stroke:#181818;stroke-width:0.5;"/><text fill="#000000" font-family="sans-serif" font-size="14" lengthAdjust="spacing" textLength="130" x="239.5" y="118.1426">&lt;&lt; Container (C4)&gt;&gt;</text><text fill="#000000" font-family="sans-serif" font-size="14" lengthAdjust="spacing" textLength="101" x="258" y="135.752">:Visual Interface</text><ellipse cx="309.5" cy="52.1094" fill="#E2E2F0" rx="8" ry="8" style="stroke:#181818;stroke-width:0.5;"/><path d="M309.5,60.1094 L309.5,87.1094 M296.5,68.1094 L322.5,68.1094 M309.5,87.1094 L296.5,102.1094 M309.5,87.1094 L322.5,102.1094 " fill="none" style="stroke:#181818;stroke-width:0.5;"/><text fill="#000000" font-family="sans-serif" font-size="14" lengthAdjust="spacing" textLength="130" x="239.5" y="337.1191">&lt;&lt; Container (C4)&gt;&gt;</text><text fill="#000000" font-family="sans-serif" font-size="14" lengthAdjust="spacing" textLength="101" x="258" y="354.7285">:Visual Interface</text><ellipse cx="309.5" cy="366.3047" fill="#E2E2F0" rx="8" ry="8" style="stroke:#181818;stroke-width:0.5;"/><path d="M309.5,374.3047 L309.5,401.3047 M296.5,382.3047 L322.5,382.3047 M309.5,401.3047 L296.5,416.3047 M309.5,401.3047 L322.5,416.3047 " fill="none" style="stroke:#181818;stroke-width:0.5;"/><text fill="#000000" font-family="sans-serif" font-size="14" lengthAdjust="spacing" textLength="130" x="485.5" y="118.1426">&lt;&lt; Container (C4)&gt;&gt;</text><text fill="#000000" font-family="sans-serif" font-size="14" lengthAdjust="spacing" textLength="59" x="525" y="135.752">:Logistics</text><ellipse cx="555.5" cy="52.1094" fill="#E2E2F0" rx="8" ry="8" style="stroke:#181818;stroke-width:0.5;"/><path d="M555.5,60.1094 L555.5,87.1094 M542.5,68.1094 L568.5,68.1094 M555.5,87.1094 L542.5,102.1094 M555.5,87.1094 L568.5,102.1094 " fill="none" style="stroke:#181818;stroke-width:0.5;"/><text fill="#000000" font-family="sans-serif" font-size="14" lengthAdjust="spacing" textLength="130" x="485.5" y="337.1191">&lt;&lt; Container (C4)&gt;&gt;</text><text fill="#000000" font-family="sans-serif" font-size="14" lengthAdjust="spacing" textLength="59" x="525" y="354.7285">:Logistics</text><ellipse cx="555.5" cy="366.3047" fill="#E2E2F0" rx="8" ry="8" style="stroke:#181818;stroke-width:0.5;"/><path d="M555.5,374.3047 L555.5,401.3047 M542.5,382.3047 L568.5,382.3047 M555.5,401.3047 L542.5,416.3047 M555.5,401.3047 L568.5,416.3047 " fill="none" style="stroke:#181818;stroke-width:0.5;"/><rect fill="#FFFFFF" height="156.7578" style="stroke:#181818;stroke-width:1.0;" width="10" x="60.5" y="148.8281"/><rect fill="#FFFFFF" height="134.4063" style="stroke:#181818;stroke-width:1.0;" width="10" x="304.5" y="171.1797"/><rect fill="#FFFFFF" height="30.3516" style="stroke:#181818;stroke-width:1.0;" width="10" x="550.5" y="201.5313"/><polygon fill="#181818" points="292.5,167.1797,302.5,171.1797,292.5,175.1797,296.5,171.1797" style="stroke:#181818;stroke-width:1.0;"/><line style="stroke:#181818;stroke-width:1.0;" x1="70.5" x2="298.5" y1="171.1797" y2="171.1797"/><text fill="#000000" font-family="sans-serif" font-size="13" font-weight="bold" lengthAdjust="spacing" textLength="7" x="77.5" y="166.3232">1</text><text fill="#000000" font-family="sans-serif" font-size="13" lengthAdjust="spacing" textLength="204" x="88.5" y="166.3232">Asks to view the list of packagings.</text><polygon fill="#181818" points="538.5,197.5313,548.5,201.5313,538.5,205.5313,542.5,201.5313" style="stroke:#181818;stroke-width:1.0;"/><line style="stroke:#181818;stroke-width:1.0;" x1="314.5" x2="544.5" y1="201.5313" y2="201.5313"/><text fill="#000000" font-family="sans-serif" font-size="13" font-weight="bold" lengthAdjust="spacing" textLength="7" x="321.5" y="196.6748">2</text><text fill="#000000" font-family="sans-serif" font-size="13" lengthAdjust="spacing" textLength="190" x="332.5" y="196.6748">GET /packagings packagingData</text><polygon fill="#181818" points="325.5,227.8828,315.5,231.8828,325.5,235.8828,321.5,231.8828" style="stroke:#181818;stroke-width:1.0;"/><line style="stroke:#181818;stroke-width:1.0;" x1="319.5" x2="554.5" y1="231.8828" y2="231.8828"/><text fill="#000000" font-family="sans-serif" font-size="13" font-weight="bold" lengthAdjust="spacing" textLength="7" x="331.5" y="227.0264">3</text><text fill="#000000" font-family="sans-serif" font-size="13" lengthAdjust="spacing" textLength="133" x="342.5" y="227.0264">200 packagings(JSON)</text><line style="stroke:#181818;stroke-width:1.0;" x1="314.5" x2="356.5" y1="262.2344" y2="262.2344"/><line style="stroke:#181818;stroke-width:1.0;" x1="356.5" x2="356.5" y1="262.2344" y2="275.2344"/><line style="stroke:#181818;stroke-width:1.0;" x1="315.5" x2="356.5" y1="275.2344" y2="275.2344"/><polygon fill="#181818" points="325.5,271.2344,315.5,275.2344,325.5,279.2344,321.5,275.2344" style="stroke:#181818;stroke-width:1.0;"/><text fill="#000000" font-family="sans-serif" font-size="13" font-weight="bold" lengthAdjust="spacing" textLength="7" x="321.5" y="257.3779">4</text><text fill="#000000" font-family="sans-serif" font-size="13" lengthAdjust="spacing" textLength="211" x="332.5" y="257.3779">Functionality executed successfully.</text><polygon fill="#181818" points="76.5,301.5859,66.5,305.5859,76.5,309.5859,72.5,305.5859" style="stroke:#181818;stroke-width:1.0;"/><line style="stroke:#181818;stroke-width:1.0;stroke-dasharray:2.0,2.0;" x1="70.5" x2="308.5" y1="305.5859" y2="305.5859"/><text fill="#000000" font-family="sans-serif" font-size="13" font-weight="bold" lengthAdjust="spacing" textLength="7" x="82.5" y="300.7295">5</text><text fill="#000000" font-family="sans-serif" font-size="13" lengthAdjust="spacing" textLength="97" x="93.5" y="300.7295">Shows truck list.</text><!--MD5=[3255916ad9fe04432c4499600a5141a7]
@startuml

title View Level 2 - List Packagings

autonumber

actor "Logistics Manager" as LM
actor "<< Container (C4)>> \n :Visual Interface" as SYS
actor "<< Container (C4)>> \n :Logistics" as L


activate LM
LM -> SYS : Asks to view the list of packagings.
activate SYS

SYS -> L : GET /packagings packagingData
activate L

L -> SYS : 200 packagings(JSON)
deactivate L

SYS -> SYS : Functionality executed successfully.

SYS - -> LM : Shows truck list.
deactivate SYS

deactivate LM

@enduml

PlantUML version 1.2022.7(Mon Aug 22 18:01:30 WEST 2022)
(GPL source distribution)
Java Runtime: Java(TM) SE Runtime Environment
JVM: Java HotSpot(TM) 64-Bit Server VM
Default Encoding: Cp1252
Language: pt
Country: PT
--></g></svg>