<?xml version="1.0" encoding="UTF-8" standalone="no"?><svg xmlns="http://www.w3.org/2000/svg" xmlns:xlink="http://www.w3.org/1999/xlink" contentStyleType="text/css" height="717px" preserveAspectRatio="none" style="width:1194px;height:717px;background:#FFFFFF;" version="1.1" viewBox="0 0 1194 717" width="1194px" zoomAndPan="magnify"><defs/><g><rect fill="none" height="27.6094" id="_title" style="stroke:none;stroke-width:1.0;" width="187" x="505.75" y="10"/><text fill="#000000" font-family="sans-serif" font-size="14" font-weight="bold" lengthAdjust="spacing" textLength="177" x="510.75" y="29.5332">Lvl 2 - Create Warehouse</text><rect fill="#FFFFFF" height="486.2734" style="stroke:#181818;stroke-width:1.0;" width="10" x="69.5" y="131.2188"/><rect fill="#FFFFFF" height="134.4063" style="stroke:#181818;stroke-width:1.0;" width="10" x="425.5" y="153.5703"/><rect fill="#FFFFFF" height="134.4063" style="stroke:#181818;stroke-width:1.0;" width="10" x="425.5" y="318.3281"/><rect fill="#FFFFFF" height="134.4063" style="stroke:#181818;stroke-width:1.0;" width="10" x="425.5" y="483.0859"/><rect fill="#FFFFFF" height="73.7031" style="stroke:#181818;stroke-width:1.0;" width="10" x="642.5" y="183.9219"/><rect fill="#FFFFFF" height="73.7031" style="stroke:#181818;stroke-width:1.0;" width="10" x="863.5" y="348.6797"/><rect fill="#FFFFFF" height="73.7031" style="stroke:#181818;stroke-width:1.0;" width="10" x="1025.5" y="513.4375"/><line style="stroke:#181818;stroke-width:0.5;stroke-dasharray:5.0,5.0;" x1="74" x2="74" y1="121.2188" y2="635.4922"/><line style="stroke:#181818;stroke-width:0.5;stroke-dasharray:5.0,5.0;" x1="430.5" x2="430.5" y1="121.2188" y2="635.4922"/><line style="stroke:#181818;stroke-width:0.5;stroke-dasharray:5.0,5.0;" x1="647.5" x2="647.5" y1="121.2188" y2="635.4922"/><line style="stroke:#181818;stroke-width:0.5;stroke-dasharray:5.0,5.0;" x1="868.5" x2="868.5" y1="121.2188" y2="635.4922"/><line style="stroke:#181818;stroke-width:0.5;stroke-dasharray:5.0,5.0;" x1="1030.5" x2="1030.5" y1="121.2188" y2="635.4922"/><text fill="#000000" font-family="sans-serif" font-size="14" lengthAdjust="spacing" textLength="133" x="5" y="118.1426">Warehouse Manager</text><ellipse cx="74.5" cy="52.1094" fill="#E2E2F0" rx="8" ry="8" style="stroke:#181818;stroke-width:0.5;"/><path d="M74.5,60.1094 L74.5,87.1094 M61.5,68.1094 L87.5,68.1094 M74.5,87.1094 L61.5,102.1094 M74.5,87.1094 L87.5,102.1094 " fill="none" style="stroke:#181818;stroke-width:0.5;"/><text fill="#000000" font-family="sans-serif" font-size="14" lengthAdjust="spacing" textLength="133" x="5" y="649.0254">Warehouse Manager</text><ellipse cx="74.5" cy="660.6016" fill="#E2E2F0" rx="8" ry="8" style="stroke:#181818;stroke-width:0.5;"/><path d="M74.5,668.6016 L74.5,695.6016 M61.5,676.6016 L87.5,676.6016 M74.5,695.6016 L61.5,710.6016 M74.5,695.6016 L87.5,710.6016 " fill="none" style="stroke:#181818;stroke-width:0.5;"/><rect fill="#E2E2F0" height="49.2188" rx="2.5" ry="2.5" style="stroke:#181818;stroke-width:0.5;" width="152" x="354.5" y="71"/><text fill="#000000" font-family="sans-serif" font-size="14" lengthAdjust="spacing" textLength="134" x="361.5" y="92.5332">&lt;&lt; Container (C4) &gt;&gt;</text><text fill="#000000" font-family="sans-serif" font-size="14" lengthAdjust="spacing" textLength="27" x="419" y="110.1426">SPA</text><rect fill="#E2E2F0" height="49.2188" rx="2.5" ry="2.5" style="stroke:#181818;stroke-width:0.5;" width="152" x="354.5" y="634.4922"/><text fill="#000000" font-family="sans-serif" font-size="14" lengthAdjust="spacing" textLength="134" x="361.5" y="656.0254">&lt;&lt; Container (C4) &gt;&gt;</text><text fill="#000000" font-family="sans-serif" font-size="14" lengthAdjust="spacing" textLength="27" x="419" y="673.6348">SPA</text><rect fill="#E2E2F0" height="49.2188" rx="2.5" ry="2.5" style="stroke:#181818;stroke-width:0.5;" width="152" x="571.5" y="71"/><text fill="#000000" font-family="sans-serif" font-size="14" lengthAdjust="spacing" textLength="134" x="578.5" y="92.5332">&lt;&lt; Container (C4) &gt;&gt;</text><text fill="#000000" font-family="sans-serif" font-size="14" lengthAdjust="spacing" textLength="115" x="592" y="110.1426">SSO Authetication</text><rect fill="#E2E2F0" height="49.2188" rx="2.5" ry="2.5" style="stroke:#181818;stroke-width:0.5;" width="152" x="571.5" y="634.4922"/><text fill="#000000" font-family="sans-serif" font-size="14" lengthAdjust="spacing" textLength="134" x="578.5" y="656.0254">&lt;&lt; Container (C4) &gt;&gt;</text><text fill="#000000" font-family="sans-serif" font-size="14" lengthAdjust="spacing" textLength="115" x="592" y="673.6348">SSO Authetication</text><rect fill="#E2E2F0" height="49.2188" rx="2.5" ry="2.5" style="stroke:#181818;stroke-width:0.5;" width="152" x="792.5" y="71"/><text fill="#000000" font-family="sans-serif" font-size="14" lengthAdjust="spacing" textLength="134" x="799.5" y="92.5332">&lt;&lt; Container (C4) &gt;&gt;</text><text fill="#000000" font-family="sans-serif" font-size="14" lengthAdjust="spacing" textLength="69" x="836" y="110.1426">AuthGuard</text><rect fill="#E2E2F0" height="49.2188" rx="2.5" ry="2.5" style="stroke:#181818;stroke-width:0.5;" width="152" x="792.5" y="634.4922"/><text fill="#000000" font-family="sans-serif" font-size="14" lengthAdjust="spacing" textLength="134" x="799.5" y="656.0254">&lt;&lt; Container (C4) &gt;&gt;</text><text fill="#000000" font-family="sans-serif" font-size="14" lengthAdjust="spacing" textLength="69" x="836" y="673.6348">AuthGuard</text><rect fill="#E2E2F0" height="49.2188" rx="2.5" ry="2.5" style="stroke:#181818;stroke-width:0.5;" width="152" x="954.5" y="71"/><text fill="#000000" font-family="sans-serif" font-size="14" lengthAdjust="spacing" textLength="134" x="961.5" y="92.5332">&lt;&lt; Container (C4) &gt;&gt;</text><text fill="#000000" font-family="sans-serif" font-size="14" lengthAdjust="spacing" textLength="119" x="973" y="110.1426">WarehouseModule</text><rect fill="#E2E2F0" height="49.2188" rx="2.5" ry="2.5" style="stroke:#181818;stroke-width:0.5;" width="152" x="954.5" y="634.4922"/><text fill="#000000" font-family="sans-serif" font-size="14" lengthAdjust="spacing" textLength="134" x="961.5" y="656.0254">&lt;&lt; Container (C4) &gt;&gt;</text><text fill="#000000" font-family="sans-serif" font-size="14" lengthAdjust="spacing" textLength="119" x="973" y="673.6348">WarehouseModule</text><rect fill="#FFFFFF" height="486.2734" style="stroke:#181818;stroke-width:1.0;" width="10" x="69.5" y="131.2188"/><rect fill="#FFFFFF" height="134.4063" style="stroke:#181818;stroke-width:1.0;" width="10" x="425.5" y="153.5703"/><rect fill="#FFFFFF" height="134.4063" style="stroke:#181818;stroke-width:1.0;" width="10" x="425.5" y="318.3281"/><rect fill="#FFFFFF" height="134.4063" style="stroke:#181818;stroke-width:1.0;" width="10" x="425.5" y="483.0859"/><rect fill="#FFFFFF" height="73.7031" style="stroke:#181818;stroke-width:1.0;" width="10" x="642.5" y="183.9219"/><rect fill="#FFFFFF" height="73.7031" style="stroke:#181818;stroke-width:1.0;" width="10" x="863.5" y="348.6797"/><rect fill="#FFFFFF" height="73.7031" style="stroke:#181818;stroke-width:1.0;" width="10" x="1025.5" y="513.4375"/><polygon fill="#181818" points="413.5,149.5703,423.5,153.5703,413.5,157.5703,417.5,153.5703" style="stroke:#181818;stroke-width:1.0;"/><line style="stroke:#181818;stroke-width:1.0;" x1="79.5" x2="419.5" y1="153.5703" y2="153.5703"/><text fill="#000000" font-family="sans-serif" font-size="13" font-weight="bold" lengthAdjust="spacing" textLength="7" x="86.5" y="148.7139">1</text><text fill="#000000" font-family="sans-serif" font-size="13" lengthAdjust="spacing" textLength="190" x="97.5" y="148.7139">Clicks sign-in with Google button</text><polygon fill="#181818" points="630.5,179.9219,640.5,183.9219,630.5,187.9219,634.5,183.9219" style="stroke:#181818;stroke-width:1.0;"/><line style="stroke:#181818;stroke-width:1.0;" x1="435.5" x2="636.5" y1="183.9219" y2="183.9219"/><text fill="#000000" font-family="sans-serif" font-size="13" font-weight="bold" lengthAdjust="spacing" textLength="7" x="442.5" y="179.0654">2</text><text fill="#000000" font-family="sans-serif" font-size="13" lengthAdjust="spacing" textLength="177" x="453.5" y="179.0654">Logs in with a Google Account</text><line style="stroke:#181818;stroke-width:1.0;stroke-dasharray:2.0,2.0;" x1="652.5" x2="694.5" y1="214.2734" y2="214.2734"/><line style="stroke:#181818;stroke-width:1.0;stroke-dasharray:2.0,2.0;" x1="694.5" x2="694.5" y1="214.2734" y2="227.2734"/><line style="stroke:#181818;stroke-width:1.0;stroke-dasharray:2.0,2.0;" x1="653.5" x2="694.5" y1="227.2734" y2="227.2734"/><polygon fill="#181818" points="663.5,223.2734,653.5,227.2734,663.5,231.2734,659.5,227.2734" style="stroke:#181818;stroke-width:1.0;"/><text fill="#000000" font-family="sans-serif" font-size="13" font-weight="bold" lengthAdjust="spacing" textLength="7" x="659.5" y="209.417">3</text><text fill="#000000" font-family="sans-serif" font-size="13" lengthAdjust="spacing" textLength="186" x="670.5" y="209.417">Checks if the email is registered</text><polygon fill="#181818" points="446.5,253.625,436.5,257.625,446.5,261.625,442.5,257.625" style="stroke:#181818;stroke-width:1.0;"/><line style="stroke:#181818;stroke-width:1.0;stroke-dasharray:2.0,2.0;" x1="440.5" x2="646.5" y1="257.625" y2="257.625"/><text fill="#000000" font-family="sans-serif" font-size="13" font-weight="bold" lengthAdjust="spacing" textLength="7" x="452.5" y="252.7686">4</text><text fill="#000000" font-family="sans-serif" font-size="13" lengthAdjust="spacing" textLength="91" x="463.5" y="252.7686">Email is correct</text><polygon fill="#181818" points="90.5,283.9766,80.5,287.9766,90.5,291.9766,86.5,287.9766" style="stroke:#181818;stroke-width:1.0;"/><line style="stroke:#181818;stroke-width:1.0;stroke-dasharray:2.0,2.0;" x1="84.5" x2="429.5" y1="287.9766" y2="287.9766"/><text fill="#000000" font-family="sans-serif" font-size="13" font-weight="bold" lengthAdjust="spacing" textLength="7" x="96.5" y="283.1201">5</text><text fill="#000000" font-family="sans-serif" font-size="13" lengthAdjust="spacing" textLength="218" x="107.5" y="283.1201">Shows Warehouse Manager Features</text><polygon fill="#181818" points="413.5,314.3281,423.5,318.3281,413.5,322.3281,417.5,318.3281" style="stroke:#181818;stroke-width:1.0;"/><line style="stroke:#181818;stroke-width:1.0;" x1="79.5" x2="419.5" y1="318.3281" y2="318.3281"/><text fill="#000000" font-family="sans-serif" font-size="13" font-weight="bold" lengthAdjust="spacing" textLength="7" x="86.5" y="313.4717">6</text><text fill="#000000" font-family="sans-serif" font-size="13" lengthAdjust="spacing" textLength="237" x="97.5" y="313.4717">Selects the option to create a warehouse</text><polygon fill="#181818" points="851.5,344.6797,861.5,348.6797,851.5,352.6797,855.5,348.6797" style="stroke:#181818;stroke-width:1.0;"/><line style="stroke:#181818;stroke-width:1.0;stroke-dasharray:2.0,2.0;" x1="435.5" x2="857.5" y1="348.6797" y2="348.6797"/><text fill="#000000" font-family="sans-serif" font-size="13" font-weight="bold" lengthAdjust="spacing" textLength="7" x="442.5" y="343.8232">7</text><text fill="#000000" font-family="sans-serif" font-size="13" lengthAdjust="spacing" textLength="313" x="453.5" y="343.8232">Checks if this user has Authorization to view this page</text><line style="stroke:#181818;stroke-width:1.0;" x1="873.5" x2="915.5" y1="379.0313" y2="379.0313"/><line style="stroke:#181818;stroke-width:1.0;" x1="915.5" x2="915.5" y1="379.0313" y2="392.0313"/><line style="stroke:#181818;stroke-width:1.0;" x1="874.5" x2="915.5" y1="392.0313" y2="392.0313"/><polygon fill="#181818" points="884.5,388.0313,874.5,392.0313,884.5,396.0313,880.5,392.0313" style="stroke:#181818;stroke-width:1.0;"/><text fill="#000000" font-family="sans-serif" font-size="13" font-weight="bold" lengthAdjust="spacing" textLength="7" x="880.5" y="374.1748">8</text><text fill="#000000" font-family="sans-serif" font-size="13" lengthAdjust="spacing" textLength="106" x="891.5" y="374.1748">CanActivateChild()</text><polygon fill="#181818" points="446.5,418.3828,436.5,422.3828,446.5,426.3828,442.5,422.3828" style="stroke:#181818;stroke-width:1.0;"/><line style="stroke:#181818;stroke-width:1.0;stroke-dasharray:2.0,2.0;" x1="440.5" x2="867.5" y1="422.3828" y2="422.3828"/><text fill="#000000" font-family="sans-serif" font-size="13" font-weight="bold" lengthAdjust="spacing" textLength="7" x="452.5" y="417.5264">9</text><text fill="#000000" font-family="sans-serif" font-size="13" lengthAdjust="spacing" textLength="62" x="463.5" y="417.5264">Authorized</text><polygon fill="#181818" points="90.5,448.7344,80.5,452.7344,90.5,456.7344,86.5,452.7344" style="stroke:#181818;stroke-width:1.0;"/><line style="stroke:#181818;stroke-width:1.0;stroke-dasharray:2.0,2.0;" x1="84.5" x2="429.5" y1="452.7344" y2="452.7344"/><text fill="#000000" font-family="sans-serif" font-size="13" font-weight="bold" lengthAdjust="spacing" textLength="14" x="96.5" y="447.8779">10</text><text fill="#000000" font-family="sans-serif" font-size="13" lengthAdjust="spacing" textLength="170" x="114.5" y="447.8779">Requests the necessary data</text><polygon fill="#181818" points="413.5,479.0859,423.5,483.0859,413.5,487.0859,417.5,483.0859" style="stroke:#181818;stroke-width:1.0;"/><line style="stroke:#181818;stroke-width:1.0;" x1="79.5" x2="419.5" y1="483.0859" y2="483.0859"/><text fill="#000000" font-family="sans-serif" font-size="13" font-weight="bold" lengthAdjust="spacing" textLength="14" x="86.5" y="478.2295">11</text><text fill="#000000" font-family="sans-serif" font-size="13" lengthAdjust="spacing" textLength="155" x="104.5" y="478.2295">Inserts the requested data.</text><polygon fill="#181818" points="1013.5,509.4375,1023.5,513.4375,1013.5,517.4375,1017.5,513.4375" style="stroke:#181818;stroke-width:1.0;"/><line style="stroke:#181818;stroke-width:1.0;" x1="435.5" x2="1019.5" y1="513.4375" y2="513.4375"/><text fill="#000000" font-family="sans-serif" font-size="13" font-weight="bold" lengthAdjust="spacing" textLength="14" x="442.5" y="508.5811">12</text><text fill="#000000" font-family="sans-serif" font-size="13" lengthAdjust="spacing" textLength="130" x="460.5" y="508.5811">POST /api/Warehouse</text><line style="stroke:#181818;stroke-width:1.0;" x1="1035.5" x2="1077.5" y1="543.7891" y2="543.7891"/><line style="stroke:#181818;stroke-width:1.0;" x1="1077.5" x2="1077.5" y1="543.7891" y2="556.7891"/><line style="stroke:#181818;stroke-width:1.0;" x1="1036.5" x2="1077.5" y1="556.7891" y2="556.7891"/><polygon fill="#181818" points="1046.5,552.7891,1036.5,556.7891,1046.5,560.7891,1042.5,556.7891" style="stroke:#181818;stroke-width:1.0;"/><text fill="#000000" font-family="sans-serif" font-size="13" font-weight="bold" lengthAdjust="spacing" textLength="14" x="1042.5" y="538.9326">13</text><text fill="#000000" font-family="sans-serif" font-size="13" lengthAdjust="spacing" textLength="127" x="1060.5" y="538.9326">save(WarehouseData)</text><polygon fill="#181818" points="446.5,583.1406,436.5,587.1406,446.5,591.1406,442.5,587.1406" style="stroke:#181818;stroke-width:1.0;"/><line style="stroke:#181818;stroke-width:1.0;" x1="440.5" x2="1029.5" y1="587.1406" y2="587.1406"/><text fill="#000000" font-family="sans-serif" font-size="13" font-weight="bold" lengthAdjust="spacing" textLength="14" x="452.5" y="582.2842">14</text><text fill="#000000" font-family="sans-serif" font-size="13" lengthAdjust="spacing" textLength="106" x="470.5" y="582.2842">HTTP 201 Created</text><polygon fill="#181818" points="85.5,613.4922,75.5,617.4922,85.5,621.4922,81.5,617.4922" style="stroke:#181818;stroke-width:1.0;"/><line style="stroke:#181818;stroke-width:1.0;stroke-dasharray:2.0,2.0;" x1="79.5" x2="429.5" y1="617.4922" y2="617.4922"/><text fill="#000000" font-family="sans-serif" font-size="13" font-weight="bold" lengthAdjust="spacing" textLength="14" x="91.5" y="612.6357">15</text><text fill="#000000" font-family="sans-serif" font-size="13" lengthAdjust="spacing" textLength="304" x="109.5" y="612.6357">Validates the data and informs of operation success.</text><!--MD5=[12a3c76354e72484fb49eafcb6596ac0]
@startuml US

title Lvl 2 - Create Warehouse

autonumber

actor "Warehouse Manager" as WM
participant "<< Container (C4) >> \n SPA" as S
participant "<< Container (C4) >> \n SSO Authetication" as SSO
participant "<< Container (C4) >> \n AuthGuard" as AG
participant "<< Container (C4) >> \n WarehouseModule" as WMD

activate WM
WM -> S : Clicks sign-in with Google button
activate S
S -> SSO : Logs in with a Google Account
activate SSO
SSO - -> SSO : Checks if the email is registered
SSO - -> S : Email is correct
deactivate SSO
S - -> WM : Shows Warehouse Manager Features
deactivate S

WM -> S : Selects the option to create a warehouse
activate S
S - -> AG : Checks if this user has Authorization to view this page
activate AG
AG -> AG : CanActivateChild()
AG - -> S : Authorized
deactivate AG
S - -> WM : Requests the necessary data
deactivate S

WM -> S : Inserts the requested data.
activate S

S -> WMD : POST /api/Warehouse
activate WMD

WMD -> WMD : save(WarehouseData)

WMD -> S : HTTP 201 Created
deactivate WMD

S - -> WM : Validates the data and informs of operation success.

deactivate S

deactivate WM

@enduml

PlantUML version 1.2022.7(Mon Aug 22 18:01:30 WEST 2022)
(GPL source distribution)
Java Runtime: Java(TM) SE Runtime Environment
JVM: Java HotSpot(TM) 64-Bit Server VM
Default Encoding: Cp1252
Language: pt
Country: PT
--></g></svg>