<?xml version="1.0" encoding="UTF-8" standalone="no"?><svg xmlns="http://www.w3.org/2000/svg" xmlns:xlink="http://www.w3.org/1999/xlink" contentStyleType="text/css" height="466px" preserveAspectRatio="none" style="width:627px;height:466px;background:#FFFFFF;" version="1.1" viewBox="0 0 627 466" width="627px" zoomAndPan="magnify"><defs/><g><rect fill="none" height="27.6094" id="_title" style="stroke:none;stroke-width:1.0;" width="159" x="236.25" y="10"/><text fill="#000000" font-family="sans-serif" font-size="14" font-weight="bold" lengthAdjust="spacing" textLength="149" x="241.25" y="29.5332">SD - Get Warehouses</text><rect fill="#FFFFFF" height="200.1094" style="stroke:#181818;stroke-width:1.0;" width="10" x="69.5" y="148.8281"/><rect fill="#FFFFFF" height="177.7578" style="stroke:#181818;stroke-width:1.0;" width="10" x="273.5" y="171.1797"/><rect fill="#FFFFFF" height="73.7031" style="stroke:#181818;stroke-width:1.0;" width="10" x="519.5" y="201.5313"/><line style="stroke:#181818;stroke-width:0.5;stroke-dasharray:5.0,5.0;" x1="74" x2="74" y1="138.8281" y2="366.9375"/><line style="stroke:#181818;stroke-width:0.5;stroke-dasharray:5.0,5.0;" x1="278.5" x2="278.5" y1="138.8281" y2="366.9375"/><line style="stroke:#181818;stroke-width:0.5;stroke-dasharray:5.0,5.0;" x1="524.5" x2="524.5" y1="138.8281" y2="366.9375"/><text fill="#000000" font-family="sans-serif" font-size="14" lengthAdjust="spacing" textLength="133" x="5" y="135.752">Warehouse Manager</text><ellipse cx="74.5" cy="69.7188" fill="#E2E2F0" rx="8" ry="8" style="stroke:#181818;stroke-width:0.5;"/><path d="M74.5,77.7188 L74.5,104.7188 M61.5,85.7188 L87.5,85.7188 M74.5,104.7188 L61.5,119.7188 M74.5,104.7188 L87.5,119.7188 " fill="none" style="stroke:#181818;stroke-width:0.5;"/><text fill="#000000" font-family="sans-serif" font-size="14" lengthAdjust="spacing" textLength="133" x="5" y="380.4707">Warehouse Manager</text><ellipse cx="74.5" cy="392.0469" fill="#E2E2F0" rx="8" ry="8" style="stroke:#181818;stroke-width:0.5;"/><path d="M74.5,400.0469 L74.5,427.0469 M61.5,408.0469 L87.5,408.0469 M74.5,427.0469 L61.5,442.0469 M74.5,427.0469 L87.5,442.0469 " fill="none" style="stroke:#181818;stroke-width:0.5;"/><text fill="#000000" font-family="sans-serif" font-size="14" lengthAdjust="spacing" textLength="102" x="222.5" y="118.1426">&lt;&lt; Container &gt;&gt;</text><text fill="#000000" font-family="sans-serif" font-size="14" lengthAdjust="spacing" textLength="21" x="267" y="135.752">API</text><ellipse cx="278.5" cy="52.1094" fill="#E2E2F0" rx="8" ry="8" style="stroke:#181818;stroke-width:0.5;"/><path d="M278.5,60.1094 L278.5,87.1094 M265.5,68.1094 L291.5,68.1094 M278.5,87.1094 L265.5,102.1094 M278.5,87.1094 L291.5,102.1094 " fill="none" style="stroke:#181818;stroke-width:0.5;"/><text fill="#000000" font-family="sans-serif" font-size="14" lengthAdjust="spacing" textLength="102" x="222.5" y="380.4707">&lt;&lt; Container &gt;&gt;</text><text fill="#000000" font-family="sans-serif" font-size="14" lengthAdjust="spacing" textLength="21" x="267" y="398.0801">API</text><ellipse cx="278.5" cy="409.6563" fill="#E2E2F0" rx="8" ry="8" style="stroke:#181818;stroke-width:0.5;"/><path d="M278.5,417.6563 L278.5,444.6563 M265.5,425.6563 L291.5,425.6563 M278.5,444.6563 L265.5,459.6563 M278.5,444.6563 L291.5,459.6563 " fill="none" style="stroke:#181818;stroke-width:0.5;"/><text fill="#000000" font-family="sans-serif" font-size="14" lengthAdjust="spacing" textLength="102" x="468.5" y="118.1426">&lt;&lt; Container &gt;&gt;</text><text fill="#000000" font-family="sans-serif" font-size="14" lengthAdjust="spacing" textLength="146" x="450.5" y="135.752">WarehouseDataMaster</text><ellipse cx="524.5" cy="52.1094" fill="#E2E2F0" rx="8" ry="8" style="stroke:#181818;stroke-width:0.5;"/><path d="M524.5,60.1094 L524.5,87.1094 M511.5,68.1094 L537.5,68.1094 M524.5,87.1094 L511.5,102.1094 M524.5,87.1094 L537.5,102.1094 " fill="none" style="stroke:#181818;stroke-width:0.5;"/><text fill="#000000" font-family="sans-serif" font-size="14" lengthAdjust="spacing" textLength="102" x="468.5" y="380.4707">&lt;&lt; Container &gt;&gt;</text><text fill="#000000" font-family="sans-serif" font-size="14" lengthAdjust="spacing" textLength="146" x="450.5" y="398.0801">WarehouseDataMaster</text><ellipse cx="524.5" cy="409.6563" fill="#E2E2F0" rx="8" ry="8" style="stroke:#181818;stroke-width:0.5;"/><path d="M524.5,417.6563 L524.5,444.6563 M511.5,425.6563 L537.5,425.6563 M524.5,444.6563 L511.5,459.6563 M524.5,444.6563 L537.5,459.6563 " fill="none" style="stroke:#181818;stroke-width:0.5;"/><rect fill="#FFFFFF" height="200.1094" style="stroke:#181818;stroke-width:1.0;" width="10" x="69.5" y="148.8281"/><rect fill="#FFFFFF" height="177.7578" style="stroke:#181818;stroke-width:1.0;" width="10" x="273.5" y="171.1797"/><rect fill="#FFFFFF" height="73.7031" style="stroke:#181818;stroke-width:1.0;" width="10" x="519.5" y="201.5313"/><polygon fill="#181818" points="261.5,167.1797,271.5,171.1797,261.5,175.1797,265.5,171.1797" style="stroke:#181818;stroke-width:1.0;"/><line style="stroke:#181818;stroke-width:1.0;" x1="79.5" x2="267.5" y1="171.1797" y2="171.1797"/><text fill="#000000" font-family="sans-serif" font-size="13" font-weight="bold" lengthAdjust="spacing" textLength="7" x="86.5" y="166.3232">1</text><text fill="#000000" font-family="sans-serif" font-size="13" lengthAdjust="spacing" textLength="164" x="97.5" y="166.3232">Asks the list of warehouses.</text><polygon fill="#181818" points="507.5,197.5313,517.5,201.5313,507.5,205.5313,511.5,201.5313" style="stroke:#181818;stroke-width:1.0;"/><line style="stroke:#181818;stroke-width:1.0;" x1="283.5" x2="513.5" y1="201.5313" y2="201.5313"/><text fill="#000000" font-family="sans-serif" font-size="13" font-weight="bold" lengthAdjust="spacing" textLength="7" x="290.5" y="196.6748">2</text><text fill="#000000" font-family="sans-serif" font-size="13" lengthAdjust="spacing" textLength="96" x="301.5" y="196.6748">GET /warehouse</text><line style="stroke:#181818;stroke-width:1.0;" x1="529.5" x2="571.5" y1="231.8828" y2="231.8828"/><line style="stroke:#181818;stroke-width:1.0;" x1="571.5" x2="571.5" y1="231.8828" y2="244.8828"/><line style="stroke:#181818;stroke-width:1.0;" x1="530.5" x2="571.5" y1="244.8828" y2="244.8828"/><polygon fill="#181818" points="540.5,240.8828,530.5,244.8828,540.5,248.8828,536.5,244.8828" style="stroke:#181818;stroke-width:1.0;"/><text fill="#000000" font-family="sans-serif" font-size="13" font-weight="bold" lengthAdjust="spacing" textLength="7" x="536.5" y="227.0264">3</text><text fill="#000000" font-family="sans-serif" font-size="13" lengthAdjust="spacing" textLength="73" x="547.5" y="227.0264">GetAllAsync</text><polygon fill="#181818" points="294.5,271.2344,284.5,275.2344,294.5,279.2344,290.5,275.2344" style="stroke:#181818;stroke-width:1.0;"/><line style="stroke:#181818;stroke-width:1.0;" x1="288.5" x2="523.5" y1="275.2344" y2="275.2344"/><text fill="#000000" font-family="sans-serif" font-size="13" font-weight="bold" lengthAdjust="spacing" textLength="7" x="300.5" y="270.3779">4</text><text fill="#000000" font-family="sans-serif" font-size="13" lengthAdjust="spacing" textLength="135" x="311.5" y="270.3779">warehouses_list(JSON)</text><line style="stroke:#181818;stroke-width:1.0;" x1="283.5" x2="325.5" y1="305.5859" y2="305.5859"/><line style="stroke:#181818;stroke-width:1.0;" x1="325.5" x2="325.5" y1="305.5859" y2="318.5859"/><line style="stroke:#181818;stroke-width:1.0;" x1="284.5" x2="325.5" y1="318.5859" y2="318.5859"/><polygon fill="#181818" points="294.5,314.5859,284.5,318.5859,294.5,322.5859,290.5,318.5859" style="stroke:#181818;stroke-width:1.0;"/><text fill="#000000" font-family="sans-serif" font-size="13" font-weight="bold" lengthAdjust="spacing" textLength="7" x="290.5" y="300.7295">5</text><text fill="#000000" font-family="sans-serif" font-size="13" lengthAdjust="spacing" textLength="211" x="301.5" y="300.7295">Functionality executed successfully.</text><polygon fill="#181818" points="85.5,344.9375,75.5,348.9375,85.5,352.9375,81.5,348.9375" style="stroke:#181818;stroke-width:1.0;"/><line style="stroke:#181818;stroke-width:1.0;stroke-dasharray:2.0,2.0;" x1="79.5" x2="277.5" y1="348.9375" y2="348.9375"/><text fill="#000000" font-family="sans-serif" font-size="13" font-weight="bold" lengthAdjust="spacing" textLength="7" x="91.5" y="344.0811">6</text><text fill="#000000" font-family="sans-serif" font-size="13" lengthAdjust="spacing" textLength="76" x="102.5" y="344.0811">Show trucks.</text><!--MD5=[80125379eb6fe3f222bbe15c5aa2fbeb]
@startuml USA02_2

title SD - Get Warehouses

autonumber

actor "Warehouse Manager" as FM
actor "<< Container >> \n API" as SYS
actor "<< Container >> \n WarehouseDataMaster" as TDM


activate FM
FM -> SYS : Asks the list of warehouses.
activate SYS

SYS -> TDM : GET /warehouse
activate TDM

TDM -> TDM : GetAllAsync

TDM -> SYS : warehouses_list(JSON)
deactivate TDM

SYS -> SYS : Functionality executed successfully.

SYS - -> FM : Show trucks.
deactivate SYS

deactivate FM

@enduml

PlantUML version 1.2022.7(Mon Aug 22 18:01:30 WEST 2022)
(GPL source distribution)
Java Runtime: Java(TM) SE Runtime Environment
JVM: Java HotSpot(TM) 64-Bit Server VM
Default Encoding: UTF-8
Language: es
Country: ES
--></g></svg>