<?xml version="1.0" encoding="UTF-8" standalone="no"?><svg xmlns="http://www.w3.org/2000/svg" xmlns:xlink="http://www.w3.org/1999/xlink" contentStyleType="text/css" height="409px" preserveAspectRatio="none" style="width:548px;height:409px;background:#FFFFFF;" version="1.1" viewBox="0 0 548 409" width="548px" zoomAndPan="magnify"><defs/><g><rect fill="#FFFFFF" height="216.4609" style="stroke:#181818;stroke-width:1.0;" width="10" x="69.5" y="92.6094"/><rect fill="#FFFFFF" height="46.7031" style="stroke:#181818;stroke-width:1.0;" width="10" x="332.5" y="114.9609"/><rect fill="#FFFFFF" height="117.0547" style="stroke:#181818;stroke-width:1.0;" width="10" x="332.5" y="192.0156"/><line style="stroke:#181818;stroke-width:0.5;stroke-dasharray:5.0,5.0;" x1="74" x2="74" y1="82.6094" y2="327.0703"/><line style="stroke:#181818;stroke-width:0.5;stroke-dasharray:5.0,5.0;" x1="337.5" x2="337.5" y1="82.6094" y2="327.0703"/><text fill="#000000" font-family="sans-serif" font-size="14" lengthAdjust="spacing" textLength="133" x="5" y="79.5332">Warehouse Manager</text><ellipse cx="74.5" cy="13.5" fill="#E2E2F0" rx="8" ry="8" style="stroke:#181818;stroke-width:0.5;"/><path d="M74.5,21.5 L74.5,48.5 M61.5,29.5 L87.5,29.5 M74.5,48.5 L61.5,63.5 M74.5,48.5 L87.5,63.5 " fill="none" style="stroke:#181818;stroke-width:0.5;"/><text fill="#000000" font-family="sans-serif" font-size="14" lengthAdjust="spacing" textLength="133" x="5" y="340.6035">Warehouse Manager</text><ellipse cx="74.5" cy="352.1797" fill="#E2E2F0" rx="8" ry="8" style="stroke:#181818;stroke-width:0.5;"/><path d="M74.5,360.1797 L74.5,387.1797 M61.5,368.1797 L87.5,368.1797 M74.5,387.1797 L61.5,402.1797 M74.5,387.1797 L87.5,402.1797 " fill="none" style="stroke:#181818;stroke-width:0.5;"/><rect fill="#E2E2F0" height="31.6094" rx="2.5" ry="2.5" style="stroke:#181818;stroke-width:0.5;" width="60" x="307.5" y="50"/><text fill="#000000" font-family="sans-serif" font-size="14" lengthAdjust="spacing" textLength="46" x="314.5" y="71.5332">System</text><rect fill="#E2E2F0" height="31.6094" rx="2.5" ry="2.5" style="stroke:#181818;stroke-width:0.5;" width="60" x="307.5" y="326.0703"/><text fill="#000000" font-family="sans-serif" font-size="14" lengthAdjust="spacing" textLength="46" x="314.5" y="347.6035">System</text><rect fill="#FFFFFF" height="216.4609" style="stroke:#181818;stroke-width:1.0;" width="10" x="69.5" y="92.6094"/><rect fill="#FFFFFF" height="46.7031" style="stroke:#181818;stroke-width:1.0;" width="10" x="332.5" y="114.9609"/><rect fill="#FFFFFF" height="117.0547" style="stroke:#181818;stroke-width:1.0;" width="10" x="332.5" y="192.0156"/><polygon fill="#181818" points="320.5,110.9609,330.5,114.9609,320.5,118.9609,324.5,114.9609" style="stroke:#181818;stroke-width:1.0;"/><line style="stroke:#181818;stroke-width:1.0;" x1="79.5" x2="326.5" y1="114.9609" y2="114.9609"/><text fill="#000000" font-family="sans-serif" font-size="13" font-weight="bold" lengthAdjust="spacing" textLength="7" x="86.5" y="110.1045">1</text><text fill="#000000" font-family="sans-serif" font-size="13" lengthAdjust="spacing" textLength="223" x="97.5" y="110.1045">Initiates wants to create a new delivery</text><polygon fill="#181818" points="90.5,157.6641,80.5,161.6641,90.5,165.6641,86.5,161.6641" style="stroke:#181818;stroke-width:1.0;"/><line style="stroke:#181818;stroke-width:1.0;stroke-dasharray:2.0,2.0;" x1="84.5" x2="336.5" y1="161.6641" y2="161.6641"/><text fill="#000000" font-family="sans-serif" font-size="13" font-weight="bold" lengthAdjust="spacing" textLength="7" x="96.5" y="148.6318">2</text><text fill="#000000" font-family="sans-serif" font-size="13" lengthAdjust="spacing" textLength="195" x="107.5" y="140.4561">Ask the information of the delivery</text><text fill="#000000" font-family="sans-serif" font-size="13" lengthAdjust="spacing" textLength="182" x="107.5" y="156.8076">(id, date, weight, warehouse,...)</text><polygon fill="#181818" points="320.5,188.0156,330.5,192.0156,320.5,196.0156,324.5,192.0156" style="stroke:#181818;stroke-width:1.0;"/><line style="stroke:#181818;stroke-width:1.0;" x1="79.5" x2="326.5" y1="192.0156" y2="192.0156"/><text fill="#000000" font-family="sans-serif" font-size="13" font-weight="bold" lengthAdjust="spacing" textLength="7" x="86.5" y="187.1592">3</text><text fill="#000000" font-family="sans-serif" font-size="13" lengthAdjust="spacing" textLength="181" x="97.5" y="187.1592">Enter the requested information</text><line style="stroke:#181818;stroke-width:1.0;stroke-dasharray:2.0,2.0;" x1="342.5" x2="384.5" y1="222.3672" y2="222.3672"/><line style="stroke:#181818;stroke-width:1.0;stroke-dasharray:2.0,2.0;" x1="384.5" x2="384.5" y1="222.3672" y2="235.3672"/><line style="stroke:#181818;stroke-width:1.0;stroke-dasharray:2.0,2.0;" x1="343.5" x2="384.5" y1="235.3672" y2="235.3672"/><polygon fill="#181818" points="353.5,231.3672,343.5,235.3672,353.5,239.3672,349.5,235.3672" style="stroke:#181818;stroke-width:1.0;"/><text fill="#000000" font-family="sans-serif" font-size="13" font-weight="bold" lengthAdjust="spacing" textLength="7" x="349.5" y="217.5107">4</text><text fill="#000000" font-family="sans-serif" font-size="13" lengthAdjust="spacing" textLength="181" x="360.5" y="217.5107">Checks if the warehouse exists</text><line style="stroke:#181818;stroke-width:1.0;stroke-dasharray:2.0,2.0;" x1="342.5" x2="384.5" y1="265.7188" y2="265.7188"/><line style="stroke:#181818;stroke-width:1.0;stroke-dasharray:2.0,2.0;" x1="384.5" x2="384.5" y1="265.7188" y2="278.7188"/><line style="stroke:#181818;stroke-width:1.0;stroke-dasharray:2.0,2.0;" x1="343.5" x2="384.5" y1="278.7188" y2="278.7188"/><polygon fill="#181818" points="353.5,274.7188,343.5,278.7188,353.5,282.7188,349.5,278.7188" style="stroke:#181818;stroke-width:1.0;"/><text fill="#000000" font-family="sans-serif" font-size="13" font-weight="bold" lengthAdjust="spacing" textLength="7" x="349.5" y="260.8623">5</text><text fill="#000000" font-family="sans-serif" font-size="13" lengthAdjust="spacing" textLength="92" x="360.5" y="260.8623">Creates delivery</text><polygon fill="#181818" points="85.5,305.0703,75.5,309.0703,85.5,313.0703,81.5,309.0703" style="stroke:#181818;stroke-width:1.0;"/><line style="stroke:#181818;stroke-width:1.0;stroke-dasharray:2.0,2.0;" x1="79.5" x2="336.5" y1="309.0703" y2="309.0703"/><text fill="#000000" font-family="sans-serif" font-size="13" font-weight="bold" lengthAdjust="spacing" textLength="7" x="91.5" y="304.2139">6</text><text fill="#000000" font-family="sans-serif" font-size="13" lengthAdjust="spacing" textLength="166" x="102.5" y="304.2139">Informs of operation success</text><!--MD5=[48194b0cd1f699acc9b660623a287371]
@startuml USA05
'https://plantuml.com/sequence-diagram

autonumber
actor "Warehouse Manager" as WM
participant "System" as S

activate WM
WM -> S : Initiates wants to create a new delivery
activate S

S - -> WM : Ask the information of the delivery\n(id, date, weight, warehouse,...)
deactivate S

WM -> S : Enter the requested information
activate S
S - -> S: Checks if the warehouse exists
S - -> S: Creates delivery
S - -> WM : Informs of operation success
deactivate S

deactivate WM

@enduml

@startuml USA05

autonumber
actor "Warehouse Manager" as WM
participant "System" as S

activate WM
WM -> S : Initiates wants to create a new delivery
activate S

S - -> WM : Ask the information of the delivery\n(id, date, weight, warehouse,...)
deactivate S

WM -> S : Enter the requested information
activate S
S - -> S: Checks if the warehouse exists
S - -> S: Creates delivery
S - -> WM : Informs of operation success
deactivate S

deactivate WM

@enduml

PlantUML version 1.2022.7(Mon Aug 22 18:01:30 WEST 2022)
(GPL source distribution)
Java Runtime: Java(TM) SE Runtime Environment
JVM: Java HotSpot(TM) 64-Bit Server VM
Default Encoding: UTF-8
Language: es
Country: ES
--></g></svg>