<?xml version="1.0" encoding="UTF-8" standalone="no"?><svg xmlns="http://www.w3.org/2000/svg" xmlns:xlink="http://www.w3.org/1999/xlink" contentStyleType="text/css" height="725px" preserveAspectRatio="none" style="width:800px;height:725px;background:#FFFFFF;" version="1.1" viewBox="0 0 800 725" width="800px" zoomAndPan="magnify"><defs/><g><rect fill="none" height="27.6094" id="_title" style="stroke:none;stroke-width:1.0;" width="151" x="326.75" y="10"/><text fill="#000000" font-family="sans-serif" font-size="14" font-weight="bold" lengthAdjust="spacing" textLength="141" x="331.75" y="29.5332">SD - Create Delivery</text><rect fill="#FFFFFF" height="459.2734" style="stroke:#181818;stroke-width:1.0;" width="10" x="69.5" y="148.8281"/><rect fill="#FFFFFF" height="46.7031" style="stroke:#181818;stroke-width:1.0;" width="10" x="406.5" y="171.1797"/><rect fill="#FFFFFF" height="195.1094" style="stroke:#181818;stroke-width:1.0;" width="10" x="406.5" y="248.2344"/><rect fill="#FFFFFF" height="134.4063" style="stroke:#181818;stroke-width:1.0;" width="10" x="406.5" y="473.6953"/><rect fill="#FFFFFF" height="73.7031" style="stroke:#181818;stroke-width:1.0;" width="10" x="627.5" y="339.2891"/><rect fill="#FFFFFF" height="73.7031" style="stroke:#181818;stroke-width:1.0;" width="10" x="627.5" y="504.0469"/><line style="stroke:#181818;stroke-width:0.5;stroke-dasharray:5.0,5.0;" x1="74" x2="74" y1="138.8281" y2="626.1016"/><line style="stroke:#181818;stroke-width:0.5;stroke-dasharray:5.0,5.0;" x1="411.5" x2="411.5" y1="138.8281" y2="626.1016"/><line style="stroke:#181818;stroke-width:0.5;stroke-dasharray:5.0,5.0;" x1="632" x2="632" y1="138.8281" y2="626.1016"/><text fill="#000000" font-family="sans-serif" font-size="14" lengthAdjust="spacing" textLength="133" x="5" y="135.752">Warehouse Manager</text><ellipse cx="74.5" cy="69.7188" fill="#E2E2F0" rx="8" ry="8" style="stroke:#181818;stroke-width:0.5;"/><path d="M74.5,77.7188 L74.5,104.7188 M61.5,85.7188 L87.5,85.7188 M74.5,104.7188 L61.5,119.7188 M74.5,104.7188 L87.5,119.7188 " fill="none" style="stroke:#181818;stroke-width:0.5;"/><text fill="#000000" font-family="sans-serif" font-size="14" lengthAdjust="spacing" textLength="133" x="5" y="639.6348">Warehouse Manager</text><ellipse cx="74.5" cy="651.2109" fill="#E2E2F0" rx="8" ry="8" style="stroke:#181818;stroke-width:0.5;"/><path d="M74.5,659.2109 L74.5,686.2109 M61.5,667.2109 L87.5,667.2109 M74.5,686.2109 L61.5,701.2109 M74.5,686.2109 L87.5,701.2109 " fill="none" style="stroke:#181818;stroke-width:0.5;"/><text fill="#000000" font-family="sans-serif" font-size="14" lengthAdjust="spacing" textLength="102" x="355.5" y="118.1426">&lt;&lt; Container &gt;&gt;</text><text fill="#000000" font-family="sans-serif" font-size="14" lengthAdjust="spacing" textLength="21" x="400" y="135.752">API</text><ellipse cx="411.5" cy="52.1094" fill="#E2E2F0" rx="8" ry="8" style="stroke:#181818;stroke-width:0.5;"/><path d="M411.5,60.1094 L411.5,87.1094 M398.5,68.1094 L424.5,68.1094 M411.5,87.1094 L398.5,102.1094 M411.5,87.1094 L424.5,102.1094 " fill="none" style="stroke:#181818;stroke-width:0.5;"/><text fill="#000000" font-family="sans-serif" font-size="14" lengthAdjust="spacing" textLength="102" x="355.5" y="639.6348">&lt;&lt; Container &gt;&gt;</text><text fill="#000000" font-family="sans-serif" font-size="14" lengthAdjust="spacing" textLength="21" x="400" y="657.2441">API</text><ellipse cx="411.5" cy="668.8203" fill="#E2E2F0" rx="8" ry="8" style="stroke:#181818;stroke-width:0.5;"/><path d="M411.5,676.8203 L411.5,703.8203 M398.5,684.8203 L424.5,684.8203 M411.5,703.8203 L398.5,718.8203 M411.5,703.8203 L424.5,718.8203 " fill="none" style="stroke:#181818;stroke-width:0.5;"/><text fill="#000000" font-family="sans-serif" font-size="14" lengthAdjust="spacing" textLength="102" x="576.5" y="118.1426">&lt;&lt; Container &gt;&gt;</text><text fill="#000000" font-family="sans-serif" font-size="14" lengthAdjust="spacing" textLength="135" x="564" y="135.752">DeliveriesDataMaster</text><ellipse cx="632.5" cy="52.1094" fill="#E2E2F0" rx="8" ry="8" style="stroke:#181818;stroke-width:0.5;"/><path d="M632.5,60.1094 L632.5,87.1094 M619.5,68.1094 L645.5,68.1094 M632.5,87.1094 L619.5,102.1094 M632.5,87.1094 L645.5,102.1094 " fill="none" style="stroke:#181818;stroke-width:0.5;"/><text fill="#000000" font-family="sans-serif" font-size="14" lengthAdjust="spacing" textLength="102" x="576.5" y="639.6348">&lt;&lt; Container &gt;&gt;</text><text fill="#000000" font-family="sans-serif" font-size="14" lengthAdjust="spacing" textLength="135" x="564" y="657.2441">DeliveriesDataMaster</text><ellipse cx="632.5" cy="668.8203" fill="#E2E2F0" rx="8" ry="8" style="stroke:#181818;stroke-width:0.5;"/><path d="M632.5,676.8203 L632.5,703.8203 M619.5,684.8203 L645.5,684.8203 M632.5,703.8203 L619.5,718.8203 M632.5,703.8203 L645.5,718.8203 " fill="none" style="stroke:#181818;stroke-width:0.5;"/><rect fill="#FFFFFF" height="459.2734" style="stroke:#181818;stroke-width:1.0;" width="10" x="69.5" y="148.8281"/><rect fill="#FFFFFF" height="46.7031" style="stroke:#181818;stroke-width:1.0;" width="10" x="406.5" y="171.1797"/><rect fill="#FFFFFF" height="195.1094" style="stroke:#181818;stroke-width:1.0;" width="10" x="406.5" y="248.2344"/><rect fill="#FFFFFF" height="134.4063" style="stroke:#181818;stroke-width:1.0;" width="10" x="406.5" y="473.6953"/><rect fill="#FFFFFF" height="73.7031" style="stroke:#181818;stroke-width:1.0;" width="10" x="627.5" y="339.2891"/><rect fill="#FFFFFF" height="73.7031" style="stroke:#181818;stroke-width:1.0;" width="10" x="627.5" y="504.0469"/><polygon fill="#181818" points="394.5,167.1797,404.5,171.1797,394.5,175.1797,398.5,171.1797" style="stroke:#181818;stroke-width:1.0;"/><line style="stroke:#181818;stroke-width:1.0;" x1="79.5" x2="400.5" y1="171.1797" y2="171.1797"/><text fill="#000000" font-family="sans-serif" font-size="13" font-weight="bold" lengthAdjust="spacing" textLength="7" x="86.5" y="166.3232">1</text><text fill="#000000" font-family="sans-serif" font-size="13" lengthAdjust="spacing" textLength="132" x="97.5" y="166.3232">Asks to add a delivery.</text><polygon fill="#181818" points="90.5,213.8828,80.5,217.8828,90.5,221.8828,86.5,217.8828" style="stroke:#181818;stroke-width:1.0;"/><line style="stroke:#181818;stroke-width:1.0;stroke-dasharray:2.0,2.0;" x1="84.5" x2="410.5" y1="217.8828" y2="217.8828"/><text fill="#000000" font-family="sans-serif" font-size="13" font-weight="bold" lengthAdjust="spacing" textLength="7" x="96.5" y="204.8506">2</text><text fill="#000000" font-family="sans-serif" font-size="13" lengthAdjust="spacing" textLength="170" x="107.5" y="196.6748">Requests the necessary data</text><text fill="#000000" font-family="sans-serif" font-size="13" lengthAdjust="spacing" textLength="149" x="107.5" y="213.0264">(id, weight, warehouse,...)</text><polygon fill="#181818" points="394.5,244.2344,404.5,248.2344,394.5,252.2344,398.5,248.2344" style="stroke:#181818;stroke-width:1.0;"/><line style="stroke:#181818;stroke-width:1.0;" x1="79.5" x2="400.5" y1="248.2344" y2="248.2344"/><text fill="#000000" font-family="sans-serif" font-size="13" font-weight="bold" lengthAdjust="spacing" textLength="7" x="86.5" y="243.3779">3</text><text fill="#000000" font-family="sans-serif" font-size="13" lengthAdjust="spacing" textLength="155" x="97.5" y="243.3779">Inserts the requested data.</text><polygon fill="#181818" points="620.5,274.5859,630.5,278.5859,620.5,282.5859,624.5,278.5859" style="stroke:#181818;stroke-width:1.0;"/><line style="stroke:#181818;stroke-width:1.0;" x1="416.5" x2="626.5" y1="278.5859" y2="278.5859"/><text fill="#000000" font-family="sans-serif" font-size="13" font-weight="bold" lengthAdjust="spacing" textLength="7" x="423.5" y="273.7295">4</text><text fill="#000000" font-family="sans-serif" font-size="13" lengthAdjust="spacing" textLength="92" x="434.5" y="273.7295">GET warehouse</text><polygon fill="#181818" points="427.5,304.9375,417.5,308.9375,427.5,312.9375,423.5,308.9375" style="stroke:#181818;stroke-width:1.0;"/><line style="stroke:#181818;stroke-width:1.0;" x1="421.5" x2="631.5" y1="308.9375" y2="308.9375"/><text fill="#000000" font-family="sans-serif" font-size="13" font-weight="bold" lengthAdjust="spacing" textLength="7" x="433.5" y="304.0811">5</text><text fill="#000000" font-family="sans-serif" font-size="13" lengthAdjust="spacing" textLength="105" x="444.5" y="304.0811">Warehouse exists</text><polygon fill="#181818" points="615.5,335.2891,625.5,339.2891,615.5,343.2891,619.5,339.2891" style="stroke:#181818;stroke-width:1.0;"/><line style="stroke:#181818;stroke-width:1.0;" x1="416.5" x2="621.5" y1="339.2891" y2="339.2891"/><text fill="#000000" font-family="sans-serif" font-size="13" font-weight="bold" lengthAdjust="spacing" textLength="7" x="423.5" y="334.4326">6</text><text fill="#000000" font-family="sans-serif" font-size="13" lengthAdjust="spacing" textLength="160" x="434.5" y="334.4326">POST /delivery deliveryData</text><line style="stroke:#181818;stroke-width:1.0;" x1="637.5" x2="679.5" y1="369.6406" y2="369.6406"/><line style="stroke:#181818;stroke-width:1.0;" x1="679.5" x2="679.5" y1="369.6406" y2="382.6406"/><line style="stroke:#181818;stroke-width:1.0;" x1="638.5" x2="679.5" y1="382.6406" y2="382.6406"/><polygon fill="#181818" points="648.5,378.6406,638.5,382.6406,648.5,386.6406,644.5,382.6406" style="stroke:#181818;stroke-width:1.0;"/><text fill="#000000" font-family="sans-serif" font-size="13" font-weight="bold" lengthAdjust="spacing" textLength="7" x="644.5" y="364.7842">7</text><text fill="#000000" font-family="sans-serif" font-size="13" lengthAdjust="spacing" textLength="138" x="655.5" y="364.7842">AddAsync(deliveryData)</text><polygon fill="#181818" points="427.5,408.9922,417.5,412.9922,427.5,416.9922,423.5,412.9922" style="stroke:#181818;stroke-width:1.0;"/><line style="stroke:#181818;stroke-width:1.0;" x1="421.5" x2="631.5" y1="412.9922" y2="412.9922"/><text fill="#000000" font-family="sans-serif" font-size="13" font-weight="bold" lengthAdjust="spacing" textLength="7" x="433.5" y="408.1357">8</text><text fill="#000000" font-family="sans-serif" font-size="13" lengthAdjust="spacing" textLength="132" x="444.5" y="408.1357">delivert_register(JSON)</text><polygon fill="#181818" points="90.5,439.3438,80.5,443.3438,90.5,447.3438,86.5,443.3438" style="stroke:#181818;stroke-width:1.0;"/><line style="stroke:#181818;stroke-width:1.0;stroke-dasharray:2.0,2.0;" x1="84.5" x2="410.5" y1="443.3438" y2="443.3438"/><text fill="#000000" font-family="sans-serif" font-size="13" font-weight="bold" lengthAdjust="spacing" textLength="7" x="96.5" y="438.4873">9</text><text fill="#000000" font-family="sans-serif" font-size="13" lengthAdjust="spacing" textLength="262" x="107.5" y="438.4873">Validates the data and requests confirmation.</text><polygon fill="#181818" points="394.5,469.6953,404.5,473.6953,394.5,477.6953,398.5,473.6953" style="stroke:#181818;stroke-width:1.0;"/><line style="stroke:#181818;stroke-width:1.0;" x1="79.5" x2="400.5" y1="473.6953" y2="473.6953"/><text fill="#000000" font-family="sans-serif" font-size="13" font-weight="bold" lengthAdjust="spacing" textLength="14" x="86.5" y="468.8389">10</text><text fill="#000000" font-family="sans-serif" font-size="13" lengthAdjust="spacing" textLength="144" x="104.5" y="468.8389">Confirms the information.</text><polygon fill="#181818" points="615.5,500.0469,625.5,504.0469,615.5,508.0469,619.5,504.0469" style="stroke:#181818;stroke-width:1.0;"/><line style="stroke:#181818;stroke-width:1.0;" x1="416.5" x2="621.5" y1="504.0469" y2="504.0469"/><text fill="#000000" font-family="sans-serif" font-size="13" font-weight="bold" lengthAdjust="spacing" textLength="14" x="423.5" y="499.1904">11</text><text fill="#000000" font-family="sans-serif" font-size="13" lengthAdjust="spacing" textLength="174" x="441.5" y="499.1904">PUT validate /{option, delivery}</text><line style="stroke:#181818;stroke-width:1.0;" x1="637.5" x2="679.5" y1="534.3984" y2="534.3984"/><line style="stroke:#181818;stroke-width:1.0;" x1="679.5" x2="679.5" y1="534.3984" y2="547.3984"/><line style="stroke:#181818;stroke-width:1.0;" x1="638.5" x2="679.5" y1="547.3984" y2="547.3984"/><polygon fill="#181818" points="648.5,543.3984,638.5,547.3984,648.5,551.3984,644.5,547.3984" style="stroke:#181818;stroke-width:1.0;"/><text fill="#000000" font-family="sans-serif" font-size="13" font-weight="bold" lengthAdjust="spacing" textLength="14" x="644.5" y="529.542">12</text><text fill="#000000" font-family="sans-serif" font-size="13" lengthAdjust="spacing" textLength="77" x="662.5" y="529.542">save(delivery)</text><polygon fill="#181818" points="427.5,573.75,417.5,577.75,427.5,581.75,423.5,577.75" style="stroke:#181818;stroke-width:1.0;"/><line style="stroke:#181818;stroke-width:1.0;" x1="421.5" x2="631.5" y1="577.75" y2="577.75"/><text fill="#000000" font-family="sans-serif" font-size="13" font-weight="bold" lengthAdjust="spacing" textLength="14" x="433.5" y="572.8936">13</text><text fill="#000000" font-family="sans-serif" font-size="13" lengthAdjust="spacing" textLength="68" x="451.5" y="572.8936">201 created</text><polygon fill="#181818" points="85.5,604.1016,75.5,608.1016,85.5,612.1016,81.5,608.1016" style="stroke:#181818;stroke-width:1.0;"/><line style="stroke:#181818;stroke-width:1.0;stroke-dasharray:2.0,2.0;" x1="79.5" x2="410.5" y1="608.1016" y2="608.1016"/><text fill="#000000" font-family="sans-serif" font-size="13" font-weight="bold" lengthAdjust="spacing" textLength="14" x="91.5" y="603.2451">14</text><text fill="#000000" font-family="sans-serif" font-size="13" lengthAdjust="spacing" textLength="285" x="109.5" y="603.2451">Saves the data and informs of operation success.</text><!--MD5=[1a4e50bc0bbd6f7a92fd7e9743684165]
@startuml USA05_2

title SD - Create Delivery

autonumber

actor "Warehouse Manager" as FM
actor "<< Container >> \n API" as SYS
actor "<< Container >> \n DeliveriesDataMaster" as TDM


activate FM
FM -> SYS : Asks to add a delivery.
activate SYS
SYS - -> FM : Requests the necessary data\n(id, weight, warehouse,...)
deactivate SYS
FM -> SYS : Inserts the requested data.
activate SYS

SYS -> TDM : GET warehouse
TDM -> SYS : Warehouse exists
SYS -> TDM : POST /delivery deliveryData
activate TDM

TDM -> TDM : AddAsync(deliveryData)

TDM -> SYS : delivert_register(JSON)
deactivate TDM

SYS - -> FM : Validates the data and requests confirmation.
deactivate SYS

FM -> SYS : Confirms the information.
activate SYS

SYS -> TDM : PUT validate /{option, delivery}
activate TDM

TDM -> TDM : save(delivery)

TDM -> SYS : 201 created
deactivate TDM

SYS - -> FM : Saves the data and informs of operation success.
deactivate SYS

deactivate FM

@enduml

PlantUML version 1.2022.7(Mon Aug 22 18:01:30 WEST 2022)
(GPL source distribution)
Java Runtime: Java(TM) SE Runtime Environment
JVM: Java HotSpot(TM) 64-Bit Server VM
Default Encoding: UTF-8
Language: es
Country: ES
--></g></svg>