<?xml version="1.0" encoding="UTF-8" standalone="no"?><svg xmlns="http://www.w3.org/2000/svg" xmlns:xlink="http://www.w3.org/1999/xlink" contentStyleType="text/css" height="501px" preserveAspectRatio="none" style="width:466px;height:501px;background:#FFFFFF;" version="1.1" viewBox="0 0 466 501" width="466px" zoomAndPan="magnify"><defs/><g><rect fill="none" height="27.6094" id="_title" style="stroke:none;stroke-width:1.0;" width="214" x="127.75" y="10"/><text fill="#000000" font-family="sans-serif" font-size="14" font-weight="bold" lengthAdjust="spacing" textLength="204" x="132.75" y="29.5332">View Level 1 - Edit Packaging</text><rect fill="#FFFFFF" height="234.8125" style="stroke:#181818;stroke-width:1.0;" width="10" x="60.5" y="148.8281"/><rect fill="#FFFFFF" height="30.3516" style="stroke:#181818;stroke-width:1.0;" width="10" x="390.5" y="171.1797"/><rect fill="#FFFFFF" height="30.3516" style="stroke:#181818;stroke-width:1.0;" width="10" x="390.5" y="231.8828"/><rect fill="#FFFFFF" height="30.3516" style="stroke:#181818;stroke-width:1.0;" width="10" x="390.5" y="292.5859"/><rect fill="#FFFFFF" height="30.3516" style="stroke:#181818;stroke-width:1.0;" width="10" x="390.5" y="353.2891"/><line style="stroke:#181818;stroke-width:0.5;stroke-dasharray:5.0,5.0;" x1="65" x2="65" y1="138.8281" y2="401.6406"/><line style="stroke:#181818;stroke-width:0.5;stroke-dasharray:5.0,5.0;" x1="395.5" x2="395.5" y1="138.8281" y2="401.6406"/><text fill="#000000" font-family="sans-serif" font-size="14" lengthAdjust="spacing" textLength="115" x="5" y="135.752">Logistics Manager</text><ellipse cx="65.5" cy="69.7188" fill="#E2E2F0" rx="8" ry="8" style="stroke:#181818;stroke-width:0.5;"/><path d="M65.5,77.7188 L65.5,104.7188 M52.5,85.7188 L78.5,85.7188 M65.5,104.7188 L52.5,119.7188 M65.5,104.7188 L78.5,119.7188 " fill="none" style="stroke:#181818;stroke-width:0.5;"/><text fill="#000000" font-family="sans-serif" font-size="14" lengthAdjust="spacing" textLength="115" x="5" y="415.1738">Logistics Manager</text><ellipse cx="65.5" cy="426.75" fill="#E2E2F0" rx="8" ry="8" style="stroke:#181818;stroke-width:0.5;"/><path d="M65.5,434.75 L65.5,461.75 M52.5,442.75 L78.5,442.75 M65.5,461.75 L52.5,476.75 M65.5,461.75 L78.5,476.75 " fill="none" style="stroke:#181818;stroke-width:0.5;"/><text fill="#000000" font-family="sans-serif" font-size="14" lengthAdjust="spacing" textLength="130" x="325.5" y="118.1426">&lt;&lt; Container (C4)&gt;&gt;</text><text fill="#000000" font-family="sans-serif" font-size="14" lengthAdjust="spacing" textLength="101" x="344" y="135.752">:Visual Interface</text><ellipse cx="395.5" cy="52.1094" fill="#E2E2F0" rx="8" ry="8" style="stroke:#181818;stroke-width:0.5;"/><path d="M395.5,60.1094 L395.5,87.1094 M382.5,68.1094 L408.5,68.1094 M395.5,87.1094 L382.5,102.1094 M395.5,87.1094 L408.5,102.1094 " fill="none" style="stroke:#181818;stroke-width:0.5;"/><text fill="#000000" font-family="sans-serif" font-size="14" lengthAdjust="spacing" textLength="130" x="325.5" y="415.1738">&lt;&lt; Container (C4)&gt;&gt;</text><text fill="#000000" font-family="sans-serif" font-size="14" lengthAdjust="spacing" textLength="101" x="344" y="432.7832">:Visual Interface</text><ellipse cx="395.5" cy="444.3594" fill="#E2E2F0" rx="8" ry="8" style="stroke:#181818;stroke-width:0.5;"/><path d="M395.5,452.3594 L395.5,479.3594 M382.5,460.3594 L408.5,460.3594 M395.5,479.3594 L382.5,494.3594 M395.5,479.3594 L408.5,494.3594 " fill="none" style="stroke:#181818;stroke-width:0.5;"/><rect fill="#FFFFFF" height="234.8125" style="stroke:#181818;stroke-width:1.0;" width="10" x="60.5" y="148.8281"/><rect fill="#FFFFFF" height="30.3516" style="stroke:#181818;stroke-width:1.0;" width="10" x="390.5" y="171.1797"/><rect fill="#FFFFFF" height="30.3516" style="stroke:#181818;stroke-width:1.0;" width="10" x="390.5" y="231.8828"/><rect fill="#FFFFFF" height="30.3516" style="stroke:#181818;stroke-width:1.0;" width="10" x="390.5" y="292.5859"/><rect fill="#FFFFFF" height="30.3516" style="stroke:#181818;stroke-width:1.0;" width="10" x="390.5" y="353.2891"/><polygon fill="#181818" points="378.5,167.1797,388.5,171.1797,378.5,175.1797,382.5,171.1797" style="stroke:#181818;stroke-width:1.0;"/><line style="stroke:#181818;stroke-width:1.0;" x1="70.5" x2="384.5" y1="171.1797" y2="171.1797"/><text fill="#000000" font-family="sans-serif" font-size="13" font-weight="bold" lengthAdjust="spacing" textLength="7" x="77.5" y="166.3232">1</text><text fill="#000000" font-family="sans-serif" font-size="13" lengthAdjust="spacing" textLength="148" x="88.5" y="166.3232">Asks to edit a packaging.</text><polygon fill="#181818" points="81.5,197.5313,71.5,201.5313,81.5,205.5313,77.5,201.5313" style="stroke:#181818;stroke-width:1.0;"/><line style="stroke:#181818;stroke-width:1.0;stroke-dasharray:2.0,2.0;" x1="75.5" x2="394.5" y1="201.5313" y2="201.5313"/><text fill="#000000" font-family="sans-serif" font-size="13" font-weight="bold" lengthAdjust="spacing" textLength="7" x="87.5" y="196.6748">2</text><text fill="#000000" font-family="sans-serif" font-size="13" lengthAdjust="spacing" textLength="284" x="98.5" y="196.6748">Ask to choose which packaging you want to edit.</text><polygon fill="#181818" points="378.5,227.8828,388.5,231.8828,378.5,235.8828,382.5,231.8828" style="stroke:#181818;stroke-width:1.0;"/><line style="stroke:#181818;stroke-width:1.0;" x1="70.5" x2="384.5" y1="231.8828" y2="231.8828"/><text fill="#000000" font-family="sans-serif" font-size="13" font-weight="bold" lengthAdjust="spacing" textLength="7" x="77.5" y="227.0264">3</text><text fill="#000000" font-family="sans-serif" font-size="13" lengthAdjust="spacing" textLength="140" x="88.5" y="227.0264">Chooses the packaging.</text><polygon fill="#181818" points="81.5,258.2344,71.5,262.2344,81.5,266.2344,77.5,262.2344" style="stroke:#181818;stroke-width:1.0;"/><line style="stroke:#181818;stroke-width:1.0;stroke-dasharray:2.0,2.0;" x1="75.5" x2="394.5" y1="262.2344" y2="262.2344"/><text fill="#000000" font-family="sans-serif" font-size="13" font-weight="bold" lengthAdjust="spacing" textLength="7" x="87.5" y="257.3779">4</text><text fill="#000000" font-family="sans-serif" font-size="13" lengthAdjust="spacing" textLength="227" x="98.5" y="257.3779">Requests the data you want to change.</text><polygon fill="#181818" points="378.5,288.5859,388.5,292.5859,378.5,296.5859,382.5,292.5859" style="stroke:#181818;stroke-width:1.0;"/><line style="stroke:#181818;stroke-width:1.0;" x1="70.5" x2="384.5" y1="292.5859" y2="292.5859"/><text fill="#000000" font-family="sans-serif" font-size="13" font-weight="bold" lengthAdjust="spacing" textLength="7" x="77.5" y="287.7295">5</text><text fill="#000000" font-family="sans-serif" font-size="13" lengthAdjust="spacing" textLength="136" x="88.5" y="287.7295">Enter  the desired data.</text><polygon fill="#181818" points="81.5,318.9375,71.5,322.9375,81.5,326.9375,77.5,322.9375" style="stroke:#181818;stroke-width:1.0;"/><line style="stroke:#181818;stroke-width:1.0;stroke-dasharray:2.0,2.0;" x1="75.5" x2="394.5" y1="322.9375" y2="322.9375"/><text fill="#000000" font-family="sans-serif" font-size="13" font-weight="bold" lengthAdjust="spacing" textLength="7" x="87.5" y="318.0811">6</text><text fill="#000000" font-family="sans-serif" font-size="13" lengthAdjust="spacing" textLength="262" x="98.5" y="318.0811">Validates the data and requests confirmation.</text><polygon fill="#181818" points="378.5,349.2891,388.5,353.2891,378.5,357.2891,382.5,353.2891" style="stroke:#181818;stroke-width:1.0;"/><line style="stroke:#181818;stroke-width:1.0;" x1="70.5" x2="384.5" y1="353.2891" y2="353.2891"/><text fill="#000000" font-family="sans-serif" font-size="13" font-weight="bold" lengthAdjust="spacing" textLength="7" x="77.5" y="348.4326">7</text><text fill="#000000" font-family="sans-serif" font-size="13" lengthAdjust="spacing" textLength="144" x="88.5" y="348.4326">Confirms the information.</text><polygon fill="#181818" points="76.5,379.6406,66.5,383.6406,76.5,387.6406,72.5,383.6406" style="stroke:#181818;stroke-width:1.0;"/><line style="stroke:#181818;stroke-width:1.0;stroke-dasharray:2.0,2.0;" x1="70.5" x2="394.5" y1="383.6406" y2="383.6406"/><text fill="#000000" font-family="sans-serif" font-size="13" font-weight="bold" lengthAdjust="spacing" textLength="7" x="82.5" y="378.7842">8</text><text fill="#000000" font-family="sans-serif" font-size="13" lengthAdjust="spacing" textLength="285" x="93.5" y="378.7842">Saves the data and informs of operation success.</text><!--MD5=[7f4a5a67f988c89f0c4d20d4daba7b1c]
@startuml

title View Level 1 - Edit Packaging

autonumber

actor "Logistics Manager" as LM
actor "<< Container (C4)>> \n :Visual Interface" as SYS

activate LM
LM -> SYS : Asks to edit a packaging.
activate SYS
SYS - -> LM : Ask to choose which packaging you want to edit.
deactivate SYS

LM -> SYS : Chooses the packaging.
activate SYS
SYS - -> LM : Requests the data you want to change.
deactivate SYS

LM -> SYS : Enter  the desired data.
activate SYS
SYS - -> LM : Validates the data and requests confirmation.
deactivate SYS

LM -> SYS : Confirms the information.
activate SYS
SYS - -> LM : Saves the data and informs of operation success.
deactivate SYS

deactivate LM

@enduml

PlantUML version 1.2022.7(Mon Aug 22 18:01:30 WEST 2022)
(GPL source distribution)
Java Runtime: Java(TM) SE Runtime Environment
JVM: Java HotSpot(TM) 64-Bit Server VM
Default Encoding: Cp1252
Language: pt
Country: PT
--></g></svg>