<?xml version="1.0" encoding="UTF-8" standalone="no"?><svg xmlns="http://www.w3.org/2000/svg" xmlns:xlink="http://www.w3.org/1999/xlink" contentStyleType="text/css" height="709px" preserveAspectRatio="none" style="width:774px;height:709px;background:#FFFFFF;" version="1.1" viewBox="0 0 774 709" width="774px" zoomAndPan="magnify"><defs/><g><rect fill="none" height="27.6094" id="_title" style="stroke:none;stroke-width:1.0;" width="214" x="282.25" y="10"/><text fill="#000000" font-family="sans-serif" font-size="14" font-weight="bold" lengthAdjust="spacing" textLength="204" x="287.25" y="29.5332">View Level 2 - Edit Packaging</text><rect fill="#FFFFFF" height="442.9219" style="stroke:#181818;stroke-width:1.0;" width="10" x="60.5" y="148.8281"/><rect fill="#FFFFFF" height="30.3516" style="stroke:#181818;stroke-width:1.0;" width="10" x="397.5" y="171.1797"/><rect fill="#FFFFFF" height="91.0547" style="stroke:#181818;stroke-width:1.0;" width="10" x="397.5" y="231.8828"/><rect fill="#FFFFFF" height="177.7578" style="stroke:#181818;stroke-width:1.0;" width="10" x="397.5" y="353.2891"/><rect fill="#FFFFFF" height="30.3516" style="stroke:#181818;stroke-width:1.0;" width="10" x="397.5" y="561.3984"/><rect fill="#FFFFFF" height="30.3516" style="stroke:#181818;stroke-width:1.0;" width="10" x="625.5" y="262.2344"/><rect fill="#FFFFFF" height="117.0547" style="stroke:#181818;stroke-width:1.0;" width="10" x="625.5" y="383.6406"/><line style="stroke:#181818;stroke-width:0.5;stroke-dasharray:5.0,5.0;" x1="65" x2="65" y1="138.8281" y2="609.75"/><line style="stroke:#181818;stroke-width:0.5;stroke-dasharray:5.0,5.0;" x1="402.5" x2="402.5" y1="138.8281" y2="609.75"/><line style="stroke:#181818;stroke-width:0.5;stroke-dasharray:5.0,5.0;" x1="630.5" x2="630.5" y1="138.8281" y2="609.75"/><text fill="#000000" font-family="sans-serif" font-size="14" lengthAdjust="spacing" textLength="115" x="5" y="135.752">Logistics Manager</text><ellipse cx="65.5" cy="69.7188" fill="#E2E2F0" rx="8" ry="8" style="stroke:#181818;stroke-width:0.5;"/><path d="M65.5,77.7188 L65.5,104.7188 M52.5,85.7188 L78.5,85.7188 M65.5,104.7188 L52.5,119.7188 M65.5,104.7188 L78.5,119.7188 " fill="none" style="stroke:#181818;stroke-width:0.5;"/><text fill="#000000" font-family="sans-serif" font-size="14" lengthAdjust="spacing" textLength="115" x="5" y="623.2832">Logistics Manager</text><ellipse cx="65.5" cy="634.8594" fill="#E2E2F0" rx="8" ry="8" style="stroke:#181818;stroke-width:0.5;"/><path d="M65.5,642.8594 L65.5,669.8594 M52.5,650.8594 L78.5,650.8594 M65.5,669.8594 L52.5,684.8594 M65.5,669.8594 L78.5,684.8594 " fill="none" style="stroke:#181818;stroke-width:0.5;"/><text fill="#000000" font-family="sans-serif" font-size="14" lengthAdjust="spacing" textLength="130" x="332.5" y="118.1426">&lt;&lt; Container (C4)&gt;&gt;</text><text fill="#000000" font-family="sans-serif" font-size="14" lengthAdjust="spacing" textLength="101" x="351" y="135.752">:Visual Interface</text><ellipse cx="402.5" cy="52.1094" fill="#E2E2F0" rx="8" ry="8" style="stroke:#181818;stroke-width:0.5;"/><path d="M402.5,60.1094 L402.5,87.1094 M389.5,68.1094 L415.5,68.1094 M402.5,87.1094 L389.5,102.1094 M402.5,87.1094 L415.5,102.1094 " fill="none" style="stroke:#181818;stroke-width:0.5;"/><text fill="#000000" font-family="sans-serif" font-size="14" lengthAdjust="spacing" textLength="130" x="332.5" y="623.2832">&lt;&lt; Container (C4)&gt;&gt;</text><text fill="#000000" font-family="sans-serif" font-size="14" lengthAdjust="spacing" textLength="101" x="351" y="640.8926">:Visual Interface</text><ellipse cx="402.5" cy="652.4688" fill="#E2E2F0" rx="8" ry="8" style="stroke:#181818;stroke-width:0.5;"/><path d="M402.5,660.4688 L402.5,687.4688 M389.5,668.4688 L415.5,668.4688 M402.5,687.4688 L389.5,702.4688 M402.5,687.4688 L415.5,702.4688 " fill="none" style="stroke:#181818;stroke-width:0.5;"/><text fill="#000000" font-family="sans-serif" font-size="14" lengthAdjust="spacing" textLength="130" x="560.5" y="118.1426">&lt;&lt; Container (C4)&gt;&gt;</text><text fill="#000000" font-family="sans-serif" font-size="14" lengthAdjust="spacing" textLength="59" x="600" y="135.752">:Logistics</text><ellipse cx="630.5" cy="52.1094" fill="#E2E2F0" rx="8" ry="8" style="stroke:#181818;stroke-width:0.5;"/><path d="M630.5,60.1094 L630.5,87.1094 M617.5,68.1094 L643.5,68.1094 M630.5,87.1094 L617.5,102.1094 M630.5,87.1094 L643.5,102.1094 " fill="none" style="stroke:#181818;stroke-width:0.5;"/><text fill="#000000" font-family="sans-serif" font-size="14" lengthAdjust="spacing" textLength="130" x="560.5" y="623.2832">&lt;&lt; Container (C4)&gt;&gt;</text><text fill="#000000" font-family="sans-serif" font-size="14" lengthAdjust="spacing" textLength="59" x="600" y="640.8926">:Logistics</text><ellipse cx="630.5" cy="652.4688" fill="#E2E2F0" rx="8" ry="8" style="stroke:#181818;stroke-width:0.5;"/><path d="M630.5,660.4688 L630.5,687.4688 M617.5,668.4688 L643.5,668.4688 M630.5,687.4688 L617.5,702.4688 M630.5,687.4688 L643.5,702.4688 " fill="none" style="stroke:#181818;stroke-width:0.5;"/><rect fill="#FFFFFF" height="442.9219" style="stroke:#181818;stroke-width:1.0;" width="10" x="60.5" y="148.8281"/><rect fill="#FFFFFF" height="30.3516" style="stroke:#181818;stroke-width:1.0;" width="10" x="397.5" y="171.1797"/><rect fill="#FFFFFF" height="91.0547" style="stroke:#181818;stroke-width:1.0;" width="10" x="397.5" y="231.8828"/><rect fill="#FFFFFF" height="177.7578" style="stroke:#181818;stroke-width:1.0;" width="10" x="397.5" y="353.2891"/><rect fill="#FFFFFF" height="30.3516" style="stroke:#181818;stroke-width:1.0;" width="10" x="397.5" y="561.3984"/><rect fill="#FFFFFF" height="30.3516" style="stroke:#181818;stroke-width:1.0;" width="10" x="625.5" y="262.2344"/><rect fill="#FFFFFF" height="117.0547" style="stroke:#181818;stroke-width:1.0;" width="10" x="625.5" y="383.6406"/><polygon fill="#181818" points="385.5,167.1797,395.5,171.1797,385.5,175.1797,389.5,171.1797" style="stroke:#181818;stroke-width:1.0;"/><line style="stroke:#181818;stroke-width:1.0;" x1="70.5" x2="391.5" y1="171.1797" y2="171.1797"/><text fill="#000000" font-family="sans-serif" font-size="13" font-weight="bold" lengthAdjust="spacing" textLength="7" x="77.5" y="166.3232">1</text><text fill="#000000" font-family="sans-serif" font-size="13" lengthAdjust="spacing" textLength="148" x="88.5" y="166.3232">Asks to edit a packaging.</text><polygon fill="#181818" points="81.5,197.5313,71.5,201.5313,81.5,205.5313,77.5,201.5313" style="stroke:#181818;stroke-width:1.0;"/><line style="stroke:#181818;stroke-width:1.0;stroke-dasharray:2.0,2.0;" x1="75.5" x2="401.5" y1="201.5313" y2="201.5313"/><text fill="#000000" font-family="sans-serif" font-size="13" font-weight="bold" lengthAdjust="spacing" textLength="7" x="87.5" y="196.6748">2</text><text fill="#000000" font-family="sans-serif" font-size="13" lengthAdjust="spacing" textLength="277" x="98.5" y="196.6748">Ask to choose wich packaging you want to edit.</text><polygon fill="#181818" points="385.5,227.8828,395.5,231.8828,385.5,235.8828,389.5,231.8828" style="stroke:#181818;stroke-width:1.0;"/><line style="stroke:#181818;stroke-width:1.0;" x1="70.5" x2="391.5" y1="231.8828" y2="231.8828"/><text fill="#000000" font-family="sans-serif" font-size="13" font-weight="bold" lengthAdjust="spacing" textLength="7" x="77.5" y="227.0264">3</text><text fill="#000000" font-family="sans-serif" font-size="13" lengthAdjust="spacing" textLength="133" x="88.5" y="227.0264">Choose the packaging.</text><polygon fill="#181818" points="613.5,258.2344,623.5,262.2344,613.5,266.2344,617.5,262.2344" style="stroke:#181818;stroke-width:1.0;"/><line style="stroke:#181818;stroke-width:1.0;" x1="407.5" x2="619.5" y1="262.2344" y2="262.2344"/><text fill="#000000" font-family="sans-serif" font-size="13" font-weight="bold" lengthAdjust="spacing" textLength="7" x="414.5" y="257.3779">4</text><text fill="#000000" font-family="sans-serif" font-size="13" lengthAdjust="spacing" textLength="111" x="425.5" y="257.3779">GET packaging/{id}</text><polygon fill="#181818" points="418.5,288.5859,408.5,292.5859,418.5,296.5859,414.5,292.5859" style="stroke:#181818;stroke-width:1.0;"/><line style="stroke:#181818;stroke-width:1.0;" x1="412.5" x2="629.5" y1="292.5859" y2="292.5859"/><text fill="#000000" font-family="sans-serif" font-size="13" font-weight="bold" lengthAdjust="spacing" textLength="7" x="424.5" y="287.7295">5</text><text fill="#000000" font-family="sans-serif" font-size="13" lengthAdjust="spacing" textLength="101" x="435.5" y="287.7295">packaging(JSON)</text><polygon fill="#181818" points="81.5,318.9375,71.5,322.9375,81.5,326.9375,77.5,322.9375" style="stroke:#181818;stroke-width:1.0;"/><line style="stroke:#181818;stroke-width:1.0;stroke-dasharray:2.0,2.0;" x1="75.5" x2="401.5" y1="322.9375" y2="322.9375"/><text fill="#000000" font-family="sans-serif" font-size="13" font-weight="bold" lengthAdjust="spacing" textLength="7" x="87.5" y="318.0811">6</text><text fill="#000000" font-family="sans-serif" font-size="13" lengthAdjust="spacing" textLength="227" x="98.5" y="318.0811">Requests the data you want to change.</text><polygon fill="#181818" points="385.5,349.2891,395.5,353.2891,385.5,357.2891,389.5,353.2891" style="stroke:#181818;stroke-width:1.0;"/><line style="stroke:#181818;stroke-width:1.0;" x1="70.5" x2="391.5" y1="353.2891" y2="353.2891"/><text fill="#000000" font-family="sans-serif" font-size="13" font-weight="bold" lengthAdjust="spacing" textLength="7" x="77.5" y="348.4326">7</text><text fill="#000000" font-family="sans-serif" font-size="13" lengthAdjust="spacing" textLength="136" x="88.5" y="348.4326">Enter  the desired data.</text><polygon fill="#181818" points="613.5,379.6406,623.5,383.6406,613.5,387.6406,617.5,383.6406" style="stroke:#181818;stroke-width:1.0;"/><line style="stroke:#181818;stroke-width:1.0;" x1="407.5" x2="619.5" y1="383.6406" y2="383.6406"/><text fill="#000000" font-family="sans-serif" font-size="13" font-weight="bold" lengthAdjust="spacing" textLength="7" x="414.5" y="378.7842">8</text><text fill="#000000" font-family="sans-serif" font-size="13" lengthAdjust="spacing" textLength="188" x="425.5" y="378.7842">PUT packaging/{PackagingData}</text><line style="stroke:#181818;stroke-width:1.0;" x1="635.5" x2="677.5" y1="413.9922" y2="413.9922"/><line style="stroke:#181818;stroke-width:1.0;" x1="677.5" x2="677.5" y1="413.9922" y2="426.9922"/><line style="stroke:#181818;stroke-width:1.0;" x1="636.5" x2="677.5" y1="426.9922" y2="426.9922"/><polygon fill="#181818" points="646.5,422.9922,636.5,426.9922,646.5,430.9922,642.5,426.9922" style="stroke:#181818;stroke-width:1.0;"/><text fill="#000000" font-family="sans-serif" font-size="13" font-weight="bold" lengthAdjust="spacing" textLength="7" x="642.5" y="409.1357">9</text><text fill="#000000" font-family="sans-serif" font-size="13" lengthAdjust="spacing" textLength="114" x="653.5" y="409.1357">Validate(packaging)</text><line style="stroke:#181818;stroke-width:1.0;" x1="635.5" x2="677.5" y1="457.3438" y2="457.3438"/><line style="stroke:#181818;stroke-width:1.0;" x1="677.5" x2="677.5" y1="457.3438" y2="470.3438"/><line style="stroke:#181818;stroke-width:1.0;" x1="636.5" x2="677.5" y1="470.3438" y2="470.3438"/><polygon fill="#181818" points="646.5,466.3438,636.5,470.3438,646.5,474.3438,642.5,470.3438" style="stroke:#181818;stroke-width:1.0;"/><text fill="#000000" font-family="sans-serif" font-size="13" font-weight="bold" lengthAdjust="spacing" textLength="14" x="642.5" y="452.4873">10</text><text fill="#000000" font-family="sans-serif" font-size="13" lengthAdjust="spacing" textLength="93" x="660.5" y="452.4873">save(packaging)</text><polygon fill="#181818" points="418.5,496.6953,408.5,500.6953,418.5,504.6953,414.5,500.6953" style="stroke:#181818;stroke-width:1.0;"/><line style="stroke:#181818;stroke-width:1.0;" x1="412.5" x2="629.5" y1="500.6953" y2="500.6953"/><text fill="#000000" font-family="sans-serif" font-size="13" font-weight="bold" lengthAdjust="spacing" textLength="14" x="424.5" y="495.8389">11</text><text fill="#000000" font-family="sans-serif" font-size="13" lengthAdjust="spacing" textLength="44" x="442.5" y="495.8389">200 OK</text><polygon fill="#181818" points="81.5,527.0469,71.5,531.0469,81.5,535.0469,77.5,531.0469" style="stroke:#181818;stroke-width:1.0;"/><line style="stroke:#181818;stroke-width:1.0;stroke-dasharray:2.0,2.0;" x1="75.5" x2="401.5" y1="531.0469" y2="531.0469"/><text fill="#000000" font-family="sans-serif" font-size="13" font-weight="bold" lengthAdjust="spacing" textLength="14" x="87.5" y="526.1904">12</text><text fill="#000000" font-family="sans-serif" font-size="13" lengthAdjust="spacing" textLength="262" x="105.5" y="526.1904">Validates the data and requests confirmation.</text><polygon fill="#181818" points="385.5,557.3984,395.5,561.3984,385.5,565.3984,389.5,561.3984" style="stroke:#181818;stroke-width:1.0;"/><line style="stroke:#181818;stroke-width:1.0;" x1="70.5" x2="391.5" y1="561.3984" y2="561.3984"/><text fill="#000000" font-family="sans-serif" font-size="13" font-weight="bold" lengthAdjust="spacing" textLength="14" x="77.5" y="556.542">13</text><text fill="#000000" font-family="sans-serif" font-size="13" lengthAdjust="spacing" textLength="144" x="95.5" y="556.542">Confirms the information.</text><polygon fill="#181818" points="76.5,587.75,66.5,591.75,76.5,595.75,72.5,591.75" style="stroke:#181818;stroke-width:1.0;"/><line style="stroke:#181818;stroke-width:1.0;stroke-dasharray:2.0,2.0;" x1="70.5" x2="401.5" y1="591.75" y2="591.75"/><text fill="#000000" font-family="sans-serif" font-size="13" font-weight="bold" lengthAdjust="spacing" textLength="14" x="82.5" y="586.8936">14</text><text fill="#000000" font-family="sans-serif" font-size="13" lengthAdjust="spacing" textLength="285" x="100.5" y="586.8936">Saves the data and informs of operation success.</text><!--MD5=[0e9aa97b3d53ef1e52e9731dd50f3a4f]
@startuml

title View Level 2 - Edit Packaging

autonumber

actor "Logistics Manager" as LM
actor "<< Container (C4)>> \n :Visual Interface" as SYS
actor "<< Container (C4)>> \n :Logistics" as L


activate LM
LM -> SYS : Asks to edit a packaging.
activate SYS
SYS - -> LM : Ask to choose wich packaging you want to edit.
deactivate SYS

LM -> SYS : Choose the packaging.
activate SYS

SYS -> L : GET packaging/{id}
activate L

L -> SYS : packaging(JSON)
deactivate L

SYS - -> LM : Requests the data you want to change.
deactivate SYS

LM -> SYS : Enter  the desired data.
activate SYS

SYS -> L : PUT packaging/{PackagingData}
activate L

L -> L : Validate(packaging)

L -> L : save(packaging)

L -> SYS : 200 OK
deactivate L

SYS - -> LM : Validates the data and requests confirmation.
deactivate SYS

LM -> SYS : Confirms the information.
activate SYS
SYS - -> LM : Saves the data and informs of operation success.
deactivate SYS


deactivate LM

@enduml

PlantUML version 1.2022.7(Mon Aug 22 18:01:30 WEST 2022)
(GPL source distribution)
Java Runtime: Java(TM) SE Runtime Environment
JVM: Java HotSpot(TM) 64-Bit Server VM
Default Encoding: Cp1252
Language: pt
Country: PT
--></g></svg>