<?xml version="1.0" encoding="UTF-8" standalone="no"?><svg xmlns="http://www.w3.org/2000/svg" xmlns:xlink="http://www.w3.org/1999/xlink" contentStyleType="text/css" height="544px" preserveAspectRatio="none" style="width:690px;height:544px;background:#FFFFFF;" version="1.1" viewBox="0 0 690 544" width="690px" zoomAndPan="magnify"><defs/><g><rect fill="none" height="27.6094" id="_title" style="stroke:none;stroke-width:1.0;" width="146" x="274" y="10"/><text fill="#000000" font-family="sans-serif" font-size="14" font-weight="bold" lengthAdjust="spacing" textLength="136" x="279" y="29.5332">Lvl 2 - Create Truck</text><rect fill="#FFFFFF" height="278.1641" style="stroke:#181818;stroke-width:1.0;" width="10" x="49" y="148.8281"/><rect fill="#FFFFFF" height="30.3516" style="stroke:#181818;stroke-width:1.0;" width="10" x="379" y="171.1797"/><rect fill="#FFFFFF" height="134.4063" style="stroke:#181818;stroke-width:1.0;" width="10" x="379" y="231.8828"/><rect fill="#FFFFFF" height="30.3516" style="stroke:#181818;stroke-width:1.0;" width="10" x="379" y="396.6406"/><rect fill="#FFFFFF" height="73.7031" style="stroke:#181818;stroke-width:1.0;" width="10" x="562" y="262.2344"/><line style="stroke:#181818;stroke-width:0.5;stroke-dasharray:5.0,5.0;" x1="54" x2="54" y1="138.8281" y2="444.9922"/><line style="stroke:#181818;stroke-width:0.5;stroke-dasharray:5.0,5.0;" x1="384" x2="384" y1="138.8281" y2="444.9922"/><line style="stroke:#181818;stroke-width:0.5;stroke-dasharray:5.0,5.0;" x1="567" x2="567" y1="138.8281" y2="444.9922"/><text fill="#000000" font-family="sans-serif" font-size="14" lengthAdjust="spacing" textLength="92" x="5" y="135.752">Fleet Manager</text><ellipse cx="54" cy="69.7188" fill="#E2E2F0" rx="8" ry="8" style="stroke:#181818;stroke-width:0.5;"/><path d="M54,77.7188 L54,104.7188 M41,85.7188 L67,85.7188 M54,104.7188 L41,119.7188 M54,104.7188 L67,119.7188 " fill="none" style="stroke:#181818;stroke-width:0.5;"/><text fill="#000000" font-family="sans-serif" font-size="14" lengthAdjust="spacing" textLength="92" x="5" y="458.5254">Fleet Manager</text><ellipse cx="54" cy="470.1016" fill="#E2E2F0" rx="8" ry="8" style="stroke:#181818;stroke-width:0.5;"/><path d="M54,478.1016 L54,505.1016 M41,486.1016 L67,486.1016 M54,505.1016 L41,520.1016 M54,505.1016 L67,520.1016 " fill="none" style="stroke:#181818;stroke-width:0.5;"/><text fill="#000000" font-family="sans-serif" font-size="14" lengthAdjust="spacing" textLength="102" x="328" y="118.1426">&lt;&lt; Container &gt;&gt;</text><text fill="#000000" font-family="sans-serif" font-size="14" lengthAdjust="spacing" textLength="97" x="334.5" y="135.752">Visual Interface</text><ellipse cx="384" cy="52.1094" fill="#E2E2F0" rx="8" ry="8" style="stroke:#181818;stroke-width:0.5;"/><path d="M384,60.1094 L384,87.1094 M371,68.1094 L397,68.1094 M384,87.1094 L371,102.1094 M384,87.1094 L397,102.1094 " fill="none" style="stroke:#181818;stroke-width:0.5;"/><text fill="#000000" font-family="sans-serif" font-size="14" lengthAdjust="spacing" textLength="102" x="328" y="458.5254">&lt;&lt; Container &gt;&gt;</text><text fill="#000000" font-family="sans-serif" font-size="14" lengthAdjust="spacing" textLength="97" x="334.5" y="476.1348">Visual Interface</text><ellipse cx="384" cy="487.7109" fill="#E2E2F0" rx="8" ry="8" style="stroke:#181818;stroke-width:0.5;"/><path d="M384,495.7109 L384,522.7109 M371,503.7109 L397,503.7109 M384,522.7109 L371,537.7109 M384,522.7109 L397,537.7109 " fill="none" style="stroke:#181818;stroke-width:0.5;"/><text fill="#000000" font-family="sans-serif" font-size="14" lengthAdjust="spacing" textLength="102" x="511" y="118.1426">&lt;&lt; Container &gt;&gt;</text><text fill="#000000" font-family="sans-serif" font-size="14" lengthAdjust="spacing" textLength="55" x="538.5" y="135.752">Logistics</text><ellipse cx="567" cy="52.1094" fill="#E2E2F0" rx="8" ry="8" style="stroke:#181818;stroke-width:0.5;"/><path d="M567,60.1094 L567,87.1094 M554,68.1094 L580,68.1094 M567,87.1094 L554,102.1094 M567,87.1094 L580,102.1094 " fill="none" style="stroke:#181818;stroke-width:0.5;"/><text fill="#000000" font-family="sans-serif" font-size="14" lengthAdjust="spacing" textLength="102" x="511" y="458.5254">&lt;&lt; Container &gt;&gt;</text><text fill="#000000" font-family="sans-serif" font-size="14" lengthAdjust="spacing" textLength="55" x="538.5" y="476.1348">Logistics</text><ellipse cx="567" cy="487.7109" fill="#E2E2F0" rx="8" ry="8" style="stroke:#181818;stroke-width:0.5;"/><path d="M567,495.7109 L567,522.7109 M554,503.7109 L580,503.7109 M567,522.7109 L554,537.7109 M567,522.7109 L580,537.7109 " fill="none" style="stroke:#181818;stroke-width:0.5;"/><rect fill="#FFFFFF" height="278.1641" style="stroke:#181818;stroke-width:1.0;" width="10" x="49" y="148.8281"/><rect fill="#FFFFFF" height="30.3516" style="stroke:#181818;stroke-width:1.0;" width="10" x="379" y="171.1797"/><rect fill="#FFFFFF" height="134.4063" style="stroke:#181818;stroke-width:1.0;" width="10" x="379" y="231.8828"/><rect fill="#FFFFFF" height="30.3516" style="stroke:#181818;stroke-width:1.0;" width="10" x="379" y="396.6406"/><rect fill="#FFFFFF" height="73.7031" style="stroke:#181818;stroke-width:1.0;" width="10" x="562" y="262.2344"/><polygon fill="#181818" points="367,167.1797,377,171.1797,367,175.1797,371,171.1797" style="stroke:#181818;stroke-width:1.0;"/><line style="stroke:#181818;stroke-width:1.0;" x1="59" x2="373" y1="171.1797" y2="171.1797"/><text fill="#000000" font-family="sans-serif" font-size="13" font-weight="bold" lengthAdjust="spacing" textLength="7" x="66" y="166.3232">1</text><text fill="#000000" font-family="sans-serif" font-size="13" lengthAdjust="spacing" textLength="158" x="77" y="166.3232">Asks to create/add a truck.</text><polygon fill="#181818" points="70,197.5313,60,201.5313,70,205.5313,66,201.5313" style="stroke:#181818;stroke-width:1.0;"/><line style="stroke:#181818;stroke-width:1.0;stroke-dasharray:2.0,2.0;" x1="64" x2="383" y1="201.5313" y2="201.5313"/><text fill="#000000" font-family="sans-serif" font-size="13" font-weight="bold" lengthAdjust="spacing" textLength="7" x="76" y="196.6748">2</text><text fill="#000000" font-family="sans-serif" font-size="13" lengthAdjust="spacing" textLength="170" x="87" y="196.6748">Requests the necessary data</text><polygon fill="#181818" points="367,227.8828,377,231.8828,367,235.8828,371,231.8828" style="stroke:#181818;stroke-width:1.0;"/><line style="stroke:#181818;stroke-width:1.0;" x1="59" x2="373" y1="231.8828" y2="231.8828"/><text fill="#000000" font-family="sans-serif" font-size="13" font-weight="bold" lengthAdjust="spacing" textLength="7" x="66" y="227.0264">3</text><text fill="#000000" font-family="sans-serif" font-size="13" lengthAdjust="spacing" textLength="155" x="77" y="227.0264">Inserts the requested data.</text><polygon fill="#181818" points="550,258.2344,560,262.2344,550,266.2344,554,262.2344" style="stroke:#181818;stroke-width:1.0;"/><line style="stroke:#181818;stroke-width:1.0;" x1="389" x2="556" y1="262.2344" y2="262.2344"/><text fill="#000000" font-family="sans-serif" font-size="13" font-weight="bold" lengthAdjust="spacing" textLength="7" x="396" y="257.3779">4</text><text fill="#000000" font-family="sans-serif" font-size="13" lengthAdjust="spacing" textLength="143" x="407" y="257.3779">POST /truck/{TruckData}</text><line style="stroke:#181818;stroke-width:1.0;" x1="572" x2="614" y1="292.5859" y2="292.5859"/><line style="stroke:#181818;stroke-width:1.0;" x1="614" x2="614" y1="292.5859" y2="305.5859"/><line style="stroke:#181818;stroke-width:1.0;" x1="573" x2="614" y1="305.5859" y2="305.5859"/><polygon fill="#181818" points="583,301.5859,573,305.5859,583,309.5859,579,305.5859" style="stroke:#181818;stroke-width:1.0;"/><text fill="#000000" font-family="sans-serif" font-size="13" font-weight="bold" lengthAdjust="spacing" textLength="7" x="579" y="287.7295">5</text><text fill="#000000" font-family="sans-serif" font-size="13" lengthAdjust="spacing" textLength="93" x="590" y="287.7295">save(TruckData)</text><polygon fill="#181818" points="400,331.9375,390,335.9375,400,339.9375,396,335.9375" style="stroke:#181818;stroke-width:1.0;"/><line style="stroke:#181818;stroke-width:1.0;" x1="394" x2="566" y1="335.9375" y2="335.9375"/><text fill="#000000" font-family="sans-serif" font-size="13" font-weight="bold" lengthAdjust="spacing" textLength="7" x="406" y="331.0811">6</text><text fill="#000000" font-family="sans-serif" font-size="13" lengthAdjust="spacing" textLength="121" x="417" y="331.0811">truck_register(JSON)</text><polygon fill="#181818" points="70,362.2891,60,366.2891,70,370.2891,66,366.2891" style="stroke:#181818;stroke-width:1.0;"/><line style="stroke:#181818;stroke-width:1.0;stroke-dasharray:2.0,2.0;" x1="64" x2="383" y1="366.2891" y2="366.2891"/><text fill="#000000" font-family="sans-serif" font-size="13" font-weight="bold" lengthAdjust="spacing" textLength="7" x="76" y="361.4326">7</text><text fill="#000000" font-family="sans-serif" font-size="13" lengthAdjust="spacing" textLength="262" x="87" y="361.4326">Validates the data and requests confirmation.</text><polygon fill="#181818" points="367,392.6406,377,396.6406,367,400.6406,371,396.6406" style="stroke:#181818;stroke-width:1.0;"/><line style="stroke:#181818;stroke-width:1.0;" x1="59" x2="373" y1="396.6406" y2="396.6406"/><text fill="#000000" font-family="sans-serif" font-size="13" font-weight="bold" lengthAdjust="spacing" textLength="7" x="66" y="391.7842">8</text><text fill="#000000" font-family="sans-serif" font-size="13" lengthAdjust="spacing" textLength="144" x="77" y="391.7842">Confirms the information.</text><polygon fill="#181818" points="65,422.9922,55,426.9922,65,430.9922,61,426.9922" style="stroke:#181818;stroke-width:1.0;"/><line style="stroke:#181818;stroke-width:1.0;stroke-dasharray:2.0,2.0;" x1="59" x2="383" y1="426.9922" y2="426.9922"/><text fill="#000000" font-family="sans-serif" font-size="13" font-weight="bold" lengthAdjust="spacing" textLength="7" x="71" y="422.1357">9</text><text fill="#000000" font-family="sans-serif" font-size="13" lengthAdjust="spacing" textLength="285" x="82" y="422.1357">Saves the data and informs of operation success.</text><!--MD5=[01cc2245ea8935ca8b6dbcf455e332db]
@startuml

title Lvl 2 - Create Truck

autonumber

actor "Fleet Manager" as FM
actor "<< Container >> \n Visual Interface" as SYS
actor "<< Container >> \n Logistics" as LG


activate FM
FM -> SYS : Asks to create/add a truck.
activate SYS
SYS - -> FM : Requests the necessary data
deactivate SYS

FM -> SYS : Inserts the requested data.
activate SYS

SYS -> LG : POST /truck/{TruckData}
activate LG

LG -> LG : save(TruckData)

LG -> SYS : truck_register(JSON)
deactivate LG

SYS - -> FM : Validates the data and requests confirmation.
deactivate SYS

FM -> SYS : Confirms the information.
activate SYS


SYS - -> FM : Saves the data and informs of operation success.
deactivate SYS

deactivate FM

@enduml

PlantUML version 1.2022.7(Mon Aug 22 18:01:30 BST 2022)
(GPL source distribution)
Java Runtime: Java(TM) SE Runtime Environment
JVM: Java HotSpot(TM) 64-Bit Server VM
Default Encoding: Cp1252
Language: pt
Country: PT
--></g></svg>