<?xml version="1.0" encoding="UTF-8" standalone="no"?><svg xmlns="http://www.w3.org/2000/svg" xmlns:xlink="http://www.w3.org/1999/xlink" contentStyleType="text/css" height="448px" preserveAspectRatio="none" style="width:738px;height:448px;background:#FFFFFF;" version="1.1" viewBox="0 0 738 448" width="738px" zoomAndPan="magnify"><defs/><g><rect fill="none" height="27.6094" id="_title" style="stroke:none;stroke-width:1.0;" width="179" x="281.75" y="10"/><text fill="#000000" font-family="sans-serif" font-size="14" font-weight="bold" lengthAdjust="spacing" textLength="169" x="286.75" y="29.5332">Lvl 2 - Create Packaging</text><rect fill="#FFFFFF" height="217.4609" style="stroke:#181818;stroke-width:1.0;" width="10" x="60.5" y="131.2188"/><rect fill="#FFFFFF" height="30.3516" style="stroke:#181818;stroke-width:1.0;" width="10" x="409.5" y="153.5703"/><rect fill="#FFFFFF" height="134.4063" style="stroke:#181818;stroke-width:1.0;" width="10" x="409.5" y="214.2734"/><rect fill="#FFFFFF" height="73.7031" style="stroke:#181818;stroke-width:1.0;" width="10" x="581.5" y="244.625"/><line style="stroke:#181818;stroke-width:0.5;stroke-dasharray:5.0,5.0;" x1="65" x2="65" y1="121.2188" y2="366.6797"/><line style="stroke:#181818;stroke-width:0.5;stroke-dasharray:5.0,5.0;" x1="414.5" x2="414.5" y1="121.2188" y2="366.6797"/><line style="stroke:#181818;stroke-width:0.5;stroke-dasharray:5.0,5.0;" x1="586.5" x2="586.5" y1="121.2188" y2="366.6797"/><text fill="#000000" font-family="sans-serif" font-size="14" lengthAdjust="spacing" textLength="115" x="5" y="118.1426">Logistics Manager</text><ellipse cx="65.5" cy="52.1094" fill="#E2E2F0" rx="8" ry="8" style="stroke:#181818;stroke-width:0.5;"/><path d="M65.5,60.1094 L65.5,87.1094 M52.5,68.1094 L78.5,68.1094 M65.5,87.1094 L52.5,102.1094 M65.5,87.1094 L78.5,102.1094 " fill="none" style="stroke:#181818;stroke-width:0.5;"/><text fill="#000000" font-family="sans-serif" font-size="14" lengthAdjust="spacing" textLength="115" x="5" y="380.2129">Logistics Manager</text><ellipse cx="65.5" cy="391.7891" fill="#E2E2F0" rx="8" ry="8" style="stroke:#181818;stroke-width:0.5;"/><path d="M65.5,399.7891 L65.5,426.7891 M52.5,407.7891 L78.5,407.7891 M65.5,426.7891 L52.5,441.7891 M65.5,426.7891 L78.5,441.7891 " fill="none" style="stroke:#181818;stroke-width:0.5;"/><rect fill="#E2E2F0" height="49.2188" rx="2.5" ry="2.5" style="stroke:#181818;stroke-width:0.5;" width="152" x="338.5" y="71"/><text fill="#000000" font-family="sans-serif" font-size="14" lengthAdjust="spacing" textLength="134" x="345.5" y="92.5332">&lt;&lt; Container (C4) &gt;&gt;</text><text fill="#000000" font-family="sans-serif" font-size="14" lengthAdjust="spacing" textLength="27" x="403" y="110.1426">SPA</text><rect fill="#E2E2F0" height="49.2188" rx="2.5" ry="2.5" style="stroke:#181818;stroke-width:0.5;" width="152" x="338.5" y="365.6797"/><text fill="#000000" font-family="sans-serif" font-size="14" lengthAdjust="spacing" textLength="134" x="345.5" y="387.2129">&lt;&lt; Container (C4) &gt;&gt;</text><text fill="#000000" font-family="sans-serif" font-size="14" lengthAdjust="spacing" textLength="27" x="403" y="404.8223">SPA</text><rect fill="#E2E2F0" height="49.2188" rx="2.5" ry="2.5" style="stroke:#181818;stroke-width:0.5;" width="152" x="510.5" y="71"/><text fill="#000000" font-family="sans-serif" font-size="14" lengthAdjust="spacing" textLength="134" x="517.5" y="92.5332">&lt;&lt; Container (C4) &gt;&gt;</text><text fill="#000000" font-family="sans-serif" font-size="14" lengthAdjust="spacing" textLength="55" x="561" y="110.1426">Logistics</text><rect fill="#E2E2F0" height="49.2188" rx="2.5" ry="2.5" style="stroke:#181818;stroke-width:0.5;" width="152" x="510.5" y="365.6797"/><text fill="#000000" font-family="sans-serif" font-size="14" lengthAdjust="spacing" textLength="134" x="517.5" y="387.2129">&lt;&lt; Container (C4) &gt;&gt;</text><text fill="#000000" font-family="sans-serif" font-size="14" lengthAdjust="spacing" textLength="55" x="561" y="404.8223">Logistics</text><rect fill="#FFFFFF" height="217.4609" style="stroke:#181818;stroke-width:1.0;" width="10" x="60.5" y="131.2188"/><rect fill="#FFFFFF" height="30.3516" style="stroke:#181818;stroke-width:1.0;" width="10" x="409.5" y="153.5703"/><rect fill="#FFFFFF" height="134.4063" style="stroke:#181818;stroke-width:1.0;" width="10" x="409.5" y="214.2734"/><rect fill="#FFFFFF" height="73.7031" style="stroke:#181818;stroke-width:1.0;" width="10" x="581.5" y="244.625"/><polygon fill="#181818" points="397.5,149.5703,407.5,153.5703,397.5,157.5703,401.5,153.5703" style="stroke:#181818;stroke-width:1.0;"/><line style="stroke:#181818;stroke-width:1.0;" x1="70.5" x2="403.5" y1="153.5703" y2="153.5703"/><text fill="#000000" font-family="sans-serif" font-size="13" font-weight="bold" lengthAdjust="spacing" textLength="7" x="77.5" y="148.7139">1</text><text fill="#000000" font-family="sans-serif" font-size="13" lengthAdjust="spacing" textLength="234" x="88.5" y="148.7139">Selects the option to create a packaging</text><polygon fill="#181818" points="81.5,179.9219,71.5,183.9219,81.5,187.9219,77.5,183.9219" style="stroke:#181818;stroke-width:1.0;"/><line style="stroke:#181818;stroke-width:1.0;stroke-dasharray:2.0,2.0;" x1="75.5" x2="413.5" y1="183.9219" y2="183.9219"/><text fill="#000000" font-family="sans-serif" font-size="13" font-weight="bold" lengthAdjust="spacing" textLength="7" x="87.5" y="179.0654">2</text><text fill="#000000" font-family="sans-serif" font-size="13" lengthAdjust="spacing" textLength="170" x="98.5" y="179.0654">Requests the necessary data</text><polygon fill="#181818" points="397.5,210.2734,407.5,214.2734,397.5,218.2734,401.5,214.2734" style="stroke:#181818;stroke-width:1.0;"/><line style="stroke:#181818;stroke-width:1.0;" x1="70.5" x2="403.5" y1="214.2734" y2="214.2734"/><text fill="#000000" font-family="sans-serif" font-size="13" font-weight="bold" lengthAdjust="spacing" textLength="7" x="77.5" y="209.417">3</text><text fill="#000000" font-family="sans-serif" font-size="13" lengthAdjust="spacing" textLength="155" x="88.5" y="209.417">Inserts the requested data.</text><polygon fill="#181818" points="569.5,240.625,579.5,244.625,569.5,248.625,573.5,244.625" style="stroke:#181818;stroke-width:1.0;"/><line style="stroke:#181818;stroke-width:1.0;" x1="419.5" x2="575.5" y1="244.625" y2="244.625"/><text fill="#000000" font-family="sans-serif" font-size="13" font-weight="bold" lengthAdjust="spacing" textLength="7" x="426.5" y="239.7686">4</text><text fill="#000000" font-family="sans-serif" font-size="13" lengthAdjust="spacing" textLength="132" x="437.5" y="239.7686">POST /api/Packagings</text><line style="stroke:#181818;stroke-width:1.0;" x1="591.5" x2="633.5" y1="274.9766" y2="274.9766"/><line style="stroke:#181818;stroke-width:1.0;" x1="633.5" x2="633.5" y1="274.9766" y2="287.9766"/><line style="stroke:#181818;stroke-width:1.0;" x1="592.5" x2="633.5" y1="287.9766" y2="287.9766"/><polygon fill="#181818" points="602.5,283.9766,592.5,287.9766,602.5,291.9766,598.5,287.9766" style="stroke:#181818;stroke-width:1.0;"/><text fill="#000000" font-family="sans-serif" font-size="13" font-weight="bold" lengthAdjust="spacing" textLength="7" x="598.5" y="270.1201">5</text><text fill="#000000" font-family="sans-serif" font-size="13" lengthAdjust="spacing" textLength="122" x="609.5" y="270.1201">save(PackagingData)</text><polygon fill="#181818" points="430.5,314.3281,420.5,318.3281,430.5,322.3281,426.5,318.3281" style="stroke:#181818;stroke-width:1.0;"/><line style="stroke:#181818;stroke-width:1.0;" x1="424.5" x2="585.5" y1="318.3281" y2="318.3281"/><text fill="#000000" font-family="sans-serif" font-size="13" font-weight="bold" lengthAdjust="spacing" textLength="7" x="436.5" y="313.4717">6</text><text fill="#000000" font-family="sans-serif" font-size="13" lengthAdjust="spacing" textLength="106" x="447.5" y="313.4717">HTTP 201 Created</text><polygon fill="#181818" points="76.5,344.6797,66.5,348.6797,76.5,352.6797,72.5,348.6797" style="stroke:#181818;stroke-width:1.0;"/><line style="stroke:#181818;stroke-width:1.0;stroke-dasharray:2.0,2.0;" x1="70.5" x2="413.5" y1="348.6797" y2="348.6797"/><text fill="#000000" font-family="sans-serif" font-size="13" font-weight="bold" lengthAdjust="spacing" textLength="7" x="82.5" y="343.8232">7</text><text fill="#000000" font-family="sans-serif" font-size="13" lengthAdjust="spacing" textLength="304" x="93.5" y="343.8232">Validates the data and informs of operation success.</text><!--MD5=[2b658cdb4a3f2de7fda3b580e8dc6cd0]
@startuml US

title Lvl 2 - Create Packaging

autonumber

actor "Logistics Manager" as LM
participant "<< Container (C4) >> \n SPA" as S
participant "<< Container (C4) >> \n Logistics" as LG


activate LM
LM -> S : Selects the option to create a packaging
activate S
S - -> LM : Requests the necessary data
deactivate S

LM -> S : Inserts the requested data.
activate S

S -> LG : POST /api/Packagings
activate LG

LG -> LG : save(PackagingData)

LG -> S : HTTP 201 Created
deactivate LG

S - -> LM : Validates the data and informs of operation success.

deactivate S

deactivate LM

@enduml

PlantUML version 1.2022.7(Mon Aug 22 18:01:30 WEST 2022)
(GPL source distribution)
Java Runtime: Java(TM) SE Runtime Environment
JVM: Java HotSpot(TM) 64-Bit Server VM
Default Encoding: Cp1252
Language: pt
Country: PT
--></g></svg>