<?xml version="1.0" encoding="UTF-8" standalone="no"?><svg xmlns="http://www.w3.org/2000/svg" xmlns:xlink="http://www.w3.org/1999/xlink" contentStyleType="text/css" height="648px" preserveAspectRatio="none" style="width:1319px;height:648px;background:#FFFFFF;" version="1.1" viewBox="0 0 1319 648" width="1319px" zoomAndPan="magnify"><defs/><g><rect fill="none" height="27.6094" id="_title" style="stroke:none;stroke-width:1.0;" width="240" x="538.75" y="10"/><text fill="#000000" font-family="sans-serif" font-size="14" font-weight="bold" lengthAdjust="spacing" textLength="230" x="543.75" y="29.5332">Lvl 3 - List Fleet Route Plannings</text><rect fill="#FFFFFF" height="416.9219" style="stroke:#181818;stroke-width:1.0;" width="10" x="60.5" y="131.2188"/><rect fill="#FFFFFF" height="273.1641" style="stroke:#181818;stroke-width:1.0;" width="10" x="422.5" y="153.5703"/><rect fill="#FFFFFF" height="91.0547" style="stroke:#181818;stroke-width:1.0;" width="10" x="422.5" y="457.0859"/><rect fill="#FFFFFF" height="212.4609" style="stroke:#181818;stroke-width:1.0;" width="10" x="584.5" y="183.9219"/><rect fill="#FFFFFF" height="151.7578" style="stroke:#181818;stroke-width:1.0;" width="10" x="746.5" y="214.2734"/><rect fill="#FFFFFF" height="30.3516" style="stroke:#181818;stroke-width:1.0;" width="10" x="908.5" y="244.625"/><rect fill="#FFFFFF" height="30.3516" style="stroke:#181818;stroke-width:1.0;" width="10" x="1070.5" y="305.3281"/><rect fill="#FFFFFF" height="30.3516" style="stroke:#181818;stroke-width:1.0;" width="10" x="1232.5" y="487.4375"/><line style="stroke:#181818;stroke-width:0.5;stroke-dasharray:5.0,5.0;" x1="65" x2="65" y1="121.2188" y2="566.1406"/><line style="stroke:#181818;stroke-width:0.5;stroke-dasharray:5.0,5.0;" x1="427.5" x2="427.5" y1="121.2188" y2="566.1406"/><line style="stroke:#181818;stroke-width:0.5;stroke-dasharray:5.0,5.0;" x1="589.5" x2="589.5" y1="121.2188" y2="566.1406"/><line style="stroke:#181818;stroke-width:0.5;stroke-dasharray:5.0,5.0;" x1="751.5" x2="751.5" y1="121.2188" y2="566.1406"/><line style="stroke:#181818;stroke-width:0.5;stroke-dasharray:5.0,5.0;" x1="913.5" x2="913.5" y1="121.2188" y2="566.1406"/><line style="stroke:#181818;stroke-width:0.5;stroke-dasharray:5.0,5.0;" x1="1075.5" x2="1075.5" y1="121.2188" y2="566.1406"/><line style="stroke:#181818;stroke-width:0.5;stroke-dasharray:5.0,5.0;" x1="1237.5" x2="1237.5" y1="121.2188" y2="566.1406"/><text fill="#000000" font-family="sans-serif" font-size="14" lengthAdjust="spacing" textLength="115" x="5" y="118.1426">Logistics Manager</text><ellipse cx="65.5" cy="52.1094" fill="#E2E2F0" rx="8" ry="8" style="stroke:#181818;stroke-width:0.5;"/><path d="M65.5,60.1094 L65.5,87.1094 M52.5,68.1094 L78.5,68.1094 M65.5,87.1094 L52.5,102.1094 M65.5,87.1094 L78.5,102.1094 " fill="none" style="stroke:#181818;stroke-width:0.5;"/><text fill="#000000" font-family="sans-serif" font-size="14" lengthAdjust="spacing" textLength="115" x="5" y="579.6738">Logistics Manager</text><ellipse cx="65.5" cy="591.25" fill="#E2E2F0" rx="8" ry="8" style="stroke:#181818;stroke-width:0.5;"/><path d="M65.5,599.25 L65.5,626.25 M52.5,607.25 L78.5,607.25 M65.5,626.25 L52.5,641.25 M65.5,626.25 L78.5,641.25 " fill="none" style="stroke:#181818;stroke-width:0.5;"/><rect fill="#E2E2F0" height="49.2188" rx="2.5" ry="2.5" style="stroke:#181818;stroke-width:0.5;" width="152" x="351.5" y="71"/><text fill="#000000" font-family="sans-serif" font-size="14" lengthAdjust="spacing" textLength="134" x="358.5" y="92.5332">&lt;&lt; Container (C4) &gt;&gt;</text><text fill="#000000" font-family="sans-serif" font-size="14" lengthAdjust="spacing" textLength="27" x="416" y="110.1426">SPA</text><rect fill="#E2E2F0" height="49.2188" rx="2.5" ry="2.5" style="stroke:#181818;stroke-width:0.5;" width="152" x="351.5" y="565.1406"/><text fill="#000000" font-family="sans-serif" font-size="14" lengthAdjust="spacing" textLength="134" x="358.5" y="586.6738">&lt;&lt; Container (C4) &gt;&gt;</text><text fill="#000000" font-family="sans-serif" font-size="14" lengthAdjust="spacing" textLength="27" x="416" y="604.2832">SPA</text><rect fill="#E2E2F0" height="49.2188" rx="2.5" ry="2.5" style="stroke:#181818;stroke-width:0.5;" width="152" x="513.5" y="71"/><text fill="#000000" font-family="sans-serif" font-size="14" lengthAdjust="spacing" textLength="134" x="520.5" y="92.5332">&lt;&lt; Container (C4) &gt;&gt;</text><text fill="#000000" font-family="sans-serif" font-size="14" lengthAdjust="spacing" textLength="77" x="553" y="110.1426">:Component</text><rect fill="#E2E2F0" height="49.2188" rx="2.5" ry="2.5" style="stroke:#181818;stroke-width:0.5;" width="152" x="513.5" y="565.1406"/><text fill="#000000" font-family="sans-serif" font-size="14" lengthAdjust="spacing" textLength="134" x="520.5" y="586.6738">&lt;&lt; Container (C4) &gt;&gt;</text><text fill="#000000" font-family="sans-serif" font-size="14" lengthAdjust="spacing" textLength="77" x="553" y="604.2832">:Component</text><rect fill="#E2E2F0" height="49.2188" rx="2.5" ry="2.5" style="stroke:#181818;stroke-width:0.5;" width="152" x="675.5" y="71"/><text fill="#000000" font-family="sans-serif" font-size="14" lengthAdjust="spacing" textLength="134" x="682.5" y="92.5332">&lt;&lt; Container (C4) &gt;&gt;</text><text fill="#000000" font-family="sans-serif" font-size="14" lengthAdjust="spacing" textLength="51" x="728" y="110.1426">:Service</text><rect fill="#E2E2F0" height="49.2188" rx="2.5" ry="2.5" style="stroke:#181818;stroke-width:0.5;" width="152" x="675.5" y="565.1406"/><text fill="#000000" font-family="sans-serif" font-size="14" lengthAdjust="spacing" textLength="134" x="682.5" y="586.6738">&lt;&lt; Container (C4) &gt;&gt;</text><text fill="#000000" font-family="sans-serif" font-size="14" lengthAdjust="spacing" textLength="51" x="728" y="604.2832">:Service</text><rect fill="#E2E2F0" height="49.2188" rx="2.5" ry="2.5" style="stroke:#181818;stroke-width:0.5;" width="152" x="837.5" y="71"/><text fill="#000000" font-family="sans-serif" font-size="14" lengthAdjust="spacing" textLength="134" x="844.5" y="92.5332">&lt;&lt; Container (C4) &gt;&gt;</text><text fill="#000000" font-family="sans-serif" font-size="14" lengthAdjust="spacing" textLength="34" x="898.5" y="110.1426">:DTO</text><rect fill="#E2E2F0" height="49.2188" rx="2.5" ry="2.5" style="stroke:#181818;stroke-width:0.5;" width="152" x="837.5" y="565.1406"/><text fill="#000000" font-family="sans-serif" font-size="14" lengthAdjust="spacing" textLength="134" x="844.5" y="586.6738">&lt;&lt; Container (C4) &gt;&gt;</text><text fill="#000000" font-family="sans-serif" font-size="14" lengthAdjust="spacing" textLength="34" x="898.5" y="604.2832">:DTO</text><rect fill="#E2E2F0" height="49.2188" rx="2.5" ry="2.5" style="stroke:#181818;stroke-width:0.5;" width="152" x="999.5" y="71"/><text fill="#000000" font-family="sans-serif" font-size="14" lengthAdjust="spacing" textLength="134" x="1006.5" y="92.5332">&lt;&lt; Container (C4) &gt;&gt;</text><text fill="#000000" font-family="sans-serif" font-size="14" lengthAdjust="spacing" textLength="101" x="1027" y="110.1426">LogisticsModule</text><rect fill="#E2E2F0" height="49.2188" rx="2.5" ry="2.5" style="stroke:#181818;stroke-width:0.5;" width="152" x="999.5" y="565.1406"/><text fill="#000000" font-family="sans-serif" font-size="14" lengthAdjust="spacing" textLength="134" x="1006.5" y="586.6738">&lt;&lt; Container (C4) &gt;&gt;</text><text fill="#000000" font-family="sans-serif" font-size="14" lengthAdjust="spacing" textLength="101" x="1027" y="604.2832">LogisticsModule</text><rect fill="#E2E2F0" height="49.2188" rx="2.5" ry="2.5" style="stroke:#181818;stroke-width:0.5;" width="152" x="1161.5" y="71"/><text fill="#000000" font-family="sans-serif" font-size="14" lengthAdjust="spacing" textLength="134" x="1168.5" y="92.5332">&lt;&lt; Container (C4) &gt;&gt;</text><text fill="#000000" font-family="sans-serif" font-size="14" lengthAdjust="spacing" textLength="101" x="1189" y="110.1426">PlanningModule</text><rect fill="#E2E2F0" height="49.2188" rx="2.5" ry="2.5" style="stroke:#181818;stroke-width:0.5;" width="152" x="1161.5" y="565.1406"/><text fill="#000000" font-family="sans-serif" font-size="14" lengthAdjust="spacing" textLength="134" x="1168.5" y="586.6738">&lt;&lt; Container (C4) &gt;&gt;</text><text fill="#000000" font-family="sans-serif" font-size="14" lengthAdjust="spacing" textLength="101" x="1189" y="604.2832">PlanningModule</text><rect fill="#FFFFFF" height="416.9219" style="stroke:#181818;stroke-width:1.0;" width="10" x="60.5" y="131.2188"/><rect fill="#FFFFFF" height="273.1641" style="stroke:#181818;stroke-width:1.0;" width="10" x="422.5" y="153.5703"/><rect fill="#FFFFFF" height="91.0547" style="stroke:#181818;stroke-width:1.0;" width="10" x="422.5" y="457.0859"/><rect fill="#FFFFFF" height="212.4609" style="stroke:#181818;stroke-width:1.0;" width="10" x="584.5" y="183.9219"/><rect fill="#FFFFFF" height="151.7578" style="stroke:#181818;stroke-width:1.0;" width="10" x="746.5" y="214.2734"/><rect fill="#FFFFFF" height="30.3516" style="stroke:#181818;stroke-width:1.0;" width="10" x="908.5" y="244.625"/><rect fill="#FFFFFF" height="30.3516" style="stroke:#181818;stroke-width:1.0;" width="10" x="1070.5" y="305.3281"/><rect fill="#FFFFFF" height="30.3516" style="stroke:#181818;stroke-width:1.0;" width="10" x="1232.5" y="487.4375"/><polygon fill="#181818" points="410.5,149.5703,420.5,153.5703,410.5,157.5703,414.5,153.5703" style="stroke:#181818;stroke-width:1.0;"/><line style="stroke:#181818;stroke-width:1.0;" x1="70.5" x2="416.5" y1="153.5703" y2="153.5703"/><text fill="#000000" font-family="sans-serif" font-size="13" font-weight="bold" lengthAdjust="spacing" textLength="7" x="77.5" y="148.7139">1</text><text fill="#000000" font-family="sans-serif" font-size="13" lengthAdjust="spacing" textLength="244" x="88.5" y="148.7139">Selects the option to List Route Plannings</text><polygon fill="#181818" points="572.5,179.9219,582.5,183.9219,572.5,187.9219,576.5,183.9219" style="stroke:#181818;stroke-width:1.0;"/><line style="stroke:#181818;stroke-width:1.0;" x1="432.5" x2="578.5" y1="183.9219" y2="183.9219"/><text fill="#000000" font-family="sans-serif" font-size="13" font-weight="bold" lengthAdjust="spacing" textLength="7" x="439.5" y="179.0654">2</text><text fill="#000000" font-family="sans-serif" font-size="13" lengthAdjust="spacing" textLength="71" x="450.5" y="179.0654">listTruckss()</text><polygon fill="#181818" points="734.5,210.2734,744.5,214.2734,734.5,218.2734,738.5,214.2734" style="stroke:#181818;stroke-width:1.0;"/><line style="stroke:#181818;stroke-width:1.0;" x1="594.5" x2="740.5" y1="214.2734" y2="214.2734"/><text fill="#000000" font-family="sans-serif" font-size="13" font-weight="bold" lengthAdjust="spacing" textLength="7" x="601.5" y="209.417">3</text><text fill="#000000" font-family="sans-serif" font-size="13" lengthAdjust="spacing" textLength="65" x="612.5" y="209.417">getTrucks()</text><polygon fill="#181818" points="896.5,240.625,906.5,244.625,896.5,248.625,900.5,244.625" style="stroke:#181818;stroke-width:1.0;"/><line style="stroke:#181818;stroke-width:1.0;" x1="756.5" x2="902.5" y1="244.625" y2="244.625"/><text fill="#000000" font-family="sans-serif" font-size="13" font-weight="bold" lengthAdjust="spacing" textLength="7" x="763.5" y="239.7686">4</text><text fill="#000000" font-family="sans-serif" font-size="13" lengthAdjust="spacing" textLength="44" x="774.5" y="239.7686">trucks()</text><polygon fill="#181818" points="767.5,270.9766,757.5,274.9766,767.5,278.9766,763.5,274.9766" style="stroke:#181818;stroke-width:1.0;"/><line style="stroke:#181818;stroke-width:1.0;stroke-dasharray:2.0,2.0;" x1="761.5" x2="912.5" y1="274.9766" y2="274.9766"/><text fill="#000000" font-family="sans-serif" font-size="13" font-weight="bold" lengthAdjust="spacing" textLength="7" x="773.5" y="270.1201">5</text><text fill="#000000" font-family="sans-serif" font-size="13" lengthAdjust="spacing" textLength="81" x="784.5" y="270.1201">return trucks()</text><polygon fill="#181818" points="1058.5,301.3281,1068.5,305.3281,1058.5,309.3281,1062.5,305.3281" style="stroke:#181818;stroke-width:1.0;"/><line style="stroke:#181818;stroke-width:1.0;" x1="756.5" x2="1064.5" y1="305.3281" y2="305.3281"/><text fill="#000000" font-family="sans-serif" font-size="13" font-weight="bold" lengthAdjust="spacing" textLength="7" x="763.5" y="300.4717">6</text><text fill="#000000" font-family="sans-serif" font-size="13" lengthAdjust="spacing" textLength="91" x="774.5" y="300.4717">GET /api/trucks</text><polygon fill="#181818" points="767.5,331.6797,757.5,335.6797,767.5,339.6797,763.5,335.6797" style="stroke:#181818;stroke-width:1.0;"/><line style="stroke:#181818;stroke-width:1.0;stroke-dasharray:2.0,2.0;" x1="761.5" x2="1074.5" y1="335.6797" y2="335.6797"/><text fill="#000000" font-family="sans-serif" font-size="13" font-weight="bold" lengthAdjust="spacing" textLength="7" x="773.5" y="330.8232">7</text><text fill="#000000" font-family="sans-serif" font-size="13" lengthAdjust="spacing" textLength="111" x="784.5" y="330.8232">listOfTrucks(JSON)</text><polygon fill="#181818" points="605.5,362.0313,595.5,366.0313,605.5,370.0313,601.5,366.0313" style="stroke:#181818;stroke-width:1.0;"/><line style="stroke:#181818;stroke-width:1.0;stroke-dasharray:2.0,2.0;" x1="599.5" x2="750.5" y1="366.0313" y2="366.0313"/><text fill="#000000" font-family="sans-serif" font-size="13" font-weight="bold" lengthAdjust="spacing" textLength="7" x="611.5" y="361.1748">8</text><text fill="#000000" font-family="sans-serif" font-size="13" lengthAdjust="spacing" textLength="111" x="622.5" y="361.1748">listOfTrucks(JSON)</text><polygon fill="#181818" points="443.5,392.3828,433.5,396.3828,443.5,400.3828,439.5,396.3828" style="stroke:#181818;stroke-width:1.0;"/><line style="stroke:#181818;stroke-width:1.0;stroke-dasharray:2.0,2.0;" x1="437.5" x2="588.5" y1="396.3828" y2="396.3828"/><text fill="#000000" font-family="sans-serif" font-size="13" font-weight="bold" lengthAdjust="spacing" textLength="7" x="449.5" y="391.5264">9</text><text fill="#000000" font-family="sans-serif" font-size="13" lengthAdjust="spacing" textLength="111" x="460.5" y="391.5264">listOfTrucks(JSON)</text><polygon fill="#181818" points="81.5,422.7344,71.5,426.7344,81.5,430.7344,77.5,426.7344" style="stroke:#181818;stroke-width:1.0;"/><line style="stroke:#181818;stroke-width:1.0;stroke-dasharray:2.0,2.0;" x1="75.5" x2="426.5" y1="426.7344" y2="426.7344"/><text fill="#000000" font-family="sans-serif" font-size="13" font-weight="bold" lengthAdjust="spacing" textLength="14" x="87.5" y="421.8779">10</text><text fill="#000000" font-family="sans-serif" font-size="13" lengthAdjust="spacing" textLength="291" x="105.5" y="421.8779">Ask for the trucks, Date and what algorithm to use</text><polygon fill="#181818" points="410.5,453.0859,420.5,457.0859,410.5,461.0859,414.5,457.0859" style="stroke:#181818;stroke-width:1.0;"/><line style="stroke:#181818;stroke-width:1.0;" x1="70.5" x2="416.5" y1="457.0859" y2="457.0859"/><text fill="#000000" font-family="sans-serif" font-size="13" font-weight="bold" lengthAdjust="spacing" textLength="14" x="77.5" y="452.2295">11</text><text fill="#000000" font-family="sans-serif" font-size="13" lengthAdjust="spacing" textLength="311" x="95.5" y="452.2295">Selects the necessary data and click calculate button</text><polygon fill="#181818" points="1220.5,483.4375,1230.5,487.4375,1220.5,491.4375,1224.5,487.4375" style="stroke:#181818;stroke-width:1.0;"/><line style="stroke:#181818;stroke-width:1.0;" x1="432.5" x2="1226.5" y1="487.4375" y2="487.4375"/><text fill="#000000" font-family="sans-serif" font-size="13" font-weight="bold" lengthAdjust="spacing" textLength="14" x="439.5" y="482.5811">12</text><text fill="#000000" font-family="sans-serif" font-size="13" lengthAdjust="spacing" textLength="196" x="457.5" y="482.5811">GET /algorithmname(date, trucks)</text><polygon fill="#181818" points="443.5,513.7891,433.5,517.7891,443.5,521.7891,439.5,517.7891" style="stroke:#181818;stroke-width:1.0;"/><line style="stroke:#181818;stroke-width:1.0;" x1="437.5" x2="1236.5" y1="517.7891" y2="517.7891"/><text fill="#000000" font-family="sans-serif" font-size="13" font-weight="bold" lengthAdjust="spacing" textLength="14" x="449.5" y="512.9326">13</text><text fill="#000000" font-family="sans-serif" font-size="13" lengthAdjust="spacing" textLength="273" x="467.5" y="512.9326">Sequence of Trips and Necessary Time (JSON)</text><polygon fill="#181818" points="76.5,544.1406,66.5,548.1406,76.5,552.1406,72.5,548.1406" style="stroke:#181818;stroke-width:1.0;"/><line style="stroke:#181818;stroke-width:1.0;stroke-dasharray:2.0,2.0;" x1="70.5" x2="426.5" y1="548.1406" y2="548.1406"/><text fill="#000000" font-family="sans-serif" font-size="13" font-weight="bold" lengthAdjust="spacing" textLength="14" x="82.5" y="543.2842">14</text><text fill="#000000" font-family="sans-serif" font-size="13" lengthAdjust="spacing" textLength="310" x="100.5" y="543.2842">Show the list of sequence of trips and necessary time</text><!--MD5=[b490df10b76eb95bcc644f7dcbfb1306]
@startuml US

title Lvl 3 - List Fleet Route Plannings

autonumber

actor "Logistics Manager" as LM
participant "<< Container (C4) >> \n SPA" as S
participant "<< Container (C4) >> \n :Component" as C
participant "<< Container (C4) >> \n :Service" as SV
participant "<< Container (C4) >> \n :DTO" as DTO
participant "<< Container (C4) >> \n LogisticsModule" as LMD
participant "<< Container (C4) >> \n PlanningModule" as PMD


activate LM
LM -> S : Selects the option to List Route Plannings
activate S

S -> C : listTruckss()
activate C

C -> SV : getTrucks()
activate SV

SV -> DTO : trucks()
activate DTO

DTO - -> SV : return trucks()
deactivate DTO

SV -> LMD : GET /api/trucks
activate LMD

LMD - -> SV : listOfTrucks(JSON)
deactivate LMD

SV - -> C : listOfTrucks(JSON)
deactivate SV

C - -> S : listOfTrucks(JSON)
deactivate C

S - -> LM : Ask for the trucks, Date and what algorithm to use
deactivate S

LM -> S : Selects the necessary data and click calculate button
activate S

S -> PMD : GET /algorithmname(date, trucks)
activate PMD

PMD -> S : Sequence of Trips and Necessary Time (JSON)
deactivate PMD

S - -> LM : Show the list of sequence of trips and necessary time
deactivate S
deactivate LM

@enduml

PlantUML version 1.2022.7(Mon Aug 22 18:01:30 BST 2022)
(GPL source distribution)
Java Runtime: Java(TM) SE Runtime Environment
JVM: Java HotSpot(TM) 64-Bit Server VM
Default Encoding: Cp1252
Language: pt
Country: PT
--></g></svg>