<?xml version="1.0" encoding="UTF-8" standalone="no"?><svg xmlns="http://www.w3.org/2000/svg" xmlns:xlink="http://www.w3.org/1999/xlink" contentStyleType="text/css" height="570px" preserveAspectRatio="none" style="width:1056px;height:570px;background:#FFFFFF;" version="1.1" viewBox="0 0 1056 570" width="1056px" zoomAndPan="magnify"><defs/><g><rect fill="none" height="27.6094" id="_title" style="stroke:none;stroke-width:1.0;" width="135" x="462.75" y="10"/><text fill="#000000" font-family="sans-serif" font-size="14" font-weight="bold" lengthAdjust="spacing" textLength="125" x="467.75" y="29.5332">Lvl 3 - List Routes</text><rect fill="#FFFFFF" height="338.8672" style="stroke:#181818;stroke-width:1.0;" width="10" x="60.5" y="131.2188"/><rect fill="#FFFFFF" height="316.5156" style="stroke:#181818;stroke-width:1.0;" width="10" x="290.5" y="153.5703"/><rect fill="#FFFFFF" height="255.8125" style="stroke:#181818;stroke-width:1.0;" width="10" x="457.5" y="183.9219"/><rect fill="#FFFFFF" height="195.1094" style="stroke:#181818;stroke-width:1.0;" width="10" x="619.5" y="214.2734"/><rect fill="#FFFFFF" height="30.3516" style="stroke:#181818;stroke-width:1.0;" width="10" x="781.5" y="244.625"/><rect fill="#FFFFFF" height="73.7031" style="stroke:#181818;stroke-width:1.0;" width="10" x="943.5" y="305.3281"/><line style="stroke:#181818;stroke-width:0.5;stroke-dasharray:5.0,5.0;" x1="65" x2="65" y1="121.2188" y2="488.0859"/><line style="stroke:#181818;stroke-width:0.5;stroke-dasharray:5.0,5.0;" x1="295.5" x2="295.5" y1="121.2188" y2="488.0859"/><line style="stroke:#181818;stroke-width:0.5;stroke-dasharray:5.0,5.0;" x1="462.5" x2="462.5" y1="121.2188" y2="488.0859"/><line style="stroke:#181818;stroke-width:0.5;stroke-dasharray:5.0,5.0;" x1="624.5" x2="624.5" y1="121.2188" y2="488.0859"/><line style="stroke:#181818;stroke-width:0.5;stroke-dasharray:5.0,5.0;" x1="786.5" x2="786.5" y1="121.2188" y2="488.0859"/><line style="stroke:#181818;stroke-width:0.5;stroke-dasharray:5.0,5.0;" x1="948.5" x2="948.5" y1="121.2188" y2="488.0859"/><text fill="#000000" font-family="sans-serif" font-size="14" lengthAdjust="spacing" textLength="115" x="5" y="118.1426">Logistics Manager</text><ellipse cx="65.5" cy="52.1094" fill="#E2E2F0" rx="8" ry="8" style="stroke:#181818;stroke-width:0.5;"/><path d="M65.5,60.1094 L65.5,87.1094 M52.5,68.1094 L78.5,68.1094 M65.5,87.1094 L52.5,102.1094 M65.5,87.1094 L78.5,102.1094 " fill="none" style="stroke:#181818;stroke-width:0.5;"/><text fill="#000000" font-family="sans-serif" font-size="14" lengthAdjust="spacing" textLength="115" x="5" y="501.6191">Logistics Manager</text><ellipse cx="65.5" cy="513.1953" fill="#E2E2F0" rx="8" ry="8" style="stroke:#181818;stroke-width:0.5;"/><path d="M65.5,521.1953 L65.5,548.1953 M52.5,529.1953 L78.5,529.1953 M65.5,548.1953 L52.5,563.1953 M65.5,548.1953 L78.5,563.1953 " fill="none" style="stroke:#181818;stroke-width:0.5;"/><rect fill="#E2E2F0" height="49.2188" rx="2.5" ry="2.5" style="stroke:#181818;stroke-width:0.5;" width="152" x="219.5" y="71"/><text fill="#000000" font-family="sans-serif" font-size="14" lengthAdjust="spacing" textLength="134" x="226.5" y="92.5332">&lt;&lt; Container (C4) &gt;&gt;</text><text fill="#000000" font-family="sans-serif" font-size="14" lengthAdjust="spacing" textLength="27" x="284" y="110.1426">SPA</text><rect fill="#E2E2F0" height="49.2188" rx="2.5" ry="2.5" style="stroke:#181818;stroke-width:0.5;" width="152" x="219.5" y="487.0859"/><text fill="#000000" font-family="sans-serif" font-size="14" lengthAdjust="spacing" textLength="134" x="226.5" y="508.6191">&lt;&lt; Container (C4) &gt;&gt;</text><text fill="#000000" font-family="sans-serif" font-size="14" lengthAdjust="spacing" textLength="27" x="284" y="526.2285">SPA</text><rect fill="#E2E2F0" height="49.2188" rx="2.5" ry="2.5" style="stroke:#181818;stroke-width:0.5;" width="152" x="386.5" y="71"/><text fill="#000000" font-family="sans-serif" font-size="14" lengthAdjust="spacing" textLength="134" x="393.5" y="92.5332">&lt;&lt; Container (C4) &gt;&gt;</text><text fill="#000000" font-family="sans-serif" font-size="14" lengthAdjust="spacing" textLength="77" x="426" y="110.1426">:Component</text><rect fill="#E2E2F0" height="49.2188" rx="2.5" ry="2.5" style="stroke:#181818;stroke-width:0.5;" width="152" x="386.5" y="487.0859"/><text fill="#000000" font-family="sans-serif" font-size="14" lengthAdjust="spacing" textLength="134" x="393.5" y="508.6191">&lt;&lt; Container (C4) &gt;&gt;</text><text fill="#000000" font-family="sans-serif" font-size="14" lengthAdjust="spacing" textLength="77" x="426" y="526.2285">:Component</text><rect fill="#E2E2F0" height="49.2188" rx="2.5" ry="2.5" style="stroke:#181818;stroke-width:0.5;" width="152" x="548.5" y="71"/><text fill="#000000" font-family="sans-serif" font-size="14" lengthAdjust="spacing" textLength="134" x="555.5" y="92.5332">&lt;&lt; Container (C4) &gt;&gt;</text><text fill="#000000" font-family="sans-serif" font-size="14" lengthAdjust="spacing" textLength="51" x="601" y="110.1426">:Service</text><rect fill="#E2E2F0" height="49.2188" rx="2.5" ry="2.5" style="stroke:#181818;stroke-width:0.5;" width="152" x="548.5" y="487.0859"/><text fill="#000000" font-family="sans-serif" font-size="14" lengthAdjust="spacing" textLength="134" x="555.5" y="508.6191">&lt;&lt; Container (C4) &gt;&gt;</text><text fill="#000000" font-family="sans-serif" font-size="14" lengthAdjust="spacing" textLength="51" x="601" y="526.2285">:Service</text><rect fill="#E2E2F0" height="49.2188" rx="2.5" ry="2.5" style="stroke:#181818;stroke-width:0.5;" width="152" x="710.5" y="71"/><text fill="#000000" font-family="sans-serif" font-size="14" lengthAdjust="spacing" textLength="134" x="717.5" y="92.5332">&lt;&lt; Container (C4) &gt;&gt;</text><text fill="#000000" font-family="sans-serif" font-size="14" lengthAdjust="spacing" textLength="72" x="752.5" y="110.1426">:RouteDTO</text><rect fill="#E2E2F0" height="49.2188" rx="2.5" ry="2.5" style="stroke:#181818;stroke-width:0.5;" width="152" x="710.5" y="487.0859"/><text fill="#000000" font-family="sans-serif" font-size="14" lengthAdjust="spacing" textLength="134" x="717.5" y="508.6191">&lt;&lt; Container (C4) &gt;&gt;</text><text fill="#000000" font-family="sans-serif" font-size="14" lengthAdjust="spacing" textLength="72" x="752.5" y="526.2285">:RouteDTO</text><rect fill="#E2E2F0" height="49.2188" rx="2.5" ry="2.5" style="stroke:#181818;stroke-width:0.5;" width="152" x="872.5" y="71"/><text fill="#000000" font-family="sans-serif" font-size="14" lengthAdjust="spacing" textLength="134" x="879.5" y="92.5332">&lt;&lt; Container (C4) &gt;&gt;</text><text fill="#000000" font-family="sans-serif" font-size="14" lengthAdjust="spacing" textLength="101" x="900" y="110.1426">LogisticsModule</text><rect fill="#E2E2F0" height="49.2188" rx="2.5" ry="2.5" style="stroke:#181818;stroke-width:0.5;" width="152" x="872.5" y="487.0859"/><text fill="#000000" font-family="sans-serif" font-size="14" lengthAdjust="spacing" textLength="134" x="879.5" y="508.6191">&lt;&lt; Container (C4) &gt;&gt;</text><text fill="#000000" font-family="sans-serif" font-size="14" lengthAdjust="spacing" textLength="101" x="900" y="526.2285">LogisticsModule</text><rect fill="#FFFFFF" height="338.8672" style="stroke:#181818;stroke-width:1.0;" width="10" x="60.5" y="131.2188"/><rect fill="#FFFFFF" height="316.5156" style="stroke:#181818;stroke-width:1.0;" width="10" x="290.5" y="153.5703"/><rect fill="#FFFFFF" height="255.8125" style="stroke:#181818;stroke-width:1.0;" width="10" x="457.5" y="183.9219"/><rect fill="#FFFFFF" height="195.1094" style="stroke:#181818;stroke-width:1.0;" width="10" x="619.5" y="214.2734"/><rect fill="#FFFFFF" height="30.3516" style="stroke:#181818;stroke-width:1.0;" width="10" x="781.5" y="244.625"/><rect fill="#FFFFFF" height="73.7031" style="stroke:#181818;stroke-width:1.0;" width="10" x="943.5" y="305.3281"/><polygon fill="#181818" points="278.5,149.5703,288.5,153.5703,278.5,157.5703,282.5,153.5703" style="stroke:#181818;stroke-width:1.0;"/><line style="stroke:#181818;stroke-width:1.0;" x1="70.5" x2="284.5" y1="153.5703" y2="153.5703"/><text fill="#000000" font-family="sans-serif" font-size="13" font-weight="bold" lengthAdjust="spacing" textLength="7" x="77.5" y="148.7139">1</text><text fill="#000000" font-family="sans-serif" font-size="13" lengthAdjust="spacing" textLength="190" x="88.5" y="148.7139">Selects the option to List Routes</text><polygon fill="#181818" points="445.5,179.9219,455.5,183.9219,445.5,187.9219,449.5,183.9219" style="stroke:#181818;stroke-width:1.0;"/><line style="stroke:#181818;stroke-width:1.0;" x1="300.5" x2="451.5" y1="183.9219" y2="183.9219"/><text fill="#000000" font-family="sans-serif" font-size="13" font-weight="bold" lengthAdjust="spacing" textLength="7" x="307.5" y="179.0654">2</text><text fill="#000000" font-family="sans-serif" font-size="13" lengthAdjust="spacing" textLength="66" x="318.5" y="179.0654">listRoutes()</text><polygon fill="#181818" points="607.5,210.2734,617.5,214.2734,607.5,218.2734,611.5,214.2734" style="stroke:#181818;stroke-width:1.0;"/><line style="stroke:#181818;stroke-width:1.0;" x1="467.5" x2="613.5" y1="214.2734" y2="214.2734"/><text fill="#000000" font-family="sans-serif" font-size="13" font-weight="bold" lengthAdjust="spacing" textLength="7" x="474.5" y="209.417">3</text><text fill="#000000" font-family="sans-serif" font-size="13" lengthAdjust="spacing" textLength="67" x="485.5" y="209.417">getRoutes()</text><polygon fill="#181818" points="769.5,240.625,779.5,244.625,769.5,248.625,773.5,244.625" style="stroke:#181818;stroke-width:1.0;"/><line style="stroke:#181818;stroke-width:1.0;" x1="629.5" x2="775.5" y1="244.625" y2="244.625"/><text fill="#000000" font-family="sans-serif" font-size="13" font-weight="bold" lengthAdjust="spacing" textLength="7" x="636.5" y="239.7686">4</text><text fill="#000000" font-family="sans-serif" font-size="13" lengthAdjust="spacing" textLength="44" x="647.5" y="239.7686">routes()</text><polygon fill="#181818" points="640.5,270.9766,630.5,274.9766,640.5,278.9766,636.5,274.9766" style="stroke:#181818;stroke-width:1.0;"/><line style="stroke:#181818;stroke-width:1.0;" x1="634.5" x2="785.5" y1="274.9766" y2="274.9766"/><text fill="#000000" font-family="sans-serif" font-size="13" font-weight="bold" lengthAdjust="spacing" textLength="7" x="646.5" y="270.1201">5</text><text fill="#000000" font-family="sans-serif" font-size="13" lengthAdjust="spacing" textLength="81" x="657.5" y="270.1201">return routes()</text><polygon fill="#181818" points="931.5,301.3281,941.5,305.3281,931.5,309.3281,935.5,305.3281" style="stroke:#181818;stroke-width:1.0;"/><line style="stroke:#181818;stroke-width:1.0;" x1="629.5" x2="937.5" y1="305.3281" y2="305.3281"/><text fill="#000000" font-family="sans-serif" font-size="13" font-weight="bold" lengthAdjust="spacing" textLength="7" x="636.5" y="300.4717">6</text><text fill="#000000" font-family="sans-serif" font-size="13" lengthAdjust="spacing" textLength="91" x="647.5" y="300.4717">GET /api/routes</text><line style="stroke:#181818;stroke-width:1.0;" x1="953.5" x2="995.5" y1="335.6797" y2="335.6797"/><line style="stroke:#181818;stroke-width:1.0;" x1="995.5" x2="995.5" y1="335.6797" y2="348.6797"/><line style="stroke:#181818;stroke-width:1.0;" x1="954.5" x2="995.5" y1="348.6797" y2="348.6797"/><polygon fill="#181818" points="964.5,344.6797,954.5,348.6797,964.5,352.6797,960.5,348.6797" style="stroke:#181818;stroke-width:1.0;"/><text fill="#000000" font-family="sans-serif" font-size="13" font-weight="bold" lengthAdjust="spacing" textLength="7" x="960.5" y="330.8232">7</text><text fill="#000000" font-family="sans-serif" font-size="13" lengthAdjust="spacing" textLength="78" x="971.5" y="330.8232">routes(JSON)</text><polygon fill="#181818" points="640.5,375.0313,630.5,379.0313,640.5,383.0313,636.5,379.0313" style="stroke:#181818;stroke-width:1.0;"/><line style="stroke:#181818;stroke-width:1.0;stroke-dasharray:2.0,2.0;" x1="634.5" x2="947.5" y1="379.0313" y2="379.0313"/><text fill="#000000" font-family="sans-serif" font-size="13" font-weight="bold" lengthAdjust="spacing" textLength="7" x="646.5" y="374.1748">8</text><text fill="#000000" font-family="sans-serif" font-size="13" lengthAdjust="spacing" textLength="115" x="657.5" y="374.1748">return routes(JSON)</text><polygon fill="#181818" points="478.5,405.3828,468.5,409.3828,478.5,413.3828,474.5,409.3828" style="stroke:#181818;stroke-width:1.0;"/><line style="stroke:#181818;stroke-width:1.0;stroke-dasharray:2.0,2.0;" x1="472.5" x2="623.5" y1="409.3828" y2="409.3828"/><text fill="#000000" font-family="sans-serif" font-size="13" font-weight="bold" lengthAdjust="spacing" textLength="7" x="484.5" y="404.5264">9</text><text fill="#000000" font-family="sans-serif" font-size="13" lengthAdjust="spacing" textLength="115" x="495.5" y="404.5264">return routes(JSON)</text><polygon fill="#181818" points="311.5,435.7344,301.5,439.7344,311.5,443.7344,307.5,439.7344" style="stroke:#181818;stroke-width:1.0;"/><line style="stroke:#181818;stroke-width:1.0;stroke-dasharray:2.0,2.0;" x1="305.5" x2="461.5" y1="439.7344" y2="439.7344"/><text fill="#000000" font-family="sans-serif" font-size="13" font-weight="bold" lengthAdjust="spacing" textLength="14" x="317.5" y="434.8779">10</text><text fill="#000000" font-family="sans-serif" font-size="13" lengthAdjust="spacing" textLength="115" x="335.5" y="434.8779">return routes(JSON)</text><polygon fill="#181818" points="76.5,466.0859,66.5,470.0859,76.5,474.0859,72.5,470.0859" style="stroke:#181818;stroke-width:1.0;"/><line style="stroke:#181818;stroke-width:1.0;stroke-dasharray:2.0,2.0;" x1="70.5" x2="294.5" y1="470.0859" y2="470.0859"/><text fill="#000000" font-family="sans-serif" font-size="13" font-weight="bold" lengthAdjust="spacing" textLength="14" x="82.5" y="465.2295">11</text><text fill="#000000" font-family="sans-serif" font-size="13" lengthAdjust="spacing" textLength="166" x="100.5" y="465.2295">Shows the list with all routes</text><!--MD5=[2fee050b847d0dabcc7a7e0e06769d87]
@startuml US

title Lvl 3 - List Routes

autonumber

actor "Logistics Manager" as LM
participant "<< Container (C4) >> \n SPA" as S
participant "<< Container (C4) >> \n :Component" as C
participant "<< Container (C4) >> \n :Service" as SV
participant "<< Container (C4) >> \n :RouteDTO" as DTO
participant "<< Container (C4) >> \n LogisticsModule" as LG



activate LM
LM -> S : Selects the option to List Routes

activate S
S -> C : listRoutes()
activate C

C -> SV : getRoutes()
activate SV

SV -> DTO : routes()
activate DTO

DTO -> SV : return routes()
deactivate DTO

SV -> LG : GET /api/routes
activate LG

LG -> LG : routes(JSON)

LG - -> SV : return routes(JSON)
deactivate LG

SV - -> C : return routes(JSON)
deactivate SV

C - -> S : return routes(JSON)
deactivate C
S - -> LM : Shows the list with all routes
deactivate S

deactivate LM

@enduml

PlantUML version 1.2022.7(Mon Aug 22 18:01:30 WEST 2022)
(GPL source distribution)
Java Runtime: Java(TM) SE Runtime Environment
JVM: Java HotSpot(TM) 64-Bit Server VM
Default Encoding: Cp1252
Language: pt
Country: PT
--></g></svg>