<?xml version="1.0" encoding="UTF-8" standalone="no"?><svg xmlns="http://www.w3.org/2000/svg" xmlns:xlink="http://www.w3.org/1999/xlink" contentStyleType="text/css" height="484px" preserveAspectRatio="none" style="width:639px;height:484px;background:#FFFFFF;" version="1.1" viewBox="0 0 639 484" width="639px" zoomAndPan="magnify"><defs/><g><rect fill="none" height="27.6094" id="_title" style="stroke:none;stroke-width:1.0;" width="150" x="246.75" y="10"/><text fill="#000000" font-family="sans-serif" font-size="14" font-weight="bold" lengthAdjust="spacing" textLength="140" x="251.75" y="29.5332">SD - Delete Delivery</text><rect fill="#FFFFFF" height="217.4609" style="stroke:#181818;stroke-width:1.0;" width="10" x="69.5" y="148.8281"/><rect fill="#FFFFFF" height="30.3516" style="stroke:#181818;stroke-width:1.0;" width="10" x="320.5" y="171.1797"/><rect fill="#FFFFFF" height="134.4063" style="stroke:#181818;stroke-width:1.0;" width="10" x="320.5" y="231.8828"/><rect fill="#FFFFFF" height="73.7031" style="stroke:#181818;stroke-width:1.0;" width="10" x="477.5" y="262.2344"/><line style="stroke:#181818;stroke-width:0.5;stroke-dasharray:5.0,5.0;" x1="74" x2="74" y1="138.8281" y2="384.2891"/><line style="stroke:#181818;stroke-width:0.5;stroke-dasharray:5.0,5.0;" x1="325.5" x2="325.5" y1="138.8281" y2="384.2891"/><line style="stroke:#181818;stroke-width:0.5;stroke-dasharray:5.0,5.0;" x1="482" x2="482" y1="138.8281" y2="384.2891"/><text fill="#000000" font-family="sans-serif" font-size="14" lengthAdjust="spacing" textLength="133" x="5" y="135.752">Warehouse Manager</text><ellipse cx="74.5" cy="69.7188" fill="#E2E2F0" rx="8" ry="8" style="stroke:#181818;stroke-width:0.5;"/><path d="M74.5,77.7188 L74.5,104.7188 M61.5,85.7188 L87.5,85.7188 M74.5,104.7188 L61.5,119.7188 M74.5,104.7188 L87.5,119.7188 " fill="none" style="stroke:#181818;stroke-width:0.5;"/><text fill="#000000" font-family="sans-serif" font-size="14" lengthAdjust="spacing" textLength="133" x="5" y="397.8223">Warehouse Manager</text><ellipse cx="74.5" cy="409.3984" fill="#E2E2F0" rx="8" ry="8" style="stroke:#181818;stroke-width:0.5;"/><path d="M74.5,417.3984 L74.5,444.3984 M61.5,425.3984 L87.5,425.3984 M74.5,444.3984 L61.5,459.3984 M74.5,444.3984 L87.5,459.3984 " fill="none" style="stroke:#181818;stroke-width:0.5;"/><text fill="#000000" font-family="sans-serif" font-size="14" lengthAdjust="spacing" textLength="102" x="269.5" y="118.1426">&lt;&lt; Container &gt;&gt;</text><text fill="#000000" font-family="sans-serif" font-size="14" lengthAdjust="spacing" textLength="21" x="314" y="135.752">API</text><ellipse cx="325.5" cy="52.1094" fill="#E2E2F0" rx="8" ry="8" style="stroke:#181818;stroke-width:0.5;"/><path d="M325.5,60.1094 L325.5,87.1094 M312.5,68.1094 L338.5,68.1094 M325.5,87.1094 L312.5,102.1094 M325.5,87.1094 L338.5,102.1094 " fill="none" style="stroke:#181818;stroke-width:0.5;"/><text fill="#000000" font-family="sans-serif" font-size="14" lengthAdjust="spacing" textLength="102" x="269.5" y="397.8223">&lt;&lt; Container &gt;&gt;</text><text fill="#000000" font-family="sans-serif" font-size="14" lengthAdjust="spacing" textLength="21" x="314" y="415.4316">API</text><ellipse cx="325.5" cy="427.0078" fill="#E2E2F0" rx="8" ry="8" style="stroke:#181818;stroke-width:0.5;"/><path d="M325.5,435.0078 L325.5,462.0078 M312.5,443.0078 L338.5,443.0078 M325.5,462.0078 L312.5,477.0078 M325.5,462.0078 L338.5,477.0078 " fill="none" style="stroke:#181818;stroke-width:0.5;"/><text fill="#000000" font-family="sans-serif" font-size="14" lengthAdjust="spacing" textLength="102" x="426.5" y="118.1426">&lt;&lt; Container &gt;&gt;</text><text fill="#000000" font-family="sans-serif" font-size="14" lengthAdjust="spacing" textLength="135" x="414" y="135.752">DeliveriesDataMaster</text><ellipse cx="482.5" cy="52.1094" fill="#E2E2F0" rx="8" ry="8" style="stroke:#181818;stroke-width:0.5;"/><path d="M482.5,60.1094 L482.5,87.1094 M469.5,68.1094 L495.5,68.1094 M482.5,87.1094 L469.5,102.1094 M482.5,87.1094 L495.5,102.1094 " fill="none" style="stroke:#181818;stroke-width:0.5;"/><text fill="#000000" font-family="sans-serif" font-size="14" lengthAdjust="spacing" textLength="102" x="426.5" y="397.8223">&lt;&lt; Container &gt;&gt;</text><text fill="#000000" font-family="sans-serif" font-size="14" lengthAdjust="spacing" textLength="135" x="414" y="415.4316">DeliveriesDataMaster</text><ellipse cx="482.5" cy="427.0078" fill="#E2E2F0" rx="8" ry="8" style="stroke:#181818;stroke-width:0.5;"/><path d="M482.5,435.0078 L482.5,462.0078 M469.5,443.0078 L495.5,443.0078 M482.5,462.0078 L469.5,477.0078 M482.5,462.0078 L495.5,477.0078 " fill="none" style="stroke:#181818;stroke-width:0.5;"/><rect fill="#FFFFFF" height="217.4609" style="stroke:#181818;stroke-width:1.0;" width="10" x="69.5" y="148.8281"/><rect fill="#FFFFFF" height="30.3516" style="stroke:#181818;stroke-width:1.0;" width="10" x="320.5" y="171.1797"/><rect fill="#FFFFFF" height="134.4063" style="stroke:#181818;stroke-width:1.0;" width="10" x="320.5" y="231.8828"/><rect fill="#FFFFFF" height="73.7031" style="stroke:#181818;stroke-width:1.0;" width="10" x="477.5" y="262.2344"/><polygon fill="#181818" points="308.5,167.1797,318.5,171.1797,308.5,175.1797,312.5,171.1797" style="stroke:#181818;stroke-width:1.0;"/><line style="stroke:#181818;stroke-width:1.0;" x1="79.5" x2="314.5" y1="171.1797" y2="171.1797"/><text fill="#000000" font-family="sans-serif" font-size="13" font-weight="bold" lengthAdjust="spacing" textLength="7" x="86.5" y="166.3232">1</text><text fill="#000000" font-family="sans-serif" font-size="13" lengthAdjust="spacing" textLength="146" x="97.5" y="166.3232">Asks to delete a delivery.</text><polygon fill="#181818" points="90.5,197.5313,80.5,201.5313,90.5,205.5313,86.5,201.5313" style="stroke:#181818;stroke-width:1.0;"/><line style="stroke:#181818;stroke-width:1.0;stroke-dasharray:2.0,2.0;" x1="84.5" x2="324.5" y1="201.5313" y2="201.5313"/><text fill="#000000" font-family="sans-serif" font-size="13" font-weight="bold" lengthAdjust="spacing" textLength="7" x="96.5" y="196.6748">2</text><text fill="#000000" font-family="sans-serif" font-size="13" lengthAdjust="spacing" textLength="206" x="107.5" y="196.6748">Asks which delivery wants to delete</text><polygon fill="#181818" points="308.5,227.8828,318.5,231.8828,308.5,235.8828,312.5,231.8828" style="stroke:#181818;stroke-width:1.0;"/><line style="stroke:#181818;stroke-width:1.0;" x1="79.5" x2="314.5" y1="231.8828" y2="231.8828"/><text fill="#000000" font-family="sans-serif" font-size="13" font-weight="bold" lengthAdjust="spacing" textLength="7" x="86.5" y="227.0264">3</text><text fill="#000000" font-family="sans-serif" font-size="13" lengthAdjust="spacing" textLength="124" x="97.5" y="227.0264">Inserts the delivery ID</text><polygon fill="#181818" points="465.5,258.2344,475.5,262.2344,465.5,266.2344,469.5,262.2344" style="stroke:#181818;stroke-width:1.0;"/><line style="stroke:#181818;stroke-width:1.0;" x1="330.5" x2="471.5" y1="262.2344" y2="262.2344"/><text fill="#000000" font-family="sans-serif" font-size="13" font-weight="bold" lengthAdjust="spacing" textLength="7" x="337.5" y="257.3779">4</text><text fill="#000000" font-family="sans-serif" font-size="13" lengthAdjust="spacing" textLength="117" x="348.5" y="257.3779">DELETE /delivery ID</text><line style="stroke:#181818;stroke-width:1.0;" x1="487.5" x2="529.5" y1="292.5859" y2="292.5859"/><line style="stroke:#181818;stroke-width:1.0;" x1="529.5" x2="529.5" y1="292.5859" y2="305.5859"/><line style="stroke:#181818;stroke-width:1.0;" x1="488.5" x2="529.5" y1="305.5859" y2="305.5859"/><polygon fill="#181818" points="498.5,301.5859,488.5,305.5859,498.5,309.5859,494.5,305.5859" style="stroke:#181818;stroke-width:1.0;"/><text fill="#000000" font-family="sans-serif" font-size="13" font-weight="bold" lengthAdjust="spacing" textLength="7" x="494.5" y="287.7295">5</text><text fill="#000000" font-family="sans-serif" font-size="13" lengthAdjust="spacing" textLength="127" x="505.5" y="287.7295">DeleteHard(deliveryID)</text><polygon fill="#181818" points="341.5,331.9375,331.5,335.9375,341.5,339.9375,337.5,335.9375" style="stroke:#181818;stroke-width:1.0;"/><line style="stroke:#181818;stroke-width:1.0;" x1="335.5" x2="481.5" y1="335.9375" y2="335.9375"/><text fill="#000000" font-family="sans-serif" font-size="13" font-weight="bold" lengthAdjust="spacing" textLength="7" x="347.5" y="331.0811">6</text><text fill="#000000" font-family="sans-serif" font-size="13" lengthAdjust="spacing" textLength="69" x="358.5" y="331.0811">201 Deleted</text><polygon fill="#181818" points="85.5,362.2891,75.5,366.2891,85.5,370.2891,81.5,366.2891" style="stroke:#181818;stroke-width:1.0;"/><line style="stroke:#181818;stroke-width:1.0;stroke-dasharray:2.0,2.0;" x1="79.5" x2="324.5" y1="366.2891" y2="366.2891"/><text fill="#000000" font-family="sans-serif" font-size="13" font-weight="bold" lengthAdjust="spacing" textLength="7" x="91.5" y="361.4326">7</text><text fill="#000000" font-family="sans-serif" font-size="13" lengthAdjust="spacing" textLength="170" x="102.5" y="361.4326">Informs of operation success.</text><!--MD5=[7297845eea53b01b8a56ab5dfe613768]
@startuml USA04_2

title SD - Delete Delivery

autonumber

actor "Warehouse Manager" as FM
actor "<< Container >> \n API" as SYS
actor "<< Container >> \n DeliveriesDataMaster" as TDM


activate FM
FM -> SYS : Asks to delete a delivery.
activate SYS
SYS - -> FM : Asks which delivery wants to delete
deactivate SYS

FM -> SYS : Inserts the delivery ID
activate SYS

SYS -> TDM : DELETE /delivery ID
activate TDM

TDM -> TDM : DeleteHard(deliveryID)

TDM -> SYS : 201 Deleted
deactivate TDM
deactivate TDM

SYS - -> FM : Informs of operation success.
deactivate SYS

deactivate FM

@enduml

PlantUML version 1.2022.7(Mon Aug 22 18:01:30 WEST 2022)
(GPL source distribution)
Java Runtime: Java(TM) SE Runtime Environment
JVM: Java HotSpot(TM) 64-Bit Server VM
Default Encoding: UTF-8
Language: es
Country: ES
--></g></svg>