<?xml version="1.0" encoding="UTF-8" standalone="no"?><svg xmlns="http://www.w3.org/2000/svg" xmlns:xlink="http://www.w3.org/1999/xlink" contentStyleType="text/css" height="613px" preserveAspectRatio="none" style="width:1019px;height:613px;background:#FFFFFF;" version="1.1" viewBox="0 0 1019 613" width="1019px" zoomAndPan="magnify"><defs/><g><rect fill="none" height="27.6094" id="_title" style="stroke:none;stroke-width:1.0;" width="157" x="430.25" y="10"/><text fill="#000000" font-family="sans-serif" font-size="14" font-weight="bold" lengthAdjust="spacing" textLength="147" x="435.25" y="29.5332">Lvl 2 - List Deliveries</text><rect fill="#FFFFFF" height="382.2188" style="stroke:#181818;stroke-width:1.0;" width="10" x="69.5" y="131.2188"/><rect fill="#FFFFFF" height="134.4063" style="stroke:#181818;stroke-width:1.0;" width="10" x="332.5" y="153.5703"/><rect fill="#FFFFFF" height="195.1094" style="stroke:#181818;stroke-width:1.0;" width="10" x="332.5" y="318.3281"/><rect fill="#FFFFFF" height="73.7031" style="stroke:#181818;stroke-width:1.0;" width="10" x="549.5" y="183.9219"/><rect fill="#FFFFFF" height="73.7031" style="stroke:#181818;stroke-width:1.0;" width="10" x="770.5" y="348.6797"/><rect fill="#FFFFFF" height="30.3516" style="stroke:#181818;stroke-width:1.0;" width="10" x="932.5" y="452.7344"/><line style="stroke:#181818;stroke-width:0.5;stroke-dasharray:5.0,5.0;" x1="74" x2="74" y1="121.2188" y2="531.4375"/><line style="stroke:#181818;stroke-width:0.5;stroke-dasharray:5.0,5.0;" x1="337.5" x2="337.5" y1="121.2188" y2="531.4375"/><line style="stroke:#181818;stroke-width:0.5;stroke-dasharray:5.0,5.0;" x1="554.5" x2="554.5" y1="121.2188" y2="531.4375"/><line style="stroke:#181818;stroke-width:0.5;stroke-dasharray:5.0,5.0;" x1="775.5" x2="775.5" y1="121.2188" y2="531.4375"/><line style="stroke:#181818;stroke-width:0.5;stroke-dasharray:5.0,5.0;" x1="937.5" x2="937.5" y1="121.2188" y2="531.4375"/><text fill="#000000" font-family="sans-serif" font-size="14" lengthAdjust="spacing" textLength="133" x="5" y="118.1426">Warehouse Manager</text><ellipse cx="74.5" cy="52.1094" fill="#E2E2F0" rx="8" ry="8" style="stroke:#181818;stroke-width:0.5;"/><path d="M74.5,60.1094 L74.5,87.1094 M61.5,68.1094 L87.5,68.1094 M74.5,87.1094 L61.5,102.1094 M74.5,87.1094 L87.5,102.1094 " fill="none" style="stroke:#181818;stroke-width:0.5;"/><text fill="#000000" font-family="sans-serif" font-size="14" lengthAdjust="spacing" textLength="133" x="5" y="544.9707">Warehouse Manager</text><ellipse cx="74.5" cy="556.5469" fill="#E2E2F0" rx="8" ry="8" style="stroke:#181818;stroke-width:0.5;"/><path d="M74.5,564.5469 L74.5,591.5469 M61.5,572.5469 L87.5,572.5469 M74.5,591.5469 L61.5,606.5469 M74.5,591.5469 L87.5,606.5469 " fill="none" style="stroke:#181818;stroke-width:0.5;"/><rect fill="#E2E2F0" height="49.2188" rx="2.5" ry="2.5" style="stroke:#181818;stroke-width:0.5;" width="152" x="261.5" y="71"/><text fill="#000000" font-family="sans-serif" font-size="14" lengthAdjust="spacing" textLength="134" x="268.5" y="92.5332">&lt;&lt; Container (C4) &gt;&gt;</text><text fill="#000000" font-family="sans-serif" font-size="14" lengthAdjust="spacing" textLength="27" x="326" y="110.1426">SPA</text><rect fill="#E2E2F0" height="49.2188" rx="2.5" ry="2.5" style="stroke:#181818;stroke-width:0.5;" width="152" x="261.5" y="530.4375"/><text fill="#000000" font-family="sans-serif" font-size="14" lengthAdjust="spacing" textLength="134" x="268.5" y="551.9707">&lt;&lt; Container (C4) &gt;&gt;</text><text fill="#000000" font-family="sans-serif" font-size="14" lengthAdjust="spacing" textLength="27" x="326" y="569.5801">SPA</text><rect fill="#E2E2F0" height="49.2188" rx="2.5" ry="2.5" style="stroke:#181818;stroke-width:0.5;" width="152" x="478.5" y="71"/><text fill="#000000" font-family="sans-serif" font-size="14" lengthAdjust="spacing" textLength="134" x="485.5" y="92.5332">&lt;&lt; Container (C4) &gt;&gt;</text><text fill="#000000" font-family="sans-serif" font-size="14" lengthAdjust="spacing" textLength="115" x="499" y="110.1426">SSO Authetication</text><rect fill="#E2E2F0" height="49.2188" rx="2.5" ry="2.5" style="stroke:#181818;stroke-width:0.5;" width="152" x="478.5" y="530.4375"/><text fill="#000000" font-family="sans-serif" font-size="14" lengthAdjust="spacing" textLength="134" x="485.5" y="551.9707">&lt;&lt; Container (C4) &gt;&gt;</text><text fill="#000000" font-family="sans-serif" font-size="14" lengthAdjust="spacing" textLength="115" x="499" y="569.5801">SSO Authetication</text><rect fill="#E2E2F0" height="49.2188" rx="2.5" ry="2.5" style="stroke:#181818;stroke-width:0.5;" width="152" x="699.5" y="71"/><text fill="#000000" font-family="sans-serif" font-size="14" lengthAdjust="spacing" textLength="134" x="706.5" y="92.5332">&lt;&lt; Container (C4) &gt;&gt;</text><text fill="#000000" font-family="sans-serif" font-size="14" lengthAdjust="spacing" textLength="69" x="743" y="110.1426">AuthGuard</text><rect fill="#E2E2F0" height="49.2188" rx="2.5" ry="2.5" style="stroke:#181818;stroke-width:0.5;" width="152" x="699.5" y="530.4375"/><text fill="#000000" font-family="sans-serif" font-size="14" lengthAdjust="spacing" textLength="134" x="706.5" y="551.9707">&lt;&lt; Container (C4) &gt;&gt;</text><text fill="#000000" font-family="sans-serif" font-size="14" lengthAdjust="spacing" textLength="69" x="743" y="569.5801">AuthGuard</text><rect fill="#E2E2F0" height="49.2188" rx="2.5" ry="2.5" style="stroke:#181818;stroke-width:0.5;" width="152" x="861.5" y="71"/><text fill="#000000" font-family="sans-serif" font-size="14" lengthAdjust="spacing" textLength="134" x="868.5" y="92.5332">&lt;&lt; Container (C4) &gt;&gt;</text><text fill="#000000" font-family="sans-serif" font-size="14" lengthAdjust="spacing" textLength="119" x="880" y="110.1426">WarehouseModule</text><rect fill="#E2E2F0" height="49.2188" rx="2.5" ry="2.5" style="stroke:#181818;stroke-width:0.5;" width="152" x="861.5" y="530.4375"/><text fill="#000000" font-family="sans-serif" font-size="14" lengthAdjust="spacing" textLength="134" x="868.5" y="551.9707">&lt;&lt; Container (C4) &gt;&gt;</text><text fill="#000000" font-family="sans-serif" font-size="14" lengthAdjust="spacing" textLength="119" x="880" y="569.5801">WarehouseModule</text><rect fill="#FFFFFF" height="382.2188" style="stroke:#181818;stroke-width:1.0;" width="10" x="69.5" y="131.2188"/><rect fill="#FFFFFF" height="134.4063" style="stroke:#181818;stroke-width:1.0;" width="10" x="332.5" y="153.5703"/><rect fill="#FFFFFF" height="195.1094" style="stroke:#181818;stroke-width:1.0;" width="10" x="332.5" y="318.3281"/><rect fill="#FFFFFF" height="73.7031" style="stroke:#181818;stroke-width:1.0;" width="10" x="549.5" y="183.9219"/><rect fill="#FFFFFF" height="73.7031" style="stroke:#181818;stroke-width:1.0;" width="10" x="770.5" y="348.6797"/><rect fill="#FFFFFF" height="30.3516" style="stroke:#181818;stroke-width:1.0;" width="10" x="932.5" y="452.7344"/><polygon fill="#181818" points="320.5,149.5703,330.5,153.5703,320.5,157.5703,324.5,153.5703" style="stroke:#181818;stroke-width:1.0;"/><line style="stroke:#181818;stroke-width:1.0;" x1="79.5" x2="326.5" y1="153.5703" y2="153.5703"/><text fill="#000000" font-family="sans-serif" font-size="13" font-weight="bold" lengthAdjust="spacing" textLength="7" x="86.5" y="148.7139">1</text><text fill="#000000" font-family="sans-serif" font-size="13" lengthAdjust="spacing" textLength="190" x="97.5" y="148.7139">Clicks sign-in with Google button</text><polygon fill="#181818" points="537.5,179.9219,547.5,183.9219,537.5,187.9219,541.5,183.9219" style="stroke:#181818;stroke-width:1.0;"/><line style="stroke:#181818;stroke-width:1.0;" x1="342.5" x2="543.5" y1="183.9219" y2="183.9219"/><text fill="#000000" font-family="sans-serif" font-size="13" font-weight="bold" lengthAdjust="spacing" textLength="7" x="349.5" y="179.0654">2</text><text fill="#000000" font-family="sans-serif" font-size="13" lengthAdjust="spacing" textLength="177" x="360.5" y="179.0654">Logs in with a Google Account</text><line style="stroke:#181818;stroke-width:1.0;stroke-dasharray:2.0,2.0;" x1="559.5" x2="601.5" y1="214.2734" y2="214.2734"/><line style="stroke:#181818;stroke-width:1.0;stroke-dasharray:2.0,2.0;" x1="601.5" x2="601.5" y1="214.2734" y2="227.2734"/><line style="stroke:#181818;stroke-width:1.0;stroke-dasharray:2.0,2.0;" x1="560.5" x2="601.5" y1="227.2734" y2="227.2734"/><polygon fill="#181818" points="570.5,223.2734,560.5,227.2734,570.5,231.2734,566.5,227.2734" style="stroke:#181818;stroke-width:1.0;"/><text fill="#000000" font-family="sans-serif" font-size="13" font-weight="bold" lengthAdjust="spacing" textLength="7" x="566.5" y="209.417">3</text><text fill="#000000" font-family="sans-serif" font-size="13" lengthAdjust="spacing" textLength="186" x="577.5" y="209.417">Checks if the email is registered</text><polygon fill="#181818" points="353.5,253.625,343.5,257.625,353.5,261.625,349.5,257.625" style="stroke:#181818;stroke-width:1.0;"/><line style="stroke:#181818;stroke-width:1.0;stroke-dasharray:2.0,2.0;" x1="347.5" x2="553.5" y1="257.625" y2="257.625"/><text fill="#000000" font-family="sans-serif" font-size="13" font-weight="bold" lengthAdjust="spacing" textLength="7" x="359.5" y="252.7686">4</text><text fill="#000000" font-family="sans-serif" font-size="13" lengthAdjust="spacing" textLength="91" x="370.5" y="252.7686">Email is correct</text><polygon fill="#181818" points="90.5,283.9766,80.5,287.9766,90.5,291.9766,86.5,287.9766" style="stroke:#181818;stroke-width:1.0;"/><line style="stroke:#181818;stroke-width:1.0;stroke-dasharray:2.0,2.0;" x1="84.5" x2="336.5" y1="287.9766" y2="287.9766"/><text fill="#000000" font-family="sans-serif" font-size="13" font-weight="bold" lengthAdjust="spacing" textLength="7" x="96.5" y="283.1201">5</text><text fill="#000000" font-family="sans-serif" font-size="13" lengthAdjust="spacing" textLength="218" x="107.5" y="283.1201">Shows Warehouse Manager Features</text><polygon fill="#181818" points="320.5,314.3281,330.5,318.3281,320.5,322.3281,324.5,318.3281" style="stroke:#181818;stroke-width:1.0;"/><line style="stroke:#181818;stroke-width:1.0;" x1="79.5" x2="326.5" y1="318.3281" y2="318.3281"/><text fill="#000000" font-family="sans-serif" font-size="13" font-weight="bold" lengthAdjust="spacing" textLength="7" x="86.5" y="313.4717">6</text><text fill="#000000" font-family="sans-serif" font-size="13" lengthAdjust="spacing" textLength="204" x="97.5" y="313.4717">Selects the option to List Deliveries</text><polygon fill="#181818" points="758.5,344.6797,768.5,348.6797,758.5,352.6797,762.5,348.6797" style="stroke:#181818;stroke-width:1.0;"/><line style="stroke:#181818;stroke-width:1.0;stroke-dasharray:2.0,2.0;" x1="342.5" x2="764.5" y1="348.6797" y2="348.6797"/><text fill="#000000" font-family="sans-serif" font-size="13" font-weight="bold" lengthAdjust="spacing" textLength="7" x="349.5" y="343.8232">7</text><text fill="#000000" font-family="sans-serif" font-size="13" lengthAdjust="spacing" textLength="313" x="360.5" y="343.8232">Checks if this user has Authorization to view this page</text><line style="stroke:#181818;stroke-width:1.0;" x1="780.5" x2="822.5" y1="379.0313" y2="379.0313"/><line style="stroke:#181818;stroke-width:1.0;" x1="822.5" x2="822.5" y1="379.0313" y2="392.0313"/><line style="stroke:#181818;stroke-width:1.0;" x1="781.5" x2="822.5" y1="392.0313" y2="392.0313"/><polygon fill="#181818" points="791.5,388.0313,781.5,392.0313,791.5,396.0313,787.5,392.0313" style="stroke:#181818;stroke-width:1.0;"/><text fill="#000000" font-family="sans-serif" font-size="13" font-weight="bold" lengthAdjust="spacing" textLength="7" x="787.5" y="374.1748">8</text><text fill="#000000" font-family="sans-serif" font-size="13" lengthAdjust="spacing" textLength="106" x="798.5" y="374.1748">CanActivateChild()</text><polygon fill="#181818" points="353.5,418.3828,343.5,422.3828,353.5,426.3828,349.5,422.3828" style="stroke:#181818;stroke-width:1.0;"/><line style="stroke:#181818;stroke-width:1.0;stroke-dasharray:2.0,2.0;" x1="347.5" x2="774.5" y1="422.3828" y2="422.3828"/><text fill="#000000" font-family="sans-serif" font-size="13" font-weight="bold" lengthAdjust="spacing" textLength="7" x="359.5" y="417.5264">9</text><text fill="#000000" font-family="sans-serif" font-size="13" lengthAdjust="spacing" textLength="62" x="370.5" y="417.5264">Authorized</text><polygon fill="#181818" points="920.5,448.7344,930.5,452.7344,920.5,456.7344,924.5,452.7344" style="stroke:#181818;stroke-width:1.0;"/><line style="stroke:#181818;stroke-width:1.0;" x1="342.5" x2="926.5" y1="452.7344" y2="452.7344"/><text fill="#000000" font-family="sans-serif" font-size="13" font-weight="bold" lengthAdjust="spacing" textLength="14" x="349.5" y="447.8779">10</text><text fill="#000000" font-family="sans-serif" font-size="13" lengthAdjust="spacing" textLength="108" x="367.5" y="447.8779">GET /api/deliveries</text><polygon fill="#181818" points="353.5,479.0859,343.5,483.0859,353.5,487.0859,349.5,483.0859" style="stroke:#181818;stroke-width:1.0;"/><line style="stroke:#181818;stroke-width:1.0;" x1="347.5" x2="936.5" y1="483.0859" y2="483.0859"/><text fill="#000000" font-family="sans-serif" font-size="13" font-weight="bold" lengthAdjust="spacing" textLength="14" x="359.5" y="478.2295">11</text><text fill="#000000" font-family="sans-serif" font-size="13" lengthAdjust="spacing" textLength="95" x="377.5" y="478.2295">deliveries(JSON)</text><polygon fill="#181818" points="85.5,509.4375,75.5,513.4375,85.5,517.4375,81.5,513.4375" style="stroke:#181818;stroke-width:1.0;"/><line style="stroke:#181818;stroke-width:1.0;stroke-dasharray:2.0,2.0;" x1="79.5" x2="336.5" y1="513.4375" y2="513.4375"/><text fill="#000000" font-family="sans-serif" font-size="13" font-weight="bold" lengthAdjust="spacing" textLength="14" x="91.5" y="508.5811">12</text><text fill="#000000" font-family="sans-serif" font-size="13" lengthAdjust="spacing" textLength="200" x="109.5" y="508.5811">Show the list with all the Deliveries</text><!--MD5=[2bf6314ce125c1d88f2209bbde51b8fd]
@startuml USA02

title Lvl 2 - List Deliveries

autonumber

actor "Warehouse Manager" as WM
participant "<< Container (C4) >> \n SPA" as S
participant "<< Container (C4) >> \n SSO Authetication" as SSO
participant "<< Container (C4) >> \n AuthGuard" as AG
participant "<< Container (C4) >> \n WarehouseModule" as WMD


activate WM
WM -> S : Clicks sign-in with Google button
activate S
S -> SSO : Logs in with a Google Account
activate SSO
SSO - -> SSO : Checks if the email is registered
SSO - -> S : Email is correct
deactivate SSO
S - -> WM : Shows Warehouse Manager Features
deactivate S
WM -> S : Selects the option to List Deliveries
activate S
S - -> AG : Checks if this user has Authorization to view this page
activate AG
AG -> AG : CanActivateChild()
AG - -> S : Authorized
deactivate AG

S -> WMD : GET /api/deliveries
activate WMD

WMD -> S : deliveries(JSON)
deactivate WMD

S - -> WM : Show the list with all the Deliveries
deactivate S
deactivate WM

@enduml

PlantUML version 1.2022.7(Mon Aug 22 18:01:30 WEST 2022)
(GPL source distribution)
Java Runtime: Java(TM) SE Runtime Environment
JVM: Java HotSpot(TM) 64-Bit Server VM
Default Encoding: Cp1252
Language: pt
Country: PT
--></g></svg>