<?xml version="1.0" encoding="UTF-8" standalone="no"?><svg xmlns="http://www.w3.org/2000/svg" xmlns:xlink="http://www.w3.org/1999/xlink" contentStyleType="text/css" height="344px" preserveAspectRatio="none" style="width:370px;height:344px;background:#FFFFFF;" version="1.1" viewBox="0 0 370 344" width="370px" zoomAndPan="magnify"><defs/><g><rect fill="none" height="27.6094" id="_title" style="stroke:none;stroke-width:1.0;" width="132" x="118" y="10"/><text fill="#000000" font-family="sans-serif" font-size="14" font-weight="bold" lengthAdjust="spacing" textLength="122" x="123" y="29.5332">Lvl 1 - List Trucks</text><rect fill="#FFFFFF" height="113.4063" style="stroke:#181818;stroke-width:1.0;" width="10" x="57" y="131.2188"/><rect fill="#FFFFFF" height="30.3516" style="stroke:#181818;stroke-width:1.0;" width="10" x="299" y="153.5703"/><rect fill="#FFFFFF" height="30.3516" style="stroke:#181818;stroke-width:1.0;" width="10" x="299" y="214.2734"/><line style="stroke:#181818;stroke-width:0.5;stroke-dasharray:5.0,5.0;" x1="62" x2="62" y1="121.2188" y2="262.625"/><line style="stroke:#181818;stroke-width:0.5;stroke-dasharray:5.0,5.0;" x1="304" x2="304" y1="121.2188" y2="262.625"/><text fill="#000000" font-family="sans-serif" font-size="14" lengthAdjust="spacing" textLength="108" x="5" y="118.1426">Logistic Manager</text><ellipse cx="62" cy="52.1094" fill="#E2E2F0" rx="8" ry="8" style="stroke:#181818;stroke-width:0.5;"/><path d="M62,60.1094 L62,87.1094 M49,68.1094 L75,68.1094 M62,87.1094 L49,102.1094 M62,87.1094 L75,102.1094 " fill="none" style="stroke:#181818;stroke-width:0.5;"/><text fill="#000000" font-family="sans-serif" font-size="14" lengthAdjust="spacing" textLength="108" x="5" y="276.1582">Logistic Manager</text><ellipse cx="62" cy="287.7344" fill="#E2E2F0" rx="8" ry="8" style="stroke:#181818;stroke-width:0.5;"/><path d="M62,295.7344 L62,322.7344 M49,303.7344 L75,303.7344 M62,322.7344 L49,337.7344 M62,322.7344 L75,337.7344 " fill="none" style="stroke:#181818;stroke-width:0.5;"/><rect fill="#E2E2F0" height="49.2188" rx="2.5" ry="2.5" style="stroke:#181818;stroke-width:0.5;" width="120" x="244" y="71"/><text fill="#000000" font-family="sans-serif" font-size="14" lengthAdjust="spacing" textLength="102" x="251" y="92.5332">&lt;&lt; Container &gt;&gt;</text><text fill="#000000" font-family="sans-serif" font-size="14" lengthAdjust="spacing" textLength="27" x="292.5" y="110.1426">SPA</text><rect fill="#E2E2F0" height="49.2188" rx="2.5" ry="2.5" style="stroke:#181818;stroke-width:0.5;" width="120" x="244" y="261.625"/><text fill="#000000" font-family="sans-serif" font-size="14" lengthAdjust="spacing" textLength="102" x="251" y="283.1582">&lt;&lt; Container &gt;&gt;</text><text fill="#000000" font-family="sans-serif" font-size="14" lengthAdjust="spacing" textLength="27" x="292.5" y="300.7676">SPA</text><rect fill="#FFFFFF" height="113.4063" style="stroke:#181818;stroke-width:1.0;" width="10" x="57" y="131.2188"/><rect fill="#FFFFFF" height="30.3516" style="stroke:#181818;stroke-width:1.0;" width="10" x="299" y="153.5703"/><rect fill="#FFFFFF" height="30.3516" style="stroke:#181818;stroke-width:1.0;" width="10" x="299" y="214.2734"/><polygon fill="#181818" points="287,149.5703,297,153.5703,287,157.5703,291,153.5703" style="stroke:#181818;stroke-width:1.0;"/><line style="stroke:#181818;stroke-width:1.0;" x1="67" x2="293" y1="153.5703" y2="153.5703"/><text fill="#000000" font-family="sans-serif" font-size="13" font-weight="bold" lengthAdjust="spacing" textLength="7" x="74" y="148.7139">1</text><text fill="#000000" font-family="sans-serif" font-size="13" lengthAdjust="spacing" textLength="190" x="85" y="148.7139">Clicks sign-in with Google button</text><polygon fill="#181818" points="78,179.9219,68,183.9219,78,187.9219,74,183.9219" style="stroke:#181818;stroke-width:1.0;"/><line style="stroke:#181818;stroke-width:1.0;stroke-dasharray:2.0,2.0;" x1="72" x2="303" y1="183.9219" y2="183.9219"/><text fill="#000000" font-family="sans-serif" font-size="13" font-weight="bold" lengthAdjust="spacing" textLength="7" x="84" y="179.0654">2</text><text fill="#000000" font-family="sans-serif" font-size="13" lengthAdjust="spacing" textLength="197" x="95" y="179.0654">Shows Logistic Manager Features</text><polygon fill="#181818" points="287,210.2734,297,214.2734,287,218.2734,291,214.2734" style="stroke:#181818;stroke-width:1.0;"/><line style="stroke:#181818;stroke-width:1.0;" x1="67" x2="293" y1="214.2734" y2="214.2734"/><text fill="#000000" font-family="sans-serif" font-size="13" font-weight="bold" lengthAdjust="spacing" textLength="7" x="74" y="209.417">3</text><text fill="#000000" font-family="sans-serif" font-size="13" lengthAdjust="spacing" textLength="188" x="85" y="209.417">Selects the option to List Trucks</text><polygon fill="#181818" points="73,240.625,63,244.625,73,248.625,69,244.625" style="stroke:#181818;stroke-width:1.0;"/><line style="stroke:#181818;stroke-width:1.0;stroke-dasharray:2.0,2.0;" x1="67" x2="303" y1="244.625" y2="244.625"/><text fill="#000000" font-family="sans-serif" font-size="13" font-weight="bold" lengthAdjust="spacing" textLength="7" x="79" y="239.7686">4</text><text fill="#000000" font-family="sans-serif" font-size="13" lengthAdjust="spacing" textLength="181" x="90" y="239.7686">Show the list with all the trucks</text><!--MD5=[86327dcff503ce3840b7256e8a7ef2a0]
@startuml USA02

title Lvl 1 - List Trucks


autonumber
actor "Logistic Manager" as LM
participant "<< Container >> \n SPA" as S

activate LM
LM -> S : Clicks sign-in with Google button
activate S
S - -> LM : Shows Logistic Manager Features
deactivate S
LM -> S : Selects the option to List Trucks
activate S
S - -> LM : Show the list with all the trucks
deactivate S

deactivate LM

@enduml

PlantUML version 1.2022.7(Mon Aug 22 18:01:30 WEST 2022)
(GPL source distribution)
Java Runtime: Java(TM) SE Runtime Environment
JVM: Java HotSpot(TM) 64-Bit Server VM
Default Encoding: Cp1252
Language: pt
Country: PT
--></g></svg>