<?xml version="1.0" encoding="UTF-8" standalone="no"?><svg xmlns="http://www.w3.org/2000/svg" xmlns:xlink="http://www.w3.org/1999/xlink" contentStyleType="text/css" height="440px" preserveAspectRatio="none" style="width:479px;height:440px;background:#FFFFFF;" version="1.1" viewBox="0 0 479 440" width="479px" zoomAndPan="magnify"><defs/><g><rect fill="none" height="27.6094" id="_title" style="stroke:none;stroke-width:1.0;" width="233" x="124.75" y="10"/><text fill="#000000" font-family="sans-serif" font-size="14" font-weight="bold" lengthAdjust="spacing" textLength="223" x="129.75" y="29.5332">View Level 1 - Delete Packaging</text><rect fill="#FFFFFF" height="174.1094" style="stroke:#181818;stroke-width:1.0;" width="10" x="60.5" y="148.8281"/><rect fill="#FFFFFF" height="30.3516" style="stroke:#181818;stroke-width:1.0;" width="10" x="403.5" y="171.1797"/><rect fill="#FFFFFF" height="30.3516" style="stroke:#181818;stroke-width:1.0;" width="10" x="403.5" y="231.8828"/><rect fill="#FFFFFF" height="30.3516" style="stroke:#181818;stroke-width:1.0;" width="10" x="403.5" y="292.5859"/><line style="stroke:#181818;stroke-width:0.5;stroke-dasharray:5.0,5.0;" x1="65" x2="65" y1="138.8281" y2="340.9375"/><line style="stroke:#181818;stroke-width:0.5;stroke-dasharray:5.0,5.0;" x1="408.5" x2="408.5" y1="138.8281" y2="340.9375"/><text fill="#000000" font-family="sans-serif" font-size="14" lengthAdjust="spacing" textLength="115" x="5" y="135.752">Logistics Manager</text><ellipse cx="65.5" cy="69.7188" fill="#E2E2F0" rx="8" ry="8" style="stroke:#181818;stroke-width:0.5;"/><path d="M65.5,77.7188 L65.5,104.7188 M52.5,85.7188 L78.5,85.7188 M65.5,104.7188 L52.5,119.7188 M65.5,104.7188 L78.5,119.7188 " fill="none" style="stroke:#181818;stroke-width:0.5;"/><text fill="#000000" font-family="sans-serif" font-size="14" lengthAdjust="spacing" textLength="115" x="5" y="354.4707">Logistics Manager</text><ellipse cx="65.5" cy="366.0469" fill="#E2E2F0" rx="8" ry="8" style="stroke:#181818;stroke-width:0.5;"/><path d="M65.5,374.0469 L65.5,401.0469 M52.5,382.0469 L78.5,382.0469 M65.5,401.0469 L52.5,416.0469 M65.5,401.0469 L78.5,416.0469 " fill="none" style="stroke:#181818;stroke-width:0.5;"/><text fill="#000000" font-family="sans-serif" font-size="14" lengthAdjust="spacing" textLength="130" x="338.5" y="118.1426">&lt;&lt; Container (C4)&gt;&gt;</text><text fill="#000000" font-family="sans-serif" font-size="14" lengthAdjust="spacing" textLength="101" x="357" y="135.752">:Visual Interface</text><ellipse cx="408.5" cy="52.1094" fill="#E2E2F0" rx="8" ry="8" style="stroke:#181818;stroke-width:0.5;"/><path d="M408.5,60.1094 L408.5,87.1094 M395.5,68.1094 L421.5,68.1094 M408.5,87.1094 L395.5,102.1094 M408.5,87.1094 L421.5,102.1094 " fill="none" style="stroke:#181818;stroke-width:0.5;"/><text fill="#000000" font-family="sans-serif" font-size="14" lengthAdjust="spacing" textLength="130" x="338.5" y="354.4707">&lt;&lt; Container (C4)&gt;&gt;</text><text fill="#000000" font-family="sans-serif" font-size="14" lengthAdjust="spacing" textLength="101" x="357" y="372.0801">:Visual Interface</text><ellipse cx="408.5" cy="383.6563" fill="#E2E2F0" rx="8" ry="8" style="stroke:#181818;stroke-width:0.5;"/><path d="M408.5,391.6563 L408.5,418.6563 M395.5,399.6563 L421.5,399.6563 M408.5,418.6563 L395.5,433.6563 M408.5,418.6563 L421.5,433.6563 " fill="none" style="stroke:#181818;stroke-width:0.5;"/><rect fill="#FFFFFF" height="174.1094" style="stroke:#181818;stroke-width:1.0;" width="10" x="60.5" y="148.8281"/><rect fill="#FFFFFF" height="30.3516" style="stroke:#181818;stroke-width:1.0;" width="10" x="403.5" y="171.1797"/><rect fill="#FFFFFF" height="30.3516" style="stroke:#181818;stroke-width:1.0;" width="10" x="403.5" y="231.8828"/><rect fill="#FFFFFF" height="30.3516" style="stroke:#181818;stroke-width:1.0;" width="10" x="403.5" y="292.5859"/><polygon fill="#181818" points="391.5,167.1797,401.5,171.1797,391.5,175.1797,395.5,171.1797" style="stroke:#181818;stroke-width:1.0;"/><line style="stroke:#181818;stroke-width:1.0;" x1="70.5" x2="397.5" y1="171.1797" y2="171.1797"/><text fill="#000000" font-family="sans-serif" font-size="13" font-weight="bold" lengthAdjust="spacing" textLength="7" x="77.5" y="166.3232">1</text><text fill="#000000" font-family="sans-serif" font-size="13" lengthAdjust="spacing" textLength="162" x="88.5" y="166.3232">Asks to delete a packaging.</text><polygon fill="#181818" points="81.5,197.5313,71.5,201.5313,81.5,205.5313,77.5,201.5313" style="stroke:#181818;stroke-width:1.0;"/><line style="stroke:#181818;stroke-width:1.0;stroke-dasharray:2.0,2.0;" x1="75.5" x2="407.5" y1="201.5313" y2="201.5313"/><text fill="#000000" font-family="sans-serif" font-size="13" font-weight="bold" lengthAdjust="spacing" textLength="7" x="87.5" y="196.6748">2</text><text fill="#000000" font-family="sans-serif" font-size="13" lengthAdjust="spacing" textLength="298" x="98.5" y="196.6748">Ask to choose which packaging you want to delete.</text><polygon fill="#181818" points="391.5,227.8828,401.5,231.8828,391.5,235.8828,395.5,231.8828" style="stroke:#181818;stroke-width:1.0;"/><line style="stroke:#181818;stroke-width:1.0;" x1="70.5" x2="397.5" y1="231.8828" y2="231.8828"/><text fill="#000000" font-family="sans-serif" font-size="13" font-weight="bold" lengthAdjust="spacing" textLength="7" x="77.5" y="227.0264">3</text><text fill="#000000" font-family="sans-serif" font-size="13" lengthAdjust="spacing" textLength="140" x="88.5" y="227.0264">Chooses the packaging.</text><polygon fill="#181818" points="81.5,258.2344,71.5,262.2344,81.5,266.2344,77.5,262.2344" style="stroke:#181818;stroke-width:1.0;"/><line style="stroke:#181818;stroke-width:1.0;stroke-dasharray:2.0,2.0;" x1="75.5" x2="407.5" y1="262.2344" y2="262.2344"/><text fill="#000000" font-family="sans-serif" font-size="13" font-weight="bold" lengthAdjust="spacing" textLength="7" x="87.5" y="257.3779">4</text><text fill="#000000" font-family="sans-serif" font-size="13" lengthAdjust="spacing" textLength="262" x="98.5" y="257.3779">Validates the data and requests confirmation.</text><polygon fill="#181818" points="391.5,288.5859,401.5,292.5859,391.5,296.5859,395.5,292.5859" style="stroke:#181818;stroke-width:1.0;"/><line style="stroke:#181818;stroke-width:1.0;" x1="70.5" x2="397.5" y1="292.5859" y2="292.5859"/><text fill="#000000" font-family="sans-serif" font-size="13" font-weight="bold" lengthAdjust="spacing" textLength="7" x="77.5" y="287.7295">5</text><text fill="#000000" font-family="sans-serif" font-size="13" lengthAdjust="spacing" textLength="144" x="88.5" y="287.7295">Confirms the information.</text><polygon fill="#181818" points="76.5,318.9375,66.5,322.9375,76.5,326.9375,72.5,322.9375" style="stroke:#181818;stroke-width:1.0;"/><line style="stroke:#181818;stroke-width:1.0;stroke-dasharray:2.0,2.0;" x1="70.5" x2="407.5" y1="322.9375" y2="322.9375"/><text fill="#000000" font-family="sans-serif" font-size="13" font-weight="bold" lengthAdjust="spacing" textLength="7" x="82.5" y="318.0811">6</text><text fill="#000000" font-family="sans-serif" font-size="13" lengthAdjust="spacing" textLength="285" x="93.5" y="318.0811">Saves the data and informs of operation success.</text><!--MD5=[34d39b44c4defecdf59e8205b76103d3]
@startuml

title View Level 1 - Delete Packaging

autonumber

actor "Logistics Manager" as LM
actor "<< Container (C4)>> \n :Visual Interface" as SYS

activate LM
LM -> SYS : Asks to delete a packaging.
activate SYS
SYS - -> LM : Ask to choose which packaging you want to delete.
deactivate SYS

LM -> SYS : Chooses the packaging.
activate SYS
SYS - -> LM : Validates the data and requests confirmation.
deactivate SYS

LM -> SYS : Confirms the information.
activate SYS
SYS - -> LM : Saves the data and informs of operation success.
deactivate SYS

deactivate LM

@enduml

PlantUML version 1.2022.7(Mon Aug 22 18:01:30 WEST 2022)
(GPL source distribution)
Java Runtime: Java(TM) SE Runtime Environment
JVM: Java HotSpot(TM) 64-Bit Server VM
Default Encoding: Cp1252
Language: pt
Country: PT
--></g></svg>