<?xml version="1.0" encoding="UTF-8" standalone="no"?><svg xmlns="http://www.w3.org/2000/svg" xmlns:xlink="http://www.w3.org/1999/xlink" contentStyleType="text/css" height="392px" preserveAspectRatio="none" style="width:682px;height:392px;background:#FFFFFF;" version="1.1" viewBox="0 0 682 392" width="682px" zoomAndPan="magnify"><defs/><g><rect fill="#FFFFFF" height="200.1094" style="stroke:#181818;stroke-width:1.0;" width="10" x="69.5" y="92.6094"/><rect fill="#FFFFFF" height="30.3516" style="stroke:#181818;stroke-width:1.0;" width="10" x="386.5" y="114.9609"/><rect fill="#FFFFFF" height="117.0547" style="stroke:#181818;stroke-width:1.0;" width="10" x="386.5" y="175.6641"/><line style="stroke:#181818;stroke-width:0.5;stroke-dasharray:5.0,5.0;" x1="74" x2="74" y1="82.6094" y2="310.7188"/><line style="stroke:#181818;stroke-width:0.5;stroke-dasharray:5.0,5.0;" x1="391.5" x2="391.5" y1="82.6094" y2="310.7188"/><text fill="#000000" font-family="sans-serif" font-size="14" lengthAdjust="spacing" textLength="133" x="5" y="79.5332">Warehouse Manager</text><ellipse cx="74.5" cy="13.5" fill="#E2E2F0" rx="8" ry="8" style="stroke:#181818;stroke-width:0.5;"/><path d="M74.5,21.5 L74.5,48.5 M61.5,29.5 L87.5,29.5 M74.5,48.5 L61.5,63.5 M74.5,48.5 L87.5,63.5 " fill="none" style="stroke:#181818;stroke-width:0.5;"/><text fill="#000000" font-family="sans-serif" font-size="14" lengthAdjust="spacing" textLength="133" x="5" y="324.252">Warehouse Manager</text><ellipse cx="74.5" cy="335.8281" fill="#E2E2F0" rx="8" ry="8" style="stroke:#181818;stroke-width:0.5;"/><path d="M74.5,343.8281 L74.5,370.8281 M61.5,351.8281 L87.5,351.8281 M74.5,370.8281 L61.5,385.8281 M74.5,370.8281 L87.5,385.8281 " fill="none" style="stroke:#181818;stroke-width:0.5;"/><rect fill="#E2E2F0" height="31.6094" rx="2.5" ry="2.5" style="stroke:#181818;stroke-width:0.5;" width="60" x="361.5" y="50"/><text fill="#000000" font-family="sans-serif" font-size="14" lengthAdjust="spacing" textLength="46" x="368.5" y="71.5332">System</text><rect fill="#E2E2F0" height="31.6094" rx="2.5" ry="2.5" style="stroke:#181818;stroke-width:0.5;" width="60" x="361.5" y="309.7188"/><text fill="#000000" font-family="sans-serif" font-size="14" lengthAdjust="spacing" textLength="46" x="368.5" y="331.252">System</text><rect fill="#FFFFFF" height="200.1094" style="stroke:#181818;stroke-width:1.0;" width="10" x="69.5" y="92.6094"/><rect fill="#FFFFFF" height="30.3516" style="stroke:#181818;stroke-width:1.0;" width="10" x="386.5" y="114.9609"/><rect fill="#FFFFFF" height="117.0547" style="stroke:#181818;stroke-width:1.0;" width="10" x="386.5" y="175.6641"/><polygon fill="#181818" points="374.5,110.9609,384.5,114.9609,374.5,118.9609,378.5,114.9609" style="stroke:#181818;stroke-width:1.0;"/><line style="stroke:#181818;stroke-width:1.0;" x1="79.5" x2="380.5" y1="114.9609" y2="114.9609"/><text fill="#000000" font-family="sans-serif" font-size="13" font-weight="bold" lengthAdjust="spacing" textLength="7" x="86.5" y="110.1045">1</text><text fill="#000000" font-family="sans-serif" font-size="13" lengthAdjust="spacing" textLength="200" x="97.5" y="110.1045">Initiates wants to edit a warehouse</text><polygon fill="#181818" points="90.5,141.3125,80.5,145.3125,90.5,149.3125,86.5,145.3125" style="stroke:#181818;stroke-width:1.0;"/><line style="stroke:#181818;stroke-width:1.0;stroke-dasharray:2.0,2.0;" x1="84.5" x2="390.5" y1="145.3125" y2="145.3125"/><text fill="#000000" font-family="sans-serif" font-size="13" font-weight="bold" lengthAdjust="spacing" textLength="7" x="96.5" y="140.4561">2</text><text fill="#000000" font-family="sans-serif" font-size="13" lengthAdjust="spacing" textLength="240" x="107.5" y="140.4561">Ask for warehouse id and new information</text><polygon fill="#181818" points="374.5,171.6641,384.5,175.6641,374.5,179.6641,378.5,175.6641" style="stroke:#181818;stroke-width:1.0;"/><line style="stroke:#181818;stroke-width:1.0;" x1="79.5" x2="380.5" y1="175.6641" y2="175.6641"/><text fill="#000000" font-family="sans-serif" font-size="13" font-weight="bold" lengthAdjust="spacing" textLength="7" x="86.5" y="170.8076">3</text><text fill="#000000" font-family="sans-serif" font-size="13" lengthAdjust="spacing" textLength="277" x="97.5" y="170.8076">Enter the information requested(id and changes)</text><line style="stroke:#181818;stroke-width:1.0;stroke-dasharray:2.0,2.0;" x1="396.5" x2="438.5" y1="206.0156" y2="206.0156"/><line style="stroke:#181818;stroke-width:1.0;stroke-dasharray:2.0,2.0;" x1="438.5" x2="438.5" y1="206.0156" y2="219.0156"/><line style="stroke:#181818;stroke-width:1.0;stroke-dasharray:2.0,2.0;" x1="397.5" x2="438.5" y1="219.0156" y2="219.0156"/><polygon fill="#181818" points="407.5,215.0156,397.5,219.0156,407.5,223.0156,403.5,219.0156" style="stroke:#181818;stroke-width:1.0;"/><text fill="#000000" font-family="sans-serif" font-size="13" font-weight="bold" lengthAdjust="spacing" textLength="7" x="403.5" y="201.1592">4</text><text fill="#000000" font-family="sans-serif" font-size="13" lengthAdjust="spacing" textLength="181" x="414.5" y="201.1592">Checks if the warehouse exists</text><line style="stroke:#181818;stroke-width:1.0;stroke-dasharray:2.0,2.0;" x1="396.5" x2="438.5" y1="249.3672" y2="249.3672"/><line style="stroke:#181818;stroke-width:1.0;stroke-dasharray:2.0,2.0;" x1="438.5" x2="438.5" y1="249.3672" y2="262.3672"/><line style="stroke:#181818;stroke-width:1.0;stroke-dasharray:2.0,2.0;" x1="397.5" x2="438.5" y1="262.3672" y2="262.3672"/><polygon fill="#181818" points="407.5,258.3672,397.5,262.3672,407.5,266.3672,403.5,262.3672" style="stroke:#181818;stroke-width:1.0;"/><text fill="#000000" font-family="sans-serif" font-size="13" font-weight="bold" lengthAdjust="spacing" textLength="7" x="403.5" y="244.5107">5</text><text fill="#000000" font-family="sans-serif" font-size="13" lengthAdjust="spacing" textLength="261" x="414.5" y="244.5107">Edits changes requested from the warehouse</text><polygon fill="#181818" points="85.5,288.7188,75.5,292.7188,85.5,296.7188,81.5,292.7188" style="stroke:#181818;stroke-width:1.0;"/><line style="stroke:#181818;stroke-width:1.0;stroke-dasharray:2.0,2.0;" x1="79.5" x2="390.5" y1="292.7188" y2="292.7188"/><text fill="#000000" font-family="sans-serif" font-size="13" font-weight="bold" lengthAdjust="spacing" textLength="7" x="91.5" y="287.8623">6</text><text fill="#000000" font-family="sans-serif" font-size="13" lengthAdjust="spacing" textLength="166" x="102.5" y="287.8623">Informs of operation success</text><!--MD5=[5bba14a5b28b3ce10a946eac7459bf82]
@startuml USA04_1
'https://plantuml.com/sequence-diagram

autonumber
actor "Warehouse Manager" as WM
participant "System" as S

activate WM
WM -> S : Initiates wants to edit a warehouse
activate S

S - -> WM : Ask for warehouse id and new information
deactivate S

WM -> S : Enter the information requested(id and changes)
activate S
S - -> S: Checks if the warehouse exists
S - -> S: Edits changes requested from the warehouse
S - -> WM : Informs of operation success
deactivate S

deactivate WM

@enduml

@startuml USA04_1

autonumber
actor "Warehouse Manager" as WM
participant "System" as S

activate WM
WM -> S : Initiates wants to edit a warehouse
activate S

S - -> WM : Ask for warehouse id and new information
deactivate S

WM -> S : Enter the information requested(id and changes)
activate S
S - -> S: Checks if the warehouse exists
S - -> S: Edits changes requested from the warehouse
S - -> WM : Informs of operation success
deactivate S

deactivate WM

@enduml

PlantUML version 1.2022.7(Mon Aug 22 18:01:30 WEST 2022)
(GPL source distribution)
Java Runtime: Java(TM) SE Runtime Environment
JVM: Java HotSpot(TM) 64-Bit Server VM
Default Encoding: UTF-8
Language: es
Country: ES
--></g></svg>