<?xml version="1.0" encoding="UTF-8" standalone="no"?><svg xmlns="http://www.w3.org/2000/svg" xmlns:xlink="http://www.w3.org/1999/xlink" contentStyleType="text/css" height="665px" preserveAspectRatio="none" style="width:836px;height:665px;background:#FFFFFF;" version="1.1" viewBox="0 0 836 665" width="836px" zoomAndPan="magnify"><defs/><g><rect fill="none" height="27.6094" id="_title" style="stroke:none;stroke-width:1.0;" width="173" x="333.75" y="10"/><text fill="#000000" font-family="sans-serif" font-size="14" font-weight="bold" lengthAdjust="spacing" textLength="163" x="338.75" y="29.5332">SD - Create Warehouse</text><rect fill="#FFFFFF" height="398.5703" style="stroke:#181818;stroke-width:1.0;" width="10" x="69.5" y="148.8281"/><rect fill="#FFFFFF" height="46.7031" style="stroke:#181818;stroke-width:1.0;" width="10" x="406.5" y="171.1797"/><rect fill="#FFFFFF" height="134.4063" style="stroke:#181818;stroke-width:1.0;" width="10" x="406.5" y="248.2344"/><rect fill="#FFFFFF" height="134.4063" style="stroke:#181818;stroke-width:1.0;" width="10" x="406.5" y="412.9922"/><rect fill="#FFFFFF" height="73.7031" style="stroke:#181818;stroke-width:1.0;" width="10" x="644.5" y="278.5859"/><rect fill="#FFFFFF" height="73.7031" style="stroke:#181818;stroke-width:1.0;" width="10" x="644.5" y="443.3438"/><line style="stroke:#181818;stroke-width:0.5;stroke-dasharray:5.0,5.0;" x1="74" x2="74" y1="138.8281" y2="565.3984"/><line style="stroke:#181818;stroke-width:0.5;stroke-dasharray:5.0,5.0;" x1="411.5" x2="411.5" y1="138.8281" y2="565.3984"/><line style="stroke:#181818;stroke-width:0.5;stroke-dasharray:5.0,5.0;" x1="649.5" x2="649.5" y1="138.8281" y2="565.3984"/><text fill="#000000" font-family="sans-serif" font-size="14" lengthAdjust="spacing" textLength="133" x="5" y="135.752">Warehouse Manager</text><ellipse cx="74.5" cy="69.7188" fill="#E2E2F0" rx="8" ry="8" style="stroke:#181818;stroke-width:0.5;"/><path d="M74.5,77.7188 L74.5,104.7188 M61.5,85.7188 L87.5,85.7188 M74.5,104.7188 L61.5,119.7188 M74.5,104.7188 L87.5,119.7188 " fill="none" style="stroke:#181818;stroke-width:0.5;"/><text fill="#000000" font-family="sans-serif" font-size="14" lengthAdjust="spacing" textLength="133" x="5" y="578.9316">Warehouse Manager</text><ellipse cx="74.5" cy="590.5078" fill="#E2E2F0" rx="8" ry="8" style="stroke:#181818;stroke-width:0.5;"/><path d="M74.5,598.5078 L74.5,625.5078 M61.5,606.5078 L87.5,606.5078 M74.5,625.5078 L61.5,640.5078 M74.5,625.5078 L87.5,640.5078 " fill="none" style="stroke:#181818;stroke-width:0.5;"/><text fill="#000000" font-family="sans-serif" font-size="14" lengthAdjust="spacing" textLength="102" x="355.5" y="118.1426">&lt;&lt; Container &gt;&gt;</text><text fill="#000000" font-family="sans-serif" font-size="14" lengthAdjust="spacing" textLength="21" x="400" y="135.752">API</text><ellipse cx="411.5" cy="52.1094" fill="#E2E2F0" rx="8" ry="8" style="stroke:#181818;stroke-width:0.5;"/><path d="M411.5,60.1094 L411.5,87.1094 M398.5,68.1094 L424.5,68.1094 M411.5,87.1094 L398.5,102.1094 M411.5,87.1094 L424.5,102.1094 " fill="none" style="stroke:#181818;stroke-width:0.5;"/><text fill="#000000" font-family="sans-serif" font-size="14" lengthAdjust="spacing" textLength="102" x="355.5" y="578.9316">&lt;&lt; Container &gt;&gt;</text><text fill="#000000" font-family="sans-serif" font-size="14" lengthAdjust="spacing" textLength="21" x="400" y="596.541">API</text><ellipse cx="411.5" cy="608.1172" fill="#E2E2F0" rx="8" ry="8" style="stroke:#181818;stroke-width:0.5;"/><path d="M411.5,616.1172 L411.5,643.1172 M398.5,624.1172 L424.5,624.1172 M411.5,643.1172 L398.5,658.1172 M411.5,643.1172 L424.5,658.1172 " fill="none" style="stroke:#181818;stroke-width:0.5;"/><text fill="#000000" font-family="sans-serif" font-size="14" lengthAdjust="spacing" textLength="102" x="593.5" y="118.1426">&lt;&lt; Container &gt;&gt;</text><text fill="#000000" font-family="sans-serif" font-size="14" lengthAdjust="spacing" textLength="146" x="575.5" y="135.752">WarehouseDataMaster</text><ellipse cx="649.5" cy="52.1094" fill="#E2E2F0" rx="8" ry="8" style="stroke:#181818;stroke-width:0.5;"/><path d="M649.5,60.1094 L649.5,87.1094 M636.5,68.1094 L662.5,68.1094 M649.5,87.1094 L636.5,102.1094 M649.5,87.1094 L662.5,102.1094 " fill="none" style="stroke:#181818;stroke-width:0.5;"/><text fill="#000000" font-family="sans-serif" font-size="14" lengthAdjust="spacing" textLength="102" x="593.5" y="578.9316">&lt;&lt; Container &gt;&gt;</text><text fill="#000000" font-family="sans-serif" font-size="14" lengthAdjust="spacing" textLength="146" x="575.5" y="596.541">WarehouseDataMaster</text><ellipse cx="649.5" cy="608.1172" fill="#E2E2F0" rx="8" ry="8" style="stroke:#181818;stroke-width:0.5;"/><path d="M649.5,616.1172 L649.5,643.1172 M636.5,624.1172 L662.5,624.1172 M649.5,643.1172 L636.5,658.1172 M649.5,643.1172 L662.5,658.1172 " fill="none" style="stroke:#181818;stroke-width:0.5;"/><rect fill="#FFFFFF" height="398.5703" style="stroke:#181818;stroke-width:1.0;" width="10" x="69.5" y="148.8281"/><rect fill="#FFFFFF" height="46.7031" style="stroke:#181818;stroke-width:1.0;" width="10" x="406.5" y="171.1797"/><rect fill="#FFFFFF" height="134.4063" style="stroke:#181818;stroke-width:1.0;" width="10" x="406.5" y="248.2344"/><rect fill="#FFFFFF" height="134.4063" style="stroke:#181818;stroke-width:1.0;" width="10" x="406.5" y="412.9922"/><rect fill="#FFFFFF" height="73.7031" style="stroke:#181818;stroke-width:1.0;" width="10" x="644.5" y="278.5859"/><rect fill="#FFFFFF" height="73.7031" style="stroke:#181818;stroke-width:1.0;" width="10" x="644.5" y="443.3438"/><polygon fill="#181818" points="394.5,167.1797,404.5,171.1797,394.5,175.1797,398.5,171.1797" style="stroke:#181818;stroke-width:1.0;"/><line style="stroke:#181818;stroke-width:1.0;" x1="79.5" x2="400.5" y1="171.1797" y2="171.1797"/><text fill="#000000" font-family="sans-serif" font-size="13" font-weight="bold" lengthAdjust="spacing" textLength="7" x="86.5" y="166.3232">1</text><text fill="#000000" font-family="sans-serif" font-size="13" lengthAdjust="spacing" textLength="151" x="97.5" y="166.3232">Asks to add a warehouse.</text><polygon fill="#181818" points="90.5,213.8828,80.5,217.8828,90.5,221.8828,86.5,217.8828" style="stroke:#181818;stroke-width:1.0;"/><line style="stroke:#181818;stroke-width:1.0;stroke-dasharray:2.0,2.0;" x1="84.5" x2="410.5" y1="217.8828" y2="217.8828"/><text fill="#000000" font-family="sans-serif" font-size="13" font-weight="bold" lengthAdjust="spacing" textLength="7" x="96.5" y="204.8506">2</text><text fill="#000000" font-family="sans-serif" font-size="13" lengthAdjust="spacing" textLength="170" x="107.5" y="196.6748">Requests the necessary data</text><text fill="#000000" font-family="sans-serif" font-size="13" lengthAdjust="spacing" textLength="221" x="107.5" y="213.0264">(id, designation, address, coordinates)</text><polygon fill="#181818" points="394.5,244.2344,404.5,248.2344,394.5,252.2344,398.5,248.2344" style="stroke:#181818;stroke-width:1.0;"/><line style="stroke:#181818;stroke-width:1.0;" x1="79.5" x2="400.5" y1="248.2344" y2="248.2344"/><text fill="#000000" font-family="sans-serif" font-size="13" font-weight="bold" lengthAdjust="spacing" textLength="7" x="86.5" y="243.3779">3</text><text fill="#000000" font-family="sans-serif" font-size="13" lengthAdjust="spacing" textLength="155" x="97.5" y="243.3779">Inserts the requested data.</text><polygon fill="#181818" points="632.5,274.5859,642.5,278.5859,632.5,282.5859,636.5,278.5859" style="stroke:#181818;stroke-width:1.0;"/><line style="stroke:#181818;stroke-width:1.0;" x1="416.5" x2="638.5" y1="278.5859" y2="278.5859"/><text fill="#000000" font-family="sans-serif" font-size="13" font-weight="bold" lengthAdjust="spacing" textLength="7" x="423.5" y="273.7295">4</text><text fill="#000000" font-family="sans-serif" font-size="13" lengthAdjust="spacing" textLength="198" x="434.5" y="273.7295">POST /warehouse warehouseData</text><line style="stroke:#181818;stroke-width:1.0;" x1="654.5" x2="696.5" y1="308.9375" y2="308.9375"/><line style="stroke:#181818;stroke-width:1.0;" x1="696.5" x2="696.5" y1="308.9375" y2="321.9375"/><line style="stroke:#181818;stroke-width:1.0;" x1="655.5" x2="696.5" y1="321.9375" y2="321.9375"/><polygon fill="#181818" points="665.5,317.9375,655.5,321.9375,665.5,325.9375,661.5,321.9375" style="stroke:#181818;stroke-width:1.0;"/><text fill="#000000" font-family="sans-serif" font-size="13" font-weight="bold" lengthAdjust="spacing" textLength="7" x="661.5" y="304.0811">5</text><text fill="#000000" font-family="sans-serif" font-size="13" lengthAdjust="spacing" textLength="157" x="672.5" y="304.0811">AddAsync(warehouseData)</text><polygon fill="#181818" points="427.5,348.2891,417.5,352.2891,427.5,356.2891,423.5,352.2891" style="stroke:#181818;stroke-width:1.0;"/><line style="stroke:#181818;stroke-width:1.0;" x1="421.5" x2="648.5" y1="352.2891" y2="352.2891"/><text fill="#000000" font-family="sans-serif" font-size="13" font-weight="bold" lengthAdjust="spacing" textLength="7" x="433.5" y="347.4326">6</text><text fill="#000000" font-family="sans-serif" font-size="13" lengthAdjust="spacing" textLength="154" x="444.5" y="347.4326">warehouse_register(JSON)</text><polygon fill="#181818" points="90.5,378.6406,80.5,382.6406,90.5,386.6406,86.5,382.6406" style="stroke:#181818;stroke-width:1.0;"/><line style="stroke:#181818;stroke-width:1.0;stroke-dasharray:2.0,2.0;" x1="84.5" x2="410.5" y1="382.6406" y2="382.6406"/><text fill="#000000" font-family="sans-serif" font-size="13" font-weight="bold" lengthAdjust="spacing" textLength="7" x="96.5" y="377.7842">7</text><text fill="#000000" font-family="sans-serif" font-size="13" lengthAdjust="spacing" textLength="262" x="107.5" y="377.7842">Validates the data and requests confirmation.</text><polygon fill="#181818" points="394.5,408.9922,404.5,412.9922,394.5,416.9922,398.5,412.9922" style="stroke:#181818;stroke-width:1.0;"/><line style="stroke:#181818;stroke-width:1.0;" x1="79.5" x2="400.5" y1="412.9922" y2="412.9922"/><text fill="#000000" font-family="sans-serif" font-size="13" font-weight="bold" lengthAdjust="spacing" textLength="7" x="86.5" y="408.1357">8</text><text fill="#000000" font-family="sans-serif" font-size="13" lengthAdjust="spacing" textLength="144" x="97.5" y="408.1357">Confirms the information.</text><polygon fill="#181818" points="632.5,439.3438,642.5,443.3438,632.5,447.3438,636.5,443.3438" style="stroke:#181818;stroke-width:1.0;"/><line style="stroke:#181818;stroke-width:1.0;" x1="416.5" x2="638.5" y1="443.3438" y2="443.3438"/><text fill="#000000" font-family="sans-serif" font-size="13" font-weight="bold" lengthAdjust="spacing" textLength="7" x="423.5" y="438.4873">9</text><text fill="#000000" font-family="sans-serif" font-size="13" lengthAdjust="spacing" textLength="193" x="434.5" y="438.4873">PUT validate /{option, warehouse}</text><line style="stroke:#181818;stroke-width:1.0;" x1="654.5" x2="696.5" y1="473.6953" y2="473.6953"/><line style="stroke:#181818;stroke-width:1.0;" x1="696.5" x2="696.5" y1="473.6953" y2="486.6953"/><line style="stroke:#181818;stroke-width:1.0;" x1="655.5" x2="696.5" y1="486.6953" y2="486.6953"/><polygon fill="#181818" points="665.5,482.6953,655.5,486.6953,665.5,490.6953,661.5,486.6953" style="stroke:#181818;stroke-width:1.0;"/><text fill="#000000" font-family="sans-serif" font-size="13" font-weight="bold" lengthAdjust="spacing" textLength="14" x="661.5" y="468.8389">10</text><text fill="#000000" font-family="sans-serif" font-size="13" lengthAdjust="spacing" textLength="96" x="679.5" y="468.8389">save(warehouse)</text><polygon fill="#181818" points="427.5,513.0469,417.5,517.0469,427.5,521.0469,423.5,517.0469" style="stroke:#181818;stroke-width:1.0;"/><line style="stroke:#181818;stroke-width:1.0;" x1="421.5" x2="648.5" y1="517.0469" y2="517.0469"/><text fill="#000000" font-family="sans-serif" font-size="13" font-weight="bold" lengthAdjust="spacing" textLength="14" x="433.5" y="512.1904">11</text><text fill="#000000" font-family="sans-serif" font-size="13" lengthAdjust="spacing" textLength="68" x="451.5" y="512.1904">201 created</text><polygon fill="#181818" points="85.5,543.3984,75.5,547.3984,85.5,551.3984,81.5,547.3984" style="stroke:#181818;stroke-width:1.0;"/><line style="stroke:#181818;stroke-width:1.0;stroke-dasharray:2.0,2.0;" x1="79.5" x2="410.5" y1="547.3984" y2="547.3984"/><text fill="#000000" font-family="sans-serif" font-size="13" font-weight="bold" lengthAdjust="spacing" textLength="14" x="91.5" y="542.542">12</text><text fill="#000000" font-family="sans-serif" font-size="13" lengthAdjust="spacing" textLength="285" x="109.5" y="542.542">Saves the data and informs of operation success.</text><!--MD5=[ea1c5dbf52c2d11c2219e3078bd2bc8d]
@startuml USA04_2

title SD - Create Warehouse

autonumber

actor "Warehouse Manager" as FM
actor "<< Container >> \n API" as SYS
actor "<< Container >> \n WarehouseDataMaster" as TDM


activate FM
FM -> SYS : Asks to add a warehouse.
activate SYS
SYS - -> FM : Requests the necessary data\n(id, designation, address, coordinates)
deactivate SYS

FM -> SYS : Inserts the requested data.
activate SYS

SYS -> TDM : POST /warehouse warehouseData
activate TDM

TDM -> TDM : AddAsync(warehouseData)

TDM -> SYS : warehouse_register(JSON)
deactivate TDM

SYS - -> FM : Validates the data and requests confirmation.
deactivate SYS

FM -> SYS : Confirms the information.
activate SYS

SYS -> TDM : PUT validate /{option, warehouse}
activate TDM

TDM -> TDM : save(warehouse)

TDM -> SYS : 201 created
deactivate TDM

SYS - -> FM : Saves the data and informs of operation success.
deactivate SYS

deactivate FM

@enduml

PlantUML version 1.2022.7(Mon Aug 22 18:01:30 WEST 2022)
(GPL source distribution)
Java Runtime: Java(TM) SE Runtime Environment
JVM: Java HotSpot(TM) 64-Bit Server VM
Default Encoding: UTF-8
Language: es
Country: ES
--></g></svg>