<?xml version="1.0" encoding="UTF-8" standalone="no"?><svg xmlns="http://www.w3.org/2000/svg" xmlns:xlink="http://www.w3.org/1999/xlink" contentStyleType="text/css" height="510px" preserveAspectRatio="none" style="width:1032px;height:510px;background:#FFFFFF;" version="1.1" viewBox="0 0 1032 510" width="1032px" zoomAndPan="magnify"><defs/><g><rect fill="none" height="27.6094" id="_title" style="stroke:none;stroke-width:1.0;" width="172" x="429" y="10"/><text fill="#000000" font-family="sans-serif" font-size="14" font-weight="bold" lengthAdjust="spacing" textLength="162" x="434" y="29.5332">SD - Delete Warehouse</text><rect fill="#FFFFFF" height="369.2188" style="stroke:#181818;stroke-width:1.0;" width="10" x="171" y="86.2188"/><rect fill="#FFFFFF" height="316.5156" style="stroke:#181818;stroke-width:1.0;" width="10" x="362" y="138.9219"/><rect fill="#FFFFFF" height="255.8125" style="stroke:#181818;stroke-width:1.0;" width="10" x="618" y="169.2734"/><rect fill="#FFFFFF" height="73.7031" style="stroke:#181818;stroke-width:1.0;" width="10" x="826" y="199.625"/><rect fill="#FFFFFF" height="30.3516" style="stroke:#181818;stroke-width:1.0;" width="10" x="826" y="303.6797"/><rect fill="#FFFFFF" height="30.3516" style="stroke:#181818;stroke-width:1.0;" width="10" x="978" y="364.3828"/><line style="stroke:#181818;stroke-width:0.5;stroke-dasharray:5.0,5.0;" x1="175.5" x2="175.5" y1="76.2188" y2="473.4375"/><line style="stroke:#181818;stroke-width:0.5;stroke-dasharray:5.0,5.0;" x1="366.5" x2="366.5" y1="76.2188" y2="473.4375"/><line style="stroke:#181818;stroke-width:0.5;stroke-dasharray:5.0,5.0;" x1="623" x2="623" y1="76.2188" y2="473.4375"/><line style="stroke:#181818;stroke-width:0.5;stroke-dasharray:5.0,5.0;" x1="830.5" x2="830.5" y1="76.2188" y2="473.4375"/><line style="stroke:#181818;stroke-width:0.5;stroke-dasharray:5.0,5.0;" x1="983" x2="983" y1="76.2188" y2="473.4375"/><rect fill="#E2E2F0" height="31.6094" rx="2.5" ry="2.5" style="stroke:#181818;stroke-width:0.5;" width="35" x="158.5" y="43.6094"/><text fill="#000000" font-family="sans-serif" font-size="14" lengthAdjust="spacing" textLength="21" x="165.5" y="65.1426">API</text><rect fill="#E2E2F0" height="31.6094" rx="2.5" ry="2.5" style="stroke:#181818;stroke-width:0.5;" width="35" x="158.5" y="472.4375"/><text fill="#000000" font-family="sans-serif" font-size="14" lengthAdjust="spacing" textLength="21" x="165.5" y="493.9707">API</text><rect fill="#E2E2F0" height="31.6094" rx="2.5" ry="2.5" style="stroke:#181818;stroke-width:0.5;" width="153" x="290.5" y="43.6094"/><text fill="#000000" font-family="sans-serif" font-size="14" lengthAdjust="spacing" textLength="135" x="301.5" y="65.1426">WarehouseController</text><rect fill="#E2E2F0" height="31.6094" rx="2.5" ry="2.5" style="stroke:#181818;stroke-width:0.5;" width="153" x="290.5" y="472.4375"/><text fill="#000000" font-family="sans-serif" font-size="14" lengthAdjust="spacing" textLength="135" x="301.5" y="493.9707">WarehouseController</text><rect fill="#E2E2F0" height="31.6094" rx="2.5" ry="2.5" style="stroke:#181818;stroke-width:0.5;" width="138" x="554" y="43.6094"/><text fill="#000000" font-family="sans-serif" font-size="14" lengthAdjust="spacing" textLength="124" x="561" y="65.1426">Warehouse Service</text><rect fill="#E2E2F0" height="31.6094" rx="2.5" ry="2.5" style="stroke:#181818;stroke-width:0.5;" width="138" x="554" y="472.4375"/><text fill="#000000" font-family="sans-serif" font-size="14" lengthAdjust="spacing" textLength="124" x="561" y="493.9707">Warehouse Service</text><rect fill="#E2E2F0" height="31.6094" rx="2.5" ry="2.5" style="stroke:#181818;stroke-width:0.5;" width="155" x="753.5" y="43.6094"/><text fill="#000000" font-family="sans-serif" font-size="14" lengthAdjust="spacing" textLength="141" x="760.5" y="65.1426">WarehouseRepository</text><rect fill="#E2E2F0" height="31.6094" rx="2.5" ry="2.5" style="stroke:#181818;stroke-width:0.5;" width="155" x="753.5" y="472.4375"/><text fill="#000000" font-family="sans-serif" font-size="14" lengthAdjust="spacing" textLength="141" x="760.5" y="493.9707">WarehouseRepository</text><rect fill="#E2E2F0" height="31.6094" rx="2.5" ry="2.5" style="stroke:#181818;stroke-width:0.5;" width="86" x="940" y="43.6094"/><text fill="#000000" font-family="sans-serif" font-size="14" lengthAdjust="spacing" textLength="72" x="947" y="65.1426">UnitOfWork</text><rect fill="#E2E2F0" height="31.6094" rx="2.5" ry="2.5" style="stroke:#181818;stroke-width:0.5;" width="86" x="940" y="472.4375"/><text fill="#000000" font-family="sans-serif" font-size="14" lengthAdjust="spacing" textLength="72" x="947" y="493.9707">UnitOfWork</text><rect fill="#FFFFFF" height="369.2188" style="stroke:#181818;stroke-width:1.0;" width="10" x="171" y="86.2188"/><rect fill="#FFFFFF" height="316.5156" style="stroke:#181818;stroke-width:1.0;" width="10" x="362" y="138.9219"/><rect fill="#FFFFFF" height="255.8125" style="stroke:#181818;stroke-width:1.0;" width="10" x="618" y="169.2734"/><rect fill="#FFFFFF" height="73.7031" style="stroke:#181818;stroke-width:1.0;" width="10" x="826" y="199.625"/><rect fill="#FFFFFF" height="30.3516" style="stroke:#181818;stroke-width:1.0;" width="10" x="826" y="303.6797"/><rect fill="#FFFFFF" height="30.3516" style="stroke:#181818;stroke-width:1.0;" width="10" x="978" y="364.3828"/><polygon fill="#181818" points="159,104.5703,169,108.5703,159,112.5703,163,108.5703" style="stroke:#181818;stroke-width:1.0;"/><line style="stroke:#181818;stroke-width:1.0;" x1="0" x2="165" y1="108.5703" y2="108.5703"/><text fill="#000000" font-family="sans-serif" font-size="13" font-weight="bold" lengthAdjust="spacing" textLength="7" x="7" y="103.7139">1</text><text fill="#000000" font-family="sans-serif" font-size="13" lengthAdjust="spacing" textLength="141" x="18" y="103.7139">DELETE (warehouse_id)</text><polygon fill="#181818" points="350,134.9219,360,138.9219,350,142.9219,354,138.9219" style="stroke:#181818;stroke-width:1.0;"/><line style="stroke:#181818;stroke-width:1.0;" x1="181" x2="356" y1="138.9219" y2="138.9219"/><text fill="#000000" font-family="sans-serif" font-size="13" font-weight="bold" lengthAdjust="spacing" textLength="7" x="188" y="134.0654">2</text><text fill="#000000" font-family="sans-serif" font-size="13" lengthAdjust="spacing" textLength="151" x="199" y="134.0654">HardDelete(warehouse_id)</text><polygon fill="#181818" points="606,165.2734,616,169.2734,606,173.2734,610,169.2734" style="stroke:#181818;stroke-width:1.0;"/><line style="stroke:#181818;stroke-width:1.0;" x1="372" x2="612" y1="169.2734" y2="169.2734"/><text fill="#000000" font-family="sans-serif" font-size="13" font-weight="bold" lengthAdjust="spacing" textLength="7" x="379" y="164.417">3</text><text fill="#000000" font-family="sans-serif" font-size="13" lengthAdjust="spacing" textLength="161" x="390" y="164.417">DeleteAsync(warehouse_id)</text><polygon fill="#181818" points="814,195.625,824,199.625,814,203.625,818,199.625" style="stroke:#181818;stroke-width:1.0;"/><line style="stroke:#181818;stroke-width:1.0;" x1="628" x2="820" y1="199.625" y2="199.625"/><text fill="#000000" font-family="sans-serif" font-size="13" font-weight="bold" lengthAdjust="spacing" textLength="7" x="635" y="194.7686">4</text><text fill="#000000" font-family="sans-serif" font-size="13" lengthAdjust="spacing" textLength="168" x="646" y="194.7686">GetByIdAsync(WarehouseId)</text><line style="stroke:#181818;stroke-width:1.0;" x1="836" x2="878" y1="229.9766" y2="229.9766"/><line style="stroke:#181818;stroke-width:1.0;" x1="878" x2="878" y1="229.9766" y2="242.9766"/><line style="stroke:#181818;stroke-width:1.0;" x1="837" x2="878" y1="242.9766" y2="242.9766"/><polygon fill="#181818" points="847,238.9766,837,242.9766,847,246.9766,843,242.9766" style="stroke:#181818;stroke-width:1.0;"/><text fill="#000000" font-family="sans-serif" font-size="13" font-weight="bold" lengthAdjust="spacing" textLength="7" x="843" y="225.1201">5</text><text fill="#000000" font-family="sans-serif" font-size="13" lengthAdjust="spacing" textLength="117" x="854" y="225.1201">Fetch(WarehouseId)</text><polygon fill="#181818" points="639,269.3281,629,273.3281,639,277.3281,635,273.3281" style="stroke:#181818;stroke-width:1.0;"/><line style="stroke:#181818;stroke-width:1.0;stroke-dasharray:2.0,2.0;" x1="633" x2="830" y1="273.3281" y2="273.3281"/><text fill="#000000" font-family="sans-serif" font-size="13" font-weight="bold" lengthAdjust="spacing" textLength="7" x="645" y="268.4717">6</text><text fill="#000000" font-family="sans-serif" font-size="13" lengthAdjust="spacing" textLength="66" x="656" y="268.4717">Warehouse</text><polygon fill="#181818" points="814,299.6797,824,303.6797,814,307.6797,818,303.6797" style="stroke:#181818;stroke-width:1.0;"/><line style="stroke:#181818;stroke-width:1.0;" x1="628" x2="820" y1="303.6797" y2="303.6797"/><text fill="#000000" font-family="sans-serif" font-size="13" font-weight="bold" lengthAdjust="spacing" textLength="7" x="635" y="298.8232">7</text><text fill="#000000" font-family="sans-serif" font-size="13" lengthAdjust="spacing" textLength="116" x="646" y="298.8232">Remove(warehouse)</text><polygon fill="#181818" points="639,330.0313,629,334.0313,639,338.0313,635,334.0313" style="stroke:#181818;stroke-width:1.0;"/><line style="stroke:#181818;stroke-width:1.0;stroke-dasharray:2.0,2.0;" x1="633" x2="830" y1="334.0313" y2="334.0313"/><text fill="#000000" font-family="sans-serif" font-size="13" font-weight="bold" lengthAdjust="spacing" textLength="7" x="645" y="329.1748">8</text><text fill="#000000" font-family="sans-serif" font-size="13" lengthAdjust="spacing" textLength="4" x="656" y="329.1748"> </text><polygon fill="#181818" points="966,360.3828,976,364.3828,966,368.3828,970,364.3828" style="stroke:#181818;stroke-width:1.0;"/><line style="stroke:#181818;stroke-width:1.0;" x1="628" x2="972" y1="364.3828" y2="364.3828"/><text fill="#000000" font-family="sans-serif" font-size="13" font-weight="bold" lengthAdjust="spacing" textLength="7" x="635" y="359.5264">9</text><text fill="#000000" font-family="sans-serif" font-size="13" lengthAdjust="spacing" textLength="82" x="646" y="359.5264">CommitAsync</text><polygon fill="#181818" points="639,390.7344,629,394.7344,639,398.7344,635,394.7344" style="stroke:#181818;stroke-width:1.0;"/><line style="stroke:#181818;stroke-width:1.0;stroke-dasharray:2.0,2.0;" x1="633" x2="982" y1="394.7344" y2="394.7344"/><text fill="#000000" font-family="sans-serif" font-size="13" font-weight="bold" lengthAdjust="spacing" textLength="14" x="645" y="389.8779">10</text><text fill="#000000" font-family="sans-serif" font-size="13" lengthAdjust="spacing" textLength="4" x="663" y="389.8779"> </text><polygon fill="#181818" points="383,421.0859,373,425.0859,383,429.0859,379,425.0859" style="stroke:#181818;stroke-width:1.0;"/><line style="stroke:#181818;stroke-width:1.0;stroke-dasharray:2.0,2.0;" x1="377" x2="622" y1="425.0859" y2="425.0859"/><text fill="#000000" font-family="sans-serif" font-size="13" font-weight="bold" lengthAdjust="spacing" textLength="14" x="389" y="420.2295">11</text><text fill="#000000" font-family="sans-serif" font-size="13" lengthAdjust="spacing" textLength="204" x="407" y="420.2295">DeletedWarehouse(WarehouseDto)</text><polygon fill="#181818" points="187,451.4375,177,455.4375,187,459.4375,183,455.4375" style="stroke:#181818;stroke-width:1.0;"/><line style="stroke:#181818;stroke-width:1.0;stroke-dasharray:2.0,2.0;" x1="181" x2="366" y1="455.4375" y2="455.4375"/><text fill="#000000" font-family="sans-serif" font-size="13" font-weight="bold" lengthAdjust="spacing" textLength="14" x="193" y="450.5811">12</text><text fill="#000000" font-family="sans-serif" font-size="13" lengthAdjust="spacing" textLength="117" x="211" y="450.5811">Response Code 200</text><!--MD5=[869c5de6bcdfee55761f46461ab007e9]
@startuml USA04_3

title SD - Delete Warehouse

autonumber

participant "API" as API
participant " WarehouseController" as C
participant "Warehouse Service" as S
participant "WarehouseRepository" as R
participant "UnitOfWork" as U

activate API
-> API : DELETE (warehouse_id)
API -> C : HardDelete(warehouse_id)
activate C
C -> S : DeleteAsync(warehouse_id)
activate S
S -> R : GetByIdAsync(WarehouseId)
activate R
R -> R : Fetch(WarehouseId)
R - -> S : Warehouse
deactivate R
S -> R : Remove(warehouse)
activate R
R - -> S
deactivate R
S -> U : CommitAsync
activate U
U - -> S
deactivate U
S - -> C : DeletedWarehouse(WarehouseDto)
deactivate S
C - -> API : Response Code 200
deactivate C
deactivate API
@end

PlantUML version 1.2022.7(Mon Aug 22 18:01:30 WEST 2022)
(GPL source distribution)
Java Runtime: Java(TM) SE Runtime Environment
JVM: Java HotSpot(TM) 64-Bit Server VM
Default Encoding: UTF-8
Language: es
Country: ES
--></g></svg>