<?xml version="1.0" encoding="UTF-8" standalone="no"?><svg xmlns="http://www.w3.org/2000/svg" xmlns:xlink="http://www.w3.org/1999/xlink" contentStyleType="text/css" height="536px" preserveAspectRatio="none" style="width:1027px;height:536px;background:#FFFFFF;" version="1.1" viewBox="0 0 1027 536" width="1027px" zoomAndPan="magnify"><defs/><g><rect fill="none" height="27.6094" id="_title" style="stroke:none;stroke-width:1.0;" width="173" x="426" y="10"/><text fill="#000000" font-family="sans-serif" font-size="14" font-weight="bold" lengthAdjust="spacing" textLength="163" x="431" y="29.5332">SD - Create Warehouse</text><rect fill="#FFFFFF" height="395.2188" style="stroke:#181818;stroke-width:1.0;" width="10" x="163" y="86.2188"/><rect fill="#FFFFFF" height="299.1641" style="stroke:#181818;stroke-width:1.0;" width="10" x="405" y="182.2734"/><rect fill="#FFFFFF" height="195.1094" style="stroke:#181818;stroke-width:1.0;" width="10" x="662" y="255.9766"/><rect fill="#FFFFFF" height="73.7031" style="stroke:#181818;stroke-width:1.0;" width="10" x="836" y="286.3281"/><rect fill="#FFFFFF" height="30.3516" style="stroke:#181818;stroke-width:1.0;" width="10" x="973" y="390.3828"/><line style="stroke:#181818;stroke-width:0.5;stroke-dasharray:5.0,5.0;" x1="167.5" x2="167.5" y1="76.2188" y2="499.4375"/><line style="stroke:#181818;stroke-width:0.5;stroke-dasharray:5.0,5.0;" x1="409.5" x2="409.5" y1="76.2188" y2="499.4375"/><line style="stroke:#181818;stroke-width:0.5;stroke-dasharray:5.0,5.0;" x1="667" x2="667" y1="76.2188" y2="499.4375"/><line style="stroke:#181818;stroke-width:0.5;stroke-dasharray:5.0,5.0;" x1="840.5" x2="840.5" y1="76.2188" y2="499.4375"/><line style="stroke:#181818;stroke-width:0.5;stroke-dasharray:5.0,5.0;" x1="978" x2="978" y1="76.2188" y2="499.4375"/><rect fill="#E2E2F0" height="31.6094" rx="2.5" ry="2.5" style="stroke:#181818;stroke-width:0.5;" width="35" x="150.5" y="43.6094"/><text fill="#000000" font-family="sans-serif" font-size="14" lengthAdjust="spacing" textLength="21" x="157.5" y="65.1426">API</text><rect fill="#E2E2F0" height="31.6094" rx="2.5" ry="2.5" style="stroke:#181818;stroke-width:0.5;" width="35" x="150.5" y="498.4375"/><text fill="#000000" font-family="sans-serif" font-size="14" lengthAdjust="spacing" textLength="21" x="157.5" y="519.9707">API</text><rect fill="#E2E2F0" height="31.6094" rx="2.5" ry="2.5" style="stroke:#181818;stroke-width:0.5;" width="153" x="333.5" y="43.6094"/><text fill="#000000" font-family="sans-serif" font-size="14" lengthAdjust="spacing" textLength="135" x="344.5" y="65.1426">WarehouseController</text><rect fill="#E2E2F0" height="31.6094" rx="2.5" ry="2.5" style="stroke:#181818;stroke-width:0.5;" width="153" x="333.5" y="498.4375"/><text fill="#000000" font-family="sans-serif" font-size="14" lengthAdjust="spacing" textLength="135" x="344.5" y="519.9707">WarehouseController</text><rect fill="#E2E2F0" height="31.6094" rx="2.5" ry="2.5" style="stroke:#181818;stroke-width:0.5;" width="138" x="598" y="43.6094"/><text fill="#000000" font-family="sans-serif" font-size="14" lengthAdjust="spacing" textLength="124" x="605" y="65.1426">Warehouse Service</text><rect fill="#E2E2F0" height="31.6094" rx="2.5" ry="2.5" style="stroke:#181818;stroke-width:0.5;" width="138" x="598" y="498.4375"/><text fill="#000000" font-family="sans-serif" font-size="14" lengthAdjust="spacing" textLength="124" x="605" y="519.9707">Warehouse Service</text><rect fill="#E2E2F0" height="31.6094" rx="2.5" ry="2.5" style="stroke:#181818;stroke-width:0.5;" width="155" x="763.5" y="43.6094"/><text fill="#000000" font-family="sans-serif" font-size="14" lengthAdjust="spacing" textLength="141" x="770.5" y="65.1426">WarehouseRepository</text><rect fill="#E2E2F0" height="31.6094" rx="2.5" ry="2.5" style="stroke:#181818;stroke-width:0.5;" width="155" x="763.5" y="498.4375"/><text fill="#000000" font-family="sans-serif" font-size="14" lengthAdjust="spacing" textLength="141" x="770.5" y="519.9707">WarehouseRepository</text><rect fill="#E2E2F0" height="31.6094" rx="2.5" ry="2.5" style="stroke:#181818;stroke-width:0.5;" width="86" x="935" y="43.6094"/><text fill="#000000" font-family="sans-serif" font-size="14" lengthAdjust="spacing" textLength="72" x="942" y="65.1426">UnitOfWork</text><rect fill="#E2E2F0" height="31.6094" rx="2.5" ry="2.5" style="stroke:#181818;stroke-width:0.5;" width="86" x="935" y="498.4375"/><text fill="#000000" font-family="sans-serif" font-size="14" lengthAdjust="spacing" textLength="72" x="942" y="519.9707">UnitOfWork</text><rect fill="#FFFFFF" height="395.2188" style="stroke:#181818;stroke-width:1.0;" width="10" x="163" y="86.2188"/><rect fill="#FFFFFF" height="299.1641" style="stroke:#181818;stroke-width:1.0;" width="10" x="405" y="182.2734"/><rect fill="#FFFFFF" height="195.1094" style="stroke:#181818;stroke-width:1.0;" width="10" x="662" y="255.9766"/><rect fill="#FFFFFF" height="73.7031" style="stroke:#181818;stroke-width:1.0;" width="10" x="836" y="286.3281"/><rect fill="#FFFFFF" height="30.3516" style="stroke:#181818;stroke-width:1.0;" width="10" x="973" y="390.3828"/><polygon fill="#181818" points="151,104.5703,161,108.5703,151,112.5703,155,108.5703" style="stroke:#181818;stroke-width:1.0;"/><line style="stroke:#181818;stroke-width:1.0;" x1="0" x2="157" y1="108.5703" y2="108.5703"/><text fill="#000000" font-family="sans-serif" font-size="13" font-weight="bold" lengthAdjust="spacing" textLength="7" x="7" y="103.7139">1</text><text fill="#000000" font-family="sans-serif" font-size="13" lengthAdjust="spacing" textLength="133" x="18" y="103.7139">POST (warehouse info)</text><line style="stroke:#181818;stroke-width:1.0;" x1="173" x2="215" y1="138.9219" y2="138.9219"/><line style="stroke:#181818;stroke-width:1.0;" x1="215" x2="215" y1="138.9219" y2="151.9219"/><line style="stroke:#181818;stroke-width:1.0;" x1="174" x2="215" y1="151.9219" y2="151.9219"/><polygon fill="#181818" points="184,147.9219,174,151.9219,184,155.9219,180,151.9219" style="stroke:#181818;stroke-width:1.0;"/><text fill="#000000" font-family="sans-serif" font-size="13" font-weight="bold" lengthAdjust="spacing" textLength="7" x="180" y="134.0654">2</text><text fill="#000000" font-family="sans-serif" font-size="13" lengthAdjust="spacing" textLength="207" x="191" y="134.0654">new WarehouseDto(warehouse info)</text><polygon fill="#181818" points="393,178.2734,403,182.2734,393,186.2734,397,182.2734" style="stroke:#181818;stroke-width:1.0;"/><line style="stroke:#181818;stroke-width:1.0;" x1="173" x2="399" y1="182.2734" y2="182.2734"/><text fill="#000000" font-family="sans-serif" font-size="13" font-weight="bold" lengthAdjust="spacing" textLength="7" x="180" y="177.417">3</text><text fill="#000000" font-family="sans-serif" font-size="13" lengthAdjust="spacing" textLength="132" x="191" y="177.417">Create(WarehouseDto)</text><line style="stroke:#181818;stroke-width:1.0;" x1="415" x2="457" y1="212.625" y2="212.625"/><line style="stroke:#181818;stroke-width:1.0;" x1="457" x2="457" y1="212.625" y2="225.625"/><line style="stroke:#181818;stroke-width:1.0;" x1="416" x2="457" y1="225.625" y2="225.625"/><polygon fill="#181818" points="426,221.625,416,225.625,426,229.625,422,225.625" style="stroke:#181818;stroke-width:1.0;"/><text fill="#000000" font-family="sans-serif" font-size="13" font-weight="bold" lengthAdjust="spacing" textLength="7" x="422" y="207.7686">4</text><text fill="#000000" font-family="sans-serif" font-size="13" lengthAdjust="spacing" textLength="180" x="433" y="207.7686">new Warehouse(WrehouseDto)</text><polygon fill="#181818" points="650,251.9766,660,255.9766,650,259.9766,654,255.9766" style="stroke:#181818;stroke-width:1.0;"/><line style="stroke:#181818;stroke-width:1.0;" x1="415" x2="656" y1="255.9766" y2="255.9766"/><text fill="#000000" font-family="sans-serif" font-size="13" font-weight="bold" lengthAdjust="spacing" textLength="7" x="422" y="251.1201">5</text><text fill="#000000" font-family="sans-serif" font-size="13" lengthAdjust="spacing" textLength="134" x="433" y="251.1201">AddAsync(Warehouse)</text><polygon fill="#181818" points="824,282.3281,834,286.3281,824,290.3281,828,286.3281" style="stroke:#181818;stroke-width:1.0;"/><line style="stroke:#181818;stroke-width:1.0;" x1="672" x2="830" y1="286.3281" y2="286.3281"/><text fill="#000000" font-family="sans-serif" font-size="13" font-weight="bold" lengthAdjust="spacing" textLength="7" x="679" y="281.4717">6</text><text fill="#000000" font-family="sans-serif" font-size="13" lengthAdjust="spacing" textLength="134" x="690" y="281.4717">AddAsync(Warehouse)</text><line style="stroke:#181818;stroke-width:1.0;" x1="846" x2="888" y1="316.6797" y2="316.6797"/><line style="stroke:#181818;stroke-width:1.0;" x1="888" x2="888" y1="316.6797" y2="329.6797"/><line style="stroke:#181818;stroke-width:1.0;" x1="847" x2="888" y1="329.6797" y2="329.6797"/><polygon fill="#181818" points="857,325.6797,847,329.6797,857,333.6797,853,329.6797" style="stroke:#181818;stroke-width:1.0;"/><text fill="#000000" font-family="sans-serif" font-size="13" font-weight="bold" lengthAdjust="spacing" textLength="7" x="853" y="311.8232">7</text><text fill="#000000" font-family="sans-serif" font-size="13" lengthAdjust="spacing" textLength="102" x="864" y="311.8232">Save(Warehouse)</text><polygon fill="#181818" points="683,356.0313,673,360.0313,683,364.0313,679,360.0313" style="stroke:#181818;stroke-width:1.0;"/><line style="stroke:#181818;stroke-width:1.0;stroke-dasharray:2.0,2.0;" x1="677" x2="840" y1="360.0313" y2="360.0313"/><text fill="#000000" font-family="sans-serif" font-size="13" font-weight="bold" lengthAdjust="spacing" textLength="7" x="689" y="355.1748">8</text><text fill="#000000" font-family="sans-serif" font-size="13" lengthAdjust="spacing" textLength="4" x="700" y="355.1748"> </text><polygon fill="#181818" points="961,386.3828,971,390.3828,961,394.3828,965,390.3828" style="stroke:#181818;stroke-width:1.0;"/><line style="stroke:#181818;stroke-width:1.0;" x1="672" x2="967" y1="390.3828" y2="390.3828"/><text fill="#000000" font-family="sans-serif" font-size="13" font-weight="bold" lengthAdjust="spacing" textLength="7" x="679" y="385.5264">9</text><text fill="#000000" font-family="sans-serif" font-size="13" lengthAdjust="spacing" textLength="82" x="690" y="385.5264">CommitAsync</text><polygon fill="#181818" points="683,416.7344,673,420.7344,683,424.7344,679,420.7344" style="stroke:#181818;stroke-width:1.0;"/><line style="stroke:#181818;stroke-width:1.0;stroke-dasharray:2.0,2.0;" x1="677" x2="977" y1="420.7344" y2="420.7344"/><text fill="#000000" font-family="sans-serif" font-size="13" font-weight="bold" lengthAdjust="spacing" textLength="14" x="689" y="415.8779">10</text><text fill="#000000" font-family="sans-serif" font-size="13" lengthAdjust="spacing" textLength="4" x="707" y="415.8779"> </text><polygon fill="#181818" points="426,447.0859,416,451.0859,426,455.0859,422,451.0859" style="stroke:#181818;stroke-width:1.0;"/><line style="stroke:#181818;stroke-width:1.0;stroke-dasharray:2.0,2.0;" x1="420" x2="666" y1="451.0859" y2="451.0859"/><text fill="#000000" font-family="sans-serif" font-size="13" font-weight="bold" lengthAdjust="spacing" textLength="14" x="432" y="446.2295">11</text><text fill="#000000" font-family="sans-serif" font-size="13" lengthAdjust="spacing" textLength="205" x="450" y="446.2295">WarehouseCreated(WarehouseDto)</text><polygon fill="#181818" points="179,477.4375,169,481.4375,179,485.4375,175,481.4375" style="stroke:#181818;stroke-width:1.0;"/><line style="stroke:#181818;stroke-width:1.0;stroke-dasharray:2.0,2.0;" x1="173" x2="409" y1="481.4375" y2="481.4375"/><text fill="#000000" font-family="sans-serif" font-size="13" font-weight="bold" lengthAdjust="spacing" textLength="14" x="185" y="476.5811">12</text><text fill="#000000" font-family="sans-serif" font-size="13" lengthAdjust="spacing" textLength="117" x="203" y="476.5811">Response Code 200</text><!--MD5=[db06fc07d380a5640153e185b916f3c4]
@startuml USA01_3

title SD - Create Warehouse

autonumber

participant "API" as API
participant " WarehouseController" as C
participant "Warehouse Service" as S
participant "WarehouseRepository" as R
participant "UnitOfWork" as U

activate API
 -> API : POST (warehouse info)
 API -> API : new WarehouseDto(warehouse info)
API -> C : Create(WarehouseDto)
activate C
C -> C : new Warehouse(WrehouseDto)
C -> S : AddAsync(Warehouse)
activate S
S -> R : AddAsync(Warehouse)
activate R
R -> R : Save(Warehouse)
R - -> S
deactivate R
S -> U : CommitAsync
activate U
U - -> S
deactivate U 
S - -> C : WarehouseCreated(WarehouseDto)
deactivate S
C - -> API : Response Code 200
deactivate C
deactivate API
@end

PlantUML version 1.2022.7(Mon Aug 22 18:01:30 WEST 2022)
(GPL source distribution)
Java Runtime: Java(TM) SE Runtime Environment
JVM: Java HotSpot(TM) 64-Bit Server VM
Default Encoding: UTF-8
Language: es
Country: ES
--></g></svg>