<?xml version="1.0" encoding="UTF-8" standalone="no"?><svg xmlns="http://www.w3.org/2000/svg" xmlns:xlink="http://www.w3.org/1999/xlink" contentStyleType="text/css" height="648px" preserveAspectRatio="none" style="width:1376px;height:648px;background:#FFFFFF;" version="1.1" viewBox="0 0 1376 648" width="1376px" zoomAndPan="magnify"><defs/><g><rect fill="none" height="27.6094" id="_title" style="stroke:none;stroke-width:1.0;" width="200" x="587.25" y="10"/><text fill="#000000" font-family="sans-serif" font-size="14" font-weight="bold" lengthAdjust="spacing" textLength="190" x="592.25" y="29.5332">Lvl 3 - List Route Plannings</text><rect fill="#FFFFFF" height="416.9219" style="stroke:#181818;stroke-width:1.0;" width="10" x="60.5" y="131.2188"/><rect fill="#FFFFFF" height="273.1641" style="stroke:#181818;stroke-width:1.0;" width="10" x="479.5" y="153.5703"/><rect fill="#FFFFFF" height="91.0547" style="stroke:#181818;stroke-width:1.0;" width="10" x="479.5" y="457.0859"/><rect fill="#FFFFFF" height="212.4609" style="stroke:#181818;stroke-width:1.0;" width="10" x="641.5" y="183.9219"/><rect fill="#FFFFFF" height="151.7578" style="stroke:#181818;stroke-width:1.0;" width="10" x="803.5" y="214.2734"/><rect fill="#FFFFFF" height="30.3516" style="stroke:#181818;stroke-width:1.0;" width="10" x="965.5" y="244.625"/><rect fill="#FFFFFF" height="30.3516" style="stroke:#181818;stroke-width:1.0;" width="10" x="1127.5" y="305.3281"/><rect fill="#FFFFFF" height="30.3516" style="stroke:#181818;stroke-width:1.0;" width="10" x="1289.5" y="487.4375"/><line style="stroke:#181818;stroke-width:0.5;stroke-dasharray:5.0,5.0;" x1="65" x2="65" y1="121.2188" y2="566.1406"/><line style="stroke:#181818;stroke-width:0.5;stroke-dasharray:5.0,5.0;" x1="484.5" x2="484.5" y1="121.2188" y2="566.1406"/><line style="stroke:#181818;stroke-width:0.5;stroke-dasharray:5.0,5.0;" x1="646.5" x2="646.5" y1="121.2188" y2="566.1406"/><line style="stroke:#181818;stroke-width:0.5;stroke-dasharray:5.0,5.0;" x1="808.5" x2="808.5" y1="121.2188" y2="566.1406"/><line style="stroke:#181818;stroke-width:0.5;stroke-dasharray:5.0,5.0;" x1="970.5" x2="970.5" y1="121.2188" y2="566.1406"/><line style="stroke:#181818;stroke-width:0.5;stroke-dasharray:5.0,5.0;" x1="1132.5" x2="1132.5" y1="121.2188" y2="566.1406"/><line style="stroke:#181818;stroke-width:0.5;stroke-dasharray:5.0,5.0;" x1="1294.5" x2="1294.5" y1="121.2188" y2="566.1406"/><text fill="#000000" font-family="sans-serif" font-size="14" lengthAdjust="spacing" textLength="115" x="5" y="118.1426">Logistics Manager</text><ellipse cx="65.5" cy="52.1094" fill="#E2E2F0" rx="8" ry="8" style="stroke:#181818;stroke-width:0.5;"/><path d="M65.5,60.1094 L65.5,87.1094 M52.5,68.1094 L78.5,68.1094 M65.5,87.1094 L52.5,102.1094 M65.5,87.1094 L78.5,102.1094 " fill="none" style="stroke:#181818;stroke-width:0.5;"/><text fill="#000000" font-family="sans-serif" font-size="14" lengthAdjust="spacing" textLength="115" x="5" y="579.6738">Logistics Manager</text><ellipse cx="65.5" cy="591.25" fill="#E2E2F0" rx="8" ry="8" style="stroke:#181818;stroke-width:0.5;"/><path d="M65.5,599.25 L65.5,626.25 M52.5,607.25 L78.5,607.25 M65.5,626.25 L52.5,641.25 M65.5,626.25 L78.5,641.25 " fill="none" style="stroke:#181818;stroke-width:0.5;"/><rect fill="#E2E2F0" height="49.2188" rx="2.5" ry="2.5" style="stroke:#181818;stroke-width:0.5;" width="152" x="408.5" y="71"/><text fill="#000000" font-family="sans-serif" font-size="14" lengthAdjust="spacing" textLength="134" x="415.5" y="92.5332">&lt;&lt; Container (C4) &gt;&gt;</text><text fill="#000000" font-family="sans-serif" font-size="14" lengthAdjust="spacing" textLength="27" x="473" y="110.1426">SPA</text><rect fill="#E2E2F0" height="49.2188" rx="2.5" ry="2.5" style="stroke:#181818;stroke-width:0.5;" width="152" x="408.5" y="565.1406"/><text fill="#000000" font-family="sans-serif" font-size="14" lengthAdjust="spacing" textLength="134" x="415.5" y="586.6738">&lt;&lt; Container (C4) &gt;&gt;</text><text fill="#000000" font-family="sans-serif" font-size="14" lengthAdjust="spacing" textLength="27" x="473" y="604.2832">SPA</text><rect fill="#E2E2F0" height="49.2188" rx="2.5" ry="2.5" style="stroke:#181818;stroke-width:0.5;" width="152" x="570.5" y="71"/><text fill="#000000" font-family="sans-serif" font-size="14" lengthAdjust="spacing" textLength="134" x="577.5" y="92.5332">&lt;&lt; Container (C4) &gt;&gt;</text><text fill="#000000" font-family="sans-serif" font-size="14" lengthAdjust="spacing" textLength="77" x="610" y="110.1426">:Component</text><rect fill="#E2E2F0" height="49.2188" rx="2.5" ry="2.5" style="stroke:#181818;stroke-width:0.5;" width="152" x="570.5" y="565.1406"/><text fill="#000000" font-family="sans-serif" font-size="14" lengthAdjust="spacing" textLength="134" x="577.5" y="586.6738">&lt;&lt; Container (C4) &gt;&gt;</text><text fill="#000000" font-family="sans-serif" font-size="14" lengthAdjust="spacing" textLength="77" x="610" y="604.2832">:Component</text><rect fill="#E2E2F0" height="49.2188" rx="2.5" ry="2.5" style="stroke:#181818;stroke-width:0.5;" width="152" x="732.5" y="71"/><text fill="#000000" font-family="sans-serif" font-size="14" lengthAdjust="spacing" textLength="134" x="739.5" y="92.5332">&lt;&lt; Container (C4) &gt;&gt;</text><text fill="#000000" font-family="sans-serif" font-size="14" lengthAdjust="spacing" textLength="51" x="785" y="110.1426">:Service</text><rect fill="#E2E2F0" height="49.2188" rx="2.5" ry="2.5" style="stroke:#181818;stroke-width:0.5;" width="152" x="732.5" y="565.1406"/><text fill="#000000" font-family="sans-serif" font-size="14" lengthAdjust="spacing" textLength="134" x="739.5" y="586.6738">&lt;&lt; Container (C4) &gt;&gt;</text><text fill="#000000" font-family="sans-serif" font-size="14" lengthAdjust="spacing" textLength="51" x="785" y="604.2832">:Service</text><rect fill="#E2E2F0" height="49.2188" rx="2.5" ry="2.5" style="stroke:#181818;stroke-width:0.5;" width="152" x="894.5" y="71"/><text fill="#000000" font-family="sans-serif" font-size="14" lengthAdjust="spacing" textLength="134" x="901.5" y="92.5332">&lt;&lt; Container (C4) &gt;&gt;</text><text fill="#000000" font-family="sans-serif" font-size="14" lengthAdjust="spacing" textLength="34" x="955.5" y="110.1426">:DTO</text><rect fill="#E2E2F0" height="49.2188" rx="2.5" ry="2.5" style="stroke:#181818;stroke-width:0.5;" width="152" x="894.5" y="565.1406"/><text fill="#000000" font-family="sans-serif" font-size="14" lengthAdjust="spacing" textLength="134" x="901.5" y="586.6738">&lt;&lt; Container (C4) &gt;&gt;</text><text fill="#000000" font-family="sans-serif" font-size="14" lengthAdjust="spacing" textLength="34" x="955.5" y="604.2832">:DTO</text><rect fill="#E2E2F0" height="49.2188" rx="2.5" ry="2.5" style="stroke:#181818;stroke-width:0.5;" width="152" x="1056.5" y="71"/><text fill="#000000" font-family="sans-serif" font-size="14" lengthAdjust="spacing" textLength="134" x="1063.5" y="92.5332">&lt;&lt; Container (C4) &gt;&gt;</text><text fill="#000000" font-family="sans-serif" font-size="14" lengthAdjust="spacing" textLength="101" x="1084" y="110.1426">LogisticsModule</text><rect fill="#E2E2F0" height="49.2188" rx="2.5" ry="2.5" style="stroke:#181818;stroke-width:0.5;" width="152" x="1056.5" y="565.1406"/><text fill="#000000" font-family="sans-serif" font-size="14" lengthAdjust="spacing" textLength="134" x="1063.5" y="586.6738">&lt;&lt; Container (C4) &gt;&gt;</text><text fill="#000000" font-family="sans-serif" font-size="14" lengthAdjust="spacing" textLength="101" x="1084" y="604.2832">LogisticsModule</text><rect fill="#E2E2F0" height="49.2188" rx="2.5" ry="2.5" style="stroke:#181818;stroke-width:0.5;" width="152" x="1218.5" y="71"/><text fill="#000000" font-family="sans-serif" font-size="14" lengthAdjust="spacing" textLength="134" x="1225.5" y="92.5332">&lt;&lt; Container (C4) &gt;&gt;</text><text fill="#000000" font-family="sans-serif" font-size="14" lengthAdjust="spacing" textLength="101" x="1246" y="110.1426">PlanningModule</text><rect fill="#E2E2F0" height="49.2188" rx="2.5" ry="2.5" style="stroke:#181818;stroke-width:0.5;" width="152" x="1218.5" y="565.1406"/><text fill="#000000" font-family="sans-serif" font-size="14" lengthAdjust="spacing" textLength="134" x="1225.5" y="586.6738">&lt;&lt; Container (C4) &gt;&gt;</text><text fill="#000000" font-family="sans-serif" font-size="14" lengthAdjust="spacing" textLength="101" x="1246" y="604.2832">PlanningModule</text><rect fill="#FFFFFF" height="416.9219" style="stroke:#181818;stroke-width:1.0;" width="10" x="60.5" y="131.2188"/><rect fill="#FFFFFF" height="273.1641" style="stroke:#181818;stroke-width:1.0;" width="10" x="479.5" y="153.5703"/><rect fill="#FFFFFF" height="91.0547" style="stroke:#181818;stroke-width:1.0;" width="10" x="479.5" y="457.0859"/><rect fill="#FFFFFF" height="212.4609" style="stroke:#181818;stroke-width:1.0;" width="10" x="641.5" y="183.9219"/><rect fill="#FFFFFF" height="151.7578" style="stroke:#181818;stroke-width:1.0;" width="10" x="803.5" y="214.2734"/><rect fill="#FFFFFF" height="30.3516" style="stroke:#181818;stroke-width:1.0;" width="10" x="965.5" y="244.625"/><rect fill="#FFFFFF" height="30.3516" style="stroke:#181818;stroke-width:1.0;" width="10" x="1127.5" y="305.3281"/><rect fill="#FFFFFF" height="30.3516" style="stroke:#181818;stroke-width:1.0;" width="10" x="1289.5" y="487.4375"/><polygon fill="#181818" points="467.5,149.5703,477.5,153.5703,467.5,157.5703,471.5,153.5703" style="stroke:#181818;stroke-width:1.0;"/><line style="stroke:#181818;stroke-width:1.0;" x1="70.5" x2="473.5" y1="153.5703" y2="153.5703"/><text fill="#000000" font-family="sans-serif" font-size="13" font-weight="bold" lengthAdjust="spacing" textLength="7" x="77.5" y="148.7139">1</text><text fill="#000000" font-family="sans-serif" font-size="13" lengthAdjust="spacing" textLength="244" x="88.5" y="148.7139">Selects the option to List Route Plannings</text><polygon fill="#181818" points="629.5,179.9219,639.5,183.9219,629.5,187.9219,633.5,183.9219" style="stroke:#181818;stroke-width:1.0;"/><line style="stroke:#181818;stroke-width:1.0;" x1="489.5" x2="635.5" y1="183.9219" y2="183.9219"/><text fill="#000000" font-family="sans-serif" font-size="13" font-weight="bold" lengthAdjust="spacing" textLength="7" x="496.5" y="179.0654">2</text><text fill="#000000" font-family="sans-serif" font-size="13" lengthAdjust="spacing" textLength="71" x="507.5" y="179.0654">listTruckss()</text><polygon fill="#181818" points="791.5,210.2734,801.5,214.2734,791.5,218.2734,795.5,214.2734" style="stroke:#181818;stroke-width:1.0;"/><line style="stroke:#181818;stroke-width:1.0;" x1="651.5" x2="797.5" y1="214.2734" y2="214.2734"/><text fill="#000000" font-family="sans-serif" font-size="13" font-weight="bold" lengthAdjust="spacing" textLength="7" x="658.5" y="209.417">3</text><text fill="#000000" font-family="sans-serif" font-size="13" lengthAdjust="spacing" textLength="65" x="669.5" y="209.417">getTrucks()</text><polygon fill="#181818" points="953.5,240.625,963.5,244.625,953.5,248.625,957.5,244.625" style="stroke:#181818;stroke-width:1.0;"/><line style="stroke:#181818;stroke-width:1.0;" x1="813.5" x2="959.5" y1="244.625" y2="244.625"/><text fill="#000000" font-family="sans-serif" font-size="13" font-weight="bold" lengthAdjust="spacing" textLength="7" x="820.5" y="239.7686">4</text><text fill="#000000" font-family="sans-serif" font-size="13" lengthAdjust="spacing" textLength="44" x="831.5" y="239.7686">trucks()</text><polygon fill="#181818" points="824.5,270.9766,814.5,274.9766,824.5,278.9766,820.5,274.9766" style="stroke:#181818;stroke-width:1.0;"/><line style="stroke:#181818;stroke-width:1.0;stroke-dasharray:2.0,2.0;" x1="818.5" x2="969.5" y1="274.9766" y2="274.9766"/><text fill="#000000" font-family="sans-serif" font-size="13" font-weight="bold" lengthAdjust="spacing" textLength="7" x="830.5" y="270.1201">5</text><text fill="#000000" font-family="sans-serif" font-size="13" lengthAdjust="spacing" textLength="81" x="841.5" y="270.1201">return trucks()</text><polygon fill="#181818" points="1115.5,301.3281,1125.5,305.3281,1115.5,309.3281,1119.5,305.3281" style="stroke:#181818;stroke-width:1.0;"/><line style="stroke:#181818;stroke-width:1.0;" x1="813.5" x2="1121.5" y1="305.3281" y2="305.3281"/><text fill="#000000" font-family="sans-serif" font-size="13" font-weight="bold" lengthAdjust="spacing" textLength="7" x="820.5" y="300.4717">6</text><text fill="#000000" font-family="sans-serif" font-size="13" lengthAdjust="spacing" textLength="91" x="831.5" y="300.4717">GET /api/trucks</text><polygon fill="#181818" points="824.5,331.6797,814.5,335.6797,824.5,339.6797,820.5,335.6797" style="stroke:#181818;stroke-width:1.0;"/><line style="stroke:#181818;stroke-width:1.0;stroke-dasharray:2.0,2.0;" x1="818.5" x2="1131.5" y1="335.6797" y2="335.6797"/><text fill="#000000" font-family="sans-serif" font-size="13" font-weight="bold" lengthAdjust="spacing" textLength="7" x="830.5" y="330.8232">7</text><text fill="#000000" font-family="sans-serif" font-size="13" lengthAdjust="spacing" textLength="111" x="841.5" y="330.8232">listOfTrucks(JSON)</text><polygon fill="#181818" points="662.5,362.0313,652.5,366.0313,662.5,370.0313,658.5,366.0313" style="stroke:#181818;stroke-width:1.0;"/><line style="stroke:#181818;stroke-width:1.0;stroke-dasharray:2.0,2.0;" x1="656.5" x2="807.5" y1="366.0313" y2="366.0313"/><text fill="#000000" font-family="sans-serif" font-size="13" font-weight="bold" lengthAdjust="spacing" textLength="7" x="668.5" y="361.1748">8</text><text fill="#000000" font-family="sans-serif" font-size="13" lengthAdjust="spacing" textLength="111" x="679.5" y="361.1748">listOfTrucks(JSON)</text><polygon fill="#181818" points="500.5,392.3828,490.5,396.3828,500.5,400.3828,496.5,396.3828" style="stroke:#181818;stroke-width:1.0;"/><line style="stroke:#181818;stroke-width:1.0;stroke-dasharray:2.0,2.0;" x1="494.5" x2="645.5" y1="396.3828" y2="396.3828"/><text fill="#000000" font-family="sans-serif" font-size="13" font-weight="bold" lengthAdjust="spacing" textLength="7" x="506.5" y="391.5264">9</text><text fill="#000000" font-family="sans-serif" font-size="13" lengthAdjust="spacing" textLength="111" x="517.5" y="391.5264">listOfTrucks(JSON)</text><polygon fill="#181818" points="81.5,422.7344,71.5,426.7344,81.5,430.7344,77.5,426.7344" style="stroke:#181818;stroke-width:1.0;"/><line style="stroke:#181818;stroke-width:1.0;stroke-dasharray:2.0,2.0;" x1="75.5" x2="483.5" y1="426.7344" y2="426.7344"/><text fill="#000000" font-family="sans-serif" font-size="13" font-weight="bold" lengthAdjust="spacing" textLength="14" x="87.5" y="421.8779">10</text><text fill="#000000" font-family="sans-serif" font-size="13" lengthAdjust="spacing" textLength="331" x="105.5" y="421.8779">Ask for the LicensePlate from the presented list and Date</text><polygon fill="#181818" points="467.5,453.0859,477.5,457.0859,467.5,461.0859,471.5,457.0859" style="stroke:#181818;stroke-width:1.0;"/><line style="stroke:#181818;stroke-width:1.0;" x1="70.5" x2="473.5" y1="457.0859" y2="457.0859"/><text fill="#000000" font-family="sans-serif" font-size="13" font-weight="bold" lengthAdjust="spacing" textLength="14" x="77.5" y="452.2295">11</text><text fill="#000000" font-family="sans-serif" font-size="13" lengthAdjust="spacing" textLength="311" x="95.5" y="452.2295">Selects the necessary data and click calculate button</text><polygon fill="#181818" points="1277.5,483.4375,1287.5,487.4375,1277.5,491.4375,1281.5,487.4375" style="stroke:#181818;stroke-width:1.0;"/><line style="stroke:#181818;stroke-width:1.0;" x1="489.5" x2="1283.5" y1="487.4375" y2="487.4375"/><text fill="#000000" font-family="sans-serif" font-size="13" font-weight="bold" lengthAdjust="spacing" textLength="14" x="496.5" y="482.5811">12</text><text fill="#000000" font-family="sans-serif" font-size="13" lengthAdjust="spacing" textLength="286" x="514.5" y="482.5811">GET /fastestSequence(date, licensePlate in URL)</text><polygon fill="#181818" points="500.5,513.7891,490.5,517.7891,500.5,521.7891,496.5,517.7891" style="stroke:#181818;stroke-width:1.0;"/><line style="stroke:#181818;stroke-width:1.0;" x1="494.5" x2="1293.5" y1="517.7891" y2="517.7891"/><text fill="#000000" font-family="sans-serif" font-size="13" font-weight="bold" lengthAdjust="spacing" textLength="14" x="506.5" y="512.9326">13</text><text fill="#000000" font-family="sans-serif" font-size="13" lengthAdjust="spacing" textLength="278" x="524.5" y="512.9326">Sequence of Cities and Necessary Time (JSON)</text><polygon fill="#181818" points="76.5,544.1406,66.5,548.1406,76.5,552.1406,72.5,548.1406" style="stroke:#181818;stroke-width:1.0;"/><line style="stroke:#181818;stroke-width:1.0;stroke-dasharray:2.0,2.0;" x1="70.5" x2="483.5" y1="548.1406" y2="548.1406"/><text fill="#000000" font-family="sans-serif" font-size="13" font-weight="bold" lengthAdjust="spacing" textLength="14" x="82.5" y="543.2842">14</text><text fill="#000000" font-family="sans-serif" font-size="13" lengthAdjust="spacing" textLength="367" x="100.5" y="543.2842">Show the list of sequence of cities and necessary time for a trip</text><!--MD5=[d5860d8745af35416c53bb5518fed444]
@startuml US

title Lvl 3 - List Route Plannings

autonumber

actor "Logistics Manager" as LM
participant "<< Container (C4) >> \n SPA" as S
participant "<< Container (C4) >> \n :Component" as C
participant "<< Container (C4) >> \n :Service" as SV
participant "<< Container (C4) >> \n :DTO" as DTO
participant "<< Container (C4) >> \n LogisticsModule" as LMD
participant "<< Container (C4) >> \n PlanningModule" as PMD


activate LM
LM -> S : Selects the option to List Route Plannings
activate S

S -> C : listTruckss()
activate C

C -> SV : getTrucks()
activate SV

SV -> DTO : trucks()
activate DTO

DTO - -> SV : return trucks()
deactivate DTO

SV -> LMD : GET /api/trucks
activate LMD

LMD - -> SV : listOfTrucks(JSON)
deactivate LMD

SV - -> C : listOfTrucks(JSON)
deactivate SV

C - -> S : listOfTrucks(JSON)
deactivate C

S - -> LM : Ask for the LicensePlate from the presented list and Date
deactivate S

LM -> S : Selects the necessary data and click calculate button
activate S

S -> PMD : GET /fastestSequence(date, licensePlate in URL)
activate PMD

PMD -> S : Sequence of Cities and Necessary Time (JSON)
deactivate PMD

S - -> LM : Show the list of sequence of cities and necessary time for a trip
deactivate S
deactivate LM

@enduml

PlantUML version 1.2022.7(Mon Aug 22 18:01:30 WEST 2022)
(GPL source distribution)
Java Runtime: Java(TM) SE Runtime Environment
JVM: Java HotSpot(TM) 64-Bit Server VM
Default Encoding: Cp1252
Language: pt
Country: PT
--></g></svg>