<?xml version="1.0" encoding="UTF-8" standalone="no"?><svg xmlns="http://www.w3.org/2000/svg" xmlns:xlink="http://www.w3.org/1999/xlink" contentStyleType="text/css" height="423px" preserveAspectRatio="none" style="width:571px;height:423px;background:#FFFFFF;" version="1.1" viewBox="0 0 571 423" width="571px" zoomAndPan="magnify"><defs/><g><rect fill="none" height="27.6094" id="_title" style="stroke:none;stroke-width:1.0;" width="132" x="221" y="10"/><text fill="#000000" font-family="sans-serif" font-size="14" font-weight="bold" lengthAdjust="spacing" textLength="122" x="226" y="29.5332">Lvl 2 - List Trucks</text><rect fill="#FFFFFF" height="156.7578" style="stroke:#181818;stroke-width:1.0;" width="10" x="49" y="148.8281"/><rect fill="#FFFFFF" height="134.4063" style="stroke:#181818;stroke-width:1.0;" width="10" x="263" y="171.1797"/><rect fill="#FFFFFF" height="30.3516" style="stroke:#181818;stroke-width:1.0;" width="10" x="509" y="201.5313"/><line style="stroke:#181818;stroke-width:0.5;stroke-dasharray:5.0,5.0;" x1="54" x2="54" y1="138.8281" y2="323.5859"/><line style="stroke:#181818;stroke-width:0.5;stroke-dasharray:5.0,5.0;" x1="268" x2="268" y1="138.8281" y2="323.5859"/><line style="stroke:#181818;stroke-width:0.5;stroke-dasharray:5.0,5.0;" x1="514" x2="514" y1="138.8281" y2="323.5859"/><text fill="#000000" font-family="sans-serif" font-size="14" lengthAdjust="spacing" textLength="92" x="5" y="135.752">Fleet Manager</text><ellipse cx="54" cy="69.7188" fill="#E2E2F0" rx="8" ry="8" style="stroke:#181818;stroke-width:0.5;"/><path d="M54,77.7188 L54,104.7188 M41,85.7188 L67,85.7188 M54,104.7188 L41,119.7188 M54,104.7188 L67,119.7188 " fill="none" style="stroke:#181818;stroke-width:0.5;"/><text fill="#000000" font-family="sans-serif" font-size="14" lengthAdjust="spacing" textLength="92" x="5" y="337.1191">Fleet Manager</text><ellipse cx="54" cy="348.6953" fill="#E2E2F0" rx="8" ry="8" style="stroke:#181818;stroke-width:0.5;"/><path d="M54,356.6953 L54,383.6953 M41,364.6953 L67,364.6953 M54,383.6953 L41,398.6953 M54,383.6953 L67,398.6953 " fill="none" style="stroke:#181818;stroke-width:0.5;"/><text fill="#000000" font-family="sans-serif" font-size="14" lengthAdjust="spacing" textLength="102" x="212" y="118.1426">&lt;&lt; Container &gt;&gt;</text><text fill="#000000" font-family="sans-serif" font-size="14" lengthAdjust="spacing" textLength="97" x="218.5" y="135.752">Visual Interface</text><ellipse cx="268" cy="52.1094" fill="#E2E2F0" rx="8" ry="8" style="stroke:#181818;stroke-width:0.5;"/><path d="M268,60.1094 L268,87.1094 M255,68.1094 L281,68.1094 M268,87.1094 L255,102.1094 M268,87.1094 L281,102.1094 " fill="none" style="stroke:#181818;stroke-width:0.5;"/><text fill="#000000" font-family="sans-serif" font-size="14" lengthAdjust="spacing" textLength="102" x="212" y="337.1191">&lt;&lt; Container &gt;&gt;</text><text fill="#000000" font-family="sans-serif" font-size="14" lengthAdjust="spacing" textLength="97" x="218.5" y="354.7285">Visual Interface</text><ellipse cx="268" cy="366.3047" fill="#E2E2F0" rx="8" ry="8" style="stroke:#181818;stroke-width:0.5;"/><path d="M268,374.3047 L268,401.3047 M255,382.3047 L281,382.3047 M268,401.3047 L255,416.3047 M268,401.3047 L281,416.3047 " fill="none" style="stroke:#181818;stroke-width:0.5;"/><text fill="#000000" font-family="sans-serif" font-size="14" lengthAdjust="spacing" textLength="102" x="458" y="118.1426">&lt;&lt; Container &gt;&gt;</text><text fill="#000000" font-family="sans-serif" font-size="14" lengthAdjust="spacing" textLength="55" x="485.5" y="135.752">Logistics</text><ellipse cx="514" cy="52.1094" fill="#E2E2F0" rx="8" ry="8" style="stroke:#181818;stroke-width:0.5;"/><path d="M514,60.1094 L514,87.1094 M501,68.1094 L527,68.1094 M514,87.1094 L501,102.1094 M514,87.1094 L527,102.1094 " fill="none" style="stroke:#181818;stroke-width:0.5;"/><text fill="#000000" font-family="sans-serif" font-size="14" lengthAdjust="spacing" textLength="102" x="458" y="337.1191">&lt;&lt; Container &gt;&gt;</text><text fill="#000000" font-family="sans-serif" font-size="14" lengthAdjust="spacing" textLength="55" x="485.5" y="354.7285">Logistics</text><ellipse cx="514" cy="366.3047" fill="#E2E2F0" rx="8" ry="8" style="stroke:#181818;stroke-width:0.5;"/><path d="M514,374.3047 L514,401.3047 M501,382.3047 L527,382.3047 M514,401.3047 L501,416.3047 M514,401.3047 L527,416.3047 " fill="none" style="stroke:#181818;stroke-width:0.5;"/><rect fill="#FFFFFF" height="156.7578" style="stroke:#181818;stroke-width:1.0;" width="10" x="49" y="148.8281"/><rect fill="#FFFFFF" height="134.4063" style="stroke:#181818;stroke-width:1.0;" width="10" x="263" y="171.1797"/><rect fill="#FFFFFF" height="30.3516" style="stroke:#181818;stroke-width:1.0;" width="10" x="509" y="201.5313"/><polygon fill="#181818" points="251,167.1797,261,171.1797,251,175.1797,255,171.1797" style="stroke:#181818;stroke-width:1.0;"/><line style="stroke:#181818;stroke-width:1.0;" x1="59" x2="257" y1="171.1797" y2="171.1797"/><text fill="#000000" font-family="sans-serif" font-size="13" font-weight="bold" lengthAdjust="spacing" textLength="7" x="66" y="166.3232">1</text><text fill="#000000" font-family="sans-serif" font-size="13" lengthAdjust="spacing" textLength="174" x="77" y="166.3232">Asks to view the list of trucks.</text><polygon fill="#181818" points="497,197.5313,507,201.5313,497,205.5313,501,201.5313" style="stroke:#181818;stroke-width:1.0;"/><line style="stroke:#181818;stroke-width:1.0;" x1="273" x2="503" y1="201.5313" y2="201.5313"/><text fill="#000000" font-family="sans-serif" font-size="13" font-weight="bold" lengthAdjust="spacing" textLength="7" x="280" y="196.6748">2</text><text fill="#000000" font-family="sans-serif" font-size="13" lengthAdjust="spacing" textLength="70" x="291" y="196.6748">GET /trucks</text><polygon fill="#181818" points="284,227.8828,274,231.8828,284,235.8828,280,231.8828" style="stroke:#181818;stroke-width:1.0;"/><line style="stroke:#181818;stroke-width:1.0;" x1="278" x2="513" y1="231.8828" y2="231.8828"/><text fill="#000000" font-family="sans-serif" font-size="13" font-weight="bold" lengthAdjust="spacing" textLength="7" x="290" y="227.0264">3</text><text fill="#000000" font-family="sans-serif" font-size="13" lengthAdjust="spacing" textLength="78" x="301" y="227.0264">trucks(JSON)</text><line style="stroke:#181818;stroke-width:1.0;" x1="273" x2="315" y1="262.2344" y2="262.2344"/><line style="stroke:#181818;stroke-width:1.0;" x1="315" x2="315" y1="262.2344" y2="275.2344"/><line style="stroke:#181818;stroke-width:1.0;" x1="274" x2="315" y1="275.2344" y2="275.2344"/><polygon fill="#181818" points="284,271.2344,274,275.2344,284,279.2344,280,275.2344" style="stroke:#181818;stroke-width:1.0;"/><text fill="#000000" font-family="sans-serif" font-size="13" font-weight="bold" lengthAdjust="spacing" textLength="7" x="280" y="257.3779">4</text><text fill="#000000" font-family="sans-serif" font-size="13" lengthAdjust="spacing" textLength="211" x="291" y="257.3779">Functionality executed successfully.</text><polygon fill="#181818" points="65,301.5859,55,305.5859,65,309.5859,61,305.5859" style="stroke:#181818;stroke-width:1.0;"/><line style="stroke:#181818;stroke-width:1.0;stroke-dasharray:2.0,2.0;" x1="59" x2="267" y1="305.5859" y2="305.5859"/><text fill="#000000" font-family="sans-serif" font-size="13" font-weight="bold" lengthAdjust="spacing" textLength="7" x="71" y="300.7295">5</text><text fill="#000000" font-family="sans-serif" font-size="13" lengthAdjust="spacing" textLength="97" x="82" y="300.7295">Shows truck list.</text><!--MD5=[76a346620944c8d8d9df03c51b5f682e]
@startuml

title Lvl 2 - List Trucks

autonumber

actor "Fleet Manager" as FM
actor "<< Container >> \n Visual Interface" as SYS
actor "<< Container >> \n Logistics" as LG


activate FM
FM -> SYS : Asks to view the list of trucks.
activate SYS

SYS -> LG : GET /trucks
activate LG

LG -> SYS : trucks(JSON)
deactivate LG

SYS -> SYS : Functionality executed successfully.

SYS - -> FM : Shows truck list.
deactivate SYS

deactivate FM

@enduml

PlantUML version 1.2022.7(Mon Aug 22 18:01:30 BST 2022)
(GPL source distribution)
Java Runtime: Java(TM) SE Runtime Environment
JVM: Java HotSpot(TM) 64-Bit Server VM
Default Encoding: Cp1252
Language: pt
Country: PT
--></g></svg>