<?xml version="1.0" encoding="UTF-8" standalone="no"?><svg xmlns="http://www.w3.org/2000/svg" xmlns:xlink="http://www.w3.org/1999/xlink" contentStyleType="text/css" height="993px" preserveAspectRatio="none" style="width:862px;height:993px;background:#FFFFFF;" version="1.1" viewBox="0 0 862 993" width="862px" zoomAndPan="magnify"><defs/><g><!--MD5=[d0083cf0b2d9f17e335f85bf9624e57e]
cluster User--><g id="cluster_User"><path d="M692,20 L726,20 A3.75,3.75 0 0 1 728.5,22.5 L735.5,43.6094 L853,43.6094 A2.5,2.5 0 0 1 855.5,46.1094 L855.5,597.5 A2.5,2.5 0 0 1 853,600 L692,600 A2.5,2.5 0 0 1 689.5,597.5 L689.5,22.5 A2.5,2.5 0 0 1 692,20 " fill="none" style="stroke:#000000;stroke-width:1.5;"/><line style="stroke:#000000;stroke-width:1.5;" x1="689.5" x2="735.5" y1="43.6094" y2="43.6094"/><text fill="#000000" font-family="sans-serif" font-size="14" font-weight="bold" lengthAdjust="spacing" textLength="33" x="693.5" y="36.5332">User</text></g><!--MD5=[5acaab5cabdad998d54697815ee6a98e]
cluster Shop--><g id="cluster_Shop"><path d="M321,235 L358,235 A3.75,3.75 0 0 1 360.5,237.5 L367.5,258.6094 L613,258.6094 A2.5,2.5 0 0 1 615.5,261.1094 L615.5,603 A2.5,2.5 0 0 1 613,605.5 L321,605.5 A2.5,2.5 0 0 1 318.5,603 L318.5,237.5 A2.5,2.5 0 0 1 321,235 " fill="none" style="stroke:#000000;stroke-width:1.5;"/><line style="stroke:#000000;stroke-width:1.5;" x1="318.5" x2="367.5" y1="258.6094" y2="258.6094"/><text fill="#000000" font-family="sans-serif" font-size="14" font-weight="bold" lengthAdjust="spacing" textLength="36" x="322.5" y="251.5332">Shop</text></g><!--MD5=[3fd616f346a44cd59a91eb10b19e157c]
class User--><g id="elem_User"><rect codeLine="4" fill="#F1F1F1" height="65.6094" id="User" rx="2.5" ry="2.5" style="stroke:#181818;stroke-width:0.5;" width="61" x="742" y="56"/><ellipse cx="757" cy="72" fill="#ADD1B2" rx="11" ry="11" style="stroke:#181818;stroke-width:1.0;"/><path d="M759.7656,67.875 Q759.9219,67.6563 760.1094,67.5469 Q760.2969,67.4375 760.5156,67.4375 Q760.8906,67.4375 761.125,67.7031 Q761.3594,67.9531 761.3594,68.5625 L761.3594,70.0156 Q761.3594,70.625 761.125,70.8906 Q760.8906,71.1563 760.5156,71.1563 Q760.1719,71.1563 759.9688,70.9531 Q759.7656,70.7656 759.6563,70.25 Q759.6094,69.8906 759.4219,69.7031 Q759.0938,69.3281 758.4844,69.1094 Q757.875,68.8906 757.25,68.8906 Q756.4844,68.8906 755.8438,69.2188 Q755.2188,69.5469 754.7188,70.2969 Q754.2344,71.0469 754.2344,72.0781 L754.2344,73.1719 Q754.2344,74.4063 755.125,75.2344 Q756.0156,76.0469 757.6094,76.0469 Q758.5469,76.0469 759.2031,75.7969 Q759.5938,75.6406 760.0156,75.2031 Q760.2813,74.9375 760.4219,74.8594 Q760.5781,74.7813 760.7813,74.7813 Q761.1094,74.7813 761.3594,75.0469 Q761.625,75.2969 761.625,75.6406 Q761.625,75.9844 761.2813,76.3906 Q760.7813,76.9688 759.9844,77.2969 Q758.9063,77.75 757.6094,77.75 Q756.0938,77.75 754.8906,77.125 Q753.9063,76.625 753.2188,75.5625 Q752.5313,74.4844 752.5313,73.2031 L752.5313,72.0469 Q752.5313,70.7188 753.1406,69.5781 Q753.7656,68.4219 754.8594,67.8125 Q755.9531,67.1875 757.1875,67.1875 Q757.9219,67.1875 758.5625,67.3594 Q759.2188,67.5156 759.7656,67.875 Z " fill="#000000"/><text fill="#000000" font-family="sans-serif" font-size="14" lengthAdjust="spacing" textLength="29" x="771" y="77.7285">User</text><line style="stroke:#181818;stroke-width:0.5;" x1="743" x2="802" y1="88" y2="88"/><rect fill="none" height="6" style="stroke:#C82930;stroke-width:1.0;" width="6" x="750" y="99.3047"/><text fill="#000000" font-family="sans-serif" font-size="14" lengthAdjust="spacing" textLength="11" x="762" y="106.5332">id</text><line style="stroke:#181818;stroke-width:0.5;" x1="743" x2="802" y1="113.6094" y2="113.6094"/></g><!--MD5=[45d42ff7800d812d5f83c7d3273eb427]
class UserRole--><g id="elem_UserRole"><rect codeLine="8" fill="#F1F1F1" height="48" id="UserRole" rx="2.5" ry="2.5" style="stroke:#181818;stroke-width:0.5;" width="90" x="727.5" y="311.5"/><ellipse cx="742.5" cy="327.5" fill="#ADD1B2" rx="11" ry="11" style="stroke:#181818;stroke-width:1.0;"/><path d="M745.2656,323.375 Q745.4219,323.1563 745.6094,323.0469 Q745.7969,322.9375 746.0156,322.9375 Q746.3906,322.9375 746.625,323.2031 Q746.8594,323.4531 746.8594,324.0625 L746.8594,325.5156 Q746.8594,326.125 746.625,326.3906 Q746.3906,326.6563 746.0156,326.6563 Q745.6719,326.6563 745.4688,326.4531 Q745.2656,326.2656 745.1563,325.75 Q745.1094,325.3906 744.9219,325.2031 Q744.5938,324.8281 743.9844,324.6094 Q743.375,324.3906 742.75,324.3906 Q741.9844,324.3906 741.3438,324.7188 Q740.7188,325.0469 740.2188,325.7969 Q739.7344,326.5469 739.7344,327.5781 L739.7344,328.6719 Q739.7344,329.9063 740.625,330.7344 Q741.5156,331.5469 743.1094,331.5469 Q744.0469,331.5469 744.7031,331.2969 Q745.0938,331.1406 745.5156,330.7031 Q745.7813,330.4375 745.9219,330.3594 Q746.0781,330.2813 746.2813,330.2813 Q746.6094,330.2813 746.8594,330.5469 Q747.125,330.7969 747.125,331.1406 Q747.125,331.4844 746.7813,331.8906 Q746.2813,332.4688 745.4844,332.7969 Q744.4063,333.25 743.1094,333.25 Q741.5938,333.25 740.3906,332.625 Q739.4063,332.125 738.7188,331.0625 Q738.0313,329.9844 738.0313,328.7031 L738.0313,327.5469 Q738.0313,326.2188 738.6406,325.0781 Q739.2656,323.9219 740.3594,323.3125 Q741.4531,322.6875 742.6875,322.6875 Q743.4219,322.6875 744.0625,322.8594 Q744.7188,323.0156 745.2656,323.375 Z " fill="#000000"/><text fill="#000000" font-family="sans-serif" font-size="14" lengthAdjust="spacing" textLength="58" x="756.5" y="333.2285">UserRole</text><line style="stroke:#181818;stroke-width:0.5;" x1="728.5" x2="816.5" y1="343.5" y2="343.5"/><line style="stroke:#181818;stroke-width:0.5;" x1="728.5" x2="816.5" y1="351.5" y2="351.5"/></g><!--MD5=[461716c0d3ebd9126415403b84e51957]
class RolePermissons--><g id="elem_RolePermissons"><rect codeLine="11" fill="#F1F1F1" height="48" id="RolePermissons" rx="2.5" ry="2.5" style="stroke:#181818;stroke-width:0.5;" width="134" x="705.5" y="536"/><ellipse cx="720.5" cy="552" fill="#ADD1B2" rx="11" ry="11" style="stroke:#181818;stroke-width:1.0;"/><path d="M723.2656,547.875 Q723.4219,547.6563 723.6094,547.5469 Q723.7969,547.4375 724.0156,547.4375 Q724.3906,547.4375 724.625,547.7031 Q724.8594,547.9531 724.8594,548.5625 L724.8594,550.0156 Q724.8594,550.625 724.625,550.8906 Q724.3906,551.1563 724.0156,551.1563 Q723.6719,551.1563 723.4688,550.9531 Q723.2656,550.7656 723.1563,550.25 Q723.1094,549.8906 722.9219,549.7031 Q722.5938,549.3281 721.9844,549.1094 Q721.375,548.8906 720.75,548.8906 Q719.9844,548.8906 719.3438,549.2188 Q718.7188,549.5469 718.2188,550.2969 Q717.7344,551.0469 717.7344,552.0781 L717.7344,553.1719 Q717.7344,554.4063 718.625,555.2344 Q719.5156,556.0469 721.1094,556.0469 Q722.0469,556.0469 722.7031,555.7969 Q723.0938,555.6406 723.5156,555.2031 Q723.7813,554.9375 723.9219,554.8594 Q724.0781,554.7813 724.2813,554.7813 Q724.6094,554.7813 724.8594,555.0469 Q725.125,555.2969 725.125,555.6406 Q725.125,555.9844 724.7813,556.3906 Q724.2813,556.9688 723.4844,557.2969 Q722.4063,557.75 721.1094,557.75 Q719.5938,557.75 718.3906,557.125 Q717.4063,556.625 716.7188,555.5625 Q716.0313,554.4844 716.0313,553.2031 L716.0313,552.0469 Q716.0313,550.7188 716.6406,549.5781 Q717.2656,548.4219 718.3594,547.8125 Q719.4531,547.1875 720.6875,547.1875 Q721.4219,547.1875 722.0625,547.3594 Q722.7188,547.5156 723.2656,547.875 Z " fill="#000000"/><text fill="#000000" font-family="sans-serif" font-size="14" lengthAdjust="spacing" textLength="102" x="734.5" y="557.7285">RolePermissons</text><line style="stroke:#181818;stroke-width:0.5;" x1="706.5" x2="838.5" y1="568" y2="568"/><line style="stroke:#181818;stroke-width:0.5;" x1="706.5" x2="838.5" y1="576" y2="576"/></g><!--MD5=[c5149b4909ffd2688ff51a939867f774]
class Warehouse--><g id="elem_Warehouse"><rect codeLine="16" fill="#F1F1F1" height="129.1406" id="Warehouse" rx="2.5" ry="2.5" style="stroke:#181818;stroke-width:0.5;" width="105" x="372" y="271"/><ellipse cx="387" cy="292.3516" fill="#ADD1B2" rx="11" ry="11" style="stroke:#181818;stroke-width:1.0;"/><path d="M389.7656,288.2266 Q389.9219,288.0078 390.1094,287.8984 Q390.2969,287.7891 390.5156,287.7891 Q390.8906,287.7891 391.125,288.0547 Q391.3594,288.3047 391.3594,288.9141 L391.3594,290.3672 Q391.3594,290.9766 391.125,291.2422 Q390.8906,291.5078 390.5156,291.5078 Q390.1719,291.5078 389.9688,291.3047 Q389.7656,291.1172 389.6563,290.6016 Q389.6094,290.2422 389.4219,290.0547 Q389.0938,289.6797 388.4844,289.4609 Q387.875,289.2422 387.25,289.2422 Q386.4844,289.2422 385.8438,289.5703 Q385.2188,289.8984 384.7188,290.6484 Q384.2344,291.3984 384.2344,292.4297 L384.2344,293.5234 Q384.2344,294.7578 385.125,295.5859 Q386.0156,296.3984 387.6094,296.3984 Q388.5469,296.3984 389.2031,296.1484 Q389.5938,295.9922 390.0156,295.5547 Q390.2813,295.2891 390.4219,295.2109 Q390.5781,295.1328 390.7813,295.1328 Q391.1094,295.1328 391.3594,295.3984 Q391.625,295.6484 391.625,295.9922 Q391.625,296.3359 391.2813,296.7422 Q390.7813,297.3203 389.9844,297.6484 Q388.9063,298.1016 387.6094,298.1016 Q386.0938,298.1016 384.8906,297.4766 Q383.9063,296.9766 383.2188,295.9141 Q382.5313,294.8359 382.5313,293.5547 L382.5313,292.3984 Q382.5313,291.0703 383.1406,289.9297 Q383.7656,288.7734 384.8594,288.1641 Q385.9531,287.5391 387.1875,287.5391 Q387.9219,287.5391 388.5625,287.7109 Q389.2188,287.8672 389.7656,288.2266 Z " fill="#000000"/><text fill="#000000" font-family="sans-serif" font-size="12" font-style="italic" lengthAdjust="spacing" textLength="67" x="404" y="288.457">«entity root»</text><text fill="#000000" font-family="sans-serif" font-size="14" lengthAdjust="spacing" textLength="73" x="401" y="305.627">Warehouse</text><line style="stroke:#181818;stroke-width:0.5;" x1="373" x2="476" y1="313.7031" y2="313.7031"/><rect fill="none" height="6" style="stroke:#C82930;stroke-width:1.0;" width="6" x="380" y="325.0078"/><text fill="#000000" font-family="sans-serif" font-size="14" lengthAdjust="spacing" textLength="21" x="392" y="332.2363">city</text><rect fill="none" height="6" style="stroke:#C82930;stroke-width:1.0;" width="6" x="380" y="342.6172"/><text fill="#000000" font-family="sans-serif" font-size="14" lengthAdjust="spacing" textLength="70" x="392" y="349.8457">cityNumber</text><rect fill="none" height="6" style="stroke:#C82930;stroke-width:1.0;" width="6" x="380" y="360.2266"/><text fill="#000000" font-family="sans-serif" font-size="14" lengthAdjust="spacing" textLength="74" x="392" y="367.4551">coordinates</text><rect fill="none" height="6" style="stroke:#C82930;stroke-width:1.0;" width="6" x="380" y="377.8359"/><text fill="#000000" font-family="sans-serif" font-size="14" lengthAdjust="spacing" textLength="46" x="392" y="385.0645">altitude</text><line style="stroke:#181818;stroke-width:0.5;" x1="373" x2="476" y1="392.1406" y2="392.1406"/></g><!--MD5=[b4d3d50c0abf08df45181fececb9f04d]
class Store--><g id="elem_Store"><rect codeLine="23" fill="#F1F1F1" height="58.7031" id="Store" rx="2.5" ry="2.5" style="stroke:#181818;stroke-width:0.5;" width="95" x="335" y="530.5"/><ellipse cx="350" cy="551.8516" fill="#ADD1B2" rx="11" ry="11" style="stroke:#181818;stroke-width:1.0;"/><path d="M352.7656,547.7266 Q352.9219,547.5078 353.1094,547.3984 Q353.2969,547.2891 353.5156,547.2891 Q353.8906,547.2891 354.125,547.5547 Q354.3594,547.8047 354.3594,548.4141 L354.3594,549.8672 Q354.3594,550.4766 354.125,550.7422 Q353.8906,551.0078 353.5156,551.0078 Q353.1719,551.0078 352.9688,550.8047 Q352.7656,550.6172 352.6563,550.1016 Q352.6094,549.7422 352.4219,549.5547 Q352.0938,549.1797 351.4844,548.9609 Q350.875,548.7422 350.25,548.7422 Q349.4844,548.7422 348.8438,549.0703 Q348.2188,549.3984 347.7188,550.1484 Q347.2344,550.8984 347.2344,551.9297 L347.2344,553.0234 Q347.2344,554.2578 348.125,555.0859 Q349.0156,555.8984 350.6094,555.8984 Q351.5469,555.8984 352.2031,555.6484 Q352.5938,555.4922 353.0156,555.0547 Q353.2813,554.7891 353.4219,554.7109 Q353.5781,554.6328 353.7813,554.6328 Q354.1094,554.6328 354.3594,554.8984 Q354.625,555.1484 354.625,555.4922 Q354.625,555.8359 354.2813,556.2422 Q353.7813,556.8203 352.9844,557.1484 Q351.9063,557.6016 350.6094,557.6016 Q349.0938,557.6016 347.8906,556.9766 Q346.9063,556.4766 346.2188,555.4141 Q345.5313,554.3359 345.5313,553.0547 L345.5313,551.8984 Q345.5313,550.5703 346.1406,549.4297 Q346.7656,548.2734 347.8594,547.6641 Q348.9531,547.0391 350.1875,547.0391 Q350.9219,547.0391 351.5625,547.2109 Q352.2188,547.3672 352.7656,547.7266 Z " fill="#000000"/><text fill="#000000" font-family="sans-serif" font-size="12" font-style="italic" lengthAdjust="spacing" textLength="67" x="362" y="547.957">«entity root»</text><text fill="#000000" font-family="sans-serif" font-size="14" lengthAdjust="spacing" textLength="34" x="378.5" y="565.127">Store</text><line style="stroke:#181818;stroke-width:0.5;" x1="336" x2="429" y1="573.2031" y2="573.2031"/><line style="stroke:#181818;stroke-width:0.5;" x1="336" x2="429" y1="581.2031" y2="581.2031"/></g><!--MD5=[7ca35fa42fdd2584ef5892c05d53c42e]
class ChargingStation--><g id="elem_ChargingStation"><rect codeLine="27" fill="#F1F1F1" height="58.7031" id="ChargingStation" rx="2.5" ry="2.5" style="stroke:#181818;stroke-width:0.5;" width="134" x="465.5" y="530.5"/><ellipse cx="480.5" cy="551.8516" fill="#ADD1B2" rx="11" ry="11" style="stroke:#181818;stroke-width:1.0;"/><path d="M483.2656,547.7266 Q483.4219,547.5078 483.6094,547.3984 Q483.7969,547.2891 484.0156,547.2891 Q484.3906,547.2891 484.625,547.5547 Q484.8594,547.8047 484.8594,548.4141 L484.8594,549.8672 Q484.8594,550.4766 484.625,550.7422 Q484.3906,551.0078 484.0156,551.0078 Q483.6719,551.0078 483.4688,550.8047 Q483.2656,550.6172 483.1563,550.1016 Q483.1094,549.7422 482.9219,549.5547 Q482.5938,549.1797 481.9844,548.9609 Q481.375,548.7422 480.75,548.7422 Q479.9844,548.7422 479.3438,549.0703 Q478.7188,549.3984 478.2188,550.1484 Q477.7344,550.8984 477.7344,551.9297 L477.7344,553.0234 Q477.7344,554.2578 478.625,555.0859 Q479.5156,555.8984 481.1094,555.8984 Q482.0469,555.8984 482.7031,555.6484 Q483.0938,555.4922 483.5156,555.0547 Q483.7813,554.7891 483.9219,554.7109 Q484.0781,554.6328 484.2813,554.6328 Q484.6094,554.6328 484.8594,554.8984 Q485.125,555.1484 485.125,555.4922 Q485.125,555.8359 484.7813,556.2422 Q484.2813,556.8203 483.4844,557.1484 Q482.4063,557.6016 481.1094,557.6016 Q479.5938,557.6016 478.3906,556.9766 Q477.4063,556.4766 476.7188,555.4141 Q476.0313,554.3359 476.0313,553.0547 L476.0313,551.8984 Q476.0313,550.5703 476.6406,549.4297 Q477.2656,548.2734 478.3594,547.6641 Q479.4531,547.0391 480.6875,547.0391 Q481.4219,547.0391 482.0625,547.2109 Q482.7188,547.3672 483.2656,547.7266 Z " fill="#000000"/><text fill="#000000" font-family="sans-serif" font-size="12" font-style="italic" lengthAdjust="spacing" textLength="67" x="512" y="547.957">«entity root»</text><text fill="#000000" font-family="sans-serif" font-size="14" lengthAdjust="spacing" textLength="102" x="494.5" y="565.127">ChargingStation</text><line style="stroke:#181818;stroke-width:0.5;" x1="466.5" x2="598.5" y1="573.2031" y2="573.2031"/><line style="stroke:#181818;stroke-width:0.5;" x1="466.5" x2="598.5" y1="581.2031" y2="581.2031"/></g><!--MD5=[f2ba7f6ab60af8dd0d3e354f91729b14]
class Truck--><g id="elem_Truck"><rect codeLine="33" fill="#F1F1F1" height="164.3594" id="Truck" rx="2.5" ry="2.5" style="stroke:#181818;stroke-width:0.5;" width="173" x="7" y="7"/><ellipse cx="57.75" cy="28.3516" fill="#ADD1B2" rx="11" ry="11" style="stroke:#181818;stroke-width:1.0;"/><path d="M60.5156,24.2266 Q60.6719,24.0078 60.8594,23.8984 Q61.0469,23.7891 61.2656,23.7891 Q61.6406,23.7891 61.875,24.0547 Q62.1094,24.3047 62.1094,24.9141 L62.1094,26.3672 Q62.1094,26.9766 61.875,27.2422 Q61.6406,27.5078 61.2656,27.5078 Q60.9219,27.5078 60.7188,27.3047 Q60.5156,27.1172 60.4063,26.6016 Q60.3594,26.2422 60.1719,26.0547 Q59.8438,25.6797 59.2344,25.4609 Q58.625,25.2422 58,25.2422 Q57.2344,25.2422 56.5938,25.5703 Q55.9688,25.8984 55.4688,26.6484 Q54.9844,27.3984 54.9844,28.4297 L54.9844,29.5234 Q54.9844,30.7578 55.875,31.5859 Q56.7656,32.3984 58.3594,32.3984 Q59.2969,32.3984 59.9531,32.1484 Q60.3438,31.9922 60.7656,31.5547 Q61.0313,31.2891 61.1719,31.2109 Q61.3281,31.1328 61.5313,31.1328 Q61.8594,31.1328 62.1094,31.3984 Q62.375,31.6484 62.375,31.9922 Q62.375,32.3359 62.0313,32.7422 Q61.5313,33.3203 60.7344,33.6484 Q59.6563,34.1016 58.3594,34.1016 Q56.8438,34.1016 55.6406,33.4766 Q54.6563,32.9766 53.9688,31.9141 Q53.2813,30.8359 53.2813,29.5547 L53.2813,28.3984 Q53.2813,27.0703 53.8906,25.9297 Q54.5156,24.7734 55.6094,24.1641 Q56.7031,23.5391 57.9375,23.5391 Q58.6719,23.5391 59.3125,23.7109 Q59.9688,23.8672 60.5156,24.2266 Z " fill="#000000"/><text fill="#000000" font-family="sans-serif" font-size="12" font-style="italic" lengthAdjust="spacing" textLength="67" x="76.25" y="24.457">«entity root»</text><text fill="#000000" font-family="sans-serif" font-size="14" lengthAdjust="spacing" textLength="36" x="91.75" y="41.627">Truck</text><line style="stroke:#181818;stroke-width:0.5;" x1="8" x2="179" y1="49.7031" y2="49.7031"/><rect fill="none" height="6" style="stroke:#C82930;stroke-width:1.0;" width="6" x="15" y="61.0078"/><text fill="#000000" font-family="sans-serif" font-size="14" lengthAdjust="spacing" textLength="76" x="27" y="68.2363">licensePlate</text><rect fill="none" height="6" style="stroke:#C82930;stroke-width:1.0;" width="6" x="15" y="78.6172"/><text fill="#000000" font-family="sans-serif" font-size="14" lengthAdjust="spacing" textLength="25" x="27" y="85.8457">tare</text><rect fill="none" height="6" style="stroke:#C82930;stroke-width:1.0;" width="6" x="15" y="96.2266"/><text fill="#000000" font-family="sans-serif" font-size="14" lengthAdjust="spacing" textLength="82" x="27" y="103.4551">loadCapacity</text><rect fill="none" height="6" style="stroke:#C82930;stroke-width:1.0;" width="6" x="15" y="113.8359"/><text fill="#000000" font-family="sans-serif" font-size="14" lengthAdjust="spacing" textLength="127" x="27" y="121.0645">totalBatteryCapacity</text><rect fill="none" height="6" style="stroke:#C82930;stroke-width:1.0;" width="6" x="15" y="131.4453"/><text fill="#000000" font-family="sans-serif" font-size="14" lengthAdjust="spacing" textLength="147" x="27" y="138.6738">autonomyWithMaxLoad</text><rect fill="none" height="6" style="stroke:#C82930;stroke-width:1.0;" width="6" x="15" y="149.0547"/><text fill="#000000" font-family="sans-serif" font-size="14" lengthAdjust="spacing" textLength="88" x="27" y="156.2832">rechargeTime</text><line style="stroke:#181818;stroke-width:0.5;" x1="8" x2="179" y1="163.3594" y2="163.3594"/></g><!--MD5=[a93a86a91abc8796b23cdcc7cc3b17ff]
class TruckDriver--><g id="elem_TruckDriver"><rect codeLine="42" fill="#F1F1F1" height="58.7031" id="TruckDriver" rx="2.5" ry="2.5" style="stroke:#181818;stroke-width:0.5;" width="106" x="20.5" y="306"/><ellipse cx="35.5" cy="327.3516" fill="#ADD1B2" rx="11" ry="11" style="stroke:#181818;stroke-width:1.0;"/><path d="M38.2656,323.2266 Q38.4219,323.0078 38.6094,322.8984 Q38.7969,322.7891 39.0156,322.7891 Q39.3906,322.7891 39.625,323.0547 Q39.8594,323.3047 39.8594,323.9141 L39.8594,325.3672 Q39.8594,325.9766 39.625,326.2422 Q39.3906,326.5078 39.0156,326.5078 Q38.6719,326.5078 38.4688,326.3047 Q38.2656,326.1172 38.1563,325.6016 Q38.1094,325.2422 37.9219,325.0547 Q37.5938,324.6797 36.9844,324.4609 Q36.375,324.2422 35.75,324.2422 Q34.9844,324.2422 34.3438,324.5703 Q33.7188,324.8984 33.2188,325.6484 Q32.7344,326.3984 32.7344,327.4297 L32.7344,328.5234 Q32.7344,329.7578 33.625,330.5859 Q34.5156,331.3984 36.1094,331.3984 Q37.0469,331.3984 37.7031,331.1484 Q38.0938,330.9922 38.5156,330.5547 Q38.7813,330.2891 38.9219,330.2109 Q39.0781,330.1328 39.2813,330.1328 Q39.6094,330.1328 39.8594,330.3984 Q40.125,330.6484 40.125,330.9922 Q40.125,331.3359 39.7813,331.7422 Q39.2813,332.3203 38.4844,332.6484 Q37.4063,333.1016 36.1094,333.1016 Q34.5938,333.1016 33.3906,332.4766 Q32.4063,331.9766 31.7188,330.9141 Q31.0313,329.8359 31.0313,328.5547 L31.0313,327.3984 Q31.0313,326.0703 31.6406,324.9297 Q32.2656,323.7734 33.3594,323.1641 Q34.4531,322.5391 35.6875,322.5391 Q36.4219,322.5391 37.0625,322.7109 Q37.7188,322.8672 38.2656,323.2266 Z " fill="#000000"/><text fill="#000000" font-family="sans-serif" font-size="12" font-style="italic" lengthAdjust="spacing" textLength="67" x="53" y="323.457">«entity root»</text><text fill="#000000" font-family="sans-serif" font-size="14" lengthAdjust="spacing" textLength="74" x="49.5" y="340.627">TruckDriver</text><line style="stroke:#181818;stroke-width:0.5;" x1="21.5" x2="125.5" y1="348.7031" y2="348.7031"/><line style="stroke:#181818;stroke-width:0.5;" x1="21.5" x2="125.5" y1="356.7031" y2="356.7031"/></g><!--MD5=[fc92a9f5bb5fae84dd7fa4034e6b4444]
class Route--><g id="elem_Route"><rect codeLine="47" fill="#F1F1F1" height="164.3594" id="Route" rx="2.5" ry="2.5" style="stroke:#181818;stroke-width:0.5;" width="106" x="193.5" y="478"/><ellipse cx="213.45" cy="499.3516" fill="#ADD1B2" rx="11" ry="11" style="stroke:#181818;stroke-width:1.0;"/><path d="M216.2156,495.2266 Q216.3719,495.0078 216.5594,494.8984 Q216.7469,494.7891 216.9656,494.7891 Q217.3406,494.7891 217.575,495.0547 Q217.8094,495.3047 217.8094,495.9141 L217.8094,497.3672 Q217.8094,497.9766 217.575,498.2422 Q217.3406,498.5078 216.9656,498.5078 Q216.6219,498.5078 216.4188,498.3047 Q216.2156,498.1172 216.1063,497.6016 Q216.0594,497.2422 215.8719,497.0547 Q215.5438,496.6797 214.9344,496.4609 Q214.325,496.2422 213.7,496.2422 Q212.9344,496.2422 212.2938,496.5703 Q211.6688,496.8984 211.1688,497.6484 Q210.6844,498.3984 210.6844,499.4297 L210.6844,500.5234 Q210.6844,501.7578 211.575,502.5859 Q212.4656,503.3984 214.0594,503.3984 Q214.9969,503.3984 215.6531,503.1484 Q216.0438,502.9922 216.4656,502.5547 Q216.7313,502.2891 216.8719,502.2109 Q217.0281,502.1328 217.2313,502.1328 Q217.5594,502.1328 217.8094,502.3984 Q218.075,502.6484 218.075,502.9922 Q218.075,503.3359 217.7313,503.7422 Q217.2313,504.3203 216.4344,504.6484 Q215.3563,505.1016 214.0594,505.1016 Q212.5438,505.1016 211.3406,504.4766 Q210.3563,503.9766 209.6688,502.9141 Q208.9813,501.8359 208.9813,500.5547 L208.9813,499.3984 Q208.9813,498.0703 209.5906,496.9297 Q210.2156,495.7734 211.3094,495.1641 Q212.4031,494.5391 213.6375,494.5391 Q214.3719,494.5391 215.0125,494.7109 Q215.6688,494.8672 216.2156,495.2266 Z " fill="#000000"/><text fill="#000000" font-family="sans-serif" font-size="12" font-style="italic" lengthAdjust="spacing" textLength="67" x="226.55" y="495.457">«entity root»</text><text fill="#000000" font-family="sans-serif" font-size="14" lengthAdjust="spacing" textLength="38" x="241.05" y="512.627">Route</text><line style="stroke:#181818;stroke-width:0.5;" x1="194.5" x2="298.5" y1="520.7031" y2="520.7031"/><rect fill="none" height="6" style="stroke:#C82930;stroke-width:1.0;" width="6" x="201.5" y="532.0078"/><text fill="#000000" font-family="sans-serif" font-size="14" lengthAdjust="spacing" textLength="80" x="213.5" y="539.2363">destinationId</text><rect fill="none" height="6" style="stroke:#C82930;stroke-width:1.0;" width="6" x="201.5" y="549.6172"/><text fill="#000000" font-family="sans-serif" font-size="14" lengthAdjust="spacing" textLength="46" x="213.5" y="556.8457">originId</text><rect fill="none" height="6" style="stroke:#C82930;stroke-width:1.0;" width="6" x="201.5" y="567.2266"/><text fill="#000000" font-family="sans-serif" font-size="14" lengthAdjust="spacing" textLength="53" x="213.5" y="574.4551">distance</text><rect fill="none" height="6" style="stroke:#C82930;stroke-width:1.0;" width="6" x="201.5" y="584.8359"/><text fill="#000000" font-family="sans-serif" font-size="14" lengthAdjust="spacing" textLength="26" x="213.5" y="592.0645">time</text><rect fill="none" height="6" style="stroke:#C82930;stroke-width:1.0;" width="6" x="201.5" y="602.4453"/><text fill="#000000" font-family="sans-serif" font-size="14" lengthAdjust="spacing" textLength="44" x="213.5" y="609.6738">energy</text><rect fill="none" height="6" style="stroke:#C82930;stroke-width:1.0;" width="6" x="201.5" y="620.0547"/><text fill="#000000" font-family="sans-serif" font-size="14" lengthAdjust="spacing" textLength="62" x="213.5" y="627.2832">extraTime</text><line style="stroke:#181818;stroke-width:0.5;" x1="194.5" x2="298.5" y1="634.3594" y2="634.3594"/></g><!--MD5=[3697c748582ba6ae2da7eb985750dc04]
class Orders--><g id="elem_Orders"><rect codeLine="56" fill="#F1F1F1" height="58.7031" id="Orders" rx="2.5" ry="2.5" style="stroke:#181818;stroke-width:0.5;" width="95" x="557" y="928"/><ellipse cx="572" cy="949.3516" fill="#ADD1B2" rx="11" ry="11" style="stroke:#181818;stroke-width:1.0;"/><path d="M574.7656,945.2266 Q574.9219,945.0078 575.1094,944.8984 Q575.2969,944.7891 575.5156,944.7891 Q575.8906,944.7891 576.125,945.0547 Q576.3594,945.3047 576.3594,945.9141 L576.3594,947.3672 Q576.3594,947.9766 576.125,948.2422 Q575.8906,948.5078 575.5156,948.5078 Q575.1719,948.5078 574.9688,948.3047 Q574.7656,948.1172 574.6563,947.6016 Q574.6094,947.2422 574.4219,947.0547 Q574.0938,946.6797 573.4844,946.4609 Q572.875,946.2422 572.25,946.2422 Q571.4844,946.2422 570.8438,946.5703 Q570.2188,946.8984 569.7188,947.6484 Q569.2344,948.3984 569.2344,949.4297 L569.2344,950.5234 Q569.2344,951.7578 570.125,952.5859 Q571.0156,953.3984 572.6094,953.3984 Q573.5469,953.3984 574.2031,953.1484 Q574.5938,952.9922 575.0156,952.5547 Q575.2813,952.2891 575.4219,952.2109 Q575.5781,952.1328 575.7813,952.1328 Q576.1094,952.1328 576.3594,952.3984 Q576.625,952.6484 576.625,952.9922 Q576.625,953.3359 576.2813,953.7422 Q575.7813,954.3203 574.9844,954.6484 Q573.9063,955.1016 572.6094,955.1016 Q571.0938,955.1016 569.8906,954.4766 Q568.9063,953.9766 568.2188,952.9141 Q567.5313,951.8359 567.5313,950.5547 L567.5313,949.3984 Q567.5313,948.0703 568.1406,946.9297 Q568.7656,945.7734 569.8594,945.1641 Q570.9531,944.5391 572.1875,944.5391 Q572.9219,944.5391 573.5625,944.7109 Q574.2188,944.8672 574.7656,945.2266 Z " fill="#000000"/><text fill="#000000" font-family="sans-serif" font-size="12" font-style="italic" lengthAdjust="spacing" textLength="67" x="584" y="945.457">«entity root»</text><text fill="#000000" font-family="sans-serif" font-size="14" lengthAdjust="spacing" textLength="44" x="595.5" y="962.627">Orders</text><line style="stroke:#181818;stroke-width:0.5;" x1="558" x2="651" y1="970.7031" y2="970.7031"/><line style="stroke:#181818;stroke-width:0.5;" x1="558" x2="651" y1="978.7031" y2="978.7031"/></g><!--MD5=[6013b76828f9e37bf607739d3a6706d0]
class DeliveryPlan--><g id="elem_DeliveryPlan"><rect codeLine="62" fill="#F1F1F1" height="58.7031" id="DeliveryPlan" rx="2.5" ry="2.5" style="stroke:#181818;stroke-width:0.5;" width="111" x="162" y="306"/><ellipse cx="177" cy="327.3516" fill="#ADD1B2" rx="11" ry="11" style="stroke:#181818;stroke-width:1.0;"/><path d="M179.7656,323.2266 Q179.9219,323.0078 180.1094,322.8984 Q180.2969,322.7891 180.5156,322.7891 Q180.8906,322.7891 181.125,323.0547 Q181.3594,323.3047 181.3594,323.9141 L181.3594,325.3672 Q181.3594,325.9766 181.125,326.2422 Q180.8906,326.5078 180.5156,326.5078 Q180.1719,326.5078 179.9688,326.3047 Q179.7656,326.1172 179.6563,325.6016 Q179.6094,325.2422 179.4219,325.0547 Q179.0938,324.6797 178.4844,324.4609 Q177.875,324.2422 177.25,324.2422 Q176.4844,324.2422 175.8438,324.5703 Q175.2188,324.8984 174.7188,325.6484 Q174.2344,326.3984 174.2344,327.4297 L174.2344,328.5234 Q174.2344,329.7578 175.125,330.5859 Q176.0156,331.3984 177.6094,331.3984 Q178.5469,331.3984 179.2031,331.1484 Q179.5938,330.9922 180.0156,330.5547 Q180.2813,330.2891 180.4219,330.2109 Q180.5781,330.1328 180.7813,330.1328 Q181.1094,330.1328 181.3594,330.3984 Q181.625,330.6484 181.625,330.9922 Q181.625,331.3359 181.2813,331.7422 Q180.7813,332.3203 179.9844,332.6484 Q178.9063,333.1016 177.6094,333.1016 Q176.0938,333.1016 174.8906,332.4766 Q173.9063,331.9766 173.2188,330.9141 Q172.5313,329.8359 172.5313,328.5547 L172.5313,327.3984 Q172.5313,326.0703 173.1406,324.9297 Q173.7656,323.7734 174.8594,323.1641 Q175.9531,322.5391 177.1875,322.5391 Q177.9219,322.5391 178.5625,322.7109 Q179.2188,322.8672 179.7656,323.2266 Z " fill="#000000"/><text fill="#000000" font-family="sans-serif" font-size="12" font-style="italic" lengthAdjust="spacing" textLength="67" x="197" y="323.457">«entity root»</text><text fill="#000000" font-family="sans-serif" font-size="14" lengthAdjust="spacing" textLength="79" x="191" y="340.627">DeliveryPlan</text><line style="stroke:#181818;stroke-width:0.5;" x1="163" x2="272" y1="348.7031" y2="348.7031"/><line style="stroke:#181818;stroke-width:0.5;" x1="163" x2="272" y1="356.7031" y2="356.7031"/></g><!--MD5=[fff5db4abcb6eec6574b9ea9c3ee0eae]
class Delivery--><g id="elem_Delivery"><rect codeLine="66" fill="#F1F1F1" height="164.3594" id="Delivery" rx="2.5" ry="2.5" style="stroke:#181818;stroke-width:0.5;" width="157" x="439" y="703"/><ellipse cx="481.9" cy="724.3516" fill="#ADD1B2" rx="11" ry="11" style="stroke:#181818;stroke-width:1.0;"/><path d="M484.6656,720.2266 Q484.8219,720.0078 485.0094,719.8984 Q485.1969,719.7891 485.4156,719.7891 Q485.7906,719.7891 486.025,720.0547 Q486.2594,720.3047 486.2594,720.9141 L486.2594,722.3672 Q486.2594,722.9766 486.025,723.2422 Q485.7906,723.5078 485.4156,723.5078 Q485.0719,723.5078 484.8688,723.3047 Q484.6656,723.1172 484.5563,722.6016 Q484.5094,722.2422 484.3219,722.0547 Q483.9938,721.6797 483.3844,721.4609 Q482.775,721.2422 482.15,721.2422 Q481.3844,721.2422 480.7438,721.5703 Q480.1188,721.8984 479.6188,722.6484 Q479.1344,723.3984 479.1344,724.4297 L479.1344,725.5234 Q479.1344,726.7578 480.025,727.5859 Q480.9156,728.3984 482.5094,728.3984 Q483.4469,728.3984 484.1031,728.1484 Q484.4938,727.9922 484.9156,727.5547 Q485.1813,727.2891 485.3219,727.2109 Q485.4781,727.1328 485.6813,727.1328 Q486.0094,727.1328 486.2594,727.3984 Q486.525,727.6484 486.525,727.9922 Q486.525,728.3359 486.1813,728.7422 Q485.6813,729.3203 484.8844,729.6484 Q483.8063,730.1016 482.5094,730.1016 Q480.9938,730.1016 479.7906,729.4766 Q478.8063,728.9766 478.1188,727.9141 Q477.4313,726.8359 477.4313,725.5547 L477.4313,724.3984 Q477.4313,723.0703 478.0406,721.9297 Q478.6656,720.7734 479.7594,720.1641 Q480.8531,719.5391 482.0875,719.5391 Q482.8219,719.5391 483.4625,719.7109 Q484.1188,719.8672 484.6656,720.2266 Z " fill="#000000"/><text fill="#000000" font-family="sans-serif" font-size="12" font-style="italic" lengthAdjust="spacing" textLength="67" x="500.1" y="720.457">«entity root»</text><text fill="#000000" font-family="sans-serif" font-size="14" lengthAdjust="spacing" textLength="51" x="508.1" y="737.627">Delivery</text><line style="stroke:#181818;stroke-width:0.5;" x1="440" x2="595" y1="745.7031" y2="745.7031"/><rect fill="none" height="6" style="stroke:#C82930;stroke-width:1.0;" width="6" x="447" y="757.0078"/><text fill="#000000" font-family="sans-serif" font-size="14" lengthAdjust="spacing" textLength="60" x="459" y="764.2363">deliveryId</text><rect fill="none" height="6" style="stroke:#C82930;stroke-width:1.0;" width="6" x="447" y="774.6172"/><text fill="#000000" font-family="sans-serif" font-size="14" lengthAdjust="spacing" textLength="28" x="459" y="781.8457">date</text><rect fill="none" height="6" style="stroke:#C82930;stroke-width:1.0;" width="6" x="447" y="792.2266"/><text fill="#000000" font-family="sans-serif" font-size="14" lengthAdjust="spacing" textLength="93" x="459" y="799.4551">massDelivered</text><rect fill="none" height="6" style="stroke:#C82930;stroke-width:1.0;" width="6" x="447" y="809.8359"/><text fill="#000000" font-family="sans-serif" font-size="14" lengthAdjust="spacing" textLength="131" x="459" y="817.0645">deliveredWarehouse</text><rect fill="none" height="6" style="stroke:#C82930;stroke-width:1.0;" width="6" x="447" y="827.4453"/><text fill="#000000" font-family="sans-serif" font-size="14" lengthAdjust="spacing" textLength="96" x="459" y="834.6738">placementTime</text><rect fill="none" height="6" style="stroke:#C82930;stroke-width:1.0;" width="6" x="447" y="845.0547"/><text fill="#000000" font-family="sans-serif" font-size="14" lengthAdjust="spacing" textLength="81" x="459" y="852.2832">removalTime</text><line style="stroke:#181818;stroke-width:0.5;" x1="440" x2="595" y1="859.3594" y2="859.3594"/></g><!--MD5=[eb7e005afc732361f78a56322ea2c78d]
class SalesForecast--><g id="elem_SalesForecast"><rect codeLine="75" fill="#F1F1F1" height="58.7031" id="SalesForecast" rx="2.5" ry="2.5" style="stroke:#181818;stroke-width:0.5;" width="123" x="631" y="755.5"/><ellipse cx="646" cy="776.8516" fill="#ADD1B2" rx="11" ry="11" style="stroke:#181818;stroke-width:1.0;"/><path d="M648.7656,772.7266 Q648.9219,772.5078 649.1094,772.3984 Q649.2969,772.2891 649.5156,772.2891 Q649.8906,772.2891 650.125,772.5547 Q650.3594,772.8047 650.3594,773.4141 L650.3594,774.8672 Q650.3594,775.4766 650.125,775.7422 Q649.8906,776.0078 649.5156,776.0078 Q649.1719,776.0078 648.9688,775.8047 Q648.7656,775.6172 648.6563,775.1016 Q648.6094,774.7422 648.4219,774.5547 Q648.0938,774.1797 647.4844,773.9609 Q646.875,773.7422 646.25,773.7422 Q645.4844,773.7422 644.8438,774.0703 Q644.2188,774.3984 643.7188,775.1484 Q643.2344,775.8984 643.2344,776.9297 L643.2344,778.0234 Q643.2344,779.2578 644.125,780.0859 Q645.0156,780.8984 646.6094,780.8984 Q647.5469,780.8984 648.2031,780.6484 Q648.5938,780.4922 649.0156,780.0547 Q649.2813,779.7891 649.4219,779.7109 Q649.5781,779.6328 649.7813,779.6328 Q650.1094,779.6328 650.3594,779.8984 Q650.625,780.1484 650.625,780.4922 Q650.625,780.8359 650.2813,781.2422 Q649.7813,781.8203 648.9844,782.1484 Q647.9063,782.6016 646.6094,782.6016 Q645.0938,782.6016 643.8906,781.9766 Q642.9063,781.4766 642.2188,780.4141 Q641.5313,779.3359 641.5313,778.0547 L641.5313,776.8984 Q641.5313,775.5703 642.1406,774.4297 Q642.7656,773.2734 643.8594,772.6641 Q644.9531,772.0391 646.1875,772.0391 Q646.9219,772.0391 647.5625,772.2109 Q648.2188,772.3672 648.7656,772.7266 Z " fill="#000000"/><text fill="#000000" font-family="sans-serif" font-size="12" font-style="italic" lengthAdjust="spacing" textLength="67" x="672" y="772.957">«entity root»</text><text fill="#000000" font-family="sans-serif" font-size="14" lengthAdjust="spacing" textLength="91" x="660" y="790.127">SalesForecast</text><line style="stroke:#181818;stroke-width:0.5;" x1="632" x2="753" y1="798.2031" y2="798.2031"/><line style="stroke:#181818;stroke-width:0.5;" x1="632" x2="753" y1="806.2031" y2="806.2031"/></g><!--MD5=[cc7d6c0f493d8d9c8b5e2165f1d0e6db]
link UserRole to RolePermissons--><g id="link_UserRole_RolePermissons"><path codeLine="79" d="M772.5,359.89 C772.5,402.74 772.5,493.31 772.5,535.92 " fill="none" id="UserRole-RolePermissons" style="stroke:#181818;stroke-width:1.0;"/><text fill="#000000" font-family="sans-serif" font-size="13" lengthAdjust="spacing" textLength="23" x="773.5" y="444.4951">Has</text><text fill="#000000" font-family="sans-serif" font-size="13" lengthAdjust="spacing" textLength="7" x="764.6906" y="380.916">1</text><text fill="#000000" font-family="sans-serif" font-size="13" lengthAdjust="spacing" textLength="5" x="766.8594" y="525.2397">*</text></g><!--MD5=[dc32dc1351b98655976dc223324cbacb]
link Warehouse to ChargingStation--><g id="link_Warehouse_ChargingStation"><path codeLine="80" d="M455.45,400.26 C476.27,443.15 502.71,497.63 518.59,530.33 " fill="none" id="Warehouse-ChargingStation" style="stroke:#181818;stroke-width:1.0;"/><text fill="#000000" font-family="sans-serif" font-size="13" lengthAdjust="spacing" textLength="23" x="479.5" y="444.4951">Has</text><text fill="#000000" font-family="sans-serif" font-size="13" lengthAdjust="spacing" textLength="7" x="451.4523" y="421.7248">1</text><text fill="#000000" font-family="sans-serif" font-size="13" lengthAdjust="spacing" textLength="7" x="507.7816" y="519.6557">1</text></g><!--MD5=[1f12d177c84922ed4f166f09ee62ceaa]
link User to UserRole--><g id="link_User_UserRole"><path codeLine="81" d="M772.5,122.22 C772.5,172.27 772.5,267.51 772.5,311.35 " fill="none" id="User-UserRole" style="stroke:#181818;stroke-width:1.0;"/><text fill="#000000" font-family="sans-serif" font-size="13" lengthAdjust="spacing" textLength="23" x="773.5" y="215.4951">Has</text><text fill="#000000" font-family="sans-serif" font-size="13" lengthAdjust="spacing" textLength="5" x="767.0547" y="143.1235">*</text><text fill="#000000" font-family="sans-serif" font-size="13" lengthAdjust="spacing" textLength="7" x="764.6031" y="300.6517">1</text></g><!--MD5=[08939272ae0efa367c1cef553fa644ed]
link Warehouse to Delivery--><g id="link_Warehouse_Delivery"><path codeLine="82" d="M477.33,358.37 C523.78,380.8 588.39,420.56 617.5,478 C650.45,543.02 639.51,572.51 617.5,642 C610.76,663.27 599.56,684.11 587.05,702.99 " fill="none" id="Warehouse-Delivery" style="stroke:#181818;stroke-width:1.0;"/><text fill="#000000" font-family="sans-serif" font-size="13" lengthAdjust="spacing" textLength="7" x="484.8993" y="357.8774">1</text><text fill="#000000" font-family="sans-serif" font-size="13" lengthAdjust="spacing" textLength="5" x="588.2312" y="692.187">*</text></g><!--MD5=[70a2a41a14825c5e9fa893c42e4d7879]
link Store to Delivery--><g id="link_Store_Delivery"><path codeLine="83" d="M399.87,589.7 C417.11,618.16 444.33,663.13 468.24,702.64 " fill="none" id="Store-Delivery" style="stroke:#181818;stroke-width:1.0;"/><text fill="#000000" font-family="sans-serif" font-size="13" lengthAdjust="spacing" textLength="7" x="395.6007" y="610.6811">1</text><text fill="#000000" font-family="sans-serif" font-size="13" lengthAdjust="spacing" textLength="5" x="458.6301" y="692.0871">*</text></g><!--MD5=[c7de5df754a91bf64e26c40978e63555]
link Warehouse to Store--><g id="link_Warehouse_Store"><path codeLine="84" d="M424.68,400.23 C423.89,415.95 422.34,432.66 419.5,448 C414.17,476.76 403.13,508.29 394.49,530.37 " fill="none" id="Warehouse-Store" style="stroke:#181818;stroke-width:1.0;"/><text fill="#000000" font-family="sans-serif" font-size="13" lengthAdjust="spacing" textLength="7" x="417.3169" y="421.6915">1</text><text fill="#000000" font-family="sans-serif" font-size="13" lengthAdjust="spacing" textLength="7" x="389.3472" y="519.7045">1</text></g><!--MD5=[0862be811b61c43a62935a34933fb97a]
link Warehouse to Route--><g id="link_Warehouse_Route"><path codeLine="85" d="M371.88,355.93 C338.3,371.04 296.7,395.32 272.5,430 C262.7,444.05 256.41,460.94 252.41,477.8 " fill="none" id="Warehouse-Route" style="stroke:#181818;stroke-width:1.0;"/><text fill="#000000" font-family="sans-serif" font-size="13" lengthAdjust="spacing" textLength="34" x="273.5" y="444.4951">Origin</text><text fill="#000000" font-family="sans-serif" font-size="13" lengthAdjust="spacing" textLength="7" x="356.9881" y="355.1879">1</text><text fill="#000000" font-family="sans-serif" font-size="13" lengthAdjust="spacing" textLength="5" x="247.7137" y="467.2613">*</text></g><!--MD5=[0862be811b61c43a62935a34933fb97a]
link Warehouse to Route--><g id="link_Warehouse_Route"><path codeLine="86" d="M371.91,396.93 C362.67,407.84 353.22,419.19 344.5,430 C329.67,448.39 314.02,468.6 299.68,487.46 " fill="none" id="Warehouse-Route-1" style="stroke:#181818;stroke-width:1.0;"/><text fill="#000000" font-family="sans-serif" font-size="13" lengthAdjust="spacing" textLength="65" x="345.5" y="444.4951">Destination</text><text fill="#000000" font-family="sans-serif" font-size="13" lengthAdjust="spacing" textLength="7" x="357.0223" y="401.9535">1</text><text fill="#000000" font-family="sans-serif" font-size="13" lengthAdjust="spacing" textLength="5" x="307.51" y="473.6286">*</text></g><!--MD5=[41f384a48d92f2524d0e9c0f8c37ece9]
link Delivery to Orders--><g id="link_Delivery_Orders"><path codeLine="87" d="M558.96,867.26 C570.08,889.04 581.37,911.17 589.93,927.95 " fill="none" id="Delivery-Orders" style="stroke:#181818;stroke-width:1.0;"/><text fill="#000000" font-family="sans-serif" font-size="13" lengthAdjust="spacing" textLength="7" x="555.3408" y="888.7936">1</text><text fill="#000000" font-family="sans-serif" font-size="13" lengthAdjust="spacing" textLength="5" x="581.1959" y="917.302">*</text></g><!--MD5=[98df3c4f7e637d8412697d03824234a2]
link DeliveryPlan to Route--><g id="link_DeliveryPlan_Route"><path codeLine="88" d="M221.23,365.13 C224.93,393.54 230.78,438.4 235.92,477.82 " fill="none" id="DeliveryPlan-Route" style="stroke:#181818;stroke-width:1.0;"/><text fill="#000000" font-family="sans-serif" font-size="13" lengthAdjust="spacing" textLength="7" x="214.2753" y="386.0974">1</text><text fill="#000000" font-family="sans-serif" font-size="13" lengthAdjust="spacing" textLength="5" x="229.7551" y="467.2831">*</text></g><!--MD5=[7491fb3ab1c20b70d4554511465dd058]
link SalesForecast to Orders--><g id="link_SalesForecast_Orders"><path codeLine="89" d="M677.77,814.54 C661.53,846.01 635.54,896.36 619.28,927.87 " fill="none" id="SalesForecast-Orders" style="stroke:#181818;stroke-width:1.0;"/><text fill="#000000" font-family="sans-serif" font-size="13" lengthAdjust="spacing" textLength="7" x="667.0101" y="835.8446">1</text><text fill="#000000" font-family="sans-serif" font-size="13" lengthAdjust="spacing" textLength="5" x="616.9663" y="917.2045">*</text></g><!--MD5=[fa026bacdc1fdb94ad2f6e09eada3618]
link Truck to DeliveryPlan--><g id="link_Truck_DeliveryPlan"><path codeLine="90" d="M134.62,171.08 C158.16,217.5 186.26,272.9 202.95,305.81 " fill="none" id="Truck-DeliveryPlan" style="stroke:#181818;stroke-width:1.0;"/><text fill="#000000" font-family="sans-serif" font-size="13" lengthAdjust="spacing" textLength="7" x="131.0881" y="192.879">1</text><text fill="#000000" font-family="sans-serif" font-size="13" lengthAdjust="spacing" textLength="5" x="194.2203" y="295.1314">*</text></g><!--MD5=[69c0c315057270c77c6273af23b4531b]
link Truck to TruckDriver--><g id="link_Truck_TruckDriver"><path codeLine="91" d="M86.87,171.08 C83.07,217.5 78.54,272.9 75.85,305.81 " fill="none" id="Truck-TruckDriver" style="stroke:#181818;stroke-width:1.0;"/><text fill="#000000" font-family="sans-serif" font-size="13" lengthAdjust="spacing" textLength="5" x="81.0283" y="192.879">*</text><text fill="#000000" font-family="sans-serif" font-size="13" lengthAdjust="spacing" textLength="5" x="70.8172" y="295.1314">*</text></g><!--MD5=[172953b8e8cac207ea7c4421f849075d]
@startuml


package User <<Folder>>{
class User{
  -id
  }
  
class UserRole{
}

class RolePermissons{
}
}

package Shop <<Folder>>{
class Warehouse <<entity root>>{
  -city
  -cityNumber
  -coordinates
  -altitude
}

class Store <<entity root>>{

}

class ChargingStation <<entity root>>{
  
}
}


class Truck <<entity root>>{
  -licensePlate
  -tare
  -loadCapacity
  -totalBatteryCapacity
  -autonomyWithMaxLoad
  -rechargeTime
}

class TruckDriver <<entity root>>{
  
}


class Route <<entity root>>{
  -destinationId
  -originId
  -distance
  -time
  -energy
  -extraTime
}

class Orders <<entity root>>{
  
}



class DeliveryPlan <<entity root>>{
  
}

class Delivery <<entity root>>{
  -deliveryId
  -date
  -massDelivered
  -deliveredWarehouse
  -placementTime
  -removalTime
}

class SalesForecast <<entity root>>{
  
}

UserRole "1" - - "*"RolePermissons : Has
Warehouse "1" - - "1"ChargingStation : Has
User "*" - - "1"UserRole : Has
Warehouse "1" - - "*" Delivery
Store "1" - - "*" Delivery
Warehouse "1" - - "1" Store
Warehouse "1" - - "*" Route : Origin
Warehouse "1" - - "*" Route : Destination
Delivery "1" - - "*" Orders
DeliveryPlan "1" - - "*" Route
SalesForecast "1" - - "*" Orders
Truck "1" - - "*" DeliveryPlan
Truck "*" - - "*" TruckDriver 

@enduml

PlantUML version 1.2022.7(Mon Aug 22 18:01:30 BST 2022)
(GPL source distribution)
Java Runtime: Java(TM) SE Runtime Environment
JVM: Java HotSpot(TM) 64-Bit Server VM
Default Encoding: Cp1252
Language: pt
Country: PT
--></g></svg>