<?xml version="1.0" encoding="UTF-8" standalone="no"?><svg xmlns="http://www.w3.org/2000/svg" xmlns:xlink="http://www.w3.org/1999/xlink" contentStyleType="text/css" height="562px" preserveAspectRatio="none" style="width:639px;height:562px;background:#FFFFFF;" version="1.1" viewBox="0 0 639 562" width="639px" zoomAndPan="magnify"><defs/><g><rect fill="none" height="27.6094" id="_title" style="stroke:none;stroke-width:1.0;" width="145" x="248.75" y="10"/><text fill="#000000" font-family="sans-serif" font-size="14" font-weight="bold" lengthAdjust="spacing" textLength="135" x="253.75" y="29.5332">Lvl 2 - Delete Truck</text><rect fill="#FFFFFF" height="295.5156" style="stroke:#181818;stroke-width:1.0;" width="10" x="49" y="148.8281"/><rect fill="#FFFFFF" height="30.3516" style="stroke:#181818;stroke-width:1.0;" width="10" x="386" y="171.1797"/><rect fill="#FFFFFF" height="91.0547" style="stroke:#181818;stroke-width:1.0;" width="10" x="386" y="231.8828"/><rect fill="#FFFFFF" height="91.0547" style="stroke:#181818;stroke-width:1.0;" width="10" x="386" y="353.2891"/><rect fill="#FFFFFF" height="30.3516" style="stroke:#181818;stroke-width:1.0;" width="10" x="574" y="262.2344"/><rect fill="#FFFFFF" height="30.3516" style="stroke:#181818;stroke-width:1.0;" width="10" x="574" y="383.6406"/><line style="stroke:#181818;stroke-width:0.5;stroke-dasharray:5.0,5.0;" x1="54" x2="54" y1="138.8281" y2="462.3438"/><line style="stroke:#181818;stroke-width:0.5;stroke-dasharray:5.0,5.0;" x1="391" x2="391" y1="138.8281" y2="462.3438"/><line style="stroke:#181818;stroke-width:0.5;stroke-dasharray:5.0,5.0;" x1="578.5" x2="578.5" y1="138.8281" y2="462.3438"/><text fill="#000000" font-family="sans-serif" font-size="14" lengthAdjust="spacing" textLength="92" x="5" y="135.752">Fleet Manager</text><ellipse cx="54" cy="69.7188" fill="#E2E2F0" rx="8" ry="8" style="stroke:#181818;stroke-width:0.5;"/><path d="M54,77.7188 L54,104.7188 M41,85.7188 L67,85.7188 M54,104.7188 L41,119.7188 M54,104.7188 L67,119.7188 " fill="none" style="stroke:#181818;stroke-width:0.5;"/><text fill="#000000" font-family="sans-serif" font-size="14" lengthAdjust="spacing" textLength="92" x="5" y="475.877">Fleet Manager</text><ellipse cx="54" cy="487.4531" fill="#E2E2F0" rx="8" ry="8" style="stroke:#181818;stroke-width:0.5;"/><path d="M54,495.4531 L54,522.4531 M41,503.4531 L67,503.4531 M54,522.4531 L41,537.4531 M54,522.4531 L67,537.4531 " fill="none" style="stroke:#181818;stroke-width:0.5;"/><text fill="#000000" font-family="sans-serif" font-size="14" lengthAdjust="spacing" textLength="102" x="335" y="118.1426">&lt;&lt; Container &gt;&gt;</text><text fill="#000000" font-family="sans-serif" font-size="14" lengthAdjust="spacing" textLength="97" x="341.5" y="135.752">Visual Interface</text><ellipse cx="391" cy="52.1094" fill="#E2E2F0" rx="8" ry="8" style="stroke:#181818;stroke-width:0.5;"/><path d="M391,60.1094 L391,87.1094 M378,68.1094 L404,68.1094 M391,87.1094 L378,102.1094 M391,87.1094 L404,102.1094 " fill="none" style="stroke:#181818;stroke-width:0.5;"/><text fill="#000000" font-family="sans-serif" font-size="14" lengthAdjust="spacing" textLength="102" x="335" y="475.877">&lt;&lt; Container &gt;&gt;</text><text fill="#000000" font-family="sans-serif" font-size="14" lengthAdjust="spacing" textLength="97" x="341.5" y="493.4863">Visual Interface</text><ellipse cx="391" cy="505.0625" fill="#E2E2F0" rx="8" ry="8" style="stroke:#181818;stroke-width:0.5;"/><path d="M391,513.0625 L391,540.0625 M378,521.0625 L404,521.0625 M391,540.0625 L378,555.0625 M391,540.0625 L404,555.0625 " fill="none" style="stroke:#181818;stroke-width:0.5;"/><text fill="#000000" font-family="sans-serif" font-size="14" lengthAdjust="spacing" textLength="102" x="523" y="118.1426">&lt;&lt; Container &gt;&gt;</text><text fill="#000000" font-family="sans-serif" font-size="14" lengthAdjust="spacing" textLength="109" x="523.5" y="135.752">TruckDataMaster</text><ellipse cx="579" cy="52.1094" fill="#E2E2F0" rx="8" ry="8" style="stroke:#181818;stroke-width:0.5;"/><path d="M579,60.1094 L579,87.1094 M566,68.1094 L592,68.1094 M579,87.1094 L566,102.1094 M579,87.1094 L592,102.1094 " fill="none" style="stroke:#181818;stroke-width:0.5;"/><text fill="#000000" font-family="sans-serif" font-size="14" lengthAdjust="spacing" textLength="102" x="523" y="475.877">&lt;&lt; Container &gt;&gt;</text><text fill="#000000" font-family="sans-serif" font-size="14" lengthAdjust="spacing" textLength="109" x="523.5" y="493.4863">TruckDataMaster</text><ellipse cx="579" cy="505.0625" fill="#E2E2F0" rx="8" ry="8" style="stroke:#181818;stroke-width:0.5;"/><path d="M579,513.0625 L579,540.0625 M566,521.0625 L592,521.0625 M579,540.0625 L566,555.0625 M579,540.0625 L592,555.0625 " fill="none" style="stroke:#181818;stroke-width:0.5;"/><rect fill="#FFFFFF" height="295.5156" style="stroke:#181818;stroke-width:1.0;" width="10" x="49" y="148.8281"/><rect fill="#FFFFFF" height="30.3516" style="stroke:#181818;stroke-width:1.0;" width="10" x="386" y="171.1797"/><rect fill="#FFFFFF" height="91.0547" style="stroke:#181818;stroke-width:1.0;" width="10" x="386" y="231.8828"/><rect fill="#FFFFFF" height="91.0547" style="stroke:#181818;stroke-width:1.0;" width="10" x="386" y="353.2891"/><rect fill="#FFFFFF" height="30.3516" style="stroke:#181818;stroke-width:1.0;" width="10" x="574" y="262.2344"/><rect fill="#FFFFFF" height="30.3516" style="stroke:#181818;stroke-width:1.0;" width="10" x="574" y="383.6406"/><polygon fill="#181818" points="374,167.1797,384,171.1797,374,175.1797,378,171.1797" style="stroke:#181818;stroke-width:1.0;"/><line style="stroke:#181818;stroke-width:1.0;" x1="59" x2="380" y1="171.1797" y2="171.1797"/><text fill="#000000" font-family="sans-serif" font-size="13" font-weight="bold" lengthAdjust="spacing" textLength="7" x="66" y="166.3232">1</text><text fill="#000000" font-family="sans-serif" font-size="13" lengthAdjust="spacing" textLength="132" x="77" y="166.3232">Asks to delete a truck.</text><polygon fill="#181818" points="70,197.5313,60,201.5313,70,205.5313,66,201.5313" style="stroke:#181818;stroke-width:1.0;"/><line style="stroke:#181818;stroke-width:1.0;stroke-dasharray:2.0,2.0;" x1="64" x2="390" y1="201.5313" y2="201.5313"/><text fill="#000000" font-family="sans-serif" font-size="13" font-weight="bold" lengthAdjust="spacing" textLength="7" x="76" y="196.6748">2</text><text fill="#000000" font-family="sans-serif" font-size="13" lengthAdjust="spacing" textLength="261" x="87" y="196.6748">Ask to choose wich truck you want to delete.</text><polygon fill="#181818" points="374,227.8828,384,231.8828,374,235.8828,378,231.8828" style="stroke:#181818;stroke-width:1.0;"/><line style="stroke:#181818;stroke-width:1.0;" x1="59" x2="380" y1="231.8828" y2="231.8828"/><text fill="#000000" font-family="sans-serif" font-size="13" font-weight="bold" lengthAdjust="spacing" textLength="7" x="66" y="227.0264">3</text><text fill="#000000" font-family="sans-serif" font-size="13" lengthAdjust="spacing" textLength="103" x="77" y="227.0264">Choose the truck.</text><polygon fill="#181818" points="562,258.2344,572,262.2344,562,266.2344,566,262.2344" style="stroke:#181818;stroke-width:1.0;"/><line style="stroke:#181818;stroke-width:1.0;" x1="396" x2="568" y1="262.2344" y2="262.2344"/><text fill="#000000" font-family="sans-serif" font-size="13" font-weight="bold" lengthAdjust="spacing" textLength="7" x="403" y="257.3779">4</text><text fill="#000000" font-family="sans-serif" font-size="13" lengthAdjust="spacing" textLength="124" x="414" y="257.3779">GET truck/{matricula}</text><polygon fill="#181818" points="407,288.5859,397,292.5859,407,296.5859,403,292.5859" style="stroke:#181818;stroke-width:1.0;"/><line style="stroke:#181818;stroke-width:1.0;" x1="401" x2="578" y1="292.5859" y2="292.5859"/><text fill="#000000" font-family="sans-serif" font-size="13" font-weight="bold" lengthAdjust="spacing" textLength="7" x="413" y="287.7295">5</text><text fill="#000000" font-family="sans-serif" font-size="13" lengthAdjust="spacing" textLength="71" x="424" y="287.7295">truck(JSON)</text><polygon fill="#181818" points="70,318.9375,60,322.9375,70,326.9375,66,322.9375" style="stroke:#181818;stroke-width:1.0;"/><line style="stroke:#181818;stroke-width:1.0;stroke-dasharray:2.0,2.0;" x1="64" x2="390" y1="322.9375" y2="322.9375"/><text fill="#000000" font-family="sans-serif" font-size="13" font-weight="bold" lengthAdjust="spacing" textLength="7" x="76" y="318.0811">6</text><text fill="#000000" font-family="sans-serif" font-size="13" lengthAdjust="spacing" textLength="262" x="87" y="318.0811">Validates the data and requests confirmation.</text><polygon fill="#181818" points="374,349.2891,384,353.2891,374,357.2891,378,353.2891" style="stroke:#181818;stroke-width:1.0;"/><line style="stroke:#181818;stroke-width:1.0;" x1="59" x2="380" y1="353.2891" y2="353.2891"/><text fill="#000000" font-family="sans-serif" font-size="13" font-weight="bold" lengthAdjust="spacing" textLength="7" x="66" y="348.4326">7</text><text fill="#000000" font-family="sans-serif" font-size="13" lengthAdjust="spacing" textLength="144" x="77" y="348.4326">Confirms the information.</text><polygon fill="#181818" points="562,379.6406,572,383.6406,562,387.6406,566,383.6406" style="stroke:#181818;stroke-width:1.0;"/><line style="stroke:#181818;stroke-width:1.0;" x1="396" x2="568" y1="383.6406" y2="383.6406"/><text fill="#000000" font-family="sans-serif" font-size="13" font-weight="bold" lengthAdjust="spacing" textLength="7" x="403" y="378.7842">8</text><text fill="#000000" font-family="sans-serif" font-size="13" lengthAdjust="spacing" textLength="148" x="414" y="378.7842">DELETE truck/{matricula}</text><polygon fill="#181818" points="407,409.9922,397,413.9922,407,417.9922,403,413.9922" style="stroke:#181818;stroke-width:1.0;"/><line style="stroke:#181818;stroke-width:1.0;stroke-dasharray:2.0,2.0;" x1="401" x2="578" y1="413.9922" y2="413.9922"/><text fill="#000000" font-family="sans-serif" font-size="13" font-weight="bold" lengthAdjust="spacing" textLength="7" x="413" y="409.1357">9</text><text fill="#000000" font-family="sans-serif" font-size="13" lengthAdjust="spacing" textLength="4" x="424" y="409.1357"> </text><polygon fill="#181818" points="65,440.3438,55,444.3438,65,448.3438,61,444.3438" style="stroke:#181818;stroke-width:1.0;"/><line style="stroke:#181818;stroke-width:1.0;stroke-dasharray:2.0,2.0;" x1="59" x2="390" y1="444.3438" y2="444.3438"/><text fill="#000000" font-family="sans-serif" font-size="13" font-weight="bold" lengthAdjust="spacing" textLength="14" x="71" y="439.4873">10</text><text fill="#000000" font-family="sans-serif" font-size="13" lengthAdjust="spacing" textLength="285" x="89" y="439.4873">Saves the data and informs of operation success.</text><!--MD5=[1798faf89c31f0cf2491ed85621cb6f3]
@startuml

title Lvl 2 - Delete Truck

autonumber

actor "Fleet Manager" as FM
actor "<< Container >> \n Visual Interface" as SYS
actor "<< Container >> \n TruckDataMaster" as TDM


activate FM
FM -> SYS : Asks to delete a truck.
activate SYS
SYS - -> FM : Ask to choose wich truck you want to delete.
deactivate SYS

FM -> SYS : Choose the truck.
activate SYS

SYS -> TDM : GET truck/{matricula}
activate TDM

TDM -> SYS : truck(JSON)
deactivate TDM

SYS - -> FM : Validates the data and requests confirmation.
deactivate SYS


FM -> SYS : Confirms the information.
activate SYS

SYS -> TDM : DELETE truck/{matricula}
activate TDM
TDM - -> SYS
deactivate TDM

SYS - -> FM : Saves the data and informs of operation success.
deactivate SYS


deactivate FM

@enduml

PlantUML version 1.2022.7(Mon Aug 22 18:01:30 BST 2022)
(GPL source distribution)
Java Runtime: Java(TM) SE Runtime Environment
JVM: Java HotSpot(TM) 64-Bit Server VM
Default Encoding: Cp1252
Language: pt
Country: PT
--></g></svg>