<?xml version="1.0" encoding="UTF-8" standalone="no"?><svg xmlns="http://www.w3.org/2000/svg" xmlns:xlink="http://www.w3.org/1999/xlink" contentStyleType="text/css" height="423px" preserveAspectRatio="none" style="width:731px;height:423px;background:#FFFFFF;" version="1.1" viewBox="0 0 731 423" width="731px" zoomAndPan="magnify"><defs/><g><rect fill="none" height="27.6094" id="_title" style="stroke:none;stroke-width:1.0;" width="135" x="299.75" y="10"/><text fill="#000000" font-family="sans-serif" font-size="14" font-weight="bold" lengthAdjust="spacing" textLength="125" x="304.75" y="29.5332">Lvl 2 - List Routes</text><rect fill="#FFFFFF" height="156.7578" style="stroke:#181818;stroke-width:1.0;" width="10" x="60.5" y="148.8281"/><rect fill="#FFFFFF" height="134.4063" style="stroke:#181818;stroke-width:1.0;" width="10" x="423.5" y="171.1797"/><rect fill="#FFFFFF" height="30.3516" style="stroke:#181818;stroke-width:1.0;" width="10" x="669.5" y="201.5313"/><line style="stroke:#181818;stroke-width:0.5;stroke-dasharray:5.0,5.0;" x1="65" x2="65" y1="138.8281" y2="323.5859"/><line style="stroke:#181818;stroke-width:0.5;stroke-dasharray:5.0,5.0;" x1="428.5" x2="428.5" y1="138.8281" y2="323.5859"/><line style="stroke:#181818;stroke-width:0.5;stroke-dasharray:5.0,5.0;" x1="674.5" x2="674.5" y1="138.8281" y2="323.5859"/><text fill="#000000" font-family="sans-serif" font-size="14" lengthAdjust="spacing" textLength="115" x="5" y="135.752">Logistics Manager</text><ellipse cx="65.5" cy="69.7188" fill="#E2E2F0" rx="8" ry="8" style="stroke:#181818;stroke-width:0.5;"/><path d="M65.5,77.7188 L65.5,104.7188 M52.5,85.7188 L78.5,85.7188 M65.5,104.7188 L52.5,119.7188 M65.5,104.7188 L78.5,119.7188 " fill="none" style="stroke:#181818;stroke-width:0.5;"/><text fill="#000000" font-family="sans-serif" font-size="14" lengthAdjust="spacing" textLength="115" x="5" y="337.1191">Logistics Manager</text><ellipse cx="65.5" cy="348.6953" fill="#E2E2F0" rx="8" ry="8" style="stroke:#181818;stroke-width:0.5;"/><path d="M65.5,356.6953 L65.5,383.6953 M52.5,364.6953 L78.5,364.6953 M65.5,383.6953 L52.5,398.6953 M65.5,383.6953 L78.5,398.6953 " fill="none" style="stroke:#181818;stroke-width:0.5;"/><text fill="#000000" font-family="sans-serif" font-size="14" lengthAdjust="spacing" textLength="102" x="372.5" y="118.1426">&lt;&lt; Container &gt;&gt;</text><text fill="#000000" font-family="sans-serif" font-size="14" lengthAdjust="spacing" textLength="97" x="379" y="135.752">Visual Interface</text><ellipse cx="428.5" cy="52.1094" fill="#E2E2F0" rx="8" ry="8" style="stroke:#181818;stroke-width:0.5;"/><path d="M428.5,60.1094 L428.5,87.1094 M415.5,68.1094 L441.5,68.1094 M428.5,87.1094 L415.5,102.1094 M428.5,87.1094 L441.5,102.1094 " fill="none" style="stroke:#181818;stroke-width:0.5;"/><text fill="#000000" font-family="sans-serif" font-size="14" lengthAdjust="spacing" textLength="102" x="372.5" y="337.1191">&lt;&lt; Container &gt;&gt;</text><text fill="#000000" font-family="sans-serif" font-size="14" lengthAdjust="spacing" textLength="97" x="379" y="354.7285">Visual Interface</text><ellipse cx="428.5" cy="366.3047" fill="#E2E2F0" rx="8" ry="8" style="stroke:#181818;stroke-width:0.5;"/><path d="M428.5,374.3047 L428.5,401.3047 M415.5,382.3047 L441.5,382.3047 M428.5,401.3047 L415.5,416.3047 M428.5,401.3047 L441.5,416.3047 " fill="none" style="stroke:#181818;stroke-width:0.5;"/><text fill="#000000" font-family="sans-serif" font-size="14" lengthAdjust="spacing" textLength="102" x="618.5" y="118.1426">&lt;&lt; Container &gt;&gt;</text><text fill="#000000" font-family="sans-serif" font-size="14" lengthAdjust="spacing" textLength="55" x="646" y="135.752">Logistics</text><ellipse cx="674.5" cy="52.1094" fill="#E2E2F0" rx="8" ry="8" style="stroke:#181818;stroke-width:0.5;"/><path d="M674.5,60.1094 L674.5,87.1094 M661.5,68.1094 L687.5,68.1094 M674.5,87.1094 L661.5,102.1094 M674.5,87.1094 L687.5,102.1094 " fill="none" style="stroke:#181818;stroke-width:0.5;"/><text fill="#000000" font-family="sans-serif" font-size="14" lengthAdjust="spacing" textLength="102" x="618.5" y="337.1191">&lt;&lt; Container &gt;&gt;</text><text fill="#000000" font-family="sans-serif" font-size="14" lengthAdjust="spacing" textLength="55" x="646" y="354.7285">Logistics</text><ellipse cx="674.5" cy="366.3047" fill="#E2E2F0" rx="8" ry="8" style="stroke:#181818;stroke-width:0.5;"/><path d="M674.5,374.3047 L674.5,401.3047 M661.5,382.3047 L687.5,382.3047 M674.5,401.3047 L661.5,416.3047 M674.5,401.3047 L687.5,416.3047 " fill="none" style="stroke:#181818;stroke-width:0.5;"/><rect fill="#FFFFFF" height="156.7578" style="stroke:#181818;stroke-width:1.0;" width="10" x="60.5" y="148.8281"/><rect fill="#FFFFFF" height="134.4063" style="stroke:#181818;stroke-width:1.0;" width="10" x="423.5" y="171.1797"/><rect fill="#FFFFFF" height="30.3516" style="stroke:#181818;stroke-width:1.0;" width="10" x="669.5" y="201.5313"/><polygon fill="#181818" points="411.5,167.1797,421.5,171.1797,411.5,175.1797,415.5,171.1797" style="stroke:#181818;stroke-width:1.0;"/><line style="stroke:#181818;stroke-width:1.0;" x1="70.5" x2="417.5" y1="171.1797" y2="171.1797"/><text fill="#000000" font-family="sans-serif" font-size="13" font-weight="bold" lengthAdjust="spacing" textLength="7" x="77.5" y="166.3232">1</text><text fill="#000000" font-family="sans-serif" font-size="13" lengthAdjust="spacing" textLength="323" x="88.5" y="166.3232">Asks to view the list of routes between two warehouses.</text><polygon fill="#181818" points="657.5,197.5313,667.5,201.5313,657.5,205.5313,661.5,201.5313" style="stroke:#181818;stroke-width:1.0;"/><line style="stroke:#181818;stroke-width:1.0;" x1="433.5" x2="663.5" y1="201.5313" y2="201.5313"/><text fill="#000000" font-family="sans-serif" font-size="13" font-weight="bold" lengthAdjust="spacing" textLength="7" x="440.5" y="196.6748">2</text><text fill="#000000" font-family="sans-serif" font-size="13" lengthAdjust="spacing" textLength="70" x="451.5" y="196.6748">GET /routes</text><polygon fill="#181818" points="444.5,227.8828,434.5,231.8828,444.5,235.8828,440.5,231.8828" style="stroke:#181818;stroke-width:1.0;"/><line style="stroke:#181818;stroke-width:1.0;" x1="438.5" x2="673.5" y1="231.8828" y2="231.8828"/><text fill="#000000" font-family="sans-serif" font-size="13" font-weight="bold" lengthAdjust="spacing" textLength="7" x="450.5" y="227.0264">3</text><text fill="#000000" font-family="sans-serif" font-size="13" lengthAdjust="spacing" textLength="78" x="461.5" y="227.0264">routes(JSON)</text><line style="stroke:#181818;stroke-width:1.0;" x1="433.5" x2="475.5" y1="262.2344" y2="262.2344"/><line style="stroke:#181818;stroke-width:1.0;" x1="475.5" x2="475.5" y1="262.2344" y2="275.2344"/><line style="stroke:#181818;stroke-width:1.0;" x1="434.5" x2="475.5" y1="275.2344" y2="275.2344"/><polygon fill="#181818" points="444.5,271.2344,434.5,275.2344,444.5,279.2344,440.5,275.2344" style="stroke:#181818;stroke-width:1.0;"/><text fill="#000000" font-family="sans-serif" font-size="13" font-weight="bold" lengthAdjust="spacing" textLength="7" x="440.5" y="257.3779">4</text><text fill="#000000" font-family="sans-serif" font-size="13" lengthAdjust="spacing" textLength="211" x="451.5" y="257.3779">Functionality executed successfully.</text><polygon fill="#181818" points="76.5,301.5859,66.5,305.5859,76.5,309.5859,72.5,305.5859" style="stroke:#181818;stroke-width:1.0;"/><line style="stroke:#181818;stroke-width:1.0;stroke-dasharray:2.0,2.0;" x1="70.5" x2="427.5" y1="305.5859" y2="305.5859"/><text fill="#000000" font-family="sans-serif" font-size="13" font-weight="bold" lengthAdjust="spacing" textLength="7" x="82.5" y="300.7295">5</text><text fill="#000000" font-family="sans-serif" font-size="13" lengthAdjust="spacing" textLength="104" x="93.5" y="300.7295">Shows routes list.</text><!--MD5=[8bf5dc37e48e2a327f7735d3739db7df]
@startuml

title Lvl 2 - List Routes

autonumber

actor "Logistics Manager" as FM
actor "<< Container >> \n Visual Interface" as SYS
actor "<< Container >> \n Logistics" as TDM


activate FM
FM -> SYS : Asks to view the list of routes between two warehouses.
activate SYS

SYS -> TDM : GET /routes
activate TDM

TDM -> SYS : routes(JSON)
deactivate TDM

SYS -> SYS : Functionality executed successfully.

SYS - -> FM : Shows routes list.
deactivate SYS

deactivate FM

@enduml

PlantUML version 1.2022.7(Mon Aug 22 18:01:30 BST 2022)
(GPL source distribution)
Java Runtime: Java(TM) SE Runtime Environment
JVM: Java HotSpot(TM) 64-Bit Server VM
Default Encoding: Cp1252
Language: en
Country: GB
--></g></svg>